<?xml version="1.0" encoding="utf-8"?>
<!-- Generator: Adobe Illustrator 21.1.0, SVG Export Plug-In . SVG Version: 6.00 Build 0)  -->
<svg version="1.1" id="Capa_1" xmlns="http://www.w3.org/2000/svg" xmlns:xlink="http://www.w3.org/1999/xlink" x="0px" y="0px"
	 viewBox="0 0 3132 928.9" style="enable-background:new 0 0 3132 928.9;" xml:space="preserve">
<style type="text/css">
	.st0{clip-path:url(#XMLID_2_);}
	.st1{fill:#E5E8E8;}
</style>
<g id="XMLID_1156_">
	<defs>
		<rect id="XMLID_1157_" x="27.1" y="85.3" width="1800" height="839"/>
	</defs>
	<clipPath id="XMLID_2_">
		<use xlink:href="#XMLID_1157_"  style="overflow:visible;"/>
	</clipPath>
	<g id="XMLID_1158_" class="st0">
		<path id="XMLID_1195_" class="st1" d="M473.9,730.3c0.1-0.1,0.2-0.2,0.2-0.3v-49.2c0,0,0,0,0,0c0,0,0,0,0,0c0-0.1,0-0.1-0.1-0.2
			c0,0,0,0,0,0c0,0-0.1-0.1-0.1-0.1l-52.4-23.4c-0.2-0.1-0.4-0.1-0.5,0L61.3,830.5c0,0-0.1,0.1-0.1,0.1c0,0,0,0-0.1,0
			c0,0.1-0.1,0.1-0.1,0.2v0v0v50.4c0,0.1,0.1,0.2,0.2,0.3l50.6,25.2c0,0,0,0,0,0c0,0,0,0,0,0c0.1,0,0.2,0,0.2,0c0.1,0,0.2,0,0.2,0
			c0,0,0,0,0,0c0,0,0,0,0,0L473.9,730.3z M474.1,729.7l-361,176.2v-50.2l361-174.4V729.7z M421.6,657.8l51.5,23L112.3,855
			l-49.8-24.2L421.6,657.8z M62.1,831.2l50,24.3V906l-50-24.9V831.2z"/>
		<path id="XMLID_1190_" class="st1" d="M604.9,793c0.1-0.1,0.2-0.2,0.2-0.3v-49.2c0,0,0,0,0,0s0,0,0,0c0-0.1,0-0.1-0.1-0.2
			c0,0,0,0,0,0c0,0-0.1-0.1-0.1-0.1l-52.4-23.4c-0.2-0.1-0.4-0.1-0.5,0L192.3,893.2c0,0-0.1,0.1-0.1,0.1c0,0,0,0-0.1,0
			c0,0.1-0.1,0.1-0.1,0.2v0v0v50.4c0,0.1,0.1,0.2,0.2,0.3l50.6,25.2c0,0,0,0,0,0c0,0,0,0,0,0c0.1,0,0.2,0,0.2,0c0.1,0,0.2,0,0.2,0
			c0,0,0,0,0,0c0,0,0,0,0,0L604.9,793z M604.1,792.4l-361,176.2v-50.2l361-174.4V792.4z M552.1,720.5l51.5,23L242.9,917.7
			l-49.8-24.2L552.1,720.5z M192.1,894l50,24.3v50.5l-50-24.9V894z"/>
		<path id="XMLID_1185_" class="st1" d="M734.9,855.7c0.1-0.1,0.2-0.2,0.2-0.3v-49.2c0,0,0,0,0,0c0,0,0,0,0,0c0-0.1,0-0.1-0.1-0.2
			c0,0,0,0,0,0c0,0-0.1-0.1-0.1-0.1l-52.4-23.4c-0.2-0.1-0.4-0.1-0.5,0L322.3,956c0,0-0.1,0.1-0.1,0.1c0,0,0,0-0.1,0
			c0,0.1-0.1,0.1-0.1,0.2l0,0v0v50.4c0,0.1,0.1,0.2,0.2,0.3l50.6,25.2c0,0,0,0,0,0c0,0,0,0,0,0c0.1,0,0.2,0,0.2,0c0.1,0,0.2,0,0.2,0
			c0,0,0,0,0,0c0,0,0,0,0,0L734.9,855.7z M735.1,855.2l-361,176.2v-50.2l361-174.4V855.2z M682.7,783.3l51.5,23L373.5,980.5
			l-49.8-24.2L682.7,783.3z M323.1,956.7l50,24.3v50.5l-50-24.9V956.7z"/>
		<path id="XMLID_1180_" class="st1" d="M866,868.8C866,868.8,866,868.8,866,868.8c-0.1-0.1-0.1-0.1-0.2-0.1l-52.4-23.4
			c-0.2-0.1-0.4-0.1-0.5,0l-359.6,173.3c0,0-0.1,0.1-0.1,0.1c0,0,0,0-0.1,0c0,0.1-0.1,0.1-0.1,0.2l0,0l0,0v50.4
			c0,0.1,0.1,0.2,0.2,0.3l50.6,25.2c0,0,0,0,0,0c0,0,0,0,0,0c0.1,0,0.2,0,0.2,0c0.1,0,0.2,0,0.2,0c0,0,0,0,0,0c0,0,0,0,0,0
			l361.4-176.4c0.1-0.1,0.2-0.2,0.2-0.3V869c0,0,0,0,0,0c0,0,0,0,0,0C866.1,869,866.1,868.9,866,868.8z M813.3,846l51.5,23
			L504,1043.2l-49.8-24.2L813.3,846z M454.1,1019.5l50,24.3v50.5l-50-24.9V1019.5z M865.1,917.9l-361,176.2v-50.2l361-174.4V917.9z"
			/>
		<path id="XMLID_1175_" class="st1" d="M1802.1,569.1l0.4-0.2l-0.4-0.2v-0.3l-0.5,0.2l-359.4-173.2l-0.3-0.1l-52.4,23.4l-0.5-0.2
			v0.6l-0.4,0.2l0.4,0.2v49.1l361,176.2v0.7l0.5-0.3l0.5,0.2v-0.2l51-25.4V569.1z M1441.4,396.1l359,173l-44.8,21.7l-5,2.4
			L1389.9,419L1441.4,396.1z M1389.1,468v-48.4l309.7,149.6l51.3,24.8v50.2L1389.1,468z M1801.1,619.4l-50,24.9v-50.5l41.3-20
			l8.7-4.2V619.4z"/>
		<path id="XMLID_1169_" class="st1" d="M1671.1,631.4v-0.3l-0.5,0.2l-359.4-173.2l-0.3-0.1l-52.4,23.4l-0.5-0.2v0.3l-0.4,0.2
			l0.4,0.2v49.3l362,176.7v0.4l0-0.2l0,0.2v-0.3l51-25.4v-50.8l0.4-0.2L1671.1,631.4z M1310.8,458.8l359,173L1620,656l-195.2-94.3
			l-165.5-80L1310.8,458.8z M1259.1,530.7v-48.4l361,174.4v50.2L1259.1,530.7z M1670.1,682.2l-50,24.9v-50.5l50-24.3V682.2z"/>
		<path id="XMLID_1164_" class="st1" d="M1540.1,694.9v-1.1l-0.5,0.2l-359.4-173.2l-0.3-0.1l-52.4,23.4l-0.5-0.2v0.3l-0.4,0.2
			l0.4,0.2v49.3l362,176.7v0.4l0.5-0.2l0.5,0.2v-1l50-24.9v-49.8l0.4-0.2L1540.1,694.9z M1180.2,521.5l359,173l-49.8,24.2
			l-195.8-94.6l-164.9-79.7L1180.2,521.5z M1128.1,593.5v-48.4L1387,670.1l102.1,49.3v50.2L1128.1,593.5z M1540.1,695v49.9l-50,24.9
			v-50.5l7.1-3.4L1540.1,695z"/>
		<path id="XMLID_1159_" class="st1" d="M1410.1,756.9v-0.3l-0.5,0.2l-359.4-173.2l-0.3-0.1l-52.4,23.4l-0.5-0.2v0.3l-0.4,0.2
			l0.4,0.2v49.3l362,176.7v0.4l-0.2-0.2l0.2,0.2v-0.2l51-25.4v-50.8l0.4-0.2L1410.1,756.9z M1049.7,584.3l359,173l-49.8,24.2
			l-195.2-94.3l-165.5-80L1049.7,584.3z M998.1,656.2v-48.4l259,125.1l102,49.3v50.2L998.1,656.2z M1409.1,807.7l-50,24.9V782
			l50-24.3V807.7z"/>
	</g>
</g>
</svg>
