<?xml version="1.0" encoding="utf-8"?>
<!-- Generator: Adobe Illustrator 20.1.0, SVG Export Plug-In . SVG Version: 6.00 Build 0)  -->
<svg version="1.1" id="Layer_1" xmlns="http://www.w3.org/2000/svg" xmlns:xlink="http://www.w3.org/1999/xlink" x="0px" y="0px"
	 viewBox="0 0 49 49.4" style="enable-background:new 0 0 49 49.4;" xml:space="preserve">
<style type="text/css">
	.st0{fill:none;}
	.st1{fill:#231F20;}
	.st2{font-family:'BentonSans-Light';}
	.st3{font-size:9px;}
	.st4{fill:none;stroke:#231F20;stroke-miterlimit:10;}
</style>
<g>
	
		<ellipse transform="matrix(1.880325e-02 -0.9998 0.9998 1.880325e-02 -0.4375 46.7073)" class="st0" cx="23.6" cy="23.6" rx="23.6" ry="23.6"/>
	<text transform="matrix(0.8953 0.4455 -0.4455 0.8953 10.5315 43.3929)"><tspan x="0" y="0" class="st1 st2 st3">S</tspan><tspan x="11.4" y="-1.4" class="st1 st2 st3" rotate="-28.7">U</tspan><tspan x="21.3" y="-8.5" class="st1 st2 st3" rotate="-58.1">B</tspan><tspan x="26" y="-18.9" class="st1 st2 st3" rotate="-81.3">I</tspan><tspan x="26.4" y="-26.7" class="st1 st2 st3" rotate="-104.7">R</tspan></text>
	<g>
		<g>
			<g>
				<path class="st4" d="M16.9,21l7.1-5.1l7,5.2"/>
			</g>
			<g>
				<path class="st4" d="M16.9,28.2l7.1-5.1l7,5.2"/>
			</g>
		</g>
	</g>
	<path class="st4" d="M8.7,37.1c-4.3-4.8-6.2-11.6-4.5-18.3C6.9,8,17.9,1.5,28.7,4.2c7,1.8,12.2,6.9,14.2,13.3"/>
</g>
</svg>
