<svg version="1.1" id="footer__logo" class="footer__logo" xmlns="http://www.w3.org/2000/svg" xmlns:xlink="http://www.w3.org/1999/xlink" x="0px" y="0px" viewBox="0 0 219 40" style="enable-background:new 0 0 219 40;" xml:space="preserve">
<style type="text/css">
	.st0{fill:#FFFFFF;}
</style>
<g>
	<g>
		<polygon class="st0" points="4.9,0.5 14.4,15.7 14.4,15.7 14.4,0.5 19.1,0.5 19.1,23.1 14.1,23.1 4.7,8 4.7,8 4.7,23.1 0,23.1
			0,0.5 		"/>
		<rect x="23.4" y="0.5" class="st0" width="5" height="22.6"/>
		<path class="st0" d="M47.3,6.5c-0.3-0.5-0.7-0.9-1.1-1.2c-0.4-0.4-0.9-0.6-1.5-0.8c-0.6-0.2-1.1-0.3-1.8-0.3
			c-1.1,0-2.1,0.2-2.8,0.6c-0.8,0.4-1.4,1-1.9,1.7c-0.5,0.7-0.8,1.6-1.1,2.5c-0.2,0.9-0.3,1.9-0.3,2.9c0,0.9,0.1,1.9,0.3,2.8
			c0.2,0.9,0.6,1.7,1.1,2.4c0.5,0.7,1.1,1.3,1.9,1.7c0.8,0.4,1.7,0.6,2.8,0.6c1.5,0,2.7-0.5,3.6-1.4c0.9-0.9,1.4-2.1,1.6-3.7h4.8
			c-0.1,1.4-0.5,2.7-1,3.8c-0.5,1.1-1.2,2.1-2.1,2.9c-0.9,0.8-1.9,1.4-3,1.8c-1.2,0.4-2.4,0.6-3.8,0.6c-1.7,0-3.3-0.3-4.7-0.9
			c-1.4-0.6-2.5-1.4-3.5-2.5c-1-1.1-1.7-2.3-2.2-3.7c-0.5-1.4-0.8-3-0.8-4.6c0-1.7,0.3-3.3,0.8-4.7c0.5-1.4,1.2-2.7,2.2-3.8
			c0.9-1.1,2.1-1.9,3.5-2.5C39.6,0.3,41.2,0,42.9,0c1.2,0,2.4,0.2,3.5,0.5c1.1,0.4,2.1,0.9,3,1.6c0.9,0.7,1.6,1.5,2.2,2.5
			c0.6,1,0.9,2.2,1.1,3.5h-4.8C47.7,7.5,47.6,7,47.3,6.5"/>
		<polygon class="st0" points="73.1,0.5 73.1,4.7 61.2,4.7 61.2,9.5 72.1,9.5 72.1,13.4 61.2,13.4 61.2,18.9 73.4,18.9 73.4,23.1
			56.2,23.1 56.2,0.5 		"/>
		<polygon class="st0" points="83.7,4.7 83.7,0.5 102.2,0.5 102.2,4.7 95.5,4.7 95.5,23.1 90.5,23.1 90.5,4.7 		"/>
		<path class="st0" d="M104.6,7.2c0.5-1.4,1.2-2.7,2.2-3.8c0.9-1.1,2.1-1.9,3.5-2.5c1.4-0.6,2.9-0.9,4.7-0.9c1.8,0,3.3,0.3,4.7,0.9
			c1.4,0.6,2.5,1.5,3.5,2.5c0.9,1.1,1.7,2.3,2.2,3.8c0.5,1.4,0.8,3,0.8,4.7c0,1.6-0.3,3.2-0.8,4.6c-0.5,1.4-1.2,2.7-2.2,3.7
			c-0.9,1.1-2.1,1.9-3.5,2.5c-1.4,0.6-2.9,0.9-4.7,0.9c-1.7,0-3.3-0.3-4.7-0.9c-1.4-0.6-2.5-1.4-3.5-2.5c-0.9-1.1-1.7-2.3-2.2-3.7
			c-0.5-1.4-0.8-3-0.8-4.6C103.8,10.2,104.1,8.6,104.6,7.2 M109.1,14.7c0.2,0.9,0.6,1.7,1.1,2.4c0.5,0.7,1.1,1.3,1.9,1.7
			c0.8,0.4,1.7,0.6,2.8,0.6c1.1,0,2.1-0.2,2.8-0.6c0.8-0.4,1.4-1,1.9-1.7c0.5-0.7,0.8-1.5,1.1-2.4c0.2-0.9,0.3-1.8,0.3-2.8
			c0-1-0.1-2-0.3-2.9c-0.2-0.9-0.6-1.8-1.1-2.5c-0.5-0.7-1.1-1.3-1.9-1.7c-0.8-0.4-1.7-0.6-2.8-0.6c-1.1,0-2.1,0.2-2.8,0.6
			c-0.8,0.4-1.4,1-1.9,1.7c-0.5,0.7-0.8,1.6-1.1,2.5c-0.2,0.9-0.3,1.9-0.3,2.9C108.8,12.8,108.9,13.8,109.1,14.7"/>
		<polygon class="st0" points="143.2,0.5 143.2,9.2 152.3,9.2 152.3,0.5 157.3,0.5 157.3,23.1 152.3,23.1 152.3,13.3 143.2,13.3
			143.2,23.1 138.2,23.1 138.2,0.5 		"/>
		<path class="st0" d="M172.9,0.5l8.4,22.6h-5.2l-1.7-5h-8.4l-1.8,5h-5l8.5-22.6H172.9z M173.2,14.4l-2.8-8.3h-0.1l-2.9,8.3H173.2z"
			/>
		<polygon class="st0" points="186.8,23.1 179.5,0.5 184.6,0.5 189.6,16.4 189.7,16.4 194.8,0.5 199.9,0.5 192.4,23.1 		"/>
		<polygon class="st0" points="218.7,0.5 218.7,4.7 206.8,4.7 206.8,9.5 217.7,9.5 217.7,13.4 206.8,13.4 206.8,18.9 219,18.9
			219,23.1 201.8,23.1 201.8,0.5 		"/>
	</g>
	<path class="st0" d="M55.9,34.8c-0.1-0.2-0.2-0.3-0.4-0.4c-0.1-0.1-0.3-0.2-0.5-0.2c-0.2-0.1-0.4-0.1-0.6-0.1c-0.2,0-0.3,0-0.5,0.1
		c-0.2,0-0.3,0.1-0.5,0.2c-0.1,0.1-0.3,0.2-0.3,0.3c-0.1,0.1-0.1,0.3-0.1,0.5c0,0.2,0,0.3,0.1,0.4c0.1,0.1,0.2,0.2,0.3,0.3
		c0.1,0.1,0.3,0.1,0.4,0.2c0.2,0.1,0.3,0.1,0.4,0.1l1,0.2c0.2,0,0.4,0.1,0.6,0.2c0.2,0.1,0.4,0.2,0.6,0.3c0.2,0.1,0.3,0.3,0.4,0.5
		c0.1,0.2,0.2,0.4,0.2,0.7c0,0.3-0.1,0.6-0.2,0.8c-0.2,0.2-0.3,0.4-0.6,0.6c-0.2,0.1-0.5,0.3-0.8,0.3c-0.3,0.1-0.6,0.1-0.9,0.1
		c-0.7,0-1.3-0.2-1.8-0.5c-0.5-0.3-0.7-0.9-0.8-1.6h0.8c0,0.5,0.2,0.9,0.6,1.2c0.3,0.3,0.8,0.4,1.3,0.4c0.2,0,0.4,0,0.6-0.1
		c0.2,0,0.4-0.1,0.5-0.2c0.2-0.1,0.3-0.2,0.4-0.4c0.1-0.1,0.2-0.3,0.2-0.5c0-0.2,0-0.3-0.1-0.5c-0.1-0.1-0.2-0.2-0.3-0.3
		c-0.1-0.1-0.3-0.2-0.4-0.2c-0.2-0.1-0.3-0.1-0.5-0.1l-1-0.2c-0.2-0.1-0.5-0.1-0.7-0.2c-0.2-0.1-0.4-0.2-0.5-0.3
		c-0.2-0.1-0.3-0.3-0.4-0.5c-0.1-0.2-0.1-0.4-0.1-0.7c0-0.3,0.1-0.6,0.2-0.8c0.1-0.2,0.3-0.4,0.5-0.5c0.2-0.1,0.5-0.2,0.7-0.3
		c0.3-0.1,0.5-0.1,0.8-0.1c0.3,0,0.6,0,0.9,0.1c0.3,0.1,0.5,0.2,0.7,0.4c0.2,0.2,0.4,0.4,0.5,0.6c0.1,0.2,0.2,0.5,0.2,0.9h-0.8
		C56.1,35.2,56,35,55.9,34.8"/>
	<path class="st0" d="M58.7,37.8c0.1,0.3,0.2,0.6,0.4,0.8c0.2,0.2,0.4,0.4,0.6,0.6c0.3,0.1,0.6,0.2,0.9,0.2c0.5,0,1-0.1,1.3-0.4
		c0.3-0.3,0.5-0.7,0.6-1.1h0.8c-0.2,0.7-0.5,1.2-0.9,1.6c-0.4,0.4-1,0.6-1.8,0.6c-0.5,0-0.9-0.1-1.3-0.3c-0.4-0.2-0.6-0.4-0.9-0.7
		c-0.2-0.3-0.4-0.6-0.5-1c-0.1-0.4-0.2-0.8-0.2-1.3c0-0.4,0.1-0.8,0.2-1.2c0.1-0.4,0.3-0.7,0.5-1c0.2-0.3,0.5-0.6,0.9-0.7
		c0.4-0.2,0.8-0.3,1.3-0.3c0.5,0,0.9,0.1,1.3,0.3c0.4,0.2,0.6,0.5,0.9,0.8c0.2,0.3,0.4,0.7,0.5,1.1c0.1,0.4,0.1,0.8,0.1,1.3h-4.7
		C58.6,37.2,58.6,37.5,58.7,37.8 M62.4,35.5c-0.1-0.3-0.2-0.5-0.4-0.7c-0.2-0.2-0.4-0.4-0.6-0.5c-0.2-0.1-0.5-0.2-0.8-0.2
		c-0.3,0-0.6,0.1-0.8,0.2c-0.2,0.1-0.4,0.3-0.6,0.5c-0.2,0.2-0.3,0.4-0.4,0.7c-0.1,0.3-0.2,0.5-0.2,0.8h4
		C62.6,36,62.5,35.7,62.4,35.5"/>
	<path class="st0" d="M64.9,37.8c0.1,0.3,0.2,0.6,0.4,0.8c0.2,0.2,0.4,0.4,0.6,0.6c0.3,0.1,0.6,0.2,0.9,0.2c0.5,0,1-0.1,1.3-0.4
		c0.3-0.3,0.5-0.7,0.6-1.1h0.8c-0.2,0.7-0.5,1.2-0.9,1.6c-0.4,0.4-1,0.6-1.8,0.6c-0.5,0-0.9-0.1-1.3-0.3c-0.4-0.2-0.6-0.4-0.9-0.7
		c-0.2-0.3-0.4-0.6-0.5-1c-0.1-0.4-0.2-0.8-0.2-1.3c0-0.4,0.1-0.8,0.2-1.2c0.1-0.4,0.3-0.7,0.5-1c0.2-0.3,0.5-0.6,0.9-0.7
		c0.4-0.2,0.8-0.3,1.3-0.3c0.5,0,0.9,0.1,1.3,0.3c0.3,0.2,0.6,0.5,0.9,0.8c0.2,0.3,0.4,0.7,0.5,1.1c0.1,0.4,0.1,0.8,0.1,1.3h-4.7
		C64.8,37.2,64.8,37.5,64.9,37.8 M68.6,35.5c-0.1-0.3-0.2-0.5-0.4-0.7c-0.2-0.2-0.4-0.4-0.6-0.5c-0.2-0.1-0.5-0.2-0.8-0.2
		c-0.3,0-0.6,0.1-0.8,0.2c-0.2,0.1-0.4,0.3-0.6,0.5c-0.2,0.2-0.3,0.4-0.4,0.7c-0.1,0.3-0.2,0.5-0.2,0.8h4
		C68.8,36,68.7,35.7,68.6,35.5"/>
	<path class="st0" d="M74.6,32.5h-0.8v-1.2h0.8V32.5z M74.6,39.8h-0.8v-6.2h0.8V39.8z"/>
	<path class="st0" d="M78.5,33.6v0.6h-1.3v4.2c0,0.2,0,0.4,0.1,0.6c0.1,0.1,0.2,0.2,0.5,0.2c0.2,0,0.4,0,0.6,0v0.6
		c-0.1,0-0.2,0-0.3,0c-0.1,0-0.2,0-0.3,0c-0.5,0-0.9-0.1-1.1-0.3c-0.2-0.2-0.3-0.6-0.3-1.1v-4.2h-1.1v-0.6h1.1v-1.9h0.8v1.9H78.5z"
		/>
	<rect x="83.4" y="38.5" class="st0" width="1" height="1.3"/>
	<rect x="89.6" y="31.3" class="st0" width="0.8" height="8.5"/>
	<path class="st0" d="M95.6,33.7c0.4,0.2,0.7,0.4,0.9,0.7c0.2,0.3,0.4,0.6,0.6,1c0.1,0.4,0.2,0.8,0.2,1.3c0,0.4-0.1,0.9-0.2,1.3
		c-0.1,0.4-0.3,0.7-0.6,1c-0.2,0.3-0.6,0.5-0.9,0.7c-0.4,0.2-0.8,0.3-1.2,0.3c-0.5,0-0.9-0.1-1.2-0.3c-0.4-0.2-0.7-0.4-0.9-0.7
		c-0.2-0.3-0.4-0.6-0.6-1c-0.1-0.4-0.2-0.8-0.2-1.3c0-0.4,0.1-0.9,0.2-1.3c0.1-0.4,0.3-0.7,0.6-1c0.2-0.3,0.6-0.5,0.9-0.7
		c0.4-0.2,0.8-0.3,1.2-0.3C94.9,33.5,95.3,33.5,95.6,33.7 M93.4,34.3c-0.3,0.1-0.5,0.4-0.7,0.6c-0.2,0.2-0.3,0.5-0.4,0.8
		c-0.1,0.3-0.1,0.6-0.1,1c0,0.3,0,0.6,0.1,1c0.1,0.3,0.2,0.6,0.4,0.8c0.2,0.2,0.4,0.4,0.7,0.6c0.3,0.2,0.6,0.2,0.9,0.2
		c0.4,0,0.7-0.1,0.9-0.2c0.3-0.2,0.5-0.4,0.7-0.6c0.2-0.2,0.3-0.5,0.4-0.8c0.1-0.3,0.1-0.6,0.1-1c0-0.3,0-0.6-0.1-1
		c-0.1-0.3-0.2-0.6-0.4-0.8c-0.2-0.2-0.4-0.4-0.7-0.6c-0.3-0.2-0.6-0.2-0.9-0.2C94,34.1,93.7,34.2,93.4,34.3"/>
	<polygon class="st0" points="98.6,33.6 100.5,39 100.5,39 102.4,33.6 103.2,33.6 100.9,39.8 100.1,39.8 97.7,33.6 	"/>
	<path class="st0" d="M104.5,37.8c0.1,0.3,0.2,0.6,0.4,0.8c0.2,0.2,0.4,0.4,0.6,0.6c0.3,0.1,0.6,0.2,0.9,0.2c0.5,0,1-0.1,1.3-0.4
		c0.3-0.3,0.5-0.7,0.6-1.1h0.8c-0.2,0.7-0.5,1.2-0.9,1.6c-0.4,0.4-1,0.6-1.8,0.6c-0.5,0-0.9-0.1-1.3-0.3c-0.4-0.2-0.6-0.4-0.9-0.7
		c-0.2-0.3-0.4-0.6-0.5-1c-0.1-0.4-0.2-0.8-0.2-1.3c0-0.4,0.1-0.8,0.2-1.2c0.1-0.4,0.3-0.7,0.5-1c0.2-0.3,0.5-0.6,0.9-0.7
		c0.4-0.2,0.8-0.3,1.3-0.3c0.5,0,0.9,0.1,1.3,0.3c0.4,0.2,0.6,0.5,0.9,0.8c0.2,0.3,0.4,0.7,0.5,1.1c0.1,0.4,0.1,0.8,0.1,1.3h-4.7
		C104.4,37.2,104.4,37.5,104.5,37.8 M108.2,35.5c-0.1-0.3-0.2-0.5-0.4-0.7c-0.2-0.2-0.4-0.4-0.6-0.5c-0.2-0.1-0.5-0.2-0.8-0.2
		c-0.3,0-0.6,0.1-0.8,0.2c-0.2,0.1-0.4,0.3-0.6,0.5c-0.2,0.2-0.3,0.4-0.4,0.7c-0.1,0.3-0.2,0.5-0.2,0.8h4
		C108.4,36,108.3,35.7,108.2,35.5"/>
	<path class="st0" d="M114.2,32.5h-0.8v-1.2h0.8V32.5z M114.2,39.8h-0.8v-6.2h0.8V39.8z"/>
	<path class="st0" d="M118.1,33.6v0.6h-1.3v4.2c0,0.2,0,0.4,0.1,0.6c0.1,0.1,0.2,0.2,0.5,0.2c0.2,0,0.4,0,0.6,0v0.6
		c-0.1,0-0.2,0-0.3,0c-0.1,0-0.2,0-0.3,0c-0.5,0-0.9-0.1-1.1-0.3c-0.2-0.2-0.3-0.6-0.3-1.1v-4.2H115v-0.6h1.1v-1.9h0.8v1.9H118.1z"
		/>
	<rect x="123" y="38.5" class="st0" width="1" height="1.3"/>
	<path class="st0" d="M132.7,34.8c-0.1-0.2-0.2-0.3-0.4-0.4c-0.1-0.1-0.3-0.2-0.5-0.2c-0.2-0.1-0.4-0.1-0.6-0.1
		c-0.2,0-0.3,0-0.5,0.1c-0.2,0-0.3,0.1-0.5,0.2c-0.1,0.1-0.3,0.2-0.3,0.3c-0.1,0.1-0.1,0.3-0.1,0.5c0,0.2,0,0.3,0.1,0.4
		c0.1,0.1,0.2,0.2,0.3,0.3c0.1,0.1,0.3,0.1,0.4,0.2c0.2,0.1,0.3,0.1,0.4,0.1l1,0.2c0.2,0,0.4,0.1,0.6,0.2c0.2,0.1,0.4,0.2,0.6,0.3
		c0.2,0.1,0.3,0.3,0.4,0.5c0.1,0.2,0.2,0.4,0.2,0.7c0,0.3-0.1,0.6-0.2,0.8c-0.2,0.2-0.3,0.4-0.6,0.6c-0.2,0.1-0.5,0.3-0.8,0.3
		c-0.3,0.1-0.6,0.1-0.9,0.1c-0.7,0-1.3-0.2-1.8-0.5c-0.5-0.3-0.7-0.9-0.8-1.6h0.8c0,0.5,0.2,0.9,0.6,1.2c0.3,0.3,0.8,0.4,1.3,0.4
		c0.2,0,0.4,0,0.6-0.1c0.2,0,0.4-0.1,0.5-0.2c0.2-0.1,0.3-0.2,0.4-0.4c0.1-0.1,0.2-0.3,0.2-0.5c0-0.2,0-0.3-0.1-0.5
		c-0.1-0.1-0.2-0.2-0.3-0.3c-0.1-0.1-0.3-0.2-0.4-0.2c-0.2-0.1-0.3-0.1-0.5-0.1l-1-0.2c-0.2-0.1-0.5-0.1-0.7-0.2
		c-0.2-0.1-0.4-0.2-0.5-0.3c-0.2-0.1-0.3-0.3-0.4-0.5c-0.1-0.2-0.1-0.4-0.1-0.7c0-0.3,0.1-0.6,0.2-0.8c0.1-0.2,0.3-0.4,0.5-0.5
		c0.2-0.1,0.5-0.2,0.7-0.3c0.3-0.1,0.5-0.1,0.8-0.1c0.3,0,0.6,0,0.9,0.1c0.3,0.1,0.5,0.2,0.7,0.4c0.2,0.2,0.4,0.4,0.5,0.6
		c0.1,0.2,0.2,0.5,0.2,0.9h-0.8C132.9,35.2,132.8,35,132.7,34.8"/>
	<path class="st0" d="M135.7,31.3v3.4h0c0.1-0.4,0.4-0.7,0.8-0.9c0.4-0.2,0.8-0.3,1.2-0.3c0.4,0,0.8,0.1,1.1,0.2
		c0.3,0.1,0.5,0.3,0.7,0.5c0.2,0.2,0.3,0.4,0.4,0.7c0.1,0.3,0.1,0.6,0.1,1v4h-0.8V36c0-0.3,0-0.5-0.1-0.7c0-0.2-0.1-0.4-0.3-0.6
		c-0.1-0.2-0.3-0.3-0.5-0.4c-0.2-0.1-0.5-0.1-0.8-0.1c-0.3,0-0.6,0.1-0.8,0.2c-0.2,0.1-0.4,0.3-0.6,0.4c-0.2,0.2-0.3,0.4-0.4,0.7
		c-0.1,0.3-0.1,0.5-0.1,0.8v3.6h-0.8v-8.5H135.7z"/>
	<path class="st0" d="M141.5,34.6c0.1-0.3,0.3-0.5,0.5-0.6c0.2-0.2,0.5-0.3,0.8-0.4c0.3-0.1,0.6-0.1,1-0.1c0.3,0,0.5,0,0.8,0.1
		c0.3,0,0.5,0.1,0.7,0.3c0.2,0.1,0.4,0.3,0.5,0.6c0.1,0.3,0.2,0.6,0.2,1v3.3c0,0.3,0.1,0.5,0.4,0.5c0.1,0,0.2,0,0.2,0v0.6
		c-0.1,0-0.2,0-0.2,0c-0.1,0-0.2,0-0.3,0c-0.2,0-0.3,0-0.5-0.1c-0.1-0.1-0.2-0.1-0.3-0.2c-0.1-0.1-0.1-0.2-0.1-0.3
		c0-0.1,0-0.3,0-0.4h0c-0.1,0.2-0.3,0.4-0.4,0.5c-0.1,0.2-0.3,0.3-0.5,0.4c-0.2,0.1-0.4,0.2-0.6,0.2c-0.2,0.1-0.5,0.1-0.8,0.1
		c-0.3,0-0.6,0-0.8-0.1c-0.2-0.1-0.5-0.2-0.7-0.3c-0.2-0.1-0.3-0.3-0.4-0.6c-0.1-0.2-0.2-0.5-0.2-0.8c0-0.4,0.1-0.8,0.3-1
		c0.2-0.2,0.4-0.4,0.8-0.6c0.3-0.1,0.7-0.2,1.1-0.3c0.4,0,0.8-0.1,1.2-0.1c0.2,0,0.3,0,0.4-0.1c0.1,0,0.2-0.1,0.3-0.1
		c0.1-0.1,0.1-0.1,0.2-0.2c0-0.1,0.1-0.2,0.1-0.4c0-0.3,0-0.5-0.1-0.6c-0.1-0.2-0.2-0.3-0.3-0.4c-0.1-0.1-0.3-0.2-0.5-0.2
		c-0.2,0-0.4-0.1-0.6-0.1c-0.5,0-0.9,0.1-1.2,0.3c-0.3,0.2-0.5,0.6-0.5,1.1h-0.8C141.3,35.2,141.4,34.8,141.5,34.6 M145.3,36.4
		c0,0.1-0.1,0.2-0.3,0.2c-0.1,0-0.3,0.1-0.4,0.1c-0.3,0.1-0.6,0.1-1,0.1c-0.3,0-0.6,0.1-0.9,0.2c-0.3,0.1-0.5,0.2-0.7,0.4
		c-0.2,0.2-0.3,0.4-0.3,0.7c0,0.2,0,0.4,0.1,0.5c0.1,0.2,0.2,0.3,0.3,0.4c0.1,0.1,0.3,0.2,0.4,0.2c0.2,0.1,0.3,0.1,0.5,0.1
		c0.3,0,0.6,0,0.8-0.1c0.3-0.1,0.5-0.2,0.7-0.4c0.2-0.2,0.4-0.4,0.5-0.6c0.1-0.2,0.2-0.5,0.2-0.8L145.3,36.4L145.3,36.4z"/>
	<path class="st0" d="M148.2,33.6v1.4h0c0.2-0.5,0.5-0.9,0.9-1.2c0.4-0.3,0.9-0.4,1.4-0.4v0.8c-0.3,0-0.7,0-0.9,0.1
		c-0.3,0.1-0.5,0.3-0.7,0.5c-0.2,0.2-0.4,0.4-0.5,0.7c-0.1,0.3-0.2,0.6-0.2,0.9v3.3h-0.8v-6.2H148.2z"/>
	<path class="st0" d="M151.6,37.8c0.1,0.3,0.2,0.6,0.4,0.8c0.2,0.2,0.4,0.4,0.6,0.6c0.3,0.1,0.6,0.2,0.9,0.2c0.6,0,1-0.1,1.3-0.4
		c0.3-0.3,0.5-0.7,0.6-1.1h0.8c-0.2,0.7-0.5,1.2-0.9,1.6c-0.4,0.4-1,0.6-1.8,0.6c-0.5,0-0.9-0.1-1.3-0.3c-0.4-0.2-0.6-0.4-0.9-0.7
		c-0.2-0.3-0.4-0.6-0.5-1c-0.1-0.4-0.2-0.8-0.2-1.3c0-0.4,0.1-0.8,0.2-1.2c0.1-0.4,0.3-0.7,0.5-1c0.2-0.3,0.5-0.6,0.9-0.7
		c0.4-0.2,0.8-0.3,1.3-0.3c0.5,0,0.9,0.1,1.3,0.3c0.3,0.2,0.6,0.5,0.9,0.8c0.2,0.3,0.4,0.7,0.5,1.1c0.1,0.4,0.1,0.8,0.1,1.3h-4.7
		C151.5,37.2,151.6,37.5,151.6,37.8 M155.4,35.5c-0.1-0.3-0.2-0.5-0.4-0.7c-0.2-0.2-0.4-0.4-0.6-0.5c-0.2-0.1-0.5-0.2-0.8-0.2
		c-0.3,0-0.6,0.1-0.8,0.2c-0.2,0.1-0.4,0.3-0.6,0.5c-0.2,0.2-0.3,0.4-0.4,0.7c-0.1,0.3-0.2,0.5-0.2,0.8h4
		C155.5,36,155.5,35.7,155.4,35.5"/>
	<path class="st0" d="M161.4,32.5h-0.8v-1.2h0.8V32.5z M161.4,39.8h-0.8v-6.2h0.8V39.8z"/>
	<path class="st0" d="M165.3,33.6v0.6H164v4.2c0,0.2,0,0.4,0.1,0.6c0.1,0.1,0.2,0.2,0.5,0.2c0.2,0,0.4,0,0.6,0v0.6
		c-0.1,0-0.2,0-0.3,0c-0.1,0-0.2,0-0.3,0c-0.5,0-0.9-0.1-1.1-0.3c-0.2-0.2-0.3-0.6-0.3-1.1v-4.2h-1.1v-0.6h1.1v-1.9h0.8v1.9H165.3z"
		/>
</g>
</svg>
