<?xml version="1.0" encoding="utf-8"?>
<!-- Generator: Adobe Illustrator 20.1.0, SVG Export Plug-In . SVG Version: 6.00 Build 0)  -->
<svg version="1.1" id="" xmlns="http://www.w3.org/2000/svg" xmlns:xlink="http://www.w3.org/1999/xlink" x="0px" y="0px"
	 viewBox="0 0 75.5 75.1" style="enable-background:new 0 0 75.5 75.1;" xml:space="preserve">
<style type="text/css">
	.st0{fill:none;stroke:#231F20;stroke-miterlimit:10;}
	.st1{fill:#231F20;}
</style>
<g>
	<path class="st0" d="M60.9,12.4C52.8,3.1,40-1.6,27.1,1.4C8.6,5.7-2.9,24.2,1.4,42.7c1.3,5.6,3.9,10.5,7.4,14.6"/>
	<g>
		<g>
			<path class="st1" d="M15.2,60.1l2.2,1.5c1.5,1,2.2,2.2,1.2,3.7c-0.7,1.1-1.8,1.4-3,1l-0.3,4.4l-1-0.7l0.3-4.2l-1.3-0.9l-2,3
				l-0.9-0.6L15.2,60.1z M15,64.9c1.1,0.7,2,0.7,2.7-0.2c0.6-0.9,0.2-1.7-0.9-2.4l-1.2-0.8l-1.8,2.7L15,64.9z"/>
			<path class="st1" d="M25.6,65.5l4.8,1.1l-0.2,0.9l-3.8-0.9l-0.6,2.6l3.2,0.7l-0.2,0.9l-3.2-0.7l-0.7,3.1l3.9,0.9l-0.2,0.9l-5-1.1
				L25.6,65.5z"/>
			<path class="st1" d="M36.8,71.2c-0.4-2.7,1-4.7,3.3-5c1.2-0.2,2,0.2,2.6,0.7l-0.5,0.8c-0.5-0.4-1.1-0.7-2-0.5
				c-1.7,0.3-2.6,1.7-2.3,3.9c0.3,2.1,1.5,3.4,3.4,3.1c0.6-0.1,1.2-0.4,1.5-0.7l-0.3-2.2l-1.8,0.3l-0.1-0.9l2.8-0.4l0.5,3.6
				c-0.5,0.7-1.3,1.2-2.5,1.4C39.1,75.4,37.2,74,36.8,71.2z"/>
			<path class="st1" d="M50.2,63l1.1-0.6l6.8,6.1L57,69l-2-1.9l-2.7,1.6l0.6,2.7l-1,0.6L50.2,63z M52.1,67.8l2.3-1.3l-1-0.9
				c-0.7-0.7-1.5-1.4-2.2-2.1l0,0c0.3,1,0.5,2,0.7,3L52.1,67.8z"/>
			<path class="st1" d="M57.9,57.1l0.7-0.8l5.9,5l2.4-2.9l0.7,0.6l-3.2,3.7L57.9,57.1z"/>
			<path class="st1" d="M64.6,46.6l0.4-1.2l9.1,0.3l-0.4,1.1L71,46.7l-1.1,2.9l2.2,1.7l-0.4,1L64.6,46.6z M69.2,49l0.9-2.4l-1.4-0.1
				c-1,0-2-0.1-3-0.2l0,0c0.8,0.6,1.6,1.2,2.4,1.8L69.2,49z"/>
			<path class="st1" d="M66.9,37.2l0-2.2c-0.1-2.7,1.5-4.1,4.2-4.2c2.8-0.1,4.4,1.3,4.4,3.9l0,2.2L66.9,37.2z M74.6,35
				c0-2-1.3-3-3.5-3c-2.2,0-3.4,1.1-3.3,3.1l0,1l6.8-0.1L74.6,35z"/>
			<path class="st1" d="M69.5,23.8c-2.5,1.1-4.7,0.4-5.5-1.6s0.1-4.1,2.6-5.2c2.5-1.1,4.7-0.4,5.6,1.6C73,20.6,72.1,22.7,69.5,23.8z
				 M67,18.1c-2,0.9-2.8,2.3-2.2,3.7c0.6,1.4,2.2,1.8,4.2,0.9c2-0.9,2.9-2.4,2.2-3.8C70.7,17.6,69,17.2,67,18.1z"/>
		</g>
	</g>
	<g>
		<g>
			<path class="st0" d="M36.6,26.6C37.9,23,39,17,35.3,17c-3.8,0-2.6,6.1-1.3,9.6H36.6z"/>
			<path class="st0" d="M41.5,26.6c2.1-1.4,3.6-3.2,2.1-4.8c-2.3-2.6-5.7,1.8-7.4,4.8H41.5z"/>
			<path class="st0" d="M29.2,26.6h5.3c-1.7-3-5.2-7.4-7.4-4.8C25.6,23.4,27.1,25.2,29.2,26.6z"/>
			<g>
				<rect x="25.7" y="26.6" class="st0" width="19.1" height="19"/>
			</g>
		</g>
		<line class="st0" x1="35.3" y1="26.6" x2="35.3" y2="45.6"/>
		<line class="st0" x1="44.8" y1="35.6" x2="25.7" y2="35.6"/>
	</g>
</g>
</svg>
