<svg version="1.1" id="logo__negro" xmlns="http://www.w3.org/2000/svg" xmlns:xlink="http://www.w3.org/1999/xlink" x="0px" y="0px"
	 viewBox="0 0 273.7 50" style="enable-background:new 0 0 273.7 50;" xml:space="preserve">
<g>
	<g>
		<polygon class="st0" points="6.2,0.7 18,19.6 18,19.6 18,0.7 23.8,0.7 23.8,28.9 17.6,28.9 5.9,10 5.8,10 5.8,28.9 0,28.9 0,0.7
					"/>
		<rect x="29.3" y="0.7" class="st0" width="6.2" height="28.2"/>
		<path class="st0" d="M59.1,8.2c-0.4-0.6-0.8-1.1-1.4-1.6c-0.6-0.4-1.2-0.8-1.9-1c-0.7-0.2-1.4-0.4-2.2-0.4c-1.4,0-2.6,0.3-3.6,0.8
			c-1,0.5-1.8,1.3-2.4,2.2c-0.6,0.9-1,1.9-1.3,3.1c-0.3,1.2-0.4,2.4-0.4,3.6c0,1.2,0.1,2.3,0.4,3.5c0.3,1.1,0.7,2.1,1.3,3
			c0.6,0.9,1.4,1.6,2.4,2.2c1,0.5,2.2,0.8,3.6,0.8c1.9,0,3.4-0.6,4.5-1.7c1.1-1.2,1.7-2.7,2-4.6h6c-0.2,1.8-0.6,3.4-1.2,4.8
			c-0.7,1.4-1.5,2.6-2.6,3.6c-1.1,1-2.3,1.8-3.8,2.3c-1.4,0.5-3,0.8-4.8,0.8c-2.2,0-4.1-0.4-5.8-1.1c-1.7-0.8-3.2-1.8-4.4-3.1
			c-1.2-1.3-2.1-2.9-2.7-4.6c-0.6-1.8-0.9-3.7-0.9-5.8c0-2.1,0.3-4.1,0.9-5.9c0.6-1.8,1.5-3.4,2.7-4.7c1.2-1.3,2.6-2.4,4.4-3.2
			C49.5,0.4,51.5,0,53.6,0c1.6,0,3,0.2,4.4,0.7c1.4,0.4,2.6,1.1,3.7,2c1.1,0.9,2,1.9,2.7,3.2c0.7,1.3,1.2,2.7,1.3,4.3h-6
			C59.7,9.5,59.4,8.8,59.1,8.2"/>
		<polygon class="st0" points="91.4,0.7 91.4,5.9 76.5,5.9 76.5,11.9 90.2,11.9 90.2,16.8 76.5,16.8 76.5,23.7 91.7,23.7 91.7,28.9
			70.3,28.9 70.3,0.7 		"/>
		<polygon class="st0" points="104.7,5.9 104.7,0.7 127.8,0.7 127.8,5.9 119.3,5.9 119.3,28.9 113.1,28.9 113.1,5.9 		"/>
		<path class="st0" d="M130.8,9c0.6-1.8,1.5-3.4,2.7-4.7c1.2-1.3,2.6-2.4,4.4-3.2c1.7-0.8,3.7-1.1,5.8-1.1c2.2,0,4.1,0.4,5.9,1.1
			c1.7,0.8,3.2,1.8,4.3,3.2c1.2,1.3,2.1,2.9,2.7,4.7c0.6,1.8,0.9,3.8,0.9,5.9c0,2.1-0.3,4-0.9,5.8c-0.6,1.8-1.5,3.3-2.7,4.6
			c-1.2,1.3-2.6,2.4-4.3,3.1c-1.7,0.8-3.7,1.1-5.9,1.1c-2.2,0-4.1-0.4-5.8-1.1c-1.7-0.7-3.2-1.8-4.4-3.1c-1.2-1.3-2.1-2.9-2.7-4.6
			c-0.6-1.8-0.9-3.7-0.9-5.8C129.8,12.8,130.1,10.8,130.8,9 M136.4,18.4c0.3,1.1,0.7,2.1,1.3,3c0.6,0.9,1.4,1.6,2.4,2.2
			c1,0.5,2.2,0.8,3.6,0.8c1.4,0,2.6-0.3,3.6-0.8c1-0.5,1.8-1.3,2.4-2.2c0.6-0.9,1-1.9,1.3-3c0.3-1.1,0.4-2.3,0.4-3.5
			c0-1.2-0.1-2.4-0.4-3.6c-0.3-1.2-0.7-2.2-1.3-3.1c-0.6-0.9-1.4-1.6-2.4-2.2c-1-0.5-2.2-0.8-3.6-0.8c-1.4,0-2.6,0.3-3.6,0.8
			c-1,0.5-1.8,1.3-2.4,2.2c-0.6,0.9-1,1.9-1.3,3.1c-0.3,1.2-0.4,2.4-0.4,3.6C136,16.1,136.2,17.3,136.4,18.4"/>
		<polygon class="st0" points="179,0.7 179,11.5 190.4,11.5 190.4,0.7 196.6,0.7 196.6,28.9 190.4,28.9 190.4,16.7 179,16.7
			179,28.9 172.8,28.9 172.8,0.7 		"/>
		<path class="st0" d="M216.2,0.7l10.6,28.2h-6.4l-2.1-6.3h-10.6l-2.2,6.3h-6.2l10.7-28.2H216.2z M216.5,18L213,7.6h-0.1L209.2,18
			H216.5z"/>
		<polygon class="st0" points="233.5,28.9 224.4,0.7 230.7,0.7 237,20.5 237.1,20.5 243.5,0.7 249.9,0.7 240.5,28.9 		"/>
		<polygon class="st0" points="273.4,0.7 273.4,5.9 258.5,5.9 258.5,11.9 272.2,11.9 272.2,16.8 258.5,16.8 258.5,23.7 273.7,23.7
			273.7,28.9 252.3,28.9 252.3,0.7 		"/>
	</g>
	<path class="st0" d="M69.9,43.6c-0.1-0.2-0.3-0.4-0.4-0.5c-0.2-0.1-0.4-0.2-0.6-0.3c-0.2-0.1-0.5-0.1-0.8-0.1c-0.2,0-0.4,0-0.6,0.1
		c-0.2,0-0.4,0.1-0.6,0.2c-0.2,0.1-0.3,0.2-0.4,0.4c-0.1,0.2-0.2,0.4-0.2,0.6c0,0.2,0.1,0.4,0.2,0.5c0.1,0.1,0.2,0.3,0.4,0.4
		c0.2,0.1,0.3,0.2,0.5,0.2c0.2,0.1,0.4,0.1,0.5,0.2l1.3,0.3c0.3,0,0.5,0.1,0.8,0.2c0.3,0.1,0.5,0.2,0.7,0.4c0.2,0.2,0.4,0.4,0.5,0.6
		c0.1,0.2,0.2,0.5,0.2,0.9c0,0.4-0.1,0.8-0.3,1.1c-0.2,0.3-0.4,0.5-0.7,0.7c-0.3,0.2-0.6,0.3-1,0.4C69,50,68.6,50,68.2,50
		c-0.9,0-1.6-0.2-2.2-0.6c-0.6-0.4-0.9-1.1-1-2.1H66c0,0.6,0.3,1.1,0.7,1.4c0.4,0.3,0.9,0.5,1.6,0.5c0.2,0,0.5,0,0.7-0.1
		c0.2,0,0.5-0.1,0.7-0.3c0.2-0.1,0.4-0.3,0.5-0.5c0.1-0.2,0.2-0.4,0.2-0.7c0-0.2,0-0.4-0.1-0.6c-0.1-0.2-0.2-0.3-0.4-0.4
		c-0.2-0.1-0.3-0.2-0.5-0.3c-0.2-0.1-0.4-0.1-0.6-0.2l-1.2-0.3c-0.3-0.1-0.6-0.2-0.9-0.3c-0.3-0.1-0.5-0.2-0.7-0.4
		c-0.2-0.2-0.3-0.3-0.5-0.6c-0.1-0.2-0.2-0.5-0.2-0.8c0-0.4,0.1-0.7,0.3-1c0.2-0.3,0.4-0.5,0.7-0.7c0.3-0.2,0.6-0.3,0.9-0.4
		c0.3-0.1,0.7-0.1,1-0.1c0.4,0,0.8,0.1,1.1,0.1c0.3,0.1,0.6,0.3,0.9,0.5c0.3,0.2,0.5,0.5,0.6,0.8c0.2,0.3,0.2,0.7,0.3,1.1h-0.9
		C70.1,44.1,70,43.8,69.9,43.6"/>
	<path class="st0" d="M73.4,47.2c0.1,0.4,0.2,0.7,0.5,1c0.2,0.3,0.5,0.5,0.8,0.7c0.3,0.2,0.7,0.3,1.1,0.3c0.7,0,1.2-0.2,1.6-0.5
		c0.4-0.4,0.7-0.8,0.8-1.4h0.9c-0.2,0.9-0.6,1.6-1.1,2c-0.5,0.5-1.3,0.7-2.3,0.7c-0.6,0-1.1-0.1-1.6-0.3c-0.4-0.2-0.8-0.5-1.1-0.9
		c-0.3-0.4-0.5-0.8-0.6-1.3c-0.1-0.5-0.2-1-0.2-1.6c0-0.5,0.1-1,0.2-1.5c0.1-0.5,0.3-0.9,0.6-1.3c0.3-0.4,0.6-0.7,1.1-0.9
		c0.4-0.2,1-0.4,1.6-0.4c0.6,0,1.1,0.1,1.6,0.4c0.4,0.2,0.8,0.6,1.1,1c0.3,0.4,0.5,0.9,0.6,1.4c0.1,0.5,0.2,1,0.1,1.6h-5.9
		C73.2,46.5,73.3,46.9,73.4,47.2 M78,44.4c-0.1-0.3-0.3-0.6-0.5-0.9c-0.2-0.3-0.5-0.5-0.8-0.6c-0.3-0.2-0.6-0.2-1-0.2
		c-0.4,0-0.7,0.1-1,0.2c-0.3,0.2-0.6,0.4-0.8,0.6c-0.2,0.3-0.4,0.5-0.5,0.9c-0.1,0.3-0.2,0.7-0.2,1h5C78.2,45,78.1,44.7,78,44.4"/>
	<path class="st0" d="M81.1,47.2c0.1,0.4,0.2,0.7,0.5,1c0.2,0.3,0.5,0.5,0.8,0.7c0.3,0.2,0.7,0.3,1.2,0.3c0.7,0,1.2-0.2,1.6-0.5
		c0.4-0.4,0.7-0.8,0.8-1.4h0.9c-0.2,0.9-0.6,1.6-1.1,2c-0.5,0.5-1.3,0.7-2.3,0.7c-0.6,0-1.1-0.1-1.6-0.3c-0.4-0.2-0.8-0.5-1.1-0.9
		c-0.3-0.4-0.5-0.8-0.6-1.3c-0.1-0.5-0.2-1-0.2-1.6c0-0.5,0.1-1,0.2-1.5c0.1-0.5,0.3-0.9,0.6-1.3c0.3-0.4,0.6-0.7,1.1-0.9
		c0.4-0.2,1-0.4,1.6-0.4c0.6,0,1.1,0.1,1.6,0.4c0.4,0.2,0.8,0.6,1.1,1c0.3,0.4,0.5,0.9,0.6,1.4c0.1,0.5,0.2,1,0.1,1.6H81
		C81,46.5,81,46.9,81.1,47.2 M85.8,44.4c-0.1-0.3-0.3-0.6-0.5-0.9c-0.2-0.3-0.5-0.5-0.8-0.6c-0.3-0.2-0.6-0.2-1-0.2
		c-0.4,0-0.7,0.1-1,0.2c-0.3,0.2-0.6,0.4-0.8,0.6c-0.2,0.3-0.4,0.5-0.5,0.9c-0.1,0.3-0.2,0.7-0.2,1h5C86,45,85.9,44.7,85.8,44.4"/>
	<path class="st0" d="M93.3,40.6h-0.9v-1.5h0.9V40.6z M93.3,49.8h-0.9v-7.7h0.9V49.8z"/>
	<path class="st0" d="M98.2,42.1v0.8h-1.6v5.2c0,0.3,0,0.5,0.1,0.7c0.1,0.2,0.3,0.3,0.6,0.3c0.3,0,0.5,0,0.8,0v0.8
		c-0.1,0-0.3,0-0.4,0c-0.1,0-0.3,0-0.4,0c-0.6,0-1.1-0.1-1.3-0.4c-0.2-0.2-0.4-0.7-0.4-1.3v-5.3h-1.3v-0.8h1.3v-2.3h0.9v2.3H98.2z"
		/>
	<rect x="104.2" y="48.2" class="st0" width="1.3" height="1.6"/>
	<rect x="112" y="39.1" class="st0" width="0.9" height="10.7"/>
	<path class="st0" d="M119.5,42.2c0.5,0.2,0.8,0.5,1.1,0.9c0.3,0.4,0.5,0.8,0.7,1.3c0.2,0.5,0.2,1,0.2,1.6c0,0.6-0.1,1.1-0.2,1.6
		c-0.2,0.5-0.4,0.9-0.7,1.3c-0.3,0.4-0.7,0.7-1.1,0.9c-0.5,0.2-1,0.3-1.6,0.3c-0.6,0-1.1-0.1-1.6-0.3c-0.5-0.2-0.8-0.5-1.1-0.9
		c-0.3-0.4-0.5-0.8-0.7-1.3c-0.2-0.5-0.2-1-0.2-1.6c0-0.6,0.1-1.1,0.2-1.6c0.2-0.5,0.4-0.9,0.7-1.3c0.3-0.4,0.7-0.7,1.1-0.9
		c0.5-0.2,1-0.3,1.6-0.3C118.6,41.9,119.1,42,119.5,42.2 M116.8,42.9c-0.3,0.2-0.6,0.4-0.8,0.7c-0.2,0.3-0.4,0.7-0.5,1.1
		c-0.1,0.4-0.2,0.8-0.2,1.2c0,0.4,0.1,0.8,0.2,1.2c0.1,0.4,0.3,0.7,0.5,1.1c0.2,0.3,0.5,0.6,0.8,0.7c0.3,0.2,0.7,0.3,1.2,0.3
		c0.4,0,0.8-0.1,1.2-0.3c0.3-0.2,0.6-0.4,0.8-0.7c0.2-0.3,0.4-0.7,0.5-1.1c0.1-0.4,0.2-0.8,0.2-1.2c0-0.4-0.1-0.8-0.2-1.2
		c-0.1-0.4-0.3-0.7-0.5-1.1c-0.2-0.3-0.5-0.6-0.8-0.7c-0.3-0.2-0.7-0.3-1.2-0.3C117.5,42.7,117.1,42.8,116.8,42.9"/>
	<polygon class="st0" points="123.2,42.1 125.6,48.9 125.7,48.9 128,42.1 129,42.1 126.1,49.8 125.1,49.8 122.2,42.1 	"/>
	<path class="st0" d="M130.6,47.2c0.1,0.4,0.2,0.7,0.5,1c0.2,0.3,0.5,0.5,0.8,0.7c0.3,0.2,0.7,0.3,1.2,0.3c0.7,0,1.2-0.2,1.6-0.5
		c0.4-0.4,0.7-0.8,0.8-1.4h0.9c-0.2,0.9-0.6,1.6-1.1,2c-0.5,0.5-1.3,0.7-2.3,0.7c-0.6,0-1.1-0.1-1.6-0.3c-0.4-0.2-0.8-0.5-1.1-0.9
		c-0.3-0.4-0.5-0.8-0.6-1.3c-0.1-0.5-0.2-1-0.2-1.6c0-0.5,0.1-1,0.2-1.5c0.1-0.5,0.3-0.9,0.6-1.3c0.3-0.4,0.6-0.7,1.1-0.9
		c0.4-0.2,1-0.4,1.6-0.4c0.6,0,1.1,0.1,1.6,0.4c0.4,0.2,0.8,0.6,1.1,1c0.3,0.4,0.5,0.9,0.6,1.4c0.1,0.5,0.2,1,0.2,1.6h-5.9
		C130.5,46.5,130.5,46.9,130.6,47.2 M135.3,44.4c-0.1-0.3-0.3-0.6-0.5-0.9c-0.2-0.3-0.5-0.5-0.8-0.6c-0.3-0.2-0.6-0.2-1-0.2
		c-0.4,0-0.7,0.1-1,0.2c-0.3,0.2-0.6,0.4-0.8,0.6c-0.2,0.3-0.4,0.5-0.5,0.9c-0.1,0.3-0.2,0.7-0.2,1h5
		C135.5,45,135.4,44.7,135.3,44.4"/>
	<path class="st0" d="M142.8,40.6h-0.9v-1.5h0.9V40.6z M142.8,49.8h-0.9v-7.7h0.9V49.8z"/>
	<path class="st0" d="M147.7,42.1v0.8h-1.6v5.2c0,0.3,0,0.5,0.1,0.7c0.1,0.2,0.3,0.3,0.6,0.3c0.3,0,0.5,0,0.8,0v0.8
		c-0.1,0-0.3,0-0.4,0c-0.1,0-0.3,0-0.4,0c-0.6,0-1.1-0.1-1.3-0.4c-0.2-0.2-0.4-0.7-0.4-1.3v-5.3h-1.3v-0.8h1.3v-2.3h0.9v2.3H147.7z"
		/>
	<rect x="153.7" y="48.2" class="st0" width="1.3" height="1.6"/>
	<path class="st0" d="M165.9,43.6c-0.1-0.2-0.3-0.4-0.4-0.5c-0.2-0.1-0.4-0.2-0.6-0.3c-0.2-0.1-0.5-0.1-0.8-0.1
		c-0.2,0-0.4,0-0.6,0.1c-0.2,0-0.4,0.1-0.6,0.2c-0.2,0.1-0.3,0.2-0.4,0.4c-0.1,0.2-0.2,0.4-0.2,0.6c0,0.2,0.1,0.4,0.2,0.5
		c0.1,0.1,0.2,0.3,0.4,0.4c0.2,0.1,0.3,0.2,0.5,0.2c0.2,0.1,0.4,0.1,0.5,0.2l1.3,0.3c0.3,0,0.5,0.1,0.8,0.2c0.3,0.1,0.5,0.2,0.7,0.4
		c0.2,0.2,0.4,0.4,0.5,0.6c0.1,0.2,0.2,0.5,0.2,0.9c0,0.4-0.1,0.8-0.3,1.1c-0.2,0.3-0.4,0.5-0.7,0.7c-0.3,0.2-0.6,0.3-1,0.4
		c-0.4,0.1-0.7,0.1-1.1,0.1c-0.9,0-1.6-0.2-2.2-0.6c-0.6-0.4-0.9-1.1-1-2.1h0.9c0,0.6,0.3,1.1,0.7,1.4c0.4,0.3,0.9,0.5,1.6,0.5
		c0.2,0,0.5,0,0.7-0.1c0.2,0,0.5-0.1,0.7-0.3c0.2-0.1,0.4-0.3,0.5-0.5c0.1-0.2,0.2-0.4,0.2-0.7c0-0.2,0-0.4-0.1-0.6
		c-0.1-0.2-0.2-0.3-0.4-0.4c-0.2-0.1-0.3-0.2-0.5-0.3c-0.2-0.1-0.4-0.1-0.6-0.2l-1.2-0.3c-0.3-0.1-0.6-0.2-0.9-0.3
		c-0.3-0.1-0.5-0.2-0.7-0.4c-0.2-0.2-0.3-0.3-0.5-0.6c-0.1-0.2-0.2-0.5-0.2-0.8c0-0.4,0.1-0.7,0.3-1c0.2-0.3,0.4-0.5,0.7-0.7
		c0.3-0.2,0.6-0.3,0.9-0.4c0.3-0.1,0.7-0.1,1-0.1c0.4,0,0.7,0.1,1.1,0.1c0.3,0.1,0.6,0.3,0.9,0.5c0.3,0.2,0.5,0.5,0.6,0.8
		c0.1,0.3,0.2,0.7,0.3,1.1h-0.9C166.1,44.1,166,43.8,165.9,43.6"/>
	<path class="st0" d="M169.6,39.1v4.3h0c0.2-0.5,0.5-0.8,1-1.1c0.5-0.3,1-0.4,1.5-0.4c0.5,0,1,0.1,1.4,0.2c0.4,0.1,0.7,0.3,0.9,0.6
		c0.2,0.3,0.4,0.6,0.5,0.9c0.1,0.4,0.1,0.8,0.1,1.2v5H174V45c0-0.3,0-0.6-0.1-0.9c-0.1-0.3-0.2-0.5-0.3-0.7
		c-0.1-0.2-0.4-0.4-0.6-0.5c-0.2-0.1-0.6-0.2-0.9-0.2c-0.4,0-0.7,0.1-1,0.2c-0.3,0.1-0.5,0.3-0.7,0.6c-0.2,0.2-0.4,0.5-0.5,0.8
		c-0.1,0.3-0.2,0.7-0.2,1.1v4.5h-0.9V39.1H169.6z"/>
	<path class="st0" d="M176.9,43.3c0.2-0.3,0.4-0.6,0.7-0.8c0.3-0.2,0.6-0.4,1-0.5c0.4-0.1,0.8-0.1,1.2-0.1c0.3,0,0.7,0,1,0.1
		c0.3,0.1,0.6,0.2,0.9,0.4c0.3,0.2,0.5,0.4,0.7,0.8c0.2,0.3,0.3,0.7,0.3,1.3v4.1c0,0.4,0.2,0.6,0.6,0.6c0.1,0,0.2,0,0.3-0.1v0.8
		c-0.1,0-0.2,0-0.3,0c-0.1,0-0.2,0-0.3,0c-0.2,0-0.4,0-0.6-0.1c-0.1-0.1-0.3-0.2-0.3-0.3c-0.1-0.1-0.1-0.3-0.2-0.4
		c0-0.2,0-0.3,0-0.5h0c-0.2,0.2-0.3,0.5-0.5,0.7c-0.2,0.2-0.4,0.4-0.6,0.5c-0.2,0.1-0.5,0.2-0.7,0.3c-0.3,0.1-0.6,0.1-1,0.1
		c-0.4,0-0.7,0-1-0.1c-0.3-0.1-0.6-0.2-0.8-0.4c-0.2-0.2-0.4-0.4-0.5-0.7c-0.1-0.3-0.2-0.6-0.2-1c0-0.5,0.1-1,0.4-1.3
		c0.2-0.3,0.6-0.5,0.9-0.7c0.4-0.2,0.8-0.3,1.3-0.3c0.5-0.1,1-0.1,1.5-0.2c0.2,0,0.4,0,0.5-0.1c0.2,0,0.3-0.1,0.4-0.2
		c0.1-0.1,0.2-0.2,0.2-0.3c0.1-0.1,0.1-0.3,0.1-0.5c0-0.3-0.1-0.6-0.2-0.8c-0.1-0.2-0.2-0.4-0.4-0.5c-0.2-0.1-0.4-0.2-0.6-0.2
		c-0.2,0-0.5-0.1-0.8-0.1c-0.6,0-1.1,0.1-1.5,0.4c-0.4,0.3-0.6,0.7-0.6,1.4h-0.9C176.6,44,176.7,43.6,176.9,43.3 M181.6,45.6
		c-0.1,0.1-0.2,0.2-0.3,0.2c-0.2,0-0.3,0.1-0.4,0.1c-0.4,0.1-0.8,0.1-1.2,0.2c-0.4,0.1-0.8,0.1-1.2,0.2c-0.3,0.1-0.6,0.3-0.9,0.5
		c-0.2,0.2-0.3,0.5-0.3,0.9c0,0.2,0,0.4,0.1,0.6c0.1,0.2,0.2,0.3,0.4,0.5c0.2,0.1,0.3,0.2,0.6,0.3c0.2,0.1,0.4,0.1,0.6,0.1
		c0.4,0,0.7-0.1,1-0.2c0.3-0.1,0.6-0.3,0.9-0.5c0.2-0.2,0.4-0.5,0.6-0.8c0.1-0.3,0.2-0.6,0.2-1L181.6,45.6L181.6,45.6z"/>
	<path class="st0" d="M185.3,42.1v1.8h0c0.2-0.6,0.6-1.1,1.1-1.5c0.5-0.3,1.1-0.5,1.8-0.5v0.9c-0.4,0-0.8,0-1.2,0.2
		c-0.3,0.1-0.6,0.3-0.9,0.6c-0.3,0.3-0.4,0.5-0.6,0.9c-0.1,0.3-0.2,0.7-0.2,1.1v4.1h-0.9v-7.7H185.3z"/>
	<path class="st0" d="M189.5,47.2c0.1,0.4,0.2,0.7,0.5,1c0.2,0.3,0.5,0.5,0.8,0.7c0.3,0.2,0.7,0.3,1.1,0.3c0.7,0,1.2-0.2,1.6-0.5
		c0.4-0.4,0.7-0.8,0.8-1.4h0.9c-0.2,0.9-0.6,1.6-1.1,2c-0.5,0.5-1.3,0.7-2.3,0.7c-0.6,0-1.1-0.1-1.6-0.3c-0.4-0.2-0.8-0.5-1.1-0.9
		c-0.3-0.4-0.5-0.8-0.6-1.3c-0.1-0.5-0.2-1-0.2-1.6c0-0.5,0.1-1,0.2-1.5c0.1-0.5,0.3-0.9,0.6-1.3c0.3-0.4,0.6-0.7,1.1-0.9
		c0.4-0.2,1-0.4,1.6-0.4c0.6,0,1.1,0.1,1.6,0.4c0.4,0.2,0.8,0.6,1.1,1c0.3,0.4,0.5,0.9,0.6,1.4c0.1,0.5,0.2,1,0.1,1.6h-5.9
		C189.4,46.5,189.4,46.9,189.5,47.2 M194.2,44.4c-0.1-0.3-0.3-0.6-0.5-0.9c-0.2-0.3-0.5-0.5-0.8-0.6c-0.3-0.2-0.6-0.2-1-0.2
		c-0.4,0-0.7,0.1-1,0.2c-0.3,0.2-0.6,0.4-0.8,0.6c-0.2,0.3-0.4,0.5-0.5,0.9c-0.1,0.3-0.2,0.7-0.2,1h5
		C194.4,45,194.3,44.7,194.2,44.4"/>
	<path class="st0" d="M201.7,40.6h-0.9v-1.5h0.9V40.6z M201.7,49.8h-0.9v-7.7h0.9V49.8z"/>
	<path class="st0" d="M206.6,42.1v0.8H205v5.2c0,0.3,0,0.5,0.1,0.7c0.1,0.2,0.3,0.3,0.6,0.3c0.3,0,0.5,0,0.8,0v0.8
		c-0.1,0-0.3,0-0.4,0c-0.1,0-0.3,0-0.4,0c-0.6,0-1.1-0.1-1.3-0.4c-0.2-0.2-0.4-0.7-0.4-1.3v-5.3h-1.3v-0.8h1.3v-2.3h0.9v2.3H206.6z"
		/>
</g>
</svg>
