<?xml version="1.0" encoding="utf-8"?>
<!-- Generator: Adobe Illustrator 19.0.1, SVG Export Plug-In . SVG Version: 6.00 Build 0)  -->
<svg version="1.1" id="Capa_1" xmlns="http://www.w3.org/2000/svg" xmlns:xlink="http://www.w3.org/1999/xlink" x="0px" y="0px"
	 viewBox="0 0 115 65" enable-background="new 0 0 115 65" xml:space="preserve">
<g>
	<g>
		<polygon fill="#FFFFFE" points="45,8.9 39,8.9 19,25 19,32.9 29.8,32.9 45,10.2 		"/>
		<polygon fill="#FFFFFE" points="55,8.9 50.9,8.9 43,24.7 43,32.9 52.7,32.9 55,10.5 		"/>
		<polygon fill="#FFFFFE" points="14.3,46.9 9,46.9 9,50.9 14,50.9 14,52.9 9,52.9 9,56.9 15,56.9 15,58.9 7,58.9 7,44.9 15,44.9 		
			"/>
		<polygon fill="#FFFFFE" points="17,58.9 17,44.9 19,44.9 19,56.9 24,56.9 24,58.9 		"/>
	</g>
	<g>
		<g>
			<path fill="#FFFFFE" d="M32,58.7c-4.4,0-7.1-2.6-7.1-6.9c0-4.5,3.3-7.1,7.4-7.1c1.6,0,3,0.2,4,0.9l-0.1,3.1
				c-1.1-0.8-2.3-1.1-3.5-1.1c-2.7,0-4,2-4,4.2c0,2.4,1.4,4.1,3.9,4.1c1.3,0,2.4-0.4,3.3-1l1,2.4C35.5,58.3,33.7,58.7,32,58.7"/>
			<path fill="#FFFFFE" d="M49.3,57.1c-1.1,1.1-2.8,1.6-5,1.6c-2,0-3.7-0.4-4.8-1.4c-0.9-0.8-1.5-2.1-1.5-3.8v-8.6h4v8.4
				c0,0.8,0,1.4,0.4,1.8c0.5,0.4,1.1,0.7,1.9,0.7c0.9,0,1.7-0.2,2.2-0.7c0.4-0.4,0.5-0.9,0.5-1.7v-8.5h4v8.2
				C51,54.9,50.2,56.2,49.3,57.1"/>
			<polygon fill="#FFFFFE" points="52,58.9 52,44.9 56,44.9 56,55.9 61,55.9 61,58.9 			"/>
			<polygon fill="#FFFFFE" points="72.2,47.9 68,47.9 68,58.9 65,58.9 65,47.9 61,47.9 61,44.9 72.9,44.9 			"/>
			<rect x="75" y="44.9" fill="#FFFFFE" width="3" height="14"/>
			<path fill="#FFFFFE" d="M88,58.9h-2.8l-5.8-14h4l2.6,6.7c0.3,0.8,0.6,2.3,0.8,2.3h0c0.2,0,0.5-1.4,0.9-2.3l2.8-6.7h3.8L88,58.9z"
				/>
			<path fill="#FFFFFE" d="M100.9,47.6c-2.1,0-3.3,1.6-3.3,4.1c0,2.6,1.2,4.1,3.3,4.1c2.1,0,3.3-1.6,3.3-4.1
				C104.1,49.2,102.9,47.6,100.9,47.6 M105.7,57.1c-1.2,1-2.9,1.6-4.9,1.6c-1.9,0-3.6-0.6-4.8-1.6c-1.5-1.2-2.4-3.1-2.4-5.4
				c0-2.2,0.8-4.1,2.3-5.4c1.2-1,2.9-1.6,4.9-1.6c2.1,0,3.8,0.6,5,1.8c1.4,1.2,2.1,3.1,2.1,5.3C108,54,107.2,55.8,105.7,57.1"/>
			<polygon fill="#FFFFFE" points="72,8.9 77.9,8.9 98,25 98,32.9 87.2,32.9 72,10.2 			"/>
			<polygon fill="#FFFFFE" points="62,8.9 66,8.9 74,24.7 74,32.9 64.2,32.9 62,10.5 			"/>
		</g>
	</g>
</g>
</svg>
