<?xml version="1.0" encoding="utf-8"?>
<!-- Generator: Adobe Illustrator 20.1.0, SVG Export Plug-In . SVG Version: 6.00 Build 0)  -->
<svg version="1.1" id="menuTop__logo" xmlns="http://www.w3.org/2000/svg" xmlns:xlink="http://www.w3.org/1999/xlink" x="0px" y="0px"
	 viewBox="0 0 100 10.8" style="enable-background:new 0 0 100 10.8;" xml:space="preserve">
<style type="text/css">
	#menuTop__logo .st0{fill:#FFFFFF;}
</style>
<g>
	<g>
		<polygon class="st0" points="2.3,0.2 6.6,7.2 6.6,7.2 6.6,0.2 8.7,0.2 8.7,10.6 6.4,10.6 2.2,3.7 2.1,3.7 2.1,10.6 0,10.6 0,0.2 
					"/>
		<rect x="10.7" y="0.2" class="st0" width="2.3" height="10.3"/>
		<path class="st0" d="M21.6,3c-0.1-0.2-0.3-0.4-0.5-0.6c-0.2-0.2-0.4-0.3-0.7-0.4c-0.3-0.1-0.5-0.1-0.8-0.1c-0.5,0-0.9,0.1-1.3,0.3
			c-0.4,0.2-0.6,0.5-0.9,0.8c-0.2,0.3-0.4,0.7-0.5,1.1c-0.1,0.4-0.2,0.9-0.2,1.3c0,0.4,0.1,0.9,0.2,1.3c0.1,0.4,0.3,0.8,0.5,1.1
			c0.2,0.3,0.5,0.6,0.9,0.8c0.4,0.2,0.8,0.3,1.3,0.3c0.7,0,1.2-0.2,1.6-0.6c0.4-0.4,0.6-1,0.7-1.7h2.2c-0.1,0.6-0.2,1.2-0.4,1.7
			c-0.2,0.5-0.6,1-1,1.3c-0.4,0.4-0.9,0.6-1.4,0.8c-0.5,0.2-1.1,0.3-1.7,0.3c-0.8,0-1.5-0.1-2.1-0.4c-0.6-0.3-1.2-0.7-1.6-1.1
			c-0.4-0.5-0.8-1-1-1.7c-0.2-0.6-0.3-1.3-0.3-2.1c0-0.8,0.1-1.5,0.3-2.1c0.2-0.7,0.6-1.2,1-1.7c0.4-0.5,1-0.9,1.6-1.2
			C18.1,0.1,18.8,0,19.6,0c0.6,0,1.1,0.1,1.6,0.2c0.5,0.2,1,0.4,1.4,0.7c0.4,0.3,0.7,0.7,1,1.2s0.4,1,0.5,1.6h-2.2
			C21.8,3.5,21.7,3.2,21.6,3"/>
		<polygon class="st0" points="33.4,0.2 33.4,2.2 27.9,2.2 27.9,4.4 32.9,4.4 32.9,6.1 27.9,6.1 27.9,8.7 33.5,8.7 33.5,10.6 
			25.7,10.6 25.7,0.2 		"/>
		<polygon class="st0" points="38.2,2.2 38.2,0.2 46.7,0.2 46.7,2.2 43.6,2.2 43.6,10.6 41.3,10.6 41.3,2.2 		"/>
		<path class="st0" d="M47.8,3.3c0.2-0.7,0.6-1.2,1-1.7c0.4-0.5,1-0.9,1.6-1.2C51,0.1,51.7,0,52.5,0c0.8,0,1.5,0.1,2.1,0.4
			c0.6,0.3,1.2,0.7,1.6,1.2c0.4,0.5,0.8,1.1,1,1.7c0.2,0.7,0.3,1.4,0.3,2.1c0,0.8-0.1,1.5-0.3,2.1c-0.2,0.7-0.6,1.2-1,1.7
			c-0.4,0.5-1,0.9-1.6,1.1c-0.6,0.3-1.3,0.4-2.1,0.4c-0.8,0-1.5-0.1-2.1-0.4c-0.6-0.3-1.2-0.7-1.6-1.1c-0.4-0.5-0.8-1-1-1.7
			c-0.2-0.7-0.3-1.3-0.3-2.1C47.4,4.7,47.5,4,47.8,3.3 M49.8,6.7c0.1,0.4,0.3,0.8,0.5,1.1c0.2,0.3,0.5,0.6,0.9,0.8
			c0.4,0.2,0.8,0.3,1.3,0.3c0.5,0,0.9-0.1,1.3-0.3c0.4-0.2,0.6-0.5,0.9-0.8c0.2-0.3,0.4-0.7,0.5-1.1c0.1-0.4,0.2-0.8,0.2-1.3
			c0-0.5-0.1-0.9-0.2-1.3C55,3.7,54.9,3.3,54.7,3c-0.2-0.3-0.5-0.6-0.9-0.8C53.4,2,53,1.9,52.5,1.9c-0.5,0-0.9,0.1-1.3,0.3
			c-0.4,0.2-0.6,0.5-0.9,0.8c-0.2,0.3-0.4,0.7-0.5,1.1c-0.1,0.4-0.2,0.9-0.2,1.3C49.7,5.9,49.7,6.3,49.8,6.7"/>
		<polygon class="st0" points="65.4,0.2 65.4,4.2 69.6,4.2 69.6,0.2 71.8,0.2 71.8,10.6 69.6,10.6 69.6,6.1 65.4,6.1 65.4,10.6 
			63.1,10.6 63.1,0.2 		"/>
		<path class="st0" d="M79,0.2l3.9,10.3h-2.4l-0.8-2.3h-3.9L75,10.6h-2.3l3.9-10.3H79z M79.1,6.6l-1.3-3.8h0l-1.3,3.8H79.1z"/>
		<polygon class="st0" points="85.3,10.6 82,0.2 84.3,0.2 86.6,7.5 86.6,7.5 88.9,0.2 91.3,0.2 87.9,10.6 		"/>
		<polygon class="st0" points="99.9,0.2 99.9,2.2 94.4,2.2 94.4,4.4 99.4,4.4 99.4,6.1 94.4,6.1 94.4,8.7 100,8.7 100,10.6 
			92.2,10.6 92.2,0.2 		"/>
	</g>
</g>
</svg>
