<?xml version="1.0" encoding="utf-8"?>
<!-- Generator: Adobe Illustrator 20.1.0, SVG Export Plug-In . SVG Version: 6.00 Build 0)  -->
<svg version="1.1" id="Layer_1" xmlns="http://www.w3.org/2000/svg" xmlns:xlink="http://www.w3.org/1999/xlink" x="0px" y="0px"
	 viewBox="0 0 139 15" style="enable-background:new 0 0 139 15;" xml:space="preserve">
<style type="text/css">
	.st0{fill:#231F20;}
</style>
<g>
	<polygon class="st0" points="3.1,0.3 9.1,10 9.2,10 9.2,0.3 12.1,0.3 12.1,14.7 9,14.7 3,5.1 3,5.1 3,14.7 0,14.7 0,0.3 	"/>
	<rect x="14.9" y="0.3" class="st0" width="3.2" height="14.3"/>
	<path class="st0" d="M30,4.2c-0.2-0.3-0.4-0.6-0.7-0.8c-0.3-0.2-0.6-0.4-1-0.5c-0.4-0.1-0.7-0.2-1.1-0.2c-0.7,0-1.3,0.1-1.8,0.4
		c-0.5,0.3-0.9,0.6-1.2,1.1c-0.3,0.5-0.5,1-0.7,1.6c-0.1,0.6-0.2,1.2-0.2,1.8c0,0.6,0.1,1.2,0.2,1.8c0.1,0.6,0.4,1.1,0.7,1.5
		c0.3,0.5,0.7,0.8,1.2,1.1c0.5,0.3,1.1,0.4,1.8,0.4c1,0,1.7-0.3,2.3-0.9c0.5-0.6,0.9-1.4,1-2.3h3.1c-0.1,0.9-0.3,1.7-0.6,2.4
		c-0.3,0.7-0.8,1.3-1.3,1.8c-0.5,0.5-1.2,0.9-1.9,1.2c-0.7,0.3-1.5,0.4-2.4,0.4c-1.1,0-2.1-0.2-3-0.6c-0.9-0.4-1.6-0.9-2.2-1.6
		c-0.6-0.7-1.1-1.5-1.4-2.4c-0.3-0.9-0.5-1.9-0.5-2.9c0-1.1,0.2-2.1,0.5-3C21,3.7,21.4,2.9,22,2.2c0.6-0.7,1.3-1.2,2.2-1.6
		c0.9-0.4,1.9-0.6,3-0.6c0.8,0,1.5,0.1,2.2,0.3c0.7,0.2,1.3,0.6,1.9,1c0.6,0.4,1,1,1.4,1.6c0.4,0.6,0.6,1.4,0.7,2.2h-3.1
		C30.3,4.8,30.2,4.5,30,4.2"/>
	<polygon class="st0" points="46.4,0.3 46.4,3 38.8,3 38.8,6.1 45.8,6.1 45.8,8.5 38.8,8.5 38.8,12 46.6,12 46.6,14.7 35.7,14.7 
		35.7,0.3 	"/>
	<polygon class="st0" points="53.1,3 53.1,0.3 64.9,0.3 64.9,3 60.6,3 60.6,14.7 57.4,14.7 57.4,3 	"/>
	<path class="st0" d="M66.4,4.6c0.3-0.9,0.8-1.7,1.4-2.4C68.4,1.5,69.1,1,70,0.6C70.9,0.2,71.9,0,73,0c1.1,0,2.1,0.2,3,0.6
		c0.9,0.4,1.6,0.9,2.2,1.6c0.6,0.7,1.1,1.5,1.4,2.4c0.3,0.9,0.5,1.9,0.5,3c0,1-0.2,2-0.5,2.9c-0.3,0.9-0.8,1.7-1.4,2.4
		c-0.6,0.7-1.3,1.2-2.2,1.6c-0.9,0.4-1.9,0.6-3,0.6c-1.1,0-2.1-0.2-3-0.6c-0.9-0.4-1.6-0.9-2.2-1.6c-0.6-0.7-1.1-1.5-1.4-2.4
		c-0.3-0.9-0.5-1.9-0.5-2.9C65.9,6.5,66.1,5.5,66.4,4.6 M69.3,9.3c0.1,0.6,0.4,1.1,0.7,1.5c0.3,0.5,0.7,0.8,1.2,1.1
		c0.5,0.3,1.1,0.4,1.8,0.4c0.7,0,1.3-0.1,1.8-0.4c0.5-0.3,0.9-0.6,1.2-1.1c0.3-0.5,0.5-1,0.7-1.5c0.1-0.6,0.2-1.2,0.2-1.8
		c0-0.6-0.1-1.2-0.2-1.8c-0.1-0.6-0.4-1.1-0.7-1.6c-0.3-0.5-0.7-0.8-1.2-1.1c-0.5-0.3-1.1-0.4-1.8-0.4c-0.7,0-1.3,0.1-1.8,0.4
		c-0.5,0.3-0.9,0.6-1.2,1.1c-0.3,0.5-0.5,1-0.7,1.6c-0.1,0.6-0.2,1.2-0.2,1.8C69.1,8.2,69.1,8.8,69.3,9.3"/>
	<polygon class="st0" points="90.9,0.3 90.9,5.8 96.7,5.8 96.7,0.3 99.9,0.3 99.9,14.7 96.7,14.7 96.7,8.5 90.9,8.5 90.9,14.7 
		87.7,14.7 87.7,0.3 	"/>
	<path class="st0" d="M109.8,0.3l5.4,14.3h-3.3l-1.1-3.2h-5.4l-1.1,3.2h-3.2l5.4-14.3H109.8z M110,9.1l-1.8-5.3h0l-1.9,5.3H110z"/>
	<polygon class="st0" points="118.6,14.7 113.9,0.3 117.2,0.3 120.4,10.4 120.4,10.4 123.6,0.3 126.9,0.3 122.1,14.7 	"/>
	<polygon class="st0" points="138.8,0.3 138.8,3 131.3,3 131.3,6.1 138.2,6.1 138.2,8.5 131.3,8.5 131.3,12 139,12 139,14.7 
		128.1,14.7 128.1,0.3 	"/>
</g>
</svg>
