<?xml version="1.0" encoding="utf-8"?>
<!-- Generator: Adobe Illustrator 21.1.0, SVG Export Plug-In . SVG Version: 6.00 Build 0)  -->
<svg version="1.1" id="footer__logo" class="footer__logo" xmlns="http://www.w3.org/2000/svg" xmlns:xlink="http://www.w3.org/1999/xlink" x="0px" y="0px"
	 viewBox="0 0 735.2 141" style="enable-background:new 0 0 735.2 141;" xml:space="preserve">
<style type="text/css">
	.st0{fill:#FFFFFF;}
</style>
<g>
	<path class="st0" d="M18.4,1.8L50,52.5h0.2V1.8h15.6v75.6H49.2L17.7,26.8h-0.2v50.6H1.9V1.8H18.4z"/>
	<path class="st0" d="M97,1.8v75.6H80.4V1.8H97z"/>
	<path class="st0" d="M160.2,22c-1-1.6-2.2-3-3.7-4.2c-1.5-1.2-3.2-2.1-5-2.8c-1.9-0.7-3.8-1-5.9-1c-3.7,0-6.9,0.7-9.5,2.2
		c-2.6,1.4-4.7,3.4-6.4,5.8c-1.6,2.4-2.8,5.2-3.5,8.3c-0.7,3.1-1.1,6.3-1.1,9.6c0,3.2,0.4,6.3,1.1,9.3c0.7,3,1.9,5.7,3.5,8.1
		c1.6,2.4,3.7,4.3,6.4,5.8c2.6,1.4,5.8,2.2,9.5,2.2c5.1,0,9.1-1.6,11.9-4.7c2.9-3.1,4.6-7.2,5.2-12.3h16.1c-0.4,4.7-1.5,9-3.3,12.8
		c-1.8,3.8-4.1,7.1-7,9.7c-2.9,2.7-6.3,4.7-10.2,6.1c-3.9,1.4-8.2,2.1-12.8,2.1c-5.8,0-11-1-15.6-3c-4.6-2-8.5-4.8-11.7-8.3
		c-3.2-3.5-5.6-7.7-7.3-12.4c-1.7-4.8-2.5-9.9-2.5-15.4c0-5.6,0.8-10.9,2.5-15.7c1.7-4.8,4.1-9.1,7.3-12.7s7.1-6.4,11.7-8.5
		c4.6-2,9.8-3.1,15.6-3.1c4.2,0,8.1,0.6,11.8,1.8c3.7,1.2,7,2.9,10,5.2c2.9,2.3,5.3,5.1,7.3,8.5c1.9,3.4,3.1,7.3,3.6,11.7h-16.1
		C161.8,25.3,161.2,23.6,160.2,22z"/>
	<path class="st0" d="M246.7,1.8v14h-39.9V32h36.7v12.9h-36.7v18.5h40.8v14h-57.4V1.8H246.7z"/>
	<path class="st0" d="M282.3,15.8v-14h62v14h-22.7v61.7H305V15.8H282.3z"/>
	<path class="st0" d="M352.2,24.2c1.7-4.8,4.1-9.1,7.3-12.7s7.1-6.4,11.7-8.5c4.6-2,9.8-3.1,15.6-3.1c5.9,0,11.1,1,15.7,3.1
		c4.6,2,8.5,4.9,11.7,8.5c3.2,3.6,5.6,7.8,7.3,12.7c1.7,4.8,2.5,10.1,2.5,15.7c0,5.5-0.8,10.6-2.5,15.4c-1.7,4.8-4.1,8.9-7.3,12.4
		c-3.2,3.5-7.1,6.3-11.7,8.3c-4.6,2-9.8,3-15.7,3c-5.8,0-11-1-15.6-3c-4.6-2-8.5-4.8-11.7-8.3c-3.2-3.5-5.6-7.7-7.3-12.4
		c-1.7-4.8-2.5-9.9-2.5-15.4C349.7,34.3,350.5,29,352.2,24.2z M367.4,49.2c0.7,3,1.9,5.7,3.5,8.1c1.6,2.4,3.7,4.3,6.4,5.8
		c2.6,1.4,5.8,2.2,9.5,2.2c3.7,0,6.9-0.7,9.5-2.2c2.6-1.4,4.7-3.4,6.4-5.8c1.6-2.4,2.8-5.1,3.5-8.1c0.7-3,1.1-6.1,1.1-9.3
		c0-3.3-0.4-6.5-1.1-9.6c-0.7-3.1-1.9-5.9-3.5-8.3c-1.6-2.4-3.7-4.4-6.4-5.8c-2.6-1.4-5.8-2.2-9.5-2.2c-3.7,0-6.9,0.7-9.5,2.2
		c-2.6,1.4-4.7,3.4-6.4,5.8c-1.6,2.4-2.8,5.2-3.5,8.3c-0.7,3.1-1.1,6.3-1.1,9.6C366.3,43.1,366.7,46.2,367.4,49.2z"/>
	<path class="st0" d="M481.5,1.8v29h30.6v-29h16.6v75.6h-16.6V44.8h-30.6v32.6h-16.6V1.8H481.5z"/>
	<path class="st0" d="M581.1,1.8l28.3,75.6h-17.3l-5.7-16.8h-28.3l-5.9,16.8h-16.7L564,1.8H581.1z M582,48.2l-9.5-27.8h-0.2
		l-9.9,27.8H582z"/>
	<path class="st0" d="M627.5,77.4L603,1.8h17.1L636.9,55h0.2l17.1-53.2h17.2l-25.1,75.6H627.5z"/>
	<path class="st0" d="M734.4,1.8v14h-39.9V32h36.7v12.9h-36.7v18.5h40.8v14h-57.4V1.8H734.4z"/>
</g>
<g>
	<path class="st0" d="M177.6,114.9h-4.1v18.5H171v-18.5h-3.5v-2.1h3.5v-1.9c0-0.9,0.1-1.7,0.2-2.4c0.1-0.7,0.4-1.4,0.8-1.9
		c0.4-0.5,0.9-0.9,1.5-1.2c0.7-0.3,1.5-0.4,2.5-0.4c0.4,0,0.7,0,1,0c0.3,0,0.7,0.1,1.1,0.1v2.2c-0.3-0.1-0.7-0.1-1-0.1
		c-0.3,0-0.6-0.1-0.9-0.1c-0.7,0-1.2,0.1-1.6,0.3c-0.4,0.2-0.6,0.5-0.8,0.9c-0.2,0.4-0.3,0.8-0.3,1.3c0,0.5,0,1,0,1.6v1.8h4.1V114.9
		z"/>
	<path class="st0" d="M180,112.7h2.3v4.8h0.1c0.6-1.7,1.6-3,3-3.9c1.3-0.9,3-1.3,4.8-1.2v2.5c-1.1-0.1-2.2,0.1-3.1,0.5
		c-0.9,0.4-1.7,0.9-2.4,1.5c-0.7,0.7-1.2,1.5-1.6,2.4c-0.4,0.9-0.6,1.9-0.6,3v11H180V112.7z"/>
	<path class="st0" d="M200.6,112.1c1.6,0,3,0.3,4.2,0.9c1.2,0.6,2.2,1.4,3.1,2.4c0.8,1,1.5,2.1,1.9,3.5c0.4,1.3,0.6,2.7,0.6,4.2
		s-0.2,2.9-0.6,4.2c-0.4,1.3-1.1,2.5-1.9,3.5c-0.8,1-1.8,1.8-3.1,2.3c-1.2,0.6-2.6,0.9-4.2,0.9s-3-0.3-4.2-0.9
		c-1.2-0.6-2.2-1.4-3.1-2.3c-0.8-1-1.5-2.1-1.9-3.5c-0.4-1.3-0.6-2.7-0.6-4.2s0.2-2.9,0.6-4.2c0.4-1.3,1.1-2.5,1.9-3.5
		c0.8-1,1.8-1.8,3.1-2.4C197.7,112.4,199.1,112.1,200.6,112.1z M200.6,114.3c-1.2,0-2.3,0.3-3.2,0.8c-0.9,0.5-1.7,1.2-2.3,2
		c-0.6,0.8-1.1,1.8-1.4,2.8c-0.3,1.1-0.5,2.1-0.5,3.2s0.2,2.2,0.5,3.2s0.8,2,1.4,2.8s1.4,1.5,2.3,2c0.9,0.5,2,0.8,3.2,0.8
		s2.3-0.3,3.2-0.8c0.9-0.5,1.7-1.2,2.3-2s1.1-1.8,1.4-2.8c0.3-1.1,0.5-2.1,0.5-3.2s-0.2-2.2-0.5-3.2c-0.3-1.1-0.8-2-1.4-2.8
		c-0.6-0.8-1.4-1.5-2.3-2C202.9,114.5,201.8,114.3,200.6,114.3z"/>
	<path class="st0" d="M214.2,112.7h2.3v3.5h0.1c0.7-1.3,1.5-2.3,2.6-3c1.1-0.7,2.5-1.1,4.1-1.1c1.4,0,2.6,0.3,3.7,1
		c1.1,0.7,1.8,1.7,2.2,3c0.6-1.4,1.5-2.4,2.7-3c1.2-0.7,2.5-1,3.8-1c4.6,0,6.8,2.4,6.8,7.2v14h-2.5v-13.9c0-1.7-0.4-3-1.1-3.9
		c-0.7-0.9-2-1.3-3.8-1.3c-1.1,0-2,0.2-2.7,0.6c-0.7,0.4-1.3,1-1.7,1.7c-0.4,0.7-0.7,1.5-0.9,2.4c-0.2,0.9-0.3,1.8-0.3,2.8v11.7
		h-2.5v-14c0-0.7-0.1-1.4-0.2-2s-0.4-1.2-0.7-1.6c-0.3-0.5-0.8-0.8-1.3-1.1c-0.6-0.3-1.2-0.4-2-0.4c-1.1,0-2,0.2-2.8,0.6
		c-0.8,0.4-1.4,0.9-1.9,1.6c-0.5,0.7-0.9,1.5-1.1,2.4s-0.4,1.9-0.4,3v11.5h-2.5V112.7z"/>
	<path class="st0" d="M260.1,133.4v-4.2h3.4v4.2H260.1z"/>
	<path class="st0" d="M280.8,112.7h2.3v3.5h0.1c0.7-1.3,1.5-2.3,2.6-3c1.1-0.7,2.5-1.1,4.1-1.1c1.4,0,2.6,0.3,3.7,1
		c1.1,0.7,1.8,1.7,2.2,3c0.6-1.4,1.5-2.4,2.7-3c1.2-0.7,2.5-1,3.8-1c4.6,0,6.8,2.4,6.8,7.2v14h-2.5v-13.9c0-1.7-0.4-3-1.1-3.9
		c-0.7-0.9-2-1.3-3.8-1.3c-1.1,0-2,0.2-2.7,0.6c-0.7,0.4-1.3,1-1.7,1.7c-0.4,0.7-0.7,1.5-0.9,2.4c-0.2,0.9-0.3,1.8-0.3,2.8v11.7
		h-2.5v-14c0-0.7-0.1-1.4-0.2-2s-0.4-1.2-0.7-1.6c-0.3-0.5-0.8-0.8-1.3-1.1c-0.6-0.3-1.2-0.4-2-0.4c-1.1,0-2,0.2-2.8,0.6
		c-0.8,0.4-1.4,0.9-1.9,1.6c-0.5,0.7-0.9,1.5-1.1,2.4s-0.4,1.9-0.4,3v11.5h-2.5V112.7z"/>
	<path class="st0" d="M315.6,123.7c0,0.9,0.1,1.8,0.4,2.8c0.3,1,0.7,1.8,1.2,2.6c0.6,0.8,1.3,1.4,2.1,1.9c0.9,0.5,1.9,0.8,3.1,0.8
		c1.8,0,3.3-0.5,4.3-1.4c1-1,1.8-2.2,2.2-3.8h2.5c-0.5,2.3-1.5,4.2-2.9,5.4c-1.4,1.3-3.4,1.9-6.1,1.9c-1.6,0-3-0.3-4.2-0.9
		s-2.2-1.4-2.9-2.4c-0.7-1-1.3-2.2-1.7-3.5c-0.4-1.3-0.5-2.7-0.5-4.2c0-1.4,0.2-2.7,0.5-4c0.4-1.3,0.9-2.5,1.7-3.5
		c0.7-1,1.7-1.9,2.9-2.5c1.2-0.6,2.6-0.9,4.2-0.9c1.7,0,3.1,0.3,4.2,1c1.2,0.7,2.1,1.5,2.9,2.6c0.7,1.1,1.3,2.3,1.6,3.7
		c0.3,1.4,0.5,2.8,0.4,4.3H315.6z M329,121.6c0-1-0.2-1.9-0.5-2.8s-0.7-1.7-1.3-2.3c-0.6-0.7-1.2-1.2-2-1.6
		c-0.8-0.4-1.7-0.6-2.7-0.6c-1,0-2,0.2-2.8,0.6c-0.8,0.4-1.5,1-2,1.6c-0.6,0.7-1,1.5-1.3,2.4c-0.3,0.9-0.6,1.8-0.7,2.7H329z"/>
	<path class="st0" d="M340.6,122.7l-7.4-9.9h3.2l5.9,7.8l5.8-7.8h3.2l-7.4,9.9l8,10.8h-3.2l-6.5-8.7l-6.4,8.7h-3.1L340.6,122.7z"/>
	<path class="st0" d="M354.2,104.8h2.5v4h-2.5V104.8z M354.2,112.7h2.5v20.6h-2.5V112.7z"/>
	<path class="st0" d="M376.1,119.2c-0.3-1.5-1-2.8-1.9-3.6c-0.9-0.9-2.2-1.3-3.9-1.3c-1.2,0-2.3,0.3-3.2,0.8c-0.9,0.5-1.7,1.2-2.3,2
		c-0.6,0.8-1.1,1.8-1.4,2.8c-0.3,1.1-0.5,2.1-0.5,3.2s0.2,2.2,0.5,3.2s0.8,2,1.4,2.8s1.4,1.5,2.3,2c0.9,0.5,2,0.8,3.2,0.8
		c0.8,0,1.5-0.1,2.2-0.4c0.7-0.3,1.3-0.7,1.8-1.2c0.5-0.5,1-1.1,1.3-1.9s0.6-1.5,0.6-2.4h2.5c-0.3,2.5-1.3,4.5-2.8,5.9
		c-1.5,1.4-3.4,2.1-5.8,2.1c-1.6,0-3-0.3-4.2-0.9c-1.2-0.6-2.2-1.4-3.1-2.3c-0.8-1-1.5-2.1-1.9-3.5c-0.4-1.3-0.6-2.7-0.6-4.2
		s0.2-2.9,0.6-4.2c0.4-1.3,1.1-2.5,1.9-3.5c0.8-1,1.8-1.8,3.1-2.4c1.2-0.6,2.6-0.9,4.2-0.9c2.2,0,4.1,0.6,5.6,1.8s2.4,2.9,2.7,5.3
		H376.1z"/>
	<path class="st0" d="M391,112.1c1.6,0,3,0.3,4.2,0.9c1.2,0.6,2.2,1.4,3.1,2.4c0.8,1,1.5,2.1,1.9,3.5c0.4,1.3,0.6,2.7,0.6,4.2
		s-0.2,2.9-0.6,4.2c-0.4,1.3-1.1,2.5-1.9,3.5c-0.8,1-1.8,1.8-3.1,2.3c-1.2,0.6-2.6,0.9-4.2,0.9s-3-0.3-4.2-0.9
		c-1.2-0.6-2.2-1.4-3.1-2.3c-0.8-1-1.5-2.1-1.9-3.5c-0.4-1.3-0.6-2.7-0.6-4.2s0.2-2.9,0.6-4.2c0.4-1.3,1.1-2.5,1.9-3.5
		c0.8-1,1.8-1.8,3.1-2.4C388.1,112.4,389.5,112.1,391,112.1z M391,114.3c-1.2,0-2.3,0.3-3.2,0.8c-0.9,0.5-1.7,1.2-2.3,2
		c-0.6,0.8-1.1,1.8-1.4,2.8c-0.3,1.1-0.5,2.1-0.5,3.2s0.2,2.2,0.5,3.2s0.8,2,1.4,2.8s1.4,1.5,2.3,2c0.9,0.5,2,0.8,3.2,0.8
		s2.3-0.3,3.2-0.8c0.9-0.5,1.7-1.2,2.3-2s1.1-1.8,1.4-2.8c0.3-1.1,0.5-2.1,0.5-3.2s-0.2-2.2-0.5-3.2c-0.3-1.1-0.8-2-1.4-2.8
		c-0.6-0.8-1.4-1.5-2.3-2C393.3,114.5,392.2,114.3,391,114.3z"/>
	<path class="st0" d="M417.2,133.4v-4.2h3.4v4.2H417.2z"/>
	<path class="st0" d="M441.9,112.7h4.2v2.1h-4.2v13.9c0,0.8,0.1,1.5,0.3,1.9s0.8,0.7,1.7,0.8c0.7,0,1.4,0,2.2-0.1v2.1
		c-0.4,0-0.7,0-1.1,0s-0.7,0-1.1,0c-1.7,0-2.9-0.3-3.5-1c-0.7-0.7-1-1.9-1-3.6v-14.1h-3.6v-2.1h3.6v-6.2h2.5V112.7z"/>
	<path class="st0" d="M458.5,112.1c1.6,0,3,0.3,4.2,0.9c1.2,0.6,2.2,1.4,3.1,2.4c0.8,1,1.5,2.1,1.9,3.5c0.4,1.3,0.6,2.7,0.6,4.2
		s-0.2,2.9-0.6,4.2c-0.4,1.3-1.1,2.5-1.9,3.5c-0.8,1-1.8,1.8-3.1,2.3c-1.2,0.6-2.6,0.9-4.2,0.9s-3-0.3-4.2-0.9
		c-1.2-0.6-2.2-1.4-3.1-2.3c-0.8-1-1.5-2.1-1.9-3.5c-0.4-1.3-0.6-2.7-0.6-4.2s0.2-2.9,0.6-4.2c0.4-1.3,1.1-2.5,1.9-3.5
		c0.8-1,1.8-1.8,3.1-2.4C455.5,112.4,456.9,112.1,458.5,112.1z M458.5,114.3c-1.2,0-2.3,0.3-3.2,0.8c-0.9,0.5-1.7,1.2-2.3,2
		c-0.6,0.8-1.1,1.8-1.4,2.8c-0.3,1.1-0.5,2.1-0.5,3.2s0.2,2.2,0.5,3.2s0.8,2,1.4,2.8s1.4,1.5,2.3,2c0.9,0.5,2,0.8,3.2,0.8
		s2.3-0.3,3.2-0.8c0.9-0.5,1.7-1.2,2.3-2s1.1-1.8,1.4-2.8c0.3-1.1,0.5-2.1,0.5-3.2s-0.2-2.2-0.5-3.2c-0.3-1.1-0.8-2-1.4-2.8
		c-0.6-0.8-1.4-1.5-2.3-2C460.7,114.5,459.7,114.3,458.5,114.3z"/>
	<path class="st0" d="M484.6,133.4v-4.2h3.4v4.2H484.6z"/>
	<path class="st0" d="M503,112.7h2.7l6.8,17.6l6.4-17.6h2.5l-9,23.8c-0.4,0.9-0.7,1.6-1,2.2c-0.3,0.6-0.7,1-1.1,1.4
		c-0.4,0.3-0.8,0.6-1.4,0.7c-0.5,0.1-1.2,0.2-2,0.2c-0.5,0-0.9,0-1.2-0.1c-0.3,0-0.5-0.1-0.7-0.1v-2.1c0.3,0.1,0.6,0.1,0.9,0.1
		s0.6,0.1,0.9,0.1c0.6,0,1-0.1,1.4-0.2c0.4-0.2,0.7-0.4,0.9-0.7c0.3-0.3,0.5-0.6,0.7-1s0.4-0.8,0.6-1.3l0.9-2.3L503,112.7z"/>
	<path class="st0" d="M532.6,112.1c1.6,0,3,0.3,4.2,0.9c1.2,0.6,2.2,1.4,3.1,2.4c0.8,1,1.5,2.1,1.9,3.5c0.4,1.3,0.6,2.7,0.6,4.2
		s-0.2,2.9-0.6,4.2c-0.4,1.3-1.1,2.5-1.9,3.5c-0.8,1-1.8,1.8-3.1,2.3c-1.2,0.6-2.6,0.9-4.2,0.9s-3-0.3-4.2-0.9
		c-1.2-0.6-2.2-1.4-3.1-2.3c-0.8-1-1.5-2.1-1.9-3.5c-0.4-1.3-0.6-2.7-0.6-4.2s0.2-2.9,0.6-4.2c0.4-1.3,1.1-2.5,1.9-3.5
		c0.8-1,1.8-1.8,3.1-2.4C529.6,112.4,531,112.1,532.6,112.1z M532.6,114.3c-1.2,0-2.3,0.3-3.2,0.8c-0.9,0.5-1.7,1.2-2.3,2
		c-0.6,0.8-1.1,1.8-1.4,2.8c-0.3,1.1-0.5,2.1-0.5,3.2s0.2,2.2,0.5,3.2s0.8,2,1.4,2.8s1.4,1.5,2.3,2c0.9,0.5,2,0.8,3.2,0.8
		s2.3-0.3,3.2-0.8c0.9-0.5,1.7-1.2,2.3-2s1.1-1.8,1.4-2.8c0.3-1.1,0.5-2.1,0.5-3.2s-0.2-2.2-0.5-3.2c-0.3-1.1-0.8-2-1.4-2.8
		c-0.6-0.8-1.4-1.5-2.3-2C534.8,114.5,533.8,114.3,532.6,114.3z"/>
	<path class="st0" d="M562.8,133.4h-2.3v-3.7h-0.1c-0.7,1.4-1.6,2.4-2.9,3.2c-1.3,0.7-2.7,1.1-4.2,1.1c-1.3,0-2.4-0.2-3.3-0.5
		c-0.9-0.4-1.7-0.9-2.2-1.5s-1-1.5-1.3-2.4c-0.3-1-0.4-2.1-0.4-3.3v-13.4h2.5v13.4c0.1,1.9,0.5,3.3,1.3,4.2c0.8,1,2.2,1.4,4.2,1.4
		c1.1,0,2-0.2,2.8-0.7c0.8-0.5,1.4-1.1,1.9-1.9c0.5-0.8,0.9-1.7,1.1-2.7s0.4-2,0.4-3.1v-10.8h2.5V133.4z"/>
</g>
</svg>
