<?xml version="1.0" encoding="utf-8"?>
<!-- Generator: Adobe Illustrator 21.1.0, SVG Export Plug-In . SVG Version: 6.00 Build 0)  -->
<svg version="1.1" id="Capa_1" xmlns="http://www.w3.org/2000/svg" xmlns:xlink="http://www.w3.org/1999/xlink" x="0px" y="0px"
	 viewBox="0 0 733.3 141" style="enable-background:new 0 0 733.3 141;" xml:space="preserve">
<g>
	<path d="M16.5,1.8l31.6,50.7h0.2V1.8h15.6v75.6H47.2L15.8,26.8h-0.2v50.6H0V1.8H16.5z"/>
	<path d="M95.1,1.8v75.6H78.5V1.8H95.1z"/>
	<path d="M158.3,22c-1-1.6-2.2-3-3.7-4.2c-1.5-1.2-3.2-2.1-5-2.8c-1.9-0.7-3.8-1-5.9-1c-3.7,0-6.9,0.7-9.5,2.2
		c-2.6,1.4-4.7,3.4-6.4,5.8c-1.6,2.4-2.8,5.2-3.5,8.3c-0.7,3.1-1.1,6.3-1.1,9.6c0,3.2,0.4,6.3,1.1,9.3c0.7,3,1.9,5.7,3.5,8.1
		c1.6,2.4,3.7,4.3,6.4,5.8c2.6,1.4,5.8,2.2,9.5,2.2c5.1,0,9.1-1.6,11.9-4.7c2.9-3.1,4.6-7.2,5.2-12.3h16.1c-0.4,4.7-1.5,9-3.3,12.8
		c-1.8,3.8-4.1,7.1-7,9.7c-2.9,2.7-6.3,4.7-10.2,6.1c-3.9,1.4-8.2,2.1-12.8,2.1c-5.8,0-11-1-15.6-3c-4.6-2-8.5-4.8-11.7-8.3
		c-3.2-3.5-5.6-7.7-7.3-12.4c-1.7-4.8-2.5-9.9-2.5-15.4c0-5.6,0.8-10.9,2.5-15.7c1.7-4.8,4.1-9.1,7.3-12.7s7.1-6.4,11.7-8.5
		c4.6-2,9.8-3.1,15.6-3.1c4.2,0,8.1,0.6,11.8,1.8c3.7,1.2,7,2.9,10,5.2c2.9,2.3,5.3,5.1,7.3,8.5c1.9,3.4,3.1,7.3,3.6,11.7h-16.1
		C159.9,25.3,159.3,23.6,158.3,22z"/>
	<path d="M244.8,1.8v14h-39.9V32h36.7v12.9h-36.7v18.5h40.8v14h-57.4V1.8H244.8z"/>
	<path d="M280.4,15.8v-14h62v14h-22.7v61.7h-16.6V15.8H280.4z"/>
	<path d="M350.3,24.2c1.7-4.8,4.1-9.1,7.3-12.7s7.1-6.4,11.7-8.5C374,1,379.2,0,385,0c5.9,0,11.1,1,15.7,3.1c4.6,2,8.5,4.9,11.7,8.5
		c3.2,3.6,5.6,7.8,7.3,12.7c1.7,4.8,2.5,10.1,2.5,15.7c0,5.5-0.8,10.6-2.5,15.4c-1.7,4.8-4.1,8.9-7.3,12.4
		c-3.2,3.5-7.1,6.3-11.7,8.3c-4.6,2-9.8,3-15.7,3c-5.8,0-11-1-15.6-3c-4.6-2-8.5-4.8-11.7-8.3c-3.2-3.5-5.6-7.7-7.3-12.4
		c-1.7-4.8-2.5-9.9-2.5-15.4C347.8,34.3,348.6,29,350.3,24.2z M365.5,49.2c0.7,3,1.9,5.7,3.5,8.1c1.6,2.4,3.7,4.3,6.4,5.8
		c2.6,1.4,5.8,2.2,9.5,2.2c3.7,0,6.9-0.7,9.5-2.2c2.6-1.4,4.7-3.4,6.4-5.8c1.6-2.4,2.8-5.1,3.5-8.1c0.7-3,1.1-6.1,1.1-9.3
		c0-3.3-0.4-6.5-1.1-9.6c-0.7-3.1-1.9-5.9-3.5-8.3c-1.6-2.4-3.7-4.4-6.4-5.8c-2.6-1.4-5.8-2.2-9.5-2.2c-3.7,0-6.9,0.7-9.5,2.2
		c-2.6,1.4-4.7,3.4-6.4,5.8c-1.6,2.4-2.8,5.2-3.5,8.3c-0.7,3.1-1.1,6.3-1.1,9.6C364.4,43.1,364.8,46.2,365.5,49.2z"/>
	<path d="M479.6,1.8v29h30.6v-29h16.6v75.6h-16.6V44.8h-30.6v32.6H463V1.8H479.6z"/>
	<path d="M579.2,1.8l28.3,75.6h-17.3l-5.7-16.8h-28.3l-5.9,16.8h-16.7l28.6-75.6H579.2z M580.1,48.2l-9.5-27.8h-0.2l-9.9,27.8H580.1
		z"/>
	<path d="M625.6,77.4L601.1,1.8h17.1L635,55h0.2l17.1-53.2h17.2l-25.1,75.6H625.6z"/>
	<path d="M732.5,1.8v14h-39.9V32h36.7v12.9h-36.7v18.5h40.8v14h-57.4V1.8H732.5z"/>
</g>
<g>
	<path d="M175.7,114.9h-4.1v18.5h-2.5v-18.5h-3.5v-2.1h3.5v-1.9c0-0.9,0.1-1.7,0.2-2.4c0.1-0.7,0.4-1.4,0.8-1.9
		c0.4-0.5,0.9-0.9,1.5-1.2c0.7-0.3,1.5-0.4,2.5-0.4c0.4,0,0.7,0,1,0c0.3,0,0.7,0.1,1.1,0.1v2.2c-0.3-0.1-0.7-0.1-1-0.1
		c-0.3,0-0.6-0.1-0.9-0.1c-0.7,0-1.2,0.1-1.6,0.3c-0.4,0.2-0.6,0.5-0.8,0.9c-0.2,0.4-0.3,0.8-0.3,1.3c0,0.5,0,1,0,1.6v1.8h4.1V114.9
		z"/>
	<path d="M178.1,112.7h2.3v4.8h0.1c0.6-1.7,1.6-3,3-3.9c1.3-0.9,3-1.3,4.8-1.2v2.5c-1.1-0.1-2.2,0.1-3.1,0.5
		c-0.9,0.4-1.7,0.9-2.4,1.5c-0.7,0.7-1.2,1.5-1.6,2.4c-0.4,0.9-0.6,1.9-0.6,3v11h-2.5V112.7z"/>
	<path d="M198.7,112.1c1.6,0,3,0.3,4.2,0.9c1.2,0.6,2.2,1.4,3.1,2.4c0.8,1,1.5,2.1,1.9,3.5c0.4,1.3,0.6,2.7,0.6,4.2
		s-0.2,2.9-0.6,4.2c-0.4,1.3-1.1,2.5-1.9,3.5c-0.8,1-1.8,1.8-3.1,2.3c-1.2,0.6-2.6,0.9-4.2,0.9s-3-0.3-4.2-0.9
		c-1.2-0.6-2.2-1.4-3.1-2.3c-0.8-1-1.5-2.1-1.9-3.5c-0.4-1.3-0.6-2.7-0.6-4.2s0.2-2.9,0.6-4.2c0.4-1.3,1.1-2.5,1.9-3.5
		c0.8-1,1.8-1.8,3.1-2.4C195.8,112.4,197.2,112.1,198.7,112.1z M198.7,114.3c-1.2,0-2.3,0.3-3.2,0.8c-0.9,0.5-1.7,1.2-2.3,2
		c-0.6,0.8-1.1,1.8-1.4,2.8c-0.3,1.1-0.5,2.1-0.5,3.2s0.2,2.2,0.5,3.2s0.8,2,1.4,2.8s1.4,1.5,2.3,2c0.9,0.5,2,0.8,3.2,0.8
		s2.3-0.3,3.2-0.8c0.9-0.5,1.7-1.2,2.3-2s1.1-1.8,1.4-2.8c0.3-1.1,0.5-2.1,0.5-3.2s-0.2-2.2-0.5-3.2c-0.3-1.1-0.8-2-1.4-2.8
		c-0.6-0.8-1.4-1.5-2.3-2C201,114.5,199.9,114.3,198.7,114.3z"/>
	<path d="M212.3,112.7h2.3v3.5h0.1c0.7-1.3,1.5-2.3,2.6-3c1.1-0.7,2.5-1.1,4.1-1.1c1.4,0,2.6,0.3,3.7,1c1.1,0.7,1.8,1.7,2.2,3
		c0.6-1.4,1.5-2.4,2.7-3c1.2-0.7,2.5-1,3.8-1c4.6,0,6.8,2.4,6.8,7.2v14h-2.5v-13.9c0-1.7-0.4-3-1.1-3.9c-0.7-0.9-2-1.3-3.8-1.3
		c-1.1,0-2,0.2-2.7,0.6c-0.7,0.4-1.3,1-1.7,1.7c-0.4,0.7-0.7,1.5-0.9,2.4c-0.2,0.9-0.3,1.8-0.3,2.8v11.7h-2.5v-14
		c0-0.7-0.1-1.4-0.2-2s-0.4-1.2-0.7-1.6c-0.3-0.5-0.8-0.8-1.3-1.1c-0.6-0.3-1.2-0.4-2-0.4c-1.1,0-2,0.2-2.8,0.6
		c-0.8,0.4-1.4,0.9-1.9,1.6c-0.5,0.7-0.9,1.5-1.1,2.4s-0.4,1.9-0.4,3v11.5h-2.5V112.7z"/>
	<path d="M258.2,133.4v-4.2h3.4v4.2H258.2z"/>
	<path d="M278.9,112.7h2.3v3.5h0.1c0.7-1.3,1.5-2.3,2.6-3c1.1-0.7,2.5-1.1,4.1-1.1c1.4,0,2.6,0.3,3.7,1c1.1,0.7,1.8,1.7,2.2,3
		c0.6-1.4,1.5-2.4,2.7-3c1.2-0.7,2.5-1,3.8-1c4.6,0,6.8,2.4,6.8,7.2v14h-2.5v-13.9c0-1.7-0.4-3-1.1-3.9c-0.7-0.9-2-1.3-3.8-1.3
		c-1.1,0-2,0.2-2.7,0.6c-0.7,0.4-1.3,1-1.7,1.7c-0.4,0.7-0.7,1.5-0.9,2.4c-0.2,0.9-0.3,1.8-0.3,2.8v11.7h-2.5v-14
		c0-0.7-0.1-1.4-0.2-2s-0.4-1.2-0.7-1.6c-0.3-0.5-0.8-0.8-1.3-1.1c-0.6-0.3-1.2-0.4-2-0.4c-1.1,0-2,0.2-2.8,0.6
		c-0.8,0.4-1.4,0.9-1.9,1.6c-0.5,0.7-0.9,1.5-1.1,2.4s-0.4,1.9-0.4,3v11.5h-2.5V112.7z"/>
	<path d="M313.7,123.7c0,0.9,0.1,1.8,0.4,2.8c0.3,1,0.7,1.8,1.2,2.6c0.6,0.8,1.3,1.4,2.1,1.9c0.9,0.5,1.9,0.8,3.1,0.8
		c1.8,0,3.3-0.5,4.3-1.4c1-1,1.8-2.2,2.2-3.8h2.5c-0.5,2.3-1.5,4.2-2.9,5.4c-1.4,1.3-3.4,1.9-6.1,1.9c-1.6,0-3-0.3-4.2-0.9
		s-2.2-1.4-2.9-2.4c-0.7-1-1.3-2.2-1.7-3.5c-0.4-1.3-0.5-2.7-0.5-4.2c0-1.4,0.2-2.7,0.5-4c0.4-1.3,0.9-2.5,1.7-3.5
		c0.7-1,1.7-1.9,2.9-2.5c1.2-0.6,2.6-0.9,4.2-0.9c1.7,0,3.1,0.3,4.2,1c1.2,0.7,2.1,1.5,2.9,2.6c0.7,1.1,1.3,2.3,1.6,3.7
		c0.3,1.4,0.5,2.8,0.4,4.3H313.7z M327.1,121.6c0-1-0.2-1.9-0.5-2.8s-0.7-1.7-1.3-2.3c-0.6-0.7-1.2-1.2-2-1.6
		c-0.8-0.4-1.7-0.6-2.7-0.6c-1,0-2,0.2-2.8,0.6c-0.8,0.4-1.5,1-2,1.6c-0.6,0.7-1,1.5-1.3,2.4c-0.3,0.9-0.6,1.8-0.7,2.7H327.1z"/>
	<path d="M338.7,122.7l-7.4-9.9h3.2l5.9,7.8l5.8-7.8h3.2l-7.4,9.9l8,10.8h-3.2l-6.5-8.7l-6.4,8.7h-3.1L338.7,122.7z"/>
	<path d="M352.3,104.8h2.5v4h-2.5V104.8z M352.3,112.7h2.5v20.6h-2.5V112.7z"/>
	<path d="M374.2,119.2c-0.3-1.5-1-2.8-1.9-3.6c-0.9-0.9-2.2-1.3-3.9-1.3c-1.2,0-2.3,0.3-3.2,0.8c-0.9,0.5-1.7,1.2-2.3,2
		c-0.6,0.8-1.1,1.8-1.4,2.8c-0.3,1.1-0.5,2.1-0.5,3.2s0.2,2.2,0.5,3.2s0.8,2,1.4,2.8s1.4,1.5,2.3,2c0.9,0.5,2,0.8,3.2,0.8
		c0.8,0,1.5-0.1,2.2-0.4c0.7-0.3,1.3-0.7,1.8-1.2c0.5-0.5,1-1.1,1.3-1.9s0.6-1.5,0.6-2.4h2.5c-0.3,2.5-1.3,4.5-2.8,5.9
		c-1.5,1.4-3.4,2.1-5.8,2.1c-1.6,0-3-0.3-4.2-0.9c-1.2-0.6-2.2-1.4-3.1-2.3c-0.8-1-1.5-2.1-1.9-3.5c-0.4-1.3-0.6-2.7-0.6-4.2
		s0.2-2.9,0.6-4.2c0.4-1.3,1.1-2.5,1.9-3.5c0.8-1,1.8-1.8,3.1-2.4c1.2-0.6,2.6-0.9,4.2-0.9c2.2,0,4.1,0.6,5.6,1.8s2.4,2.9,2.7,5.3
		H374.2z"/>
	<path d="M389.1,112.1c1.6,0,3,0.3,4.2,0.9c1.2,0.6,2.2,1.4,3.1,2.4c0.8,1,1.5,2.1,1.9,3.5c0.4,1.3,0.6,2.7,0.6,4.2
		s-0.2,2.9-0.6,4.2c-0.4,1.3-1.1,2.5-1.9,3.5c-0.8,1-1.8,1.8-3.1,2.3c-1.2,0.6-2.6,0.9-4.2,0.9s-3-0.3-4.2-0.9
		c-1.2-0.6-2.2-1.4-3.1-2.3c-0.8-1-1.5-2.1-1.9-3.5c-0.4-1.3-0.6-2.7-0.6-4.2s0.2-2.9,0.6-4.2c0.4-1.3,1.1-2.5,1.9-3.5
		c0.8-1,1.8-1.8,3.1-2.4C386.2,112.4,387.6,112.1,389.1,112.1z M389.1,114.3c-1.2,0-2.3,0.3-3.2,0.8c-0.9,0.5-1.7,1.2-2.3,2
		c-0.6,0.8-1.1,1.8-1.4,2.8c-0.3,1.1-0.5,2.1-0.5,3.2s0.2,2.2,0.5,3.2s0.8,2,1.4,2.8s1.4,1.5,2.3,2c0.9,0.5,2,0.8,3.2,0.8
		s2.3-0.3,3.2-0.8c0.9-0.5,1.7-1.2,2.3-2s1.1-1.8,1.4-2.8c0.3-1.1,0.5-2.1,0.5-3.2s-0.2-2.2-0.5-3.2c-0.3-1.1-0.8-2-1.4-2.8
		c-0.6-0.8-1.4-1.5-2.3-2C391.4,114.5,390.3,114.3,389.1,114.3z"/>
	<path d="M415.3,133.4v-4.2h3.4v4.2H415.3z"/>
	<path d="M440,112.7h4.2v2.1H440v13.9c0,0.8,0.1,1.5,0.3,1.9s0.8,0.7,1.7,0.8c0.7,0,1.4,0,2.2-0.1v2.1c-0.4,0-0.7,0-1.1,0
		s-0.7,0-1.1,0c-1.7,0-2.9-0.3-3.5-1c-0.7-0.7-1-1.9-1-3.6v-14.1h-3.6v-2.1h3.6v-6.2h2.5V112.7z"/>
	<path d="M456.6,112.1c1.6,0,3,0.3,4.2,0.9c1.2,0.6,2.2,1.4,3.1,2.4c0.8,1,1.5,2.1,1.9,3.5c0.4,1.3,0.6,2.7,0.6,4.2
		s-0.2,2.9-0.6,4.2c-0.4,1.3-1.1,2.5-1.9,3.5c-0.8,1-1.8,1.8-3.1,2.3c-1.2,0.6-2.6,0.9-4.2,0.9s-3-0.3-4.2-0.9
		c-1.2-0.6-2.2-1.4-3.1-2.3c-0.8-1-1.5-2.1-1.9-3.5c-0.4-1.3-0.6-2.7-0.6-4.2s0.2-2.9,0.6-4.2c0.4-1.3,1.1-2.5,1.9-3.5
		c0.8-1,1.8-1.8,3.1-2.4C453.6,112.4,455,112.1,456.6,112.1z M456.6,114.3c-1.2,0-2.3,0.3-3.2,0.8c-0.9,0.5-1.7,1.2-2.3,2
		c-0.6,0.8-1.1,1.8-1.4,2.8c-0.3,1.1-0.5,2.1-0.5,3.2s0.2,2.2,0.5,3.2s0.8,2,1.4,2.8s1.4,1.5,2.3,2c0.9,0.5,2,0.8,3.2,0.8
		s2.3-0.3,3.2-0.8c0.9-0.5,1.7-1.2,2.3-2s1.1-1.8,1.4-2.8c0.3-1.1,0.5-2.1,0.5-3.2s-0.2-2.2-0.5-3.2c-0.3-1.1-0.8-2-1.4-2.8
		c-0.6-0.8-1.4-1.5-2.3-2C458.8,114.5,457.8,114.3,456.6,114.3z"/>
	<path d="M482.7,133.4v-4.2h3.4v4.2H482.7z"/>
	<path d="M501.1,112.7h2.7l6.8,17.6l6.4-17.6h2.5l-9,23.8c-0.4,0.9-0.7,1.6-1,2.2c-0.3,0.6-0.7,1-1.1,1.4c-0.4,0.3-0.8,0.6-1.4,0.7
		c-0.5,0.1-1.2,0.2-2,0.2c-0.5,0-0.9,0-1.2-0.1c-0.3,0-0.5-0.1-0.7-0.1v-2.1c0.3,0.1,0.6,0.1,0.9,0.1s0.6,0.1,0.9,0.1
		c0.6,0,1-0.1,1.4-0.2c0.4-0.2,0.7-0.4,0.9-0.7c0.3-0.3,0.5-0.6,0.7-1s0.4-0.8,0.6-1.3l0.9-2.3L501.1,112.7z"/>
	<path d="M530.7,112.1c1.6,0,3,0.3,4.2,0.9c1.2,0.6,2.2,1.4,3.1,2.4c0.8,1,1.5,2.1,1.9,3.5c0.4,1.3,0.6,2.7,0.6,4.2
		s-0.2,2.9-0.6,4.2c-0.4,1.3-1.1,2.5-1.9,3.5c-0.8,1-1.8,1.8-3.1,2.3c-1.2,0.6-2.6,0.9-4.2,0.9s-3-0.3-4.2-0.9
		c-1.2-0.6-2.2-1.4-3.1-2.3c-0.8-1-1.5-2.1-1.9-3.5c-0.4-1.3-0.6-2.7-0.6-4.2s0.2-2.9,0.6-4.2c0.4-1.3,1.1-2.5,1.9-3.5
		c0.8-1,1.8-1.8,3.1-2.4C527.7,112.4,529.1,112.1,530.7,112.1z M530.7,114.3c-1.2,0-2.3,0.3-3.2,0.8c-0.9,0.5-1.7,1.2-2.3,2
		c-0.6,0.8-1.1,1.8-1.4,2.8c-0.3,1.1-0.5,2.1-0.5,3.2s0.2,2.2,0.5,3.2s0.8,2,1.4,2.8s1.4,1.5,2.3,2c0.9,0.5,2,0.8,3.2,0.8
		s2.3-0.3,3.2-0.8c0.9-0.5,1.7-1.2,2.3-2s1.1-1.8,1.4-2.8c0.3-1.1,0.5-2.1,0.5-3.2s-0.2-2.2-0.5-3.2c-0.3-1.1-0.8-2-1.4-2.8
		c-0.6-0.8-1.4-1.5-2.3-2C532.9,114.5,531.9,114.3,530.7,114.3z"/>
	<path d="M560.9,133.4h-2.3v-3.7h-0.1c-0.7,1.4-1.6,2.4-2.9,3.2c-1.3,0.7-2.7,1.1-4.2,1.1c-1.3,0-2.4-0.2-3.3-0.5
		c-0.9-0.4-1.7-0.9-2.2-1.5s-1-1.5-1.3-2.4c-0.3-1-0.4-2.1-0.4-3.3v-13.4h2.5v13.4c0.1,1.9,0.5,3.3,1.3,4.2c0.8,1,2.2,1.4,4.2,1.4
		c1.1,0,2-0.2,2.8-0.7c0.8-0.5,1.4-1.1,1.9-1.9c0.5-0.8,0.9-1.7,1.1-2.7s0.4-2,0.4-3.1v-10.8h2.5V133.4z"/>
</g>
</svg>
