<?xml version="1.0" encoding="utf-8"?>
<!-- Generator: Adobe Illustrator 19.0.0, SVG Export Plug-In . SVG Version: 6.00 Build 0)  -->
<svg version="1.1" id="Layer_1" xmlns="http://www.w3.org/2000/svg" xmlns:xlink="http://www.w3.org/1999/xlink" x="0px" y="0px"
	 viewBox="0 0 44.14906 44.17732" style="enable-background:new 0 0 44.14906 44.17732;" xml:space="preserve">
<metadata><?xpacket begin="﻿" id="W5M0MpCehiHzreSzNTczkc9d"?>
<x:xmpmeta xmlns:x="adobe:ns:meta/" x:xmptk="Adobe XMP Core 5.6-c067 79.157747, 2015/03/30-23:40:42        ">
   <rdf:RDF xmlns:rdf="http://www.w3.org/1999/02/22-rdf-syntax-ns#">
      <rdf:Description rdf:about=""/>
   </rdf:RDF>
</x:xmpmeta>
                                                                                                    
                                                                                                    
                                                                                                    
                                                                                                    
                                                                                                    
                                                                                                    
                                                                                                    
                                                                                                    
                                                                                                    
                                                                                                    
                                                                                                    
                                                                                                    
                                                                                                    
                                                                                                    
                                                                                                    
                                                                                                    
                                                                                                    
                                                                                                    
                                                                                                    
                                                                                                    
                           
<?xpacket end="w"?></metadata>
<style type="text/css">
	.st0{fill:#231F20 !important;}
	.st1{fill:none;stroke:#231F20;stroke-miterlimit:10;}
</style>
<g id="XMLID_3_">
	<g id="XMLID_17_">
		<path id="XMLID_18_" class="st0" d="M8.818,39.41522c0.19531,0.65039,0.62305,1.24121,1.2373,1.55566
			c0.76562,0.39258,1.41602,0.24316,1.70801-0.32715c0.30566-0.59668-0.02539-1.00293-0.4502-1.53516l-0.64941-0.79395
			c-0.4248-0.50977-0.85156-1.25684-0.41309-2.11133c0.45605-0.88965,1.57715-1.14746,2.63672-0.60449
			c0.69434,0.35547,1.1582,0.96484,1.34863,1.60059l-0.6377,0.28027c-0.18262-0.51953-0.50977-0.95801-1.04395-1.23047
			c-0.65918-0.33789-1.26367-0.23242-1.5332,0.29199c-0.28711,0.56152,0.11914,1.04004,0.47363,1.46875l0.6543,0.78516
			c0.52539,0.64062,0.8457,1.31055,0.40332,2.17383c-0.47461,0.92676-1.61914,1.27246-2.84766,0.64355
			c-0.81934-0.41992-1.3584-1.12402-1.59668-1.90918L8.818,39.41522z"/>
		<path id="XMLID_22_" class="st0" d="M18.75257,37.58807l0.83887-0.03027l0.13965,3.86621
			c0.05762,1.57715,0.74414,2.05176,1.59375,2.02148c0.86816-0.03125,1.54004-0.55566,1.48242-2.13379l-0.13965-3.86523
			l0.79883-0.0293l0.13965,3.8457c0.07617,2.10742-0.91699,2.86328-2.25488,2.91211
			c-1.33887,0.04785-2.38379-0.63379-2.45996-2.74121L18.75257,37.58807z"/>
		<path id="XMLID_24_" class="st0" d="M27.80921,35.99335l1.64746-1.04102c1.12402-0.70996,2.14941-0.82617,2.7627,0.14551
			c0.34668,0.5498,0.34375,1.2373-0.20801,1.82129l0.02051,0.03418c0.8916-0.38477,1.6416-0.24414,2.12207,0.51465
			c0.68848,1.09082,0.16309,2.16699-1.07031,2.94629l-1.77442,1.12109L27.80921,35.99335z M30.83167,37.39178
			c0.93848-0.59082,1.12207-1.18066,0.73242-1.79688c-0.37891-0.60059-0.98633-0.57031-1.83984-0.03223l-0.85352,0.53906
			l1.1416,1.80859L30.83167,37.39178z M32.62953,39.92108c0.94629-0.59766,1.28516-1.29688,0.81055-2.04883
			c-0.43262-0.68457-1.16211-0.66113-2.13379-0.04688l-0.96289,0.60742l1.32324,2.09668L32.62953,39.92108z"/>
		<path id="XMLID_37_" class="st0" d="M34.44496,30.21796l0.46289-0.7002l5.46875,3.61621l-0.46387,0.7002L34.44496,30.21796z"/>
		<path id="XMLID_41_" class="st0" d="M43.99965,22.65741l-2.98438,1.12402l-0.18555,1.16504l2.73535,0.43652l-0.13281,0.83008
			l-6.47754-1.0332l0.32422-2.03516c0.20898-1.31348,0.83496-2.18555,2.17773-1.97168
			c1.00684,0.16113,1.51855,0.8291,1.60547,1.74512l3.08691-1.19922L43.99965,22.65741z M40.15785,24.83905l0.17383-1.08594
			c0.16016-1.00684-0.16602-1.62598-1.00586-1.76074c-0.84961-0.13477-1.24316,0.37012-1.4043,1.37695l-0.17285,1.08594
			L40.15785,24.83905z"/>
	</g>
	<g id="XMLID_16_">
		<g id="XMLID_76_">
			<g id="XMLID_80_">
				<path id="XMLID_81_" class="st1" d="M13.75329,17.88769l7.1118-5.1109l7.0146,5.2227"/>
			</g>
			<g id="XMLID_77_">
				<path id="XMLID_78_" class="st1" d="M13.75329,25.09658l7.1118-5.1084l7.0146,5.2212"/>
			</g>
		</g>
	</g>
	<path id="XMLID_15_" class="st1" d="M5.58089,34.01559c-4.2651-4.814-6.1557-11.5825-4.4663-18.2896
		c2.7168-10.7856,13.6641-17.3281,24.4502-14.6113c6.9639,1.7539,12.1577,6.9399,14.2344,13.2944"/>
</g>
</svg>
