<?xml version="1.0" encoding="utf-8"?>
<!-- Generator: Adobe Illustrator 19.0.0, SVG Export Plug-In . SVG Version: 6.00 Build 0)  -->
<svg version="1.1" id="Layer_1" xmlns="http://www.w3.org/2000/svg" xmlns:xlink="http://www.w3.org/1999/xlink" x="0px" y="0px"
	 viewBox="0 0 75.47644 75.14391" style="enable-background:new 0 0 75.47644 75.14391;" xml:space="preserve">
<metadata><?xpacket begin="﻿" id="W5M0MpCehiHzreSzNTczkc9d"?>
<x:xmpmeta xmlns:x="adobe:ns:meta/" x:xmptk="Adobe XMP Core 5.6-c067 79.157747, 2015/03/30-23:40:42        ">
   <rdf:RDF xmlns:rdf="http://www.w3.org/1999/02/22-rdf-syntax-ns#">
      <rdf:Description rdf:about=""/>
   </rdf:RDF>
</x:xmpmeta>
                                                                                                    
                                                                                                    
                                                                                                    
                                                                                                    
                                                                                                    
                                                                                                    
                                                                                                    
                                                                                                    
                                                                                                    
                                                                                                    
                                                                                                    
                                                                                                    
                                                                                                    
                                                                                                    
                                                                                                    
                                                                                                    
                                                                                                    
                                                                                                    
                                                                                                    
                                                                                                    
                           
<?xpacket end="w"?></metadata>
<style type="text/css">
	.st0{fill:#231F20;}
</style>
<g>
	<path class="st0" d="M6.14636,16.97369C10.93787,9.28814,18.43567,3.92828,27.25842,1.8814
		c12.25757-2.84326,25.00757,1.2998,33.27319,10.81006l0.75488-0.65625C52.77747,2.24566,39.65198-2.01801,27.03235,0.90728
		c-9.08276,2.10742-16.80176,7.625-21.73438,15.53711c-4.93311,7.9126-6.48926,17.27148-4.38184,26.35352
		c1.26587,5.46045,3.86084,10.58887,7.50415,14.83203l0.75879-0.65137c-3.53882-4.12109-6.05908-9.10303-7.28882-14.40625
		C-0.15662,33.75006,1.35486,24.65924,6.14636,16.97369z"/>
	<path class="st0" d="M17.3988,61.53717l-2.26099-1.49854l-4.77271,7.20068l0.92212,0.61084l2.01514-3.04053l1.29517,0.8584
		l-0.28101,4.18994l1.04272,0.69141l0.24805-4.354c1.14404,0.39453,2.22437,0.14697,2.96631-0.97217
		C19.56335,63.73053,18.85876,62.50494,17.3988,61.53717z M17.66296,64.61919c-0.61865,0.93311-1.53882,0.98633-2.6582,0.24463
		l-1.20752-0.80029l1.77515-2.67822l1.20728,0.80029C17.89929,62.9273,18.28845,63.67486,17.66296,64.61919z"/>
	<polygon class="st0" points="23.73328,73.93316 28.71277,75.0689 28.92078,74.15777 25.01892,73.26763 25.71594,70.21294 
		28.8988,70.93902 29.10681,70.02789 25.92395,69.30181 26.52722,66.65777 30.30066,67.51861 30.50525,66.62017 25.65393,65.51324 	
		"/>
	<path class="st0" d="M40.50476,70.53277l0.13232,0.89844l1.81055-0.26709l0.3291,2.22705
		c-0.29224,0.36279-0.8623,0.64697-1.47461,0.73682c-1.82349,0.26953-3.03955-0.93506-3.35718-3.0835
		c-0.31372-2.12354,0.59692-3.61523,2.32935-3.87158c0.84668-0.125,1.43066,0.13428,1.92773,0.52686l0.52319-0.78271
		c-0.58496-0.4458-1.44531-0.86426-2.60474-0.69336c-2.29199,0.33936-3.69775,2.26416-3.29199,5.01172
		c0.41211,2.78711,2.25659,4.19189,4.49683,3.86084c1.14624-0.16992,2.03149-0.75293,2.51074-1.38281l-0.53149-3.59473
		L40.50476,70.53277z"/>
	<path class="st0" d="M50.0907,62.99859l1.69678,8.94921l0.97388-0.54883l-0.57104-2.69873l2.73779-1.54492l2.01416,1.88428
		l1.0083-0.56885l-6.7832-6.07959L50.0907,62.99859z M54.25427,66.52398l-2.25635,1.27295l-0.27979-1.35205
		c-0.2085-0.98486-0.43335-1.94482-0.68408-2.95117l0.0459-0.02637c0.73193,0.73486,1.4375,1.42382,2.17285,2.11132
		L54.25427,66.52398z"/>
	<polygon class="st0" points="64.35486,61.41949 58.50964,56.40728 57.78992,57.24615 64.3446,62.86773 67.51501,59.16998 
		66.80554,58.56158 	"/>
	<path class="st0" d="M64.52625,46.78619l7.04199,5.79199l0.39624-1.04688l-2.1687-1.70801l1.11426-2.94238l2.75635,0.15674
		l0.41016-1.08398l-9.11206-0.3252L64.52625,46.78619z M65.58728,46.51178c1.03369,0.09619,2.01807,0.17285,3.02417,0.22998
		l1.37573,0.08496l-0.91846,2.42529l-1.08203-0.85986c-0.7915-0.62402-1.58032-1.21777-2.41797-1.83105L65.58728,46.51178z"/>
	<path class="st0" d="M66.82263,35.35113l0.0249,2.15723l8.62891-0.1001l-0.02588-2.21045
		c-0.03027-2.604-1.65186-4.00586-4.40063-3.97412C68.31384,31.25592,66.79138,32.69439,66.82263,35.35113z M74.5575,35.3399
		l0.01147,0.97314l-6.8396,0.08008l-0.01147-0.97363c-0.02368-2.02539,1.1748-3.03906,3.34521-3.06445
		C73.24646,32.32965,74.53406,33.31402,74.5575,35.3399z"/>
	<path class="st0" d="M69.63147,24.14166c2.55347-1.08838,3.55298-3.17285,2.7019-5.16943
		c-0.8457-1.98535-3.04126-2.70801-5.59497-1.61963c-2.52954,1.07764-3.48022,3.1416-2.63452,5.12598
		C64.95471,24.47613,67.08997,25.22467,69.63147,24.14166z M67.18201,18.39264c1.98486-0.8457,3.66455-0.46045,4.26807,0.95605
		c0.6084,1.42773-0.27734,2.90625-2.26221,3.75195c-1.97266,0.84082-3.59229,0.42969-4.20068-0.99805
		C64.38416,20.68658,65.20935,19.23346,67.18201,18.39264z"/>
	<path class="st0" d="M44.73499,23.47808c0.09912-0.73193-0.13062-1.42383-0.68237-2.05664
		c-0.61572-0.70605-1.38379-1.03125-2.22559-0.94385c-1.3418,0.14105-2.66626,1.29956-3.73682,2.56152
		c0.35327-1.9198,0.45288-4.09918-0.47168-5.41895c-0.5271-0.75244-1.31128-1.13428-2.33057-1.13428
		c-1.00415,0-1.80908,0.39209-2.32812,1.13379c-0.88501,1.26526-0.83008,3.31958-0.51172,5.17755
		c-1.03174-1.16479-2.27197-2.18787-3.5271-2.31964c-0.8418-0.08496-1.60986,0.23828-2.22461,0.94385
		c-0.55225,0.63281-0.78174,1.3252-0.68286,2.05713c0.11572,0.85449,0.68359,1.7226,1.68726,2.59131h-2.48315v20.02783H45.3446
		V26.06988H43.047C44.05115,25.20086,44.61951,24.3327,44.73499,23.47808z M41.93152,21.47223
		c0.51758-0.05127,0.96411,0.14404,1.36743,0.60645c0.35889,0.41162,0.50464,0.82568,0.44507,1.26514
		c-0.11108,0.82129-0.9209,1.76221-2.34424,2.72607h-4.08765c0.05151-0.15802,0.10718-0.33661,0.16553-0.52875
		C38.83118,23.46624,40.55457,21.6167,41.93152,21.47223z M33.77942,18.19293c0.33276-0.47559,0.82617-0.70703,1.50854-0.70703
		c0.68335,0,1.17773,0.23145,1.51147,0.70801c0.90991,1.29956,0.5708,4.21704-0.23462,6.91504
		c-0.24951,0.38599-0.44873,0.71838-0.58911,0.96094h-1.20361c-0.19019-0.32849-0.4895-0.82336-0.8728-1.38867
		C33.18225,22.10852,32.9176,19.42468,33.77942,18.19293z M27.00452,23.3443c-0.05933-0.43994,0.08618-0.854,0.44556-1.26562
		c0.40283-0.46289,0.84766-0.66162,1.36646-0.60645c1.27905,0.13422,2.85938,1.74036,4.16284,3.63116
		c0.10474,0.36743,0.20605,0.69403,0.29541,0.96649h-3.92676C27.92517,25.1065,27.11584,24.16558,27.00452,23.3443z
		 M29.04578,27.06988h4.57983h1.15649v8.04102h-8.56445v-8.04102H29.04578z M26.21765,36.1109h8.56445v8.98682h-8.56445V36.1109z
		 M35.7821,45.09771V36.1109h8.5625v8.98682H35.7821z M44.3446,35.1109h-8.5625v-8.04102h1.18042h4.7395h2.64258V35.1109z"/>
</g>
</svg>
