<svg xmlns="http://www.w3.org/2000/svg">
<defs>
<font id="bohemiantypewriter" horiz-adv-x="1188" ><font-face
    font-family="remagg_cz"
    units-per-em="2048"
    panose-1="2 0 0 0 0 0 0 0 0 0"
    ascent="1854"
    descent="-434"
    alphabetic="0" />
<missing-glyph horiz-adv-x="1284" d="M6 1334H1086L1091 1329V564Q1091 431 969 244Q917 176 821 102Q720 29 571 3L544 1Q448 6 321 71Q268 94 136 224Q1 421 1 568V1329L6 1334ZM514 1257V1253L530 1237V1233H528Q516 1233 510 1244Q495 1233 487 1233V1237Q503
1250 503 1260V1262Q503 1269 485 1269L469 1284H463Q476 1269 487 1201H623V1215H541L537 1219V1224H625Q631 1258 645 1284H641L620 1266Q600 1266 600 1251Q600 1246 616 1235V1233H611Q603 1233 591 1242L571 1235L569 1237V1239Q589 1245 589 1260Q589 1269
569 1275Q562 1298 555 1298H551Q541 1292 528 1271Q514 1271 514 1257ZM136 1257Q143 1248 150 1224L159 1221Q168 1225 168 1228V1230Q168 1250 136 1257ZM999 1255Q992 1236 963 1185Q958 1176 956 1149H949V1165Q949 1180 933 1188H920Q900 1183 900 1176V1174Q933
1174 933 1127Q933 1096 852 1017Q775 924 764 854V843H762Q746 860 706 881V859Q706 833 751 812L753 809V807L751 805H749L710 827H708L706 816Q706 787 755 762V758H749L715 778V762Q715 742 762 717L769 704H764Q744 721 726 726V724Q726 680 767 670Q782 662
782 652H778Q760 668 746 668Q746 628 791 618L800 607L796 602Q787 613 776 613H773Q783 575 866 575H882Q957 575 969 598Q985 614 985 625H983Q957 611 949 611V613Q956 623 994 640Q1010 660 1010 670V674H1008Q979 661 969 652H967V656L1017 692Q1030 715
1030 737L983 706L981 708V710Q1044 752 1044 782L1046 794H1041Q1041 783 983 751L981 753V755Q1050 794 1050 839V843L1048 852Q1021 824 992 809V812Q1046 854 1046 870L1048 890V897Q1041 887 985 848Q985 907 915 998L913 1001L906 1005L879 976Q898 976 931
881Q940 835 940 814Q940 717 900 602H895V604L900 654V663Q900 681 888 706H886Q886 684 873 634V622H868V629L882 695V708L884 710V713L875 719L852 636V631L857 607L855 604H852Q844 604 841 629V640L843 643Q794 753 794 789V812Q794 927 906 1017Q921 1026

<glyph unicode=" " glyph-name="space" horiz-adv-x="1000" />
<glyph unicode="!" glyph-name="exclam" horiz-adv-x="616" d="M290 1392Q390 1316 390 1304Q390 1284 410 1224V1212L398 1164L410 1112Q410 1095 366 1032L370 968L354 924L362 880Q352 880 346 748L338 696L342 660V592L310 456Q295 436 278 436V428Q336 348
394 348Q414 348 442 184H438L442 180V176Q440 138 378 52L362 44L302 56V52Q302 44 286 44V32Q286 3 274 0H266Q255 0 210 32Q118 56 118 96Q86 134 86 168Q86 211 134 328Q158 352 206 364Q243 399 274 416V428Q205 477 166 524V528L174 572V580L154 640V644L166
692V724Q151 747 142 840Q135 840 126 880Q126 1028 110 1028L118 1104L102 1180V1208L106 1224L94 1264V1272Q94 1295 170 1372L202 1380L238 1376Q273 1392 290 1392Z" />
<glyph unicode="&quot;" glyph-name="quotedbl" horiz-adv-x="910" d="M570 1704Q612 1704 726 1616Q738 1602 742 1536Q762 1526 762 1504V1500L726 1432V1420L730 1356L706 1300L710 1244Q670 1194 670 1180L674 1144Q674 1106 614 1048L582 1040Q538 1040 522
1100Q499 1124 486 1124L478 1156L498 1180V1184Q498 1194 450 1232L442 1248L466 1304V1308L438 1360L442 1416L418 1484L434 1536L430 1596Q440 1623 514 1664Q542 1699 570 1704ZM158 1696Q199 1696 254 1636Q297 1606 306 1588V1584L290 1528L310 1468Q303
1445 278 1416V1396Q302 1370 302 1352Q246 1312 246 1304V1296L294 1256V1240Q242 1203 242 1180Q242 1154 222 1112L226 1072Q211 1036 174 1036H166Q110 1036 62 1116V1120L74 1164Q63 1197 34 1236V1256L46 1296L34 1344V1412Q19 1456 10 1564L2 1576Q2 1633
106 1684L158 1696Z" />
<glyph unicode="#" glyph-name="numbersign" horiz-adv-x="1795" d="M363 371Q364 391 364 410Q409 458 411 535Q409 543 436 666Q436 732 464 770Q477 843 479 904Q484 910 488 919L437 916L360 887Q301 917 280 918Q220 882 202 893Q174 925 177 933Q107 977
121 1007L125 1036Q146 1056 157 1079Q218 1114 259 1099Q307 1120 341 1098Q386 1102 412 1097L491 1090Q507 1094 520 1097Q526 1112 535 1132L548 1201Q550 1231 564 1280Q554 1322 583 1370Q580 1419 625 1478Q648 1485 669 1503L678 1505Q681 1506 684 1506Q711
1506 748 1425Q755 1427 775 1388Q781 1366 736 1309Q731 1285 743 1212L699 1155L684 1097V1094Q694 1097 702 1102Q734 1089 800 1086Q839 1108 896 1091Q987 1091 993 1087Q1050 1072 1123 1095Q1128 1127 1130 1160L1142 1176L1146 1177L1150 1187L1161 1254Q1156
1331 1161 1336L1177 1353L1182 1359Q1191 1423 1218 1457Q1257 1475 1303 1484L1312 1477Q1340 1409 1343 1376Q1303 1268 1309 1202Q1279 1154 1265 1095Q1286 1098 1306 1105L1322 1095L1323 1091L1332 1089L1393 1093Q1460 1118 1465 1114L1482 1100L1487 1097Q1545
1103 1579 1081Q1605 1065 1619 997L1614 985Q1558 937 1530 925Q1430 943 1373 919Q1324 942 1267 942Q1243 928 1228 922L1238 862L1232 854L1211 837Q1217 772 1204 756L1209 688L1177 663L1169 565Q1177 512 1170 502L1158 493L1150 478Q1144 416 1127 394Q1131
382 1133 372L1180 376Q1206 381 1251 378Q1285 399 1333 379Q1374 394 1435 358Q1447 335 1467 316L1471 306Q1486 256 1415 212Q1418 205 1390 173Q1372 162 1313 198Q1292 197 1232 166L1155 196L1103 199Q1090 194 1080 191L1072 151L1088 81Q1046 19 1040
-4Q1056 -75 1043 -92Q1008 -119 1002 -115Q962 -166 929 -166Q917 -166 905 -158L898 -152Q886 -127 868 -111Q870 -47 876 5Q870 61 897 95Q905 145 916 173L922 195Q899 189 855 195L841 190L831 180Q842 174 796 196L710 211L683 182L624 205Q609 194 573 217L555
199L547 193L474 216Q463 157 470 102Q436 45 427 -70Q410 -98 336 -148L325 -151Q287 -124 279 -91Q269 -48 288 14L287 20L278 43Q277 50 314 117L332 183L333 193L330 196L325 216Q326 218 327 221Q326 221 325 222Q268 222 219 199Q162 222 62 205Q34 216 -22
264L-27 276Q-13 345 13 361Q47 382 105 376L110 380L127 394Q132 397 199 373L260 368L269 370L270 374L286 385Q323 372 363 371ZM651 917Q649 914 646 911Q653 884 632 825L633 808L639 795Q642 783 612 738L578 647L596 610L563 551Q568 531 535 475L547 450L549
441L499 367Q554 355 599 367Q605 371 696 371Q753 387 792 365Q858 368 890 381Q914 366 962 369Q986 436 978 471Q1002 527 1022 599Q1012 645 1040 706Q1067 828 1073 835Q1095 884 1091 928L1045 914L1038 919L1020 938Q983 915 968 925L909 903L882 932L796
916Q771 894 761 900L751 910L737 916Q681 907 661 921Q656 919 651 917Z" />
<glyph unicode="$" glyph-name="dollar" horiz-adv-x="1252" d="M612 565Q611 474 607 467Q589 389 624 307Q601 216 622 135L634 142L686 122H710Q736 148 794 186Q806 197 810 258L846 306Q842 322 818 350V362L830 414Q807 447 790 494L786 498L774 506L730
502Q681 562 618 562L612 565ZM446 1154Q430 1141 422 1140L382 1164Q355 1164 330 1104L270 1084Q254 1068 274 1039Q224 1018 224 987L212 919Q239 859 280 859Q293 859 302 798Q357 798 406 758L439 748Q426 782 431 790L442 801L447 819Q438 884 453 909Q431
941 432 960L441 976L453 989L441 1020Q435 1043 451 1087L448 1150L446 1154ZM629 1322H630L706 1278L778 1262Q807 1281 814 1302Q840 1322 854 1322Q954 1292 954 1226L982 1110L978 1050Q994 1000 994 974Q973 858 934 858Q918 858 826 934L818 950L826 994Q781
1086 750 1086L734 1082Q698 1097 698 1138L678 1150L658 1146H626Q620 1149 615 1151L610 1086Q627 1015 619 1000Q597 906 623 860Q611 806 606 740L618 742H622Q644 742 706 702Q742 699 902 614Q978 564 978 558Q989 558 1006 506Q1030 488 1030 454L1026 438L1070
358Q1046 194 1014 170Q975 30 914 30Q852 -30 818 -30Q776 -30 746 -70L638 -86H626L623 -85L621 -88L617 -94Q623 -162 601 -203Q562 -203 502 -193Q455 -197 461 -174L457 -145Q464 -103 465 -68Q408 -50 366 -50H334Q289 -10 274 -10L234 -22Q221 -22 206 -10Q179
-10 174 -38Q162 -65 142 -78H126Q91 -50 38 -26L22 6L26 38L10 114V118L22 186L2 238L6 282L-10 354L26 422V430L22 446Q30 470 38 470H50Q87 437 102 434L118 438Q158 433 158 402L150 362V358Q175 258 234 258Q256 258 266 190Q275 174 290 174V170L310 174H314Q336
174 346 154L342 142Q371 108 398 98L438 134H446L471 116Q475 141 475 167Q444 228 449 238L486 266L487 281L445 406L451 415L471 436Q446 503 457 522L434 590L455 612Q425 619 394 630H386L350 622H338Q281 674 262 674H254L234 670Q200 693 166 738Q130 738
78 858L82 878Q62 931 62 958Q82 1134 110 1134Q144 1148 198 1222Q219 1248 370 1294Q385 1309 418 1322L446 1316Q450 1328 450 1336Q432 1407 444 1427Q443 1447 455 1457L522 1471L553 1482H598Q636 1408 620 1360Q627 1340 629 1322Z" />
<glyph unicode="%" glyph-name="percent" horiz-adv-x="1546" d="M1076 1518H1084Q1174 1469 1174 1416Q1160 1346 1106 1284Q1088 1238 1054 1200Q1033 1180 1022 1132Q1007 1126 986 1036Q973 1035 947 1000T900 936L880 880Q825 815 814 780L810 776Q786 755
774 716L770 720H766L750 700L730 652Q701 608 694 608L684 588L676 551L662 520Q641 520 610 432L596 366V372Q587 357 550 320Q514 272 514 252L494 212Q486 190 458 168Q432 140 406 76L380 24Q370 17 346 -40L278 -140H266Q199 -86 172 -82Q170 -66 160 -66Q164
3 180 38L184 34Q208 91 228 114L272 166Q272 178 312 222L324 246L320 270Q320 297 376 330Q416 378 420 410L416 442Q436 466 472 498Q516 541 516 578L518 596Q528 620 576 662Q624 715 624 734L622 774L632 790Q720 888 720 918L732 950Q733 973 772 994Q808
1054 808 1086L834 1126Q852 1178 874 1226Q900 1261 900 1274Q930 1329 944 1362L948 1366L957 1411Q971 1428 1000 1462Q1036 1518 1076 1518ZM434 1414Q483 1390 542 1390Q556 1374 574 1374H582L650 1298Q682 1222 702 1214L706 1172L698 1130Q722 1067 665
993Q642 955 617 896Q616 861 566 846L510 774Q460 758 446 722L382 686L326 666Q271 666 234 634H222Q197 634 146 682Q66 682 66 754Q58 754 58 774Q33 774 18 834Q-1 854 -10 886L2 946L-6 1002Q-6 1021 62 1126L86 1202Q86 1213 150 1258Q162 1289 242 1330Q293
1394 358 1394Q412 1414 434 1414ZM384 1251L354 1246Q326 1246 295 1229Q256 1194 234 1180Q236 1170 215 1134L173 1110V1108Q166 1085 153 1046L154 1024Q146 993 146 970L138 930Q138 856 254 806H310L390 846Q413 846 466 906Q486 924 486 942V950L510 1010Q524
1020 534 1082L542 1106V1150L533 1181L501 1216L470 1238V1241Q448 1249 453 1246Q438 1270 406 1258L378 1255L384 1251ZM1124 745T1168 738Q1150 754 1260 674Q1279 657 1312 602L1348 566L1350 511L1356 446Q1316 386 1316 374Q1316 357 1268 250Q1235 205
1172 162Q1158 90 1104 90Q1088 90 1043 45L1014 44L972 50L919 35L883 37Q884 51 844 38Q820 56 803 57L789 72L744 86Q704 145 684 214L692 250Q683 278 676 278Q684 317 684 350L692 386V398H700V402L696 438Q705 466 747 512Q762 535 796 566L792 570L809 603L876
654Q909 687 948 718Q961 718 1028 754H1040L1081 751Q1098 748 1111 747ZM1036 620L984 596Q968 596 952 544Q943 529 913 516Q896 508 897 511L893 500Q880 473 840 428V424L824 380Q822 382 796 352L807 270Q797 208 850 208Q890 168 922 168H942Q961 168 1014
184L1038 195L1058 208Q1078 219 1144 276L1158 304Q1202 390 1204 438L1218 484Q1227 509 1218 538L1223 557L1180 602Q1142 642 1108 642L1040 620H1036Z" />
<glyph unicode="&amp;" glyph-name="ampersand" horiz-adv-x="1397" d="M474 1153Q468 1140 420 1101Q420 1083 389 1046L394 1019L403 974Q400 939 437 910L446 888L458 870L459 853L496 864L515 880Q565 911 620 943Q629 952 636 996L642 1042L632 1105Q619
1115 605 1155Q560 1159 529 1173L516 1177L474 1153ZM418 1259T454 1278L492 1289Q504 1298 545 1301Q610 1282 640 1282H650Q660 1282 672 1241Q694 1217 734 1204Q749 1128 786 1054L791 1021Q788 980 781 980L786 976Q786 917 761 885Q761 867 751 867L739
861V829L640 770Q629 770 616 743Q544 712 520 659L535 614L549 581L572 534Q601 510 606 486L668 444L687 455Q700 469 703 490L725 509L720 527Q767 575 767 623Q795 661 858 688L922 721L982 725L1045 647Q1088 617 1078 575Q1096 528 1067 528L1016 514L944
528L883 510Q867 401 848 390Q825 370 786 297Q786 260 828 234L890 170L901 171H925Q955 171 1012 233L1095 263L1211 209L1179 117Q1179 98 1133 38Q1109 7 1109 -12Q1079 -20 1052 -42L1010 -62L962 -76H957Q916 -76 872 -37Q786 -11 749 42L692 90L650 53Q597
9 583 9Q525 -4 479 -37L408 -46L389 -41L314 -50Q281 -40 250 -38L230 -9Q161 -9 129 36Q55 64 23 124V147L28 165L-10 252L-20 291L-21 435Q-23 438 -24 440V444L-1 484L8 553V558Q8 572 60 607L120 653L139 677Q168 689 165 699L208 695Q231 736 278 740L321
777Q298 804 299 834Q301 845 267 912L247 997L249 1032V1045Q267 1047 276 1092L278 1136Q299 1176 356 1224Q418 1259 454 1278ZM144 413Q154 340 154 319Q154 305 141 288V283Q165 261 186 147Q278 129 293 110L343 129L392 114Q435 124 511 202Q533 231 533
246V269Q533 296 467 375Q467 389 435 416L392 538L351 575L329 571H298L293 575L250 568Q239 538 186 498Q164 465 164 448Q158 424 144 413Z" />
<glyph unicode="&apos;" glyph-name="quotesingle" horiz-adv-x="436" d="M89 1698Q130 1698 185 1638Q228 1608 237 1590V1586L221 1530L241 1470Q234 1447 209 1418V1398Q233 1372 233 1354Q177 1314 177 1306V1298L225 1258V1242Q173 1205 173 1182Q173 1156
153 1114L157 1074Q142 1038 105 1038H97Q41 1038 -7 1118V1122L5 1166Q-6 1199 -35 1238V1258L-23 1298L-35 1346V1414Q-50 1458 -59 1566L-67 1578Q-67 1635 37 1686L89 1698Z" />
<glyph unicode="(" glyph-name="parenleft" horiz-adv-x="619" d="M410 1426T422 1417L412 1389Q405 1379 392 1359Q380 1348 377 1338Q364 1328 353 1318Q350 1299 343 1284Q332 1267 328 1253Q321 1234 314 1227L305 1217L296 1208L287 1203L279 1181L275 1160Q258
1165 260 1146Q254 1136 253 1127L256 1119L249 1112V1079L243 1076L233 1034L228 1002L226 979L218 950L213 927Q221 919 206 906L205 884Q204 879 196 862Q195 859 194 857Q183 833 183 816Q183 805 173 790T159 749Q153 735 170 722Q170 700 163 679T164 650Q155
597 156 589Q161 560 179 537Q172 528 172 516Q172 505 181 483H182Q191 461 200 454Q188 438 198 404Q203 388 203 372Q217 357 208 351Q227 304 219 296Q233 246 235 227L246 202L259 174L264 150Q274 119 297 98L293 82Q302 40 317 18Q337 5 337 -14Q337 -19
335 -26Q350 -45 361 -74Q367 -87 371 -103L380 -124Q379 -136 389 -163Q392 -172 397 -184L377 -186L354 -189Q343 -191 332 -192Q312 -195 297 -195L270 -192L248 -188L236 -169L238 -162Q226 -168 219 -154Q211 -146 191 -122V-111L163 -79Q165 -75 165 -66Q150
-49 151 -30Q140 -27 133 -21Q119 4 119 16Q119 28 100 55Q98 58 96 61Q72 92 70 94L57 124V138Q56 144 49 171Q46 187 41 207Q38 220 35 233Q31 252 26 273Q24 287 21 308Q19 327 21 339Q37 353 9 369Q32 398 15 435L16 474L9 498L3 525L-3 545Q14 563 15 575Q18
584 12 601Q15 611 3 625Q3 648 9 678L3 713Q7 709 15 720Q5 727 14 746Q20 773 26 781Q21 800 9 807Q12 831 18 854Q20 867 24 879Q26 890 29 899Q37 927 45 945Q53 966 39 978Q31 986 41 1004Q45 1011 51 1019Q53 1021 55 1023Q79 1055 79 1069Q79 1093 93 1123Q102
1140 117 1161Q115 1168 126 1200Q133 1216 142 1237Q151 1246 165 1272Q172 1285 179 1299Q190 1322 202 1352Q214 1384 238 1415Q229 1431 269 1436Q288 1436 307 1440Q327 1428 352 1433Q371 1427 388 1429Q410 1426 422 1417Z" />
<glyph unicode=")" glyph-name="parenright" horiz-adv-x="623" d="M-3 -189T-15 -181L-5 -154Q2 -144 16 -124Q28 -113 31 -103Q44 -93 55 -83Q58 -65 65 -49Q77 -33 81 -19Q88 0 96 7L105 17L114 26L123 31L131 52L135 74Q152 69 150 87Q157 97 158 106L155
114L161 121V154L168 157L178 199L183 230L185 253L193 282L199 304Q191 312 205 325L207 347Q208 351 216 369Q217 372 218 374Q229 397 229 414Q229 425 239 440T254 480Q260 495 243 507Q243 530 249 551T248 579Q257 631 256 639Q252 668 234 691Q240 700 240
711Q240 722 231 744H230Q221 766 212 773Q223 789 213 823Q209 838 209 854Q194 869 203 875Q184 921 192 929Q178 979 176 998L165 1023L151 1050L147 1074Q136 1105 113 1126L117 1141Q107 1183 92 1205Q72 1218 72 1237Q72 1242 74 1249Q58 1267 47 1296Q42
1309 37 1325L28 1345Q29 1358 19 1384Q16 1393 11 1405L31 1407L54 1410Q65 1412 77 1413Q97 1416 113 1416L140 1413L162 1409L175 1390L173 1383Q185 1389 192 1375Q201 1368 221 1343V1333L249 1301Q247 1297 247 1288Q263 1272 262 1252Q273 1250 280 1244Q295
1219 295 1207Q295 1195 314 1168Q316 1165 318 1162Q342 1131 344 1130L358 1100V1086Q359 1080 366 1053Q369 1038 374 1017Q377 1005 381 992Q384 973 390 952Q392 939 394 918Q396 899 394 887Q378 873 407 858Q383 829 401 792L400 753L407 729L413 703L419
682Q402 665 401 653Q398 644 403 627Q401 618 413 603Q413 581 407 551L413 516Q409 520 401 509Q411 502 402 484Q395 457 390 449Q394 430 407 423Q403 400 398 377Q395 364 392 351Q390 341 386 332Q378 304 370 287Q361 265 376 254Q384 246 374 228Q370 221
364 213Q361 211 360 209Q335 177 335 164Q335 140 321 111Q312 93 297 73Q298 65 287 34Q280 18 271 -3Q262 -11 247 -38Q240 -50 234 -65Q222 -87 210 -117Q197 -149 173 -179Q182 -195 141 -200Q122 -200 103 -204Q82 -192 56 -197Q37 -191 20 -193Q-3 -189
-15 -181Z" />
<glyph unicode="*" glyph-name="asterisk" horiz-adv-x="1021" d="M436 1143L488 1063H492V1035Q504 1018 504 995L492 987L500 955L476 927Q480 897 492 883L484 875L492 831L484 815Q493 783 516 783V787L532 779L540 803L560 799H564Q564 809 596 831Q596 859
620 859Q631 889 660 911Q660 963 720 963Q720 970 744 975Q770 975 792 895H796V879L792 859Q800 859 800 839L824 795L820 791Q820 783 796 783Q796 761 764 743L768 739V735Q768 726 740 719Q740 703 708 699Q708 691 676 679V675L664 683H660L624 659H620L616
663L580 635Q560 647 560 659L540 651L544 655V659H540L536 655V651L552 627V631L556 627H564Q607 627 616 639L672 611H696Q696 631 716 631Q767 618 772 599L796 583Q828 583 828 563L812 523L816 507Q816 441 776 427L756 407V403L752 407H748Q740 407 740 387L728
375L724 379H720Q712 379 712 367L668 387Q656 388 644 419Q622 427 592 467Q564 483 552 519Q525 519 520 567Q500 594 500 611L496 607L476 611H472Q472 601 456 599L452 595V591Q452 572 472 543V535H476L472 523L488 471L480 435Q500 398 500 379L496 363L504
343L500 311L504 307V303Q497 281 480 267L452 219V215H436L416 219Q414 211 396 203Q372 203 352 267Q331 267 328 331Q339 355 348 355V359L344 375L368 415L364 419V443L388 535H392L396 531H400L404 571V575H396L352 527H336Q336 539 316 539Q316 524 276 503Q276
494 256 479L252 483Q225 476 200 443L168 403L156 411Q156 396 124 379L100 383H84L52 391H36V399Q36 437 20 459L16 471Q32 506 32 535H28Q34 579 60 579V575L64 579H80L92 571H100L144 603L160 599L184 607H188L200 599H208Q208 618 256 635L268 651V655Q248
727 184 727L180 723H176Q143 743 88 755L40 747Q8 747 8 807Q0 807 0 831L4 847L-4 879Q-4 948 28 959H32L60 955V959Q188 916 208 887Q213 835 236 835Q253 824 268 799L288 795L296 803L340 763L360 759L356 755V751L360 747H364Q364 760 388 779L392 775L400
799L372 843V847L380 871Q359 892 356 911Q328 911 328 935V943H324Q331 954 340 1039Q366 1107 384 1107Q396 1123 420 1123Q428 1141 436 1143Z" />
<glyph unicode="+" glyph-name="plus" horiz-adv-x="1204" d="M453 1164H475Q593 1164 614 1093L625 1060L611 1010V953Q602 940 593 842Q593 779 675 771L700 767H721Q736 767 800 792H814Q861 778 932 771Q1000 720 1000 689V681Q1000 655 918 592H907L846 599Q778
596 732 585H671L625 599Q593 584 593 563L603 499L596 446L600 399L596 338L603 299Q603 249 528 227Q528 220 485 206Q456 217 446 235L418 324V342Q432 390 435 460L439 463L414 574L396 585H393Q383 576 350 574L253 585Q218 567 135 567H128Q33 567 -4 664V667Q-4
704 78 778L100 782L153 771L185 778H189L243 767L268 774H293Q336 746 360 746Q402 746 418 792V796Q385 950 385 992V1007L389 1010L385 1014V1017L389 1035L385 1046Q385 1141 453 1164Z" />
<glyph unicode="," glyph-name="comma" horiz-adv-x="674" d="M234 300H249L275 281H281L319 294Q357 275 357 250Q378 228 397 228L410 215L407 193Q407 179 448 130V117L442 80L451 42L442 -2V-56L420 -106L429 -147Q429 -153 382 -207Q353 -265 353 -298Q334
-319 303 -323Q295 -327 262 -383L237 -393L218 -389Q208 -389 168 -424H158Q137 -424 117 -389L73 -367L64 -348L136 -232Q136 -201 177 -156L186 -119V-100Q186 -92 133 -59L70 20Q51 49 51 77V83Q51 120 120 202Q131 202 145 228L142 246Q142 265 164 265L168
262L171 265L193 262H199Q214 267 234 300Z" />
<glyph unicode="-" glyph-name="hyphen" horiz-adv-x="1238" d="M777 810H781L829 788L849 792H869L913 786H925Q956 800 969 800H973Q999 786 1045 728V720Q1045 592 981 592Q938 585 889 566H881L805 590Q742 582 677 562L605 590H553Q538 590 485 560H481L413
578L313 584Q292 566 265 566L197 570L165 568Q114 584 65 590L17 618L5 642L41 744L149 794H157Q218 770 277 770Q294 770 361 796H377Q433 770 445 770H469Q508 770 565 800H569L633 776Q724 776 757 808L777 810Z" />
<glyph unicode="." glyph-name="period" horiz-adv-x="726" d="M334 370Q343 370 378 350H383L401 353Q429 353 456 265Q474 217 500 192V190L488 149V146L500 102Q500 94 453 53Q424 13 424 -5Q424 -32 410 -37H407Q399 -37 378 -23L363 -20L334 -23L302 -20L249
-52Q242 -52 203 -14L191 -11L179 -14Q161 -11 142 41Q109 56 109 85L112 94Q92 129 92 143Q92 155 139 242Q155 309 191 309L258 355Q300 355 334 370Z" />
<glyph unicode="/" glyph-name="slash" horiz-adv-x="1228" d="M988 1566H1000Q1040 1566 1040 1458Q1050 1457 1064 1406Q1064 1380 988 1330Q976 1305 968 1218L888 1146L852 1086Q842 1033 824 1014L796 990L800 970V950Q791 930 752 910Q752 878 708 818L704
798L708 782Q708 767 656 726L584 634L596 586L536 530Q536 506 476 454L484 422V410L376 310L368 294L388 246Q388 235 324 190Q288 124 280 54Q218 1 172 -126Q141 -153 56 -190H40Q0 -146 0 -106Q0 -54 44 10V18L40 46Q40 54 108 118L152 186L156 198L152 202V226Q226
297 256 410Q335 471 360 558Q360 569 432 698Q452 773 500 806Q539 885 560 954Q610 985 640 1090Q640 1109 696 1170L740 1266Q751 1299 784 1350Q784 1401 836 1446Q847 1502 924 1554Q954 1554 988 1566Z" />
<glyph unicode="0" glyph-name="zero" horiz-adv-x="1148" d="M533 1510L606 1454Q628 1454 628 1446L632 1450Q678 1450 735 1356Q833 1276 833 1236L867 1138Q910 1064 910 1048L906 1018Q906 995 940 945V903Q940 866 957 813L948 770L953 693Q936 637 914
415Q884 375 871 278Q841 214 799 158Q788 127 730 81Q707 36 619 -4Q604 -30 580 -30L439 0L422 4L358 -21H349Q304 34 294 34Q294 43 260 43Q238 64 221 115Q204 126 157 192Q88 225 88 312Q73 312 67 415Q56 415 50 496L7 552L16 603Q-10 646 -10 672L3 736L-6
783L16 924Q41 924 67 1112Q101 1186 110 1245Q190 1325 234 1386Q239 1399 268 1399Q325 1463 388 1463Q388 1474 478 1480L533 1510ZM438 1251Q413 1254 413 1260Q368 1260 368 1182Q298 1142 284 1099L276 1066L284 1029Q284 1013 221 959L218 938L221 901Q205
872 205 839V790L214 707L201 662L218 596V580L209 542Q209 499 288 435L293 419L288 366Q344 290 392 275Q411 213 438 213Q470 210 522 184Q543 184 575 217L571 221V226Q572 240 630 266Q630 324 667 349Q684 349 709 386V415Q733 415 733 489L754 567L749 588V596L762
666L754 720Q767 749 767 777Q749 817 749 844L762 901L721 975Q721 1094 646 1111Q630 1130 630 1144L637 1177V1189Q637 1246 496 1284H487L438 1251Z" />
<glyph unicode="1" glyph-name="one" horiz-adv-x="713" d="M369 1520Q395 1520 416 1457Q426 1456 483 1369Q492 1369 508 1331Q487 1311 487 1247L470 1189L483 1126L474 1071L483 1008L470 966L491 899L483 840L487 802L479 727L491 660L483 601L495 563L470
488Q495 439 495 416V362L508 299L483 244V236L504 177L487 123V85Q487 35 399 14L344 -20H319Q292 -20 248 123L252 169L244 236L260 295V320L248 370L260 542L248 609Q259 652 269 773Q269 784 231 844V865L260 1016V1029Q235 1096 227 1096L206 1100L76 1058H71Q0
1127 0 1193Q0 1268 124 1325Q157 1398 208 1398Q261 1478 283 1478L309 1482L336 1489L369 1520Z" />
<glyph unicode="2" glyph-name="two" horiz-adv-x="1183" d="M496 1404Q536 1380 620 1380Q647 1356 720 1336Q757 1296 820 1268Q853 1239 864 1168L920 1076Q944 1059 948 940L952 928L932 872L948 820Q948 809 908 768Q856 694 856 676Q856 640 836 628H816L804
640Q774 629 772 620V596Q772 544 700 544Q660 483 648 480L608 492H596Q588 492 576 448Q559 432 544 432L496 444Q476 428 464 400Q436 376 400 376L396 380H392Q368 372 368 360L376 324L356 308L304 324L280 252Q260 236 260 220H256Q256 196 308 176Q340 181
340 196H352L360 188L356 184Q397 160 408 160L460 192L516 180L552 228H568L612 196L640 204Q683 196 692 188H708L760 204L812 192L844 204H864Q940 124 960 60Q970 60 980 20Q980 7 920 -16Q900 -64 872 -64L840 -48H760L744 -44L676 -80H672L620 -52L600 -56L452
-36L380 -64H376L312 -24L296 -20H288L272 -24L256 -20H248L196 -64L100 -28H64Q28 -28 0 136Q18 288 44 300Q44 324 124 412Q124 457 192 472Q225 527 244 540Q285 540 304 572L300 592V612L324 636L380 628Q434 676 452 676Q489 676 544 724Q574 724 620 780Q672
796 672 808Q679 835 708 880L712 896L704 920V932L744 976V988Q741 999 680 1040L676 1052L680 1088Q666 1156 612 1156Q592 1156 536 1188H528V1192L532 1196V1200H464Q417 1156 404 1156V1152L384 1156H364L324 1108L308 1100H296L256 1116L244 1096L248 1060L196
996V980L192 974L184 972Q173 956 166 933L162 912L156 896Q143 856 120 856Q96 856 64 944Q44 966 36 1028Q36 1159 88 1192Q168 1261 168 1320L196 1340L240 1332L276 1344H304L308 1340Q318 1340 376 1384L440 1380Q476 1403 496 1404Z" />
<glyph unicode="3" glyph-name="three" horiz-adv-x="1152" d="M508 1506H516Q527 1506 580 1470Q646 1470 704 1414Q743 1414 788 1358L832 1294Q832 1274 876 1182Q873 1130 868 1130L876 1062Q840 1012 840 990V986L844 970Q844 956 800 902Q800 889 748 834V830Q792
792 792 778L809 756L819 729Q848 706 888 638Q900 623 900 610L892 578Q892 565 936 502Q953 370 964 362V330Q904 184 904 142Q794 29 788 -2Q788 -15 636 -46Q605 -73 576 -78V-74Q555 -75 496 -114L480 -118Q402 -98 376 -98Q357 -98 280 -134Q218 -98 164
-98Q143 -80 72 -58Q4 -8 4 2V10Q4 24 52 86Q74 135 65 135Q101 118 166 118Q166 104 286 90L302 86L362 106L426 86L478 90V86Q540 126 554 126Q588 126 622 190Q662 198 730 278L726 306V322L750 386V390L734 450Q746 471 746 490L702 542V546L671 648Q650 677
614 694Q557 730 522 730L518 726H514L466 732Q460 726 452 770L428 838V842Q428 867 492 890Q543 930 592 930L596 934L620 974L668 998Q685 1014 692 1042Q692 1054 676 1054L680 1074V1078Q680 1086 668 1086L664 1090V1098Q676 1113 676 1126V1130L636 1178V1182L648
1226Q631 1246 572 1266Q572 1278 556 1278Q556 1289 520 1298L456 1258L440 1254H432L388 1302L368 1306Q349 1294 316 1294H288L232 1242H188Q170 1242 132 1206H128Q117 1206 112 1270Q76 1306 76 1330Q76 1408 240 1462Q298 1502 340 1502H352L444 1494L508
1506Z" />
<glyph unicode="4" glyph-name="four" horiz-adv-x="1200" d="M628 1398Q679 1398 692 1322Q708 1289 708 1262L700 1186L716 1138L712 1110L724 1034L708 962L724 906L716 842L732 782L716 730L732 666L724 622L736 562L728 514Q744 434 764 434L768 430V426L792
434L840 430Q858 430 884 458H908Q928 430 952 430L996 434Q1020 410 1020 402L1008 346L1016 302Q1008 284 1000 282H956L900 246L872 250L816 238H804L792 246H776L780 242V238Q768 238 740 162Q772 112 772 98L756 46L768 -6L756 -50L760 -94V-110Q760 -164
680 -170Q645 -198 628 -198Q552 -99 552 -62L560 -22L552 30L556 94L552 174Q580 205 580 222Q561 266 484 266H476L396 238Q357 270 260 270L208 238H196L136 254L116 250H108Q46 250 -8 314V326L-4 330V334L-8 338Q4 390 44 478Q51 478 72 534Q156 585 156 634Q168
634 180 706Q236 756 236 790Q310 876 320 950Q372 1001 372 1034L368 1050L404 1098Q404 1164 488 1190L496 1206V1222Q496 1270 544 1338Q617 1398 628 1398ZM476 926V922L480 898Q480 889 440 846Q375 699 360 690Q292 633 272 594L292 542L244 506Q226 477
224 430H232Q242 406 260 406Q262 416 300 434L348 398L396 410H424L456 402H476L496 418L560 414L584 450L572 506L580 554V558Q552 597 552 622L572 686L564 742L568 758L556 830L576 890V898Q576 912 540 954V966Q540 979 556 998V1014L544 1026Q501 1026 476
926Z" />
<glyph unicode="5" glyph-name="five" horiz-adv-x="1062" d="M256 1426L320 1406H376L380 1402L444 1418H452L512 1394L608 1398L664 1418H668Q712 1402 776 1398Q808 1382 816 1362V1350L792 1258L788 1238L792 1214Q785 1196 768 1186L708 1222L644 1218H616L612
1222H608L556 1182H536Q493 1214 480 1214L456 1210L396 1218L360 1190H352L292 1222H236Q193 1180 192 1158L200 1110L196 1062Q216 1011 216 978H212V974L236 966L252 970L320 946Q397 946 448 982L560 942L608 938H612L632 942L656 918L648 910Q702 896 784
818Q812 797 832 718Q840 718 852 642Q868 623 868 602L864 546L876 486Q811 375 800 342L804 338V334Q804 287 744 246Q688 202 688 146Q688 123 628 94Q596 46 536 30Q478 -23 436 -30Q303 -118 268 -130H228Q171 -182 144 -182H128Q8 -158 8 -130Q-12 -104 -12
-90Q-4 -63 16 -8L32 1L92 16L248 76Q278 76 332 124Q398 140 408 164L512 260L552 328Q598 344 616 388L668 448V452L664 496Q677 517 688 576V592Q671 592 660 600L664 616V624L608 684Q608 736 532 736Q494 776 472 776L432 768Q405 780 372 780Q347 756 296
746L192 722L164 670L120 686L80 670H52Q28 670 8 774V786L16 878L4 946L16 1114L4 1166L12 1226L0 1298Q36 1375 136 1406H192L256 1426Z" />
<glyph unicode="6" glyph-name="six" horiz-adv-x="1135" d="M756 1440H760Q868 1399 868 1340Q844 1316 760 1268Q743 1228 736 1228H728L688 1244L652 1240L604 1244Q593 1244 536 1184H484Q437 1141 388 1116L300 1044Q268 976 256 908Q212 876 212 864L220
828Q205 797 184 784L200 760Q248 761 296 800L324 808L328 804Q360 804 416 852H440L504 824L524 828H536L560 824L616 848H620Q640 837 640 824L646 822H654V818L692 816H700Q732 816 764 752Q764 728 784 720L828 724L840 712V688L836 684L840 680V672L836 668V664Q873
629 892 576Q927 541 932 524L924 492L952 440V412Q932 385 932 324L904 264L908 224Q874 102 840 88Q758 26 748 -32L724 -48L688 -40H676Q619 -88 480 -88Q450 -112 428 -112Q392 -72 360 -72Q323 -72 252 -20Q223 -10 116 68Q74 146 52 216Q30 216 12 324Q2
324 0 372V432L-4 456L12 524L-8 584V608L12 648L0 716Q0 726 28 760L24 764V772L28 776L24 780V804L44 868L40 872V876Q51 909 84 956Q92 967 92 1004Q196 1118 196 1168Q210 1187 256 1220Q296 1276 348 1276L428 1340Q451 1340 536 1396Q570 1396 656 1436H664L708
1432L756 1440ZM176 476V440L180 424L176 408V392L188 352L192 348L184 324Q184 295 240 268V256Q213 228 204 228Q204 205 296 136Q348 120 392 84L472 68L520 104H524Q537 104 580 76Q613 76 620 120Q640 144 684 144L696 160L692 188Q692 231 764 252Q775 264
784 316V328Q772 480 764 492Q696 532 696 568Q656 672 604 672Q602 680 560 684Q536 668 524 668H516Q508 668 508 696L496 700Q436 672 388 672Q338 620 300 620Q274 620 252 576Q184 519 184 508L176 476Z" />
<glyph unicode="7" glyph-name="seven" horiz-adv-x="1141" d="M159 1421L243 1397Q302 1413 339 1413L459 1409L523 1417L535 1413L583 1417L679 1393L823 1409Q943 1385 943 1329Q955 1329 959 1277Q959 1233 899 1165Q875 1151 875 1125L879 1121V1117L823
1037L791 981Q791 926 743 869Q719 805 719 749Q686 715 683 697L687 653L651 577Q636 550 627 449Q607 420 607 405V401L619 341Q591 280 591 261L599 225Q587 193 587 165L595 129L571 69L611 5Q547 -81 547 -119Q542 -119 527 -179L507 -195H499Q351 -159 351
-111L343 9L355 73Q343 99 343 137L371 189L367 237L387 293V345L423 485V525Q423 540 451 585L459 609L455 613V621Q455 636 499 697Q503 738 551 881V929Q613 983 631 1033Q659 1056 659 1085L655 1101Q655 1111 703 1149Q731 1201 731 1217Q731 1250 663 1257H655L575
1237L431 1257H419Q380 1230 359 1229Q312 1251 271 1257H243L239 1261Q184 1243 163 1213V1209L179 1165V1161L143 1081L167 1033Q96 949 83 949H67Q21 949 -5 1089L-1 1157L-13 1209L-5 1261L-9 1309Q-9 1352 71 1409L159 1421Z" />
<glyph unicode="8" glyph-name="eight" horiz-adv-x="1263" d="M612 1314Q851 1227 872 1194Q960 1148 960 1102Q970 1093 996 1010Q1020 979 1020 954L1004 866L1008 862V858Q951 730 908 730Q883 712 848 662V646Q873 598 912 598Q971 576 984 538L1028 486V442Q1064
406 1064 310Q1069 310 1072 278L1040 194Q1040 122 1008 110Q991 86 892 14Q819 -38 720 -66L648 -102L532 -98H496L448 -110H432Q394 -71 320 -58Q291 -36 224 -22Q184 15 108 66Q43 192 28 206Q16 206 8 242L12 282L0 342Q0 367 40 430Q44 498 76 498Q98 556
120 574Q155 574 212 634L232 646H236V658Q236 677 196 702Q196 719 164 742L152 738Q116 747 116 770L128 810L72 870Q79 915 88 922L68 986V998L108 1082Q108 1129 216 1202Q241 1202 312 1266Q348 1266 412 1302H472L612 1314ZM508 1134H504L500 1138H496L488
1130H484V1138Q353 1138 332 1082Q268 1082 236 970L244 938L220 890V882Q287 802 332 802Q381 754 424 754Q450 754 480 726Q494 714 524 710Q543 710 632 750H640Q671 730 684 730H692L720 750V758H712V762Q712 769 748 774L764 770Q788 800 788 846L844 902Q844
933 816 938L804 954L816 966H840Q840 978 852 978V982Q852 1020 796 1054Q769 1110 708 1110Q669 1142 596 1142Q564 1162 536 1162L508 1134ZM416 574H376L332 538Q323 529 272 522Q259 514 248 466L200 438Q176 411 176 350Q187 254 208 254Q221 182 252 182Q252
169 316 126Q339 126 416 78L496 62Q496 72 536 82L580 66Q680 66 716 114L732 126H768L824 186Q858 186 900 262V282L884 326L888 366V382Q888 430 800 506Q800 520 772 538H736Q713 538 672 586H636L576 606L528 610Q497 610 416 574Z" />
<glyph unicode="9" glyph-name="nine" horiz-adv-x="1138" d="M444 1430Q519 1402 588 1390Q623 1367 704 1334Q790 1277 868 1178Q868 1132 912 1058L936 802L932 786L936 766L932 762L944 710Q929 662 920 562Q912 562 912 542L916 498Q916 480 876 418Q876
355 804 234Q804 198 712 94Q656 65 608 -14Q588 -26 540 -34L472 -110H460L424 -106Q390 -130 352 -130L268 -150L264 -146L172 -170H168Q147 -170 132 -66V-58Q132 10 220 10L280 58H300L324 42Q352 45 352 70Q365 104 380 110H416L468 162H476L512 158Q541 158
552 218L628 258Q692 313 692 338Q692 355 708 370Q732 396 732 410L752 494L740 566L752 570V574L724 578Q672 568 600 502H572Q557 514 544 514H536Q513 514 496 470L480 458L412 506Q347 506 280 534L196 594Q145 609 92 674Q52 674 52 758Q20 787 20 842L0
970V1034Q0 1048 32 1114L36 1126L32 1142Q32 1170 100 1234Q100 1249 236 1370Q246 1381 356 1394L444 1430ZM460 1246L404 1250Q356 1198 336 1198Q304 1198 284 1150L212 1090Q196 1054 196 1026L200 990Q172 947 172 934Q200 883 200 866L196 862Q196 781 300
730Q312 690 336 678L368 686H380L436 638L528 642Q565 686 584 686L616 678Q635 687 652 738Q725 782 732 798Q761 827 784 914Q784 945 744 986V990L748 1050L680 1138Q636 1154 636 1198Q636 1217 616 1230V1234L564 1218L504 1258L460 1246Z" />
<glyph unicode=":" glyph-name="colon" horiz-adv-x="723" d="M252 1035H264L316 1015L368 1019Q390 1019 492 923L512 815Q512 779 444 695Q410 695 276 631H268Q250 631 196 691Q140 711 140 739V743L144 779L104 847Q104 862 140 915Q153 975 172 975Q217 975
236 1023L252 1035ZM276 379Q456 327 456 307L516 243L520 223L516 155L524 115Q524 73 408 11Q408 -1 348 -5L344 -1H340L324 -5L320 -1Q320 -11 272 -17L148 99Q124 143 124 155Q140 223 144 283L168 299L172 295H176Q201 295 224 351Q251 379 276 379Z" />
<glyph unicode=";" glyph-name="semicolon" horiz-adv-x="716" d="M294 294H309L335 275H341L379 288Q417 269 417 244Q438 222 457 222L470 209L467 187Q467 173 508 124V111L502 74L511 36L502 -8V-62L480 -112L489 -153Q489 -159 442 -213Q413 -271 413 -304Q394
-325 363 -329Q355 -333 322 -389L297 -399L278 -395Q268 -395 228 -430H218Q197 -430 177 -395L133 -373L124 -354L196 -238Q196 -207 237 -162L246 -125V-106Q246 -98 193 -65L130 14Q111 43 111 71V77Q111 114 180 196Q191 196 205 222L202 240Q202 259 224
259L228 256L231 259L253 256H259Q274 261 294 294ZM338 1035Q347 1035 382 1015H387L405 1018Q433 1018 460 930Q478 882 504 857V855L492 814V811L504 767Q504 759 457 718Q428 678 428 660Q428 633 414 628H411Q403 628 382 642L367 645L338 642L306 645L253
613Q246 613 207 651L195 654L183 651Q165 654 146 706Q113 721 113 750L116 759Q96 794 96 808Q96 820 143 907Q159 974 195 974L262 1020Q304 1020 338 1035Z" />
<glyph unicode="&lt;" glyph-name="less" horiz-adv-x="1363" d="M299 562T306 565L365 526Q417 514 425 502Q480 453 518 455Q555 423 605 392Q643 393 682 357Q769 310 772 304Q818 262 883 260Q942 205 1007 194L1016 180V175L1022 170L1071 148Q1131 139 1134
135L1143 116L1146 111Q1193 92 1212 60Q1216 55 1216 47Q1216 19 1173 -38L1165 -45Q1117 -57 1091 -57H1081Q1008 -1 956 4Q925 43 881 67Q830 66 826 73L819 110L808 117L714 130L710 137L702 160Q650 165 641 180L589 187L577 222L505 245Q462 247 456 256L452
268L442 278Q397 295 384 314Q356 310 344 317L336 330L331 343L307 346Q291 349 265 377L224 397L153 417Q133 461 102 464Q73 511 32 534Q16 554 6 565Q-2 573 -2 580L2 597Q17 610 49 640Q96 684 162 743Q207 745 252 769Q284 815 291 814L320 797L331 801L400
877L408 876L428 869Q465 910 480 909L519 951L549 940L611 988Q640 1025 650 1025L661 1020L673 1022Q713 1052 735 1051Q749 1078 762 1084L775 1083L788 1079L804 1099Q817 1111 852 1116L892 1140L943 1196Q999 1197 1015 1205Q1050 1257 1067 1257H1068Q1100
1244 1101 1236Q1170 1231 1168 1201L1167 1192Q1168 1108 1167 1085Q1130 1030 1093 1025Q1062 989 1029 992Q995 970 973 963L909 935Q867 897 855 897Q787 880 764 845Q719 833 666 808Q643 774 593 763Q507 716 500 717Q443 702 400 647Q309 610 285 589L284
574L295 570Q299 562 306 565Z" />
<glyph unicode="=" glyph-name="equal" horiz-adv-x="1221" d="M881 989Q968 956 981 938L1005 844V841Q1005 801 917 786L881 755H873L813 782H805L737 774H717L661 739Q651 739 617 778L597 782Q576 772 513 762Q481 743 461 743Q392 786 349 786L261 751H257Q213
790 201 790H193Q176 774 153 774H109Q75 751 61 751Q46 751 25 829Q13 840 1 872Q1 912 113 962L153 969L297 962Q327 973 489 977L509 973L561 985L633 966Q715 981 881 989ZM561 735H569L577 727L565 715H561L549 727L561 735ZM165 727H173L181 719L165 703L157
711V719L165 727ZM665 598H681Q729 566 753 566H809Q849 591 865 591H885Q894 591 933 552Q1017 534 1017 484H1013L1017 480V455Q1008 387 977 387H973L933 398H929L817 373Q793 348 773 348H769L701 369L633 377L553 352H545Q496 369 445 373Q390 352 373 352H365L293
380L233 384H229Q178 352 161 352Q37 383 13 419V427Q44 569 61 569H73Q96 548 117 541Q203 552 265 587H273Q288 587 337 552H341Q416 552 449 580H465L525 552H529Q613 552 665 598Z" />
<glyph unicode="&gt;" glyph-name="greater" horiz-adv-x="1422" d="M919 570L930 574L929 589Q905 610 814 647Q771 702 714 717Q707 716 621 763Q571 774 548 808Q495 833 450 845Q427 880 359 897Q347 897 305 935L241 963Q219 970 185 992Q152 989 121 1025Q84
1030 47 1085Q46 1108 47 1192L46 1201Q44 1231 113 1236Q114 1244 146 1257H147Q164 1257 199 1205Q215 1197 271 1196L322 1140L362 1116Q397 1111 410 1099L426 1079L439 1083L452 1084Q465 1078 479 1051Q501 1052 541 1022L553 1020L564 1025Q574 1025 603
988L665 940L695 951L734 909Q749 910 786 869L806 876L814 877L883 801L894 797L923 814Q930 815 962 769Q1007 745 1052 743Q1118 684 1165 640Q1197 610 1212 597L1216 580Q1216 573 1208 565Q1198 554 1182 534Q1141 511 1112 464Q1081 461 1061 417L990 397L949
377Q923 349 907 346L883 343L878 330L870 317Q858 310 830 314Q817 295 772 278L762 268L758 256Q752 247 709 245L637 222L625 187L573 180Q564 165 512 160L504 137L500 130L406 117L395 110L388 73Q384 66 333 67Q289 43 258 4Q206 -1 133 -57H123Q97 -57 49
-45L41 -38Q-2 19 -2 47Q-2 55 2 60Q21 92 68 111L71 116L80 135Q83 139 143 148L192 170L198 175V180L207 194Q272 205 331 260Q396 262 442 304Q445 310 532 357Q571 393 609 392Q659 423 696 455Q734 453 789 502Q797 514 849 526L908 565Q915 562 919 570Z"
/>
<glyph unicode="?" glyph-name="question" horiz-adv-x="1128" d="M374 1361L430 1353L470 1361L510 1353L514 1357H518L522 1353L566 1361Q693 1326 706 1309Q714 1282 826 1241L894 1153Q930 1065 930 1025Q910 974 906 913Q861 868 830 817L782 781H734Q702
781 638 725Q594 708 594 677L598 673V669Q566 617 558 573L562 549L558 545L562 525V489L554 457L558 445Q558 369 518 317Q518 291 566 253Q618 216 618 137L634 69Q634 37 566 13Q564 -2 498 -23Q374 -23 330 61Q330 79 298 121V129Q317 196 382 257Q388 272
394 285L403 282L406 295Q413 295 450 293L446 297L450 301V309Q450 325 378 397L366 413V421L374 469Q354 516 354 533L378 593L370 649L410 729L450 837L534 873Q565 913 622 913Q676 973 722 993L730 1009V1069Q730 1102 642 1137Q623 1148 466 1189L366 1157Q311
1157 302 1125Q291 1125 258 1085V1073Q306 1046 306 981Q306 922 250 881Q211 837 186 837Q26 859 26 917L-2 969Q4 1021 10 1021L-6 1073Q23 1176 54 1189Q84 1248 134 1269L170 1301V1297L186 1305L210 1301Q325 1325 358 1357L374 1361Z" />
<glyph unicode="@" glyph-name="at" horiz-adv-x="1944" d="M1501 -86T1465 -121Q1442 -158 1396 -184Q1370 -198 1317 -217Q1275 -248 1224 -251L1169 -273L1116 -280L1097 -286L1057 -288L990 -310L911 -324L848 -323L789 -333L746 -322Q676 -317 650 -308L564
-271L553 -259L520 -242Q476 -233 445 -207Q389 -169 358 -126Q338 -110 282 -48Q259 -30 195 46Q156 114 120 205L95 236L81 293L61 323L57 350L61 378L52 405V414L61 428L57 433V437L61 451L57 456V460L61 474L48 483Q48 509 70 575L66 594L79 598L70 608Q82
716 111 746Q133 757 129 805Q148 805 183 888L248 987Q266 987 293 1024Q365 1127 416 1127L420 1138L440 1155L509 1195L513 1191H518Q547 1223 658 1233L691 1245L695 1241L700 1245V1250L722 1245L740 1254L815 1249L848 1252L872 1254L893 1258L912 1254L956
1249L1015 1233L1033 1238L1060 1233L1096 1242L1100 1238H1105L1127 1235Q1152 1221 1208 1212L1212 1217H1217Q1345 1166 1397 1116Q1429 1116 1491 1049Q1516 1012 1547 1012Q1595 977 1617 911L1649 865L1658 834L1667 818L1704 766L1730 712Q1709 706 1740
648L1761 598L1754 566L1759 433Q1744 421 1743 323Q1707 259 1696 201L1700 164Q1688 139 1636 64Q1567 26 1476 11L1400 8V11Q1344 8 1287 9L1244 21L1200 42L1156 28L1118 31L1106 19Q1078 -4 1012 -4L967 -32H905Q851 -50 819 -50Q815 -36 792 -36H779L743
-41Q672 -59 662 8L630 3H626Q598 3 554 44Q528 51 504 106Q518 151 518 189L504 226L522 277Q518 294 491 323V332Q491 340 554 359V401Q554 449 653 525L693 548L774 557V552L873 580H887L920 579Q944 571 976 603Q1093 619 1093 663Q1093 695 1098 713V718Q1098
755 1075 755L1062 741H1057Q1049 741 1035 778L958 851L931 824H918L855 856H851Q824 805 806 805L747 833L729 819V805L743 741V690Q743 658 693 603Q679 575 662 571Q491 582 491 654L482 732Q486 759 543 890Q579 904 621 920L662 950L689 962L693 957Q725
966 761 1003H774L792 989H837Q879 989 896 1008H927Q997 1008 1044 966Q1083 948 1120 943Q1121 935 1215 893L1255 769V755L1246 686Q1275 631 1275 594Q1322 470 1305 470L1336 346V323L1343 270Q1334 235 1357 159L1417 157Q1469 139 1497 180L1526 183L1558
223L1577 279L1582 355L1572 373L1580 397L1570 424L1565 428Q1592 460 1574 539H1579L1536 677L1541 681L1520 741H1525Q1502 817 1449 847Q1449 901 1352 943Q1352 966 1354 966Q1338 966 1318 994Q1305 1009 1266 1017Q1196 1074 1091 1086Q1091 1093 1028 1104L970
1118L934 1104L902 1111Q887 1093 871 1109L825 1108L764 1110L695 1100L617 1072L602 1049L565 1047L517 1021Q468 997 408 904Q331 773 331 755Q331 713 295 713V695L268 598H255V580Q244 520 257 520L248 451L271 318L273 272Q277 231 291 231L295 217L309 194Q326
111 410 42L464 -4Q466 -15 513 -59Q520 -77 537 -69L554 -82Q616 -130 685 -155L790 -176L797 -170L896 -176H921L985 -156L1037 -154L1064 -160L1106 -150L1150 -145L1183 -130L1222 -124L1252 -113L1274 -98L1333 -91L1382 -83L1456 -74Q1501 -86 1465 -121ZM981
437H927Q882 391 869 391L851 396L783 391Q766 355 693 332V300L671 226V217Q671 148 747 148L779 139L792 143L810 139L833 143V139L878 152H905L909 148Q921 148 967 175Q1073 209 1107 221Q1145 198 1163 213Q1126 241 1145 329Q1148 414 1088 431Q1054 447
1039 456H1030Q1007 437 981 437Z" />
<glyph unicode="A" glyph-name="A" horiz-adv-x="1373" d="M540 1346H552L600 1322Q660 1302 684 1258Q684 1237 716 1194V1178Q704 1164 704 1138L752 1086L756 1074L740 1014Q768 971 768 958V918Q768 888 832 794V750Q832 736 864 674V666L856 610Q884 563
892 482Q952 410 952 318Q962 318 968 226Q1009 158 1040 158Q1151 103 1160 90Q1172 90 1180 38Q1163 -52 1136 -54L1140 -58V-62L1124 -70L1084 -58Q1048 -78 972 -78Q959 -88 924 -94L872 -74L836 -78L768 -58H764Q730 -82 716 -82Q676 -38 628 -38Q613 -38
600 -10L636 54Q596 99 596 114L616 130L652 126Q652 134 668 134Q688 190 724 190L744 182Q768 192 768 218L764 222L768 238Q765 298 760 298Q749 298 740 318L684 338Q670 336 636 298H624Q613 298 572 326H564Q480 315 456 294L432 286L396 294Q376 272 360
206Q360 158 436 158Q498 82 536 66Q548 62 548 42Q548 17 472 -26Q472 -55 364 -74Q364 -84 328 -90L284 -74H248L232 -78L172 -66Q165 -66 140 -102L136 -106H132Q124 -106 84 -58H72L28 -66Q0 -48 0 -26L16 26V66Q27 87 68 118Q106 190 144 190Q166 190 192
286L188 322L232 386L212 442Q212 450 264 486Q288 543 288 630Q316 675 316 690V730Q316 747 352 790V794L340 838L336 842V850Q392 927 392 970L388 994Q391 1021 436 1058Q448 1073 448 1086L432 1130Q474 1189 504 1282L500 1286Q504 1346 540 1346ZM524 874L532
842L512 786V782L528 734V730L492 698L460 590Q460 553 492 530Q508 538 536 538H544Q580 514 596 514Q700 514 700 566L704 570V574L692 614L696 642V666Q664 774 636 774Q616 780 616 802L652 842V846Q604 893 604 902L620 946L612 966H592Q524 901 524 874Z"
/>
<glyph unicode="B" glyph-name="B" horiz-adv-x="1401" d="M714 1346H722Q766 1302 842 1302Q939 1265 986 1214Q1062 1156 1062 1070Q1073 1070 1090 1006L1086 942L1090 886Q1074 845 1070 762Q1062 761 1058 734V718Q1058 687 1118 646Q1146 620 1146 546Q1170
546 1198 366L1194 362L1198 342V310Q1198 284 1162 174Q1162 110 1098 78Q1059 35 1030 -22L1006 -26L982 -14Q965 -14 926 -38L838 -62H834L770 -50L726 -90H714Q685 -70 670 -70H662L622 -86L578 -62L526 -86Q512 -66 486 -54H478L430 -66L366 -62L326 -66L286
-62L218 -66L170 -54H162Q132 -59 130 -70Q86 -62 74 -50H34L14 -30V-6L-2 70Q-2 112 50 118Q75 126 110 166H114L162 158Q177 208 186 358V362L174 426L182 478L170 550L174 610L166 666Q167 706 174 706L166 790L174 830L170 894L174 946L162 998Q165 1066 170
1066Q170 1127 82 1138Q-10 1192 -10 1230Q-10 1259 26 1286Q62 1334 98 1334H118L166 1322H186L262 1318Q289 1334 310 1334L370 1322H374L406 1330H454L510 1342H522Q594 1326 662 1326L714 1346ZM718 1130H682Q642 1113 592 1095L558 1122L538 1130Q538 1112
498 1106H494L470 1122H466L410 1102Q383 1122 370 1122H362L346 1114L350 1066Q322 1023 322 1010Q322 996 358 950L362 938L342 878L354 830L346 790Q351 771 378 758L410 786H426L454 746L470 742L518 762H530L554 758Q582 766 601 767T654 758H662Q676 762
682 786L706 798Q752 766 766 766H770Q853 806 866 806L910 898L894 950Q894 970 922 1006Q922 1036 890 1046Q890 1064 834 1098Q792 1098 762 1138H750L718 1130ZM702 542Q678 558 658 558Q627 544 590 558L574 570L530 554L462 558Q446 534 422 534H418Q407
537 378 570Q358 570 346 538L366 474Q342 435 342 422L358 370L346 318V310L362 254L354 194Q368 118 438 118L482 106H490L546 118H554Q590 141 590 166Q614 194 622 194Q650 194 650 150L682 122H690L722 158H726Q740 158 766 138L786 134Q788 150 798 150H822Q845
130 862 130H866Q874 130 914 182L934 186L962 182Q989 214 1014 286L1002 322Q1002 337 1034 374V390Q990 431 990 490Q933 574 886 574L842 522L826 514Q815 514 786 562L766 574L702 542Z" />
<glyph unicode="C" glyph-name="C" horiz-adv-x="1238" d="M524 1382L580 1362L632 1370Q732 1314 776 1314Q798 1338 920 1354H928Q992 1329 992 1286L988 1190V1150L964 1086L972 1038L968 986Q992 914 1024 858Q988 742 932 742Q891 742 816 838Q796 848 796
870L804 910L776 998L780 1042Q780 1102 688 1110Q647 1162 600 1162Q564 1202 536 1206Q513 1199 496 1182L512 1134L508 1130H496Q476 1150 444 1158Q386 1158 344 1106Q272 1061 272 1010Q272 944 228 922L208 898V894Q228 865 228 850V846Q188 799 188 782L232
738V730Q231 722 192 698L188 678L196 626H180V622Q191 602 180 602Q180 560 232 506V502L216 450L260 394L256 362Q280 266 340 266Q361 253 388 198Q404 197 404 190L408 194H432Q463 194 472 158L496 146L536 154L560 146Q599 154 616 170H640L672 154Q700 154
716 226Q780 251 780 290Q888 415 888 442Q888 494 928 494L1000 438Q1040 426 1040 398Q1040 377 1024 338L1052 286V274Q994 220 976 178Q956 168 956 142L960 98Q944 80 896 70Q861 -2 800 -2Q776 -41 688 -62L648 -90H640Q604 -66 592 -66L552 -74L484 -58L448
-82Q430 -82 396 -42H392L336 -46L276 18H240Q224 18 196 90Q127 171 112 178L96 222L100 226V230L36 398Q36 426 16 490L20 562Q0 599 0 622L8 682L0 718L20 790L12 822V830L48 902Q84 992 84 1038Q105 1062 116 1106L112 1110V1114Q114 1136 172 1178Q176 1206
216 1238Q245 1238 308 1310Q353 1310 420 1362H456L472 1358L524 1382ZM816 762L832 750V742L820 730H804L796 738V742L816 762ZM912 698H920L932 686Q924 668 916 666H912L900 678V686L912 698Z" />
<glyph unicode="D" glyph-name="D" horiz-adv-x="1335" d="M282 1332L342 1304L374 1308Q410 1302 410 1296L470 1328L518 1308H570Q662 1302 662 1292H690L742 1304Q767 1304 846 1264Q873 1264 922 1204Q1002 1176 1002 1104Q1009 1104 1018 1076Q1040 1031
1094 972Q1094 943 1134 864L1138 848L1134 804Q1150 738 1158 628L1162 624V620Q1154 488 1134 416L1138 388L1106 312V272L1062 216Q1053 180 1018 124L1022 112Q1022 78 954 44Q935 7 834 -28L738 -60Q700 -100 678 -100Q597 -64 562 -64L490 -96L382 -64H354L278
-96H274L222 -60Q113 -60 86 -96H74Q48 -81 26 -8L-10 44V76Q3 102 50 116Q58 116 94 180L106 184Q119 184 154 160H202L218 156Q274 156 274 352L266 384L282 472L266 524Q274 540 274 568V576L258 624L274 680L258 740Q278 779 278 800Q278 823 266 840V864Q286
917 290 992L302 1028L286 1072V1088L294 1120V1124Q276 1156 226 1156Q196 1136 170 1136Q170 1145 122 1160L86 1156Q38 1168 38 1196Q68 1236 86 1296L110 1308L126 1304L170 1312L226 1308Q267 1332 282 1332ZM458 1132V1128Q498 1093 498 1080L462 1040H458V1012Q458
982 446 956Q460 872 502 872Q506 862 558 836L578 812Q573 792 566 792H558Q532 792 494 824L466 816V744Q454 729 454 688V592L462 544L454 496Q454 424 482 376Q469 376 466 332L554 244V240L546 232L502 256H470L462 240V220L558 176L618 164Q632 164 670 196H682Q717
172 734 172Q774 187 774 200Q794 200 794 220Q815 220 842 256Q842 281 898 336L906 352L902 380Q934 417 934 432L962 584L982 612V628L970 684L982 740L946 804L950 852Q934 952 914 952Q886 972 886 996Q886 1030 798 1108Q784 1108 702 1148H690Q638 1148
590 1116H578Q517 1156 486 1156Q458 1156 458 1132ZM530 736H534Q549 736 554 692L542 684L538 688H534L522 684Q510 699 510 720L530 736ZM514 640H530Q570 609 570 580L550 560H538Q513 577 502 604V628L514 640ZM530 492H542Q554 488 554 468V464Q554 452 538
452Q522 458 514 472V476L530 492ZM522 388Q543 388 566 356Q566 334 546 328Q526 328 502 376Q502 385 522 388ZM910 384V372H914V384H910Z" />
<glyph unicode="E" glyph-name="E" horiz-adv-x="1380" d="M788 1322L852 1298L884 1306Q905 1306 932 1286L992 1310Q1033 1286 1088 1270L1112 1238V1230L1104 1198Q1144 1099 1144 1066L1168 926L1156 858L1164 830Q1164 821 1116 762Q1101 730 1076 730Q1061
730 1048 758L1056 802Q1033 887 972 934V938Q1000 969 1000 986V998Q972 1029 972 1046Q972 1063 1004 1102V1106Q1004 1128 952 1158Q935 1161 916 1170L912 1166H908L904 1170H900Q858 1170 796 1122H784Q770 1122 724 1154Q632 1154 604 1126L580 1114Q570
1114 524 1146H512Q467 1146 448 1126V1098Q448 1069 460 1030L456 970Q456 914 488 874V854Q468 825 468 810Q473 790 512 766L516 746L504 718H508L528 706H540L596 738L632 734Q658 747 676 810V822Q660 848 660 866Q660 904 736 914L784 950Q816 950 816 890Q844
837 844 814L836 774L856 702L852 658L856 570V538L860 510H856L860 506V502Q846 318 804 318H792Q738 318 664 374V386L680 462L656 530L660 542Q642 550 640 558L608 554L556 558L508 506Q484 493 472 462L476 422V390L472 366Q472 332 512 290V286L476 250V242L532
202L536 198V194L524 154L528 134H540L592 154L632 150Q668 202 688 202H696Q706 202 728 154L740 146L804 170L876 138L928 134Q972 165 972 206Q972 238 964 238L976 302L968 358Q968 367 1016 410L1068 494L1064 514V526L1076 538Q1094 538 1116 482Q1164 459
1188 378L1176 306L1188 254V250L1164 182L1160 110L1164 86L1156 34L1164 -10Q1164 -29 1100 -70H1096L1036 -58L996 -66L964 -58L900 -86L792 -62L680 -90H668Q592 -66 568 -66H556L480 -90L428 -58H372L304 -82H300L248 -62L212 -66L168 -58H160L124 -62Q113
-62 60 -30Q8 -30 0 -10V-2Q13 118 80 118H84L148 114L212 154L276 126L300 146L296 214V262L308 326L292 406L296 478L292 522L308 586L296 630L312 694L308 738L320 802L300 878Q316 915 316 946L308 978Q308 995 328 1042Q325 1058 308 1074L300 1102H304Q321
1112 328 1130Q328 1144 252 1150Q199 1118 188 1118L128 1154L80 1150Q62 1157 48 1178V1198Q111 1306 196 1306L260 1282L264 1286H268L272 1282L372 1314L512 1286Q526 1286 584 1314H592Q638 1278 704 1278L772 1318L788 1322ZM684 330Q712 318 712 290V282Q703
242 672 242L648 274V286Q648 313 684 330ZM772 246L784 234L760 210H752L748 230L772 246Z" />
<glyph unicode="F" glyph-name="F" horiz-adv-x="1328" d="M856 1330H860Q918 1306 1016 1286Q1112 1201 1112 1170V1166Q1112 1138 1104 1122Q1118 1082 1128 942L1144 890Q1126 770 1080 770V774L1076 770H1056Q1016 770 980 842Q932 883 932 890V894L944 942L924
994V1002L944 1062Q923 1101 884 1130H868L812 1134Q803 1134 764 1090L708 1126L692 1122L612 1130Q598 1130 568 1098H560Q543 1105 532 1126L516 1134Q416 1111 416 1070Q444 1038 444 1018Q434 1018 424 986L436 954Q436 933 412 906L408 878L424 834Q484 827
484 810V806L472 766Q480 766 480 750L512 734L560 742H564Q580 736 580 718H584Q623 730 636 766V786L632 822L652 902L644 926Q653 950 672 950Q808 933 808 890L804 826L824 746V742L816 694L824 630Q816 614 816 586V582L824 538Q812 490 808 402Q790 369 772
302Q754 286 744 286L692 334Q636 342 636 366L652 414L624 486L632 518Q619 550 596 550L564 530H556L520 566H516Q452 546 452 526Q452 518 484 486V474L452 422V406Q472 377 472 358V350Q471 341 440 318L436 294L464 254V234L440 190Q447 163 504 122H512L544
126L576 122Q600 122 632 162Q644 162 644 170Q708 157 708 118V94L704 90L724 50L728 14Q700 -46 660 -46Q655 -53 540 -78L484 -66Q462 -74 456 -90Q432 -90 416 -70H408L348 -86L284 -58Q223 -58 156 -86L88 -62Q4 -53 4 -6V-2Q32 82 32 106Q32 118 56 134L116
106H164Q184 106 224 158Q248 172 248 194L228 234V246L260 294V298L248 342L252 418L248 478L264 530L248 578V586Q248 599 268 630V646L248 710V774L240 806V822L252 870L236 930L252 978L236 1038L248 1090Q214 1142 176 1158Q118 1158 68 1110L52 1106Q16 1121
16 1142L20 1182L0 1266Q21 1306 56 1306L116 1302L160 1306L192 1302L240 1314H248Q307 1294 340 1294Q381 1294 448 1322H452L560 1294Q616 1322 632 1322H652L716 1310L856 1330ZM700 1054H708L720 1042V1030L700 1026L688 1038V1042L700 1054Z" />
<glyph unicode="G" glyph-name="G" horiz-adv-x="1356" d="M548 1354Q613 1354 680 1314H696L744 1326H752L800 1286H812L936 1330Q983 1330 992 1214L996 1186L976 1126L984 1062L976 1010Q990 987 1000 830Q1000 801 932 786L904 790L848 774H844Q821 774 808
802Q809 822 816 822L796 862L808 962Q777 1050 736 1050Q708 1074 660 1074Q634 1101 620 1126L596 1146L572 1138Q538 1143 508 1166H492Q472 1151 472 1118L448 1102L416 1118Q376 1118 376 1050Q355 1029 324 1018Q272 970 272 882L232 830L236 806L228 798L232
786H228Q202 769 188 678L200 602L196 550Q196 504 276 446Q284 446 284 426Q264 399 264 386V378L300 334L296 294Q296 247 356 198L448 146Q472 146 520 126Q560 148 560 154L564 158Q583 150 608 122Q627 122 756 194Q781 194 832 282V286L824 330V334L848 366V374Q848
388 820 418Q805 450 784 466L748 458L692 478H676L656 474V478L660 482V486Q638 486 620 558Q620 602 700 618Q733 650 752 650L868 622L944 654Q964 654 1036 618L1080 614L1132 638Q1147 638 1160 614L1152 590V574L1176 530V526Q1176 502 1148 482L1096 502Q1065
492 1060 478V466L1064 442L1024 390V374Q1048 341 1048 330Q1046 312 1024 282L1052 214V210L1028 130L1044 106V98Q1016 49 1008 2Q984 -30 960 -30Q942 -30 920 -14H908Q887 -14 872 -26H864Q829 10 812 10Q688 -82 628 -82Q586 -110 564 -110Q538 -83 512 -70H476Q363
-54 340 -18Q335 -2 228 58Q136 142 136 162L88 246Q88 272 60 338Q60 367 16 422V430L28 478Q14 533 4 650L0 674L16 734L8 766V782L24 842L20 878Q20 901 92 1038Q92 1082 180 1174Q233 1274 240 1274Q240 1281 260 1282H296L332 1318L356 1334L408 1326Q449
1346 492 1346V1342L548 1354Z" />
<glyph unicode="H" glyph-name="H" horiz-adv-x="1387" d="M178 1316L258 1300H278Q311 1300 370 1316Q428 1306 506 1252Q549 1242 554 1224L550 1208L548 1200L536 1196V1192L524 1188L522 1184Q522 1176 502 1176Q502 1147 398 1116Q318 1098 318 1048Q313
1048 310 1024L322 968L306 916L318 864L314 796Q322 796 326 772Q351 728 394 728L438 692L466 696H470L506 692L566 736H586Q603 709 714 696L762 732Q790 729 790 724Q822 724 822 788L830 808L822 860L826 956L818 980L838 1044Q838 1109 730 1120L718 1124L678
1100H670L658 1112V1116L666 1124L630 1192V1204Q630 1249 726 1288L766 1316H786Q847 1292 918 1292Q958 1308 986 1308Q1110 1290 1110 1280Q1132 1280 1150 1220Q1150 1171 1106 1116Q1106 1110 1074 1092H1066L1030 1108Q1012 1108 998 1080L1006 1044V1036L990
988L1006 940V932L986 876L1006 816Q990 786 990 760L1006 716V704Q1006 687 990 652L1006 588L1002 516L1010 480L994 416L1014 356L1006 304L1018 248L1006 188Q1033 121 1054 112H1086Q1139 112 1190 12Q1190 -9 1134 -52Q1118 -96 1086 -96L1018 -80Q991 -100
966 -100L934 -76L866 -80L830 -72H826Q813 -72 798 -84H790Q780 -84 726 -48H690Q658 -27 658 20V44L690 72L722 68Q738 68 830 120L838 148V180L834 204L842 232L826 292V304L838 344L826 400V404L850 472Q827 541 802 548H722L678 512H670Q636 556 618 556Q591
541 518 536L482 504H474Q442 533 442 544H422Q334 536 334 476V472L342 464L338 460H334L338 432V392L342 372L346 376H354L378 360V348Q373 337 334 324L314 224Q326 200 326 148Q342 148 342 132Q355 142 378 144Q402 120 402 88Q417 72 434 72L470 80Q480 78
490 52L482 20L506 -40Q503 -72 474 -72L410 -64L398 -68Q382 -60 354 -60H346L286 -84H274L218 -64L182 -68L130 -64L78 -92Q25 -92 14 -16Q23 100 82 100L114 88Q136 88 158 160Q166 160 166 188L154 236V240L170 288L154 348V360L166 404L146 468L154 500V520L146
552V564Q146 582 170 616V632L154 688V708L166 756L158 820L166 856V868L150 924L162 980V984L150 1036L154 1072Q154 1097 122 1108L82 1092Q62 1092 38 1148Q-10 1174 -10 1204Q-10 1257 54 1292H86Q113 1292 178 1316ZM374 264Q392 256 394 248V244Q386 228
370 228L358 244V248L374 264ZM582 140L586 136V128L578 100H566L558 108V128L566 136L570 132H574L582 140ZM574 28Q574 20 586 20L590 16V-4Q583 -18 566 -24Q548 -24 542 0Q550 28 574 28Z" />
<glyph unicode="I" glyph-name="I" horiz-adv-x="1197" d="M136 1336Q205 1304 236 1304V1300Q279 1300 340 1328H344L412 1296H416Q448 1296 540 1332H544Q607 1312 688 1312L728 1328L800 1304Q877 1304 908 1292L944 1304Q987 1304 1004 1156Q1004 1126 868
1064Q868 1052 836 1048Q826 1048 756 1096L740 1100Q719 1100 692 1080L608 1040Q580 1015 580 992L596 932V928L584 868L592 816L584 764L604 708L596 664L600 588L592 548L596 448L592 396Q598 346 620 324V288Q596 275 596 240L588 200L592 188H588Q588 157
656 120L680 112Q680 120 696 120Q710 148 716 148H724Q731 148 736 112Q744 112 744 100L756 96L824 124H836L932 92Q988 92 992 8V-20Q992 -67 928 -124H920Q903 -124 868 -100L864 -104H816Q804 -104 740 -140H732Q705 -137 636 -92H624Q612 -92 540 -132H532L448
-100L444 -104H440L404 -100Q393 -100 344 -132H336L268 -100H200Q181 -100 140 -136H128L64 -88Q0 -88 0 -40L4 20L0 80L28 100L32 96L36 100L76 96H88L136 140L176 104Q300 116 300 140Q312 140 312 152L316 156H336Q365 128 388 128H392L396 148L384 180V196L400
248L392 304L412 356V360Q412 376 388 408V420L404 476L392 528V544L404 592Q388 633 388 656L400 704L384 764Q384 778 404 808V832Q392 847 392 868V872L408 932L396 976V1000L404 1044V1056Q372 1104 320 1104H308Q298 1104 244 1068H236L184 1096L172 1100L152
1096H128Q74 1096 8 1180L4 1232Q14 1264 84 1300Q115 1336 136 1336ZM720 132V124H724V132H720Z" />
<glyph unicode="J" glyph-name="J" horiz-adv-x="1384" d="M980 1332Q1031 1300 1044 1300H1108Q1184 1253 1184 1216V1204Q1184 1121 1132 1104L1088 1080H1072L1012 1120Q998 1120 960 1072L928 1092H916L900 1076V1072Q900 1047 912 1016L896 956Q896 936 932
888V880Q932 861 912 848L908 832Q908 819 932 784L908 732L920 668V644Q908 627 908 604L916 552L912 524L936 432Q920 395 920 364Q920 352 956 296V284Q944 284 916 256H912V244L922 215L904 160L884 136V120Q872 0 840 0H836L820 32H800L756 -32L736 -48L732
-44H728Q728 -52 696 -52Q613 -92 572 -120L416 -104L372 -120H364Q344 -120 296 -72Q219 -72 216 -40Q183 -6 132 8Q95 91 68 100L72 120Q72 131 24 204Q24 243 0 312L16 372L12 428Q64 507 64 544H72Q72 564 136 564L160 572L212 556L260 560Q286 560 320 432V424Q320
406 292 356Q292 323 248 304L220 312Q204 307 196 292V232Q196 171 308 112Q308 102 404 76L448 124H456L516 96H536Q548 96 568 152H572L596 148Q619 148 636 208Q696 242 696 276L700 328L688 384V408L696 440L688 500L692 532Q720 532 720 656L704 712V716L712
780L700 848L720 912L712 964L720 1000V1028Q715 1092 660 1092Q628 1128 604 1128L600 1124L532 1136Q502 1116 488 1116L480 1124L484 1172Q473 1211 464 1220V1248Q464 1271 580 1292L636 1288L696 1296H724L780 1316Q791 1316 820 1292H828Q960 1303 960 1324L980
1332Z" />
<glyph unicode="K" glyph-name="K" horiz-adv-x="1463" d="M1136 1338Q1175 1301 1244 1278L1264 1230Q1264 1185 1228 1150L1224 1154H1220L1160 1138H1140L1096 1146Q1070 1146 1036 1106Q977 1078 948 1030Q833 975 832 946H828L832 942V926Q832 890 776 890Q756
873 756 826Q732 794 692 794Q612 726 612 706L636 666Q636 638 628 622Q744 506 744 482Q744 457 840 366Q869 366 876 298L892 286L940 294L960 270V230Q969 190 1032 142Q1042 142 1104 98L1120 94L1152 98Q1198 90 1212 74L1216 78Q1216 68 1264 10V-18Q1264
-61 1188 -66Q1142 -110 1124 -110L1068 -74L1048 -78L992 -70L928 -102H916Q874 -74 860 -74L828 -78L792 -70H772Q750 -86 732 -86Q717 -73 704 34Q711 61 732 70L768 62Q796 81 796 118Q796 152 704 238Q692 253 692 266V306Q682 327 668 330Q649 330 632 310Q612
310 612 366Q559 448 496 478Q476 514 460 514V518Q408 506 392 474Q390 462 372 446V426L384 382L364 318V302L372 262L364 202Q376 135 400 110H404L440 118Q454 118 508 78Q572 78 572 26Q544 -67 544 -94L532 -102H520L484 -82L440 -86H424L380 -78H376L324
-98H320L268 -82L208 -90L156 -74L148 -82L132 -78L128 -82H124L104 -70H56Q8 -66 8 -30Q24 17 24 42L20 62Q35 74 48 74L76 62L180 98L216 146L212 206L220 254L200 314L224 366L196 430V442Q220 468 220 490L196 546Q216 587 216 610L204 658V662Q204 685 220
714L208 774V778L216 826Q216 846 192 898L208 946L192 1006L212 1058Q168 1130 124 1130Q85 1130 4 1210L0 1234Q0 1255 68 1282Q103 1322 128 1322Q154 1296 184 1282L204 1286L248 1282L308 1310H316L372 1294L400 1298H416L468 1290L520 1310H532Q552 1300
552 1278V1254L556 1190Q556 1143 464 1138Q440 1107 420 1098H416L376 1114Q360 1108 360 1102L372 1054L364 1006V998Q380 972 380 958V950L364 898V886L372 834L352 782Q377 714 416 714Q508 767 508 838Q521 856 568 874Q590 926 628 954Q628 974 636 974V962Q642
962 656 990L660 986H668Q708 1012 708 1074Q760 1102 760 1126Q738 1149 704 1162L692 1186Q704 1228 740 1278Q752 1278 752 1290L756 1286L828 1306L872 1302L924 1326L992 1298H1044Q1065 1298 1128 1338H1136Z" />
<glyph unicode="L" glyph-name="L" horiz-adv-x="1370" d="M550 1348L610 1312L634 1316H638Q706 1304 706 1256V1248Q689 1123 678 1104L654 1092L590 1124L522 1132L450 1056L462 1020L434 964L454 932V904H470V896Q449 896 438 868V852Q438 840 470 784L450
736L482 680Q482 624 450 624V608Q498 557 498 544Q452 506 450 496L502 444V424Q479 392 470 392V388Q482 388 482 368Q498 368 510 348V340Q510 319 462 284V280L502 228L506 224V220Q500 176 494 176Q494 148 522 148L554 168H574L602 128L614 116L662 132L710
112H718Q733 120 750 160L766 168H770Q776 168 794 136L790 132Q802 132 802 116H826L858 124H866L914 108H926Q939 108 946 168L970 200V204Q970 233 942 252L938 272Q970 326 970 344Q960 344 946 392Q946 410 1002 460Q1002 481 1030 564L1054 588Q1081 588
1146 504Q1146 432 1170 380V376Q1130 290 1130 212L1150 156V136Q1135 136 1118 12Q1108 -36 1098 -36Q1098 -54 1006 -76Q975 -107 950 -108Q895 -76 882 -76Q819 -76 754 -108Q709 -80 674 -80H626L558 -108Q505 -76 494 -76H470L454 -80L422 -72L350 -120Q283
-80 266 -80H226L154 -108Q107 -72 74 -72Q6 -72 6 12Q24 132 62 132L118 100L150 120H174L198 104H210Q270 149 270 176Q254 200 254 220L286 280Q258 323 258 336V340L270 388V404Q250 432 250 456L270 508L258 556L270 612V616L246 684L266 744Q246 787 246
804Q266 844 266 868Q254 871 254 900V916L270 968V980L238 1020V1028L250 1076Q169 1140 154 1140H118Q99 1140 42 1108H26Q-6 1108 -10 1228Q3 1304 62 1304Q91 1304 130 1336H138Q149 1336 174 1312L186 1308Q330 1311 330 1332H342L394 1308H398Q522 1318 522
1336L550 1348ZM558 848H562Q574 844 574 824L562 812H554L542 824V832L558 848Z" />
<glyph unicode="M" glyph-name="M" horiz-adv-x="1512" d="M144 1312H152L228 1280Q320 1280 344 1304H364L416 1248Q448 1248 464 1216L440 1172Q496 1121 496 1112L480 1072L500 1008V992L496 948L540 836Q548 836 556 816L540 796V768Q550 768 564 748Q597
748 612 724V716Q612 708 564 668L560 652Q573 640 608 632L620 616V612Q620 596 580 552V536L612 484V464Q612 444 604 444L636 332V324Q672 333 672 364L652 416Q652 438 700 476L704 492L680 540Q709 581 740 652V668L724 724Q748 765 748 844Q788 882 788 896L764
940L812 1004Q812 1029 764 1052L760 1056V1064Q820 1110 820 1176H824L820 1196V1220Q820 1269 916 1276Q926 1284 956 1288L1008 1284L1068 1292L1128 1272L1172 1280H1184Q1284 1228 1284 1184V1176H1296V1164Q1278 1126 1268 1124H1256L1224 1132H1212L1204
1116V1104L1212 1092V1080Q1198 1056 1176 1056L1164 1064L1136 1056V1024L1116 952L1124 896L1120 832L1132 780L1116 724V716L1128 676V668L1116 620V604Q1136 571 1136 548L1120 488V480L1140 340Q1140 318 1216 296L1232 272V264Q1232 257 1204 240H1200L1160
260Q1142 252 1140 244V216Q1140 188 1172 176H1176L1196 188Q1222 178 1224 168V164Q1224 136 1188 136L1184 140H1180Q1180 128 1168 128V124Q1173 104 1212 104Q1316 4 1316 -20Q1316 -38 1256 -56Q1224 -92 1192 -92H1176L1056 -72L992 -96H968Q918 -62 880
-60Q839 -27 824 8L820 12H816Q759 2 744 -20Q720 -68 676 -68H672L656 -64L612 -84Q584 -84 584 -36Q544 12 544 36L548 40V44L544 56H548Q528 108 512 184L500 176L472 204Q472 217 512 240V244Q512 263 456 304V320L468 368V372L448 424L452 488L424 568L412
580L380 572L364 592Q364 617 420 644L424 664Q402 688 372 688Q360 703 360 716Q408 761 408 776Q356 815 356 836L368 872Q360 900 340 900Q326 886 308 820L328 768L296 708L292 696Q320 655 320 584L332 540L316 460L328 420L324 384L332 308L324 244L336 200L332
144V140Q332 83 420 64L496 -24Q495 -37 428 -80Q428 -104 388 -120Q334 -92 300 -92L252 -88L188 -116H172Q133 -84 116 -84L80 -88Q37 -88 20 20V36Q57 108 84 108L120 100Q146 121 152 164Q160 164 160 192L144 240Q168 284 168 296L148 352V364L164 412L152
464L164 508V516L144 584L164 640V644L152 700L168 764Q144 787 144 824L160 884Q140 917 140 932L164 992V996Q132 1034 132 1052L140 1080Q131 1104 124 1104H116Q91 1104 60 1092Q0 1178 0 1192V1220Q0 1263 88 1272L144 1312ZM944 1016Q944 1004 928 996L932
992V988L928 976Q940 976 940 960Q960 968 960 988V996L956 1016H944ZM940 916L920 900Q892 833 892 816Q904 816 904 772Q904 762 868 720V716Q868 703 880 688V672Q840 632 840 600L832 532L836 492L804 428Q820 377 820 352L808 320V304L816 272V264L772 216V212Q772
199 800 156L768 92V88Q769 80 820 48L836 24H844Q844 34 888 80L920 76Q968 90 968 172Q977 172 980 208V216Q952 255 952 272L980 316V332L964 376Q964 393 996 424L1000 436Q1000 447 952 484V500Q988 541 988 556L964 604V608Q964 624 988 652V664Q988 683
952 724V740L964 780V796Q948 822 948 836L972 876Q972 900 940 916Z" />
<glyph unicode="N" glyph-name="N" horiz-adv-x="1366" d="M328 1318Q386 1254 416 1254Q444 1226 444 1210V1198L440 1174Q450 1128 516 1050V1046L512 1010Q512 996 556 946Q559 886 580 886H584L596 894H608Q616 892 624 874Q596 831 596 814L640 758V718Q640
676 712 618Q718 618 732 590L728 546V542Q764 470 788 454Q820 454 840 494L808 526V546Q836 575 836 602Q812 634 812 654L832 702Q832 713 800 750V762L844 802V814Q844 846 808 882V886Q836 927 836 938V942Q792 987 792 1002L840 1046V1054Q824 1054 824 1070H800L744
1126L740 1122H736Q668 1122 668 1170Q647 1194 596 1194L588 1218Q606 1243 652 1254Q699 1309 708 1310H712L756 1298L876 1302Q876 1311 912 1318L964 1302H1008L1084 1290H1108Q1164 1290 1164 1174V1162Q1164 1129 1120 1118H1116L1072 1122Q997 1062 980
1062V1038Q992 1024 996 994L988 954L996 890L984 834L980 738L992 662L976 510L996 426L984 370V338Q1000 312 1000 298L984 246V226Q992 217 992 198H996L988 138L996 78Q963 -50 892 -50Q800 -50 800 -18Q800 7 752 66Q747 83 688 126L684 142Q704 163 704 178V194Q672
226 672 242L676 274Q668 298 644 298L612 290Q594 297 584 314V330Q612 352 612 370L584 422Q584 532 524 566Q501 566 488 594V598L508 642V658Q479 670 456 734Q446 745 404 750L400 754V762L440 814Q384 864 384 878L388 906Q388 926 368 930Q333 930 320 874L336
826V822L324 754L340 694Q320 661 320 646L340 594L324 538L340 478L320 410L336 366L332 294L340 246L320 190Q346 118 368 110L416 114Q434 111 476 62Q528 31 528 2Q513 -26 440 -66Q440 -77 400 -82L332 -78L316 -82L284 -78H280L212 -90Q120 -78 120 -70L116
-74H112Q67 -74 32 6V26Q32 56 108 102Q172 102 172 166L176 258L164 310L172 362L164 426L172 474L164 522L176 594L168 646L184 706L168 754L172 822L168 874L180 922Q156 976 156 990L172 1046V1054Q172 1107 132 1114L108 1110H100Q74 1110 0 1198V1218Q12
1238 56 1262Q89 1314 112 1314L168 1278H232Q252 1278 316 1318H328Z" />
<glyph unicode="O" glyph-name="O" horiz-adv-x="1273" d="M636 1328H660Q698 1276 740 1276Q771 1276 812 1224Q896 1193 896 1156L972 1040Q995 1040 1008 932Q1055 838 1064 800L1060 776V748Q1088 720 1088 580L1064 532L1068 520L1064 516L1080 492V464L1056
420L1060 364V360Q1012 306 1012 252L980 188Q907 107 872 16L800 -24Q790 -52 692 -76Q656 -116 640 -116L592 -84L528 -88H516Q504 -88 452 -120H444Q396 -68 384 -68L348 -72Q337 -72 292 -16L272 -12L244 -16Q222 -16 200 56L112 152Q98 169 96 200H100Q88
251 36 348L32 368L36 392Q4 458 4 476Q24 506 24 528Q14 528 0 576L28 640Q28 652 0 696L28 768L20 812L72 896Q89 935 100 1004Q152 1066 160 1104Q188 1123 208 1184Q225 1204 280 1220Q313 1276 388 1276Q430 1324 460 1324Q510 1288 524 1288L556 1300L580
1296H596L636 1328ZM562 1126L559 1112L554 1103L548 1090Q540 1087 534 1082Q516 1100 513 1118H505Q481 1114 456 1099Q430 1099 414 1107Q403 1107 365 1049Q286 1021 286 956L297 926V906L241 852L237 837L271 806V794Q271 783 222 767Q188 718 188 671L199
636V625L180 575Q210 523 210 501L206 490Q206 404 259 366Q270 353 275 309Q305 269 305 247L301 220L324 208L358 212Q371 212 380 143Q427 85 486 85Q497 85 547 120Q558 120 607 89H615Q638 89 656 116Q741 116 796 212L800 224L796 247Q796 271 849 312Q864
334 876 378V424Q876 439 902 482Q902 497 887 521V532L906 582V586Q906 601 887 629V640L902 690V698Q872 737 872 771Q863 821 853 821L857 841V852Q856 861 811 902L796 926L800 953V956Q800 999 690 1068Q687 1092 566 1122L562 1126Z" />
<glyph unicode="P" glyph-name="P" horiz-adv-x="1356" d="M602 1328L654 1288L682 1292L750 1288L774 1300H794Q833 1264 850 1264L906 1272Q1003 1218 1022 1156L1046 1124Q1122 1041 1122 1008L1114 972V960L1158 908V896L1138 820L1146 776Q1110 717 1110
664L1038 584L926 524Q884 524 822 472H806Q795 472 754 500L730 508H686Q665 508 618 456H610Q558 492 542 492H506Q471 492 430 428L438 364L426 320L446 268V256L434 200Q448 128 502 128Q517 128 578 92L626 96Q692 78 698 60L694 40L714 -16Q706 -34 698 -36H670Q644
-36 622 -96L602 -100L550 -64L510 -68L462 -60L414 -92H402L362 -64H350L318 -72H298Q254 -56 230 -56H226L214 -64Q193 -44 174 -44Q139 -64 118 -64H98Q84 -64 26 -12Q-10 7 -10 32Q13 60 42 68Q83 128 110 128L186 96Q270 96 278 168L274 188L290 256L270 312L290
372Q270 415 270 432L282 484Q282 498 262 528V544L290 604L278 660L286 700V724L270 764L290 828L270 892L290 948L274 1004V1008Q298 1043 298 1060Q259 1132 170 1132L158 1136L98 1104H94Q18 1142 18 1152L14 1164L30 1204V1236Q59 1292 130 1292L182 1324H206L250
1292L290 1296L334 1288H346L390 1324H414L458 1288L486 1292H502L506 1288L510 1292H514L542 1288Q579 1328 602 1328ZM558 1140L510 1100H470L466 1104L454 1100V1084Q454 1047 430 1012L454 952V940L434 880V876L450 824V816Q422 784 422 764L450 712Q442 696
442 668L466 652Q466 663 506 668Q546 636 562 636L602 648H614L666 636L698 660H710Q717 660 726 632L746 628Q759 628 794 656Q856 668 878 688Q974 761 974 824Q974 851 998 896Q962 937 962 1012L958 1008H954L942 1020L910 1000Q901 1000 894 1036H898Q898
1069 806 1140H782Q726 1096 714 1096H710Q696 1096 642 1136L558 1140Z" />
<glyph unicode="Q" glyph-name="Q" horiz-adv-x="1263" d="M584 1332Q632 1296 672 1296Q689 1296 764 1240Q814 1240 836 1184Q904 1165 904 1136L908 1132L904 1104Q904 1036 972 996Q978 996 992 968Q990 928 984 928Q984 913 1028 856V840Q1026 817 1004 788Q1007
762 1060 696V676L1040 616L1052 568L1028 516L1032 512V508L1028 416H1024L1028 412V396L1004 324V276L952 224L908 152L912 116Q912 83 848 60Q796 13 796 -12V-16Q814 -50 852 -72H912Q925 -70 960 -20L1020 12Q1041 44 1084 44Q1136 44 1136 -60L1144 -108Q1144
-145 1068 -208Q1020 -255 1016 -300L1004 -316L1000 -320H980Q938 -292 924 -292L904 -296L840 -280L808 -288V-284L788 -292Q782 -278 728 -236L708 -212L688 -216Q671 -216 624 -108Q615 -96 556 -92Q556 -73 440 -68L404 -72L344 -16H340L336 -20H332L328 -16H324L288
-28Q266 -26 220 76L140 132Q126 212 104 212Q104 247 36 328V376L12 436L16 500L0 568L24 624L4 704Q4 777 44 860V876L40 900L76 964L80 976L76 1012Q123 1063 144 1108Q174 1127 196 1176Q235 1191 264 1260L288 1276Q342 1252 360 1252L456 1292L480 1296H516Q533
1296 580 1332H584ZM455 1166L451 1170H447Q374 1126 364 1126Q346 1126 284 1033L296 997Q296 974 242 969Q227 957 220 909Q214 909 205 873L208 816L170 768V760L197 704L163 640L186 591L159 531Q193 483 193 471L178 427V415Q227 367 227 302H242L258 274Q262
242 280 242Q295 242 330 302Q348 318 371 318L368 322V330L390 318Q401 318 443 363L550 387H557L606 350H610L641 358H644Q684 358 697 270Q713 264 713 258L735 266H751L769 250H800L811 326Q845 357 845 375V383L823 415V431Q871 463 883 519Q898 533 898 551L883
600L906 632V656Q887 679 887 700L898 732V752Q898 783 872 792L868 804L876 812V824Q865 845 819 869L815 889Q826 910 826 929Q796 1029 743 1029L728 1049L732 1090Q726 1110 709 1110L663 1090H660Q642 1090 603 1146H595L561 1142Q510 1178 493 1178L455 1166ZM472
1150H480Q496 1144 496 1122L484 1114H476L464 1126V1142L472 1150ZM444 184V180Q449 160 488 144Q525 112 544 112Q610 112 632 168V184Q632 230 540 240L484 196Q444 196 444 184Z" />
<glyph unicode="R" glyph-name="R" horiz-adv-x="1404" d="M688 1324L748 1288L788 1296Q808 1296 848 1244Q856 1232 908 1228Q967 1169 1012 1148Q1041 1119 1076 1000L1104 952L1092 900V840Q1062 758 1024 708L1028 660Q1028 641 968 620Q928 569 928 548V544Q952
491 952 472Q952 439 972 376Q972 244 1000 244Q1036 210 1036 164L1052 156H1104Q1148 100 1196 100Q1217 100 1236 20Q1217 -72 1172 -72H1148L1120 -68H1104L1100 -72H1096Q1071 -61 988 -56L956 -20Q944 -20 944 -8Q929 -20 908 -20H900Q881 -12 856 68Q848
68 848 80H804L796 88V96Q828 100 828 132H824Q780 147 780 176V184Q780 199 804 252V268Q788 289 788 304V324L796 356V364L768 424Q768 472 740 472Q701 472 688 508Q683 540 664 540L600 512Q596 523 552 548L516 544L476 552Q443 552 408 488L404 472Q419 467
428 432Q424 418 384 376Q395 349 424 312V308Q424 297 380 256V248Q380 240 424 212L432 200Q426 168 420 168Q442 100 492 100Q513 100 560 84Q584 102 608 108Q629 108 652 -28V-32Q634 -72 584 -72L560 -80Q518 -116 500 -116L440 -88L436 -92H432L428 -88H424L324
-112L308 -120L256 -104L252 -108H228L164 -100Q145 -100 116 -120H96Q32 -80 32 12Q45 88 104 88L116 84Q141 94 180 128Q248 128 248 216V228L232 368L252 436L216 488V496Q231 584 248 628L244 724V736L228 784Q228 805 252 884V888Q200 962 200 1004L220 1040L224
1044V1056Q216 1081 180 1096Q130 1119 12 1140Q-20 1153 -20 1232Q-20 1248 36 1260Q66 1312 92 1312Q135 1284 148 1284Q227 1292 276 1316H288Q323 1280 340 1280L384 1292L416 1284H432L480 1312L544 1288L588 1296L640 1276Q677 1324 688 1324ZM600 1104H584Q538
1140 528 1140L464 1124L452 1128Q378 1089 368 1060Q368 1051 404 1008V1004L376 960V948L408 896L376 848V832L416 780V756L404 740Q412 740 416 708L436 704Q489 732 508 732Q508 725 552 704L600 716H620L656 704Q672 728 696 728Q716 726 740 704Q843 730
868 772L876 788V824L916 876Q916 887 928 896Q928 908 896 944V952Q896 964 920 1000Q912 1029 864 1052L860 1072V1104L840 1120L792 1108H780Q728 1128 652 1144H648L600 1104Z" />
<glyph unicode="S" glyph-name="S" horiz-adv-x="1259" d="M534 1326L574 1306L618 1322H630L706 1278L778 1262Q807 1281 814 1302Q840 1322 854 1322Q954 1292 954 1226L982 1110L978 1050Q994 1000 994 974Q973 858 934 858Q918 858 826 934L818 950L826 994Q781
1086 750 1086L734 1082Q698 1097 698 1138L678 1150L658 1146H626Q557 1180 542 1180L518 1176L474 1180Q435 1141 422 1140L382 1164Q355 1164 330 1104L270 1084Q254 1068 274 1039Q224 1018 224 987L212 919Q239 859 280 859Q293 859 302 798Q357 798 406 758L482
734Q497 734 526 762H530L570 734H574L618 742H622Q644 742 706 702Q742 699 902 614Q978 564 978 558Q989 558 1006 506Q1030 488 1030 454L1026 438L1070 358Q1046 194 1014 170Q975 30 914 30Q852 -30 818 -30Q776 -30 746 -70L638 -86H626L582 -78L526 -90Q429
-50 366 -50H334Q289 -10 274 -10L234 -22Q221 -22 206 -10Q179 -10 174 -38Q162 -65 142 -78H126Q91 -50 38 -26L22 6L26 38L10 114V118L22 186L2 238L6 282L-10 354L26 422V430L22 446Q30 470 38 470H50Q87 437 102 434L118 438Q158 433 158 402L150 362V358Q175
258 234 258Q256 258 266 190Q275 174 290 174V170L310 174H314Q336 174 346 154L342 142Q371 108 398 98L438 134H446L486 106H490L526 114L582 110L634 142L686 122H710Q736 148 794 186Q806 197 810 258L846 306Q842 322 818 350V362L830 414Q807 447 790 494L786
498L774 506L730 502Q681 562 618 562L542 602Q471 602 394 630H386L350 622H338Q281 674 262 674H254L234 670Q200 693 166 738Q130 738 78 858L82 878Q62 931 62 958Q82 1134 110 1134Q144 1148 198 1222Q219 1248 370 1294Q385 1309 418 1322L474 1310L534 1326Z"
/>
<glyph unicode="T" glyph-name="T" horiz-adv-x="1287" d="M384 1330Q474 1290 516 1290H532Q575 1326 600 1326Q655 1298 672 1298H724Q738 1298 784 1330H808Q841 1302 868 1302H920L944 1298L984 1306Q1007 1306 1056 1222V1194L1052 1178L1068 1102Q1068 944
1092 898V890L1080 826L1092 770Q1065 699 1012 670Q963 670 932 718Q868 761 868 770V774Q868 786 908 834V842Q908 857 880 890V898L900 962Q868 990 868 1010Q868 1028 884 1046V1066Q832 1134 808 1134Q740 1134 708 1078Q640 1071 640 1034V1010L656 946L636
874V870L640 818L628 754Q648 713 648 638Q658 638 664 606V602Q664 590 636 542V534L652 478L644 418L660 378V350Q648 333 648 310L652 242L644 210Q653 142 672 142L680 126H684L760 114H764Q777 114 792 126H816L852 114L968 162H976L996 138L972 74L988 26Q945
-78 920 -78Q866 -78 804 -110Q742 -90 680 -86L624 -118H620L548 -82Q463 -82 436 -106Q427 -118 416 -118Q367 -86 344 -86Q315 -86 212 -130Q136 -100 136 14Q136 45 188 86Q197 142 208 142H216Q240 110 260 110Q344 137 388 162L452 142L468 158L460 202L468
238V262L452 314V322L468 378V382L456 430Q456 458 468 490L452 546L468 610Q456 644 452 734Q445 734 444 754V758L472 826Q452 865 452 882L472 934L452 994V998L464 1058Q450 1089 420 1114Q420 1126 368 1126H356L292 1078H276Q255 1078 252 1090L232 1086H220L224
1058V1054Q211 1006 192 1006V998H200V994L196 982Q228 957 228 934Q228 919 180 878V874L204 826Q168 770 168 754V738L180 706Q160 694 108 638L92 634Q61 634 12 754L0 806Q20 871 20 906L8 950L16 1054L12 1110Q20 1131 24 1210Q38 1250 136 1298Q153 1326
196 1326L268 1298H320Q370 1330 384 1330Z" />
<glyph unicode="U" glyph-name="U" horiz-adv-x="1429" d="M210 1328L270 1296L310 1304L358 1300Q369 1300 402 1324H406Q478 1255 478 1204Q478 1157 378 1144Q342 1117 342 1068L346 1008L338 964L350 900L330 848L346 800Q346 783 326 744L358 692L362 680Q341
647 334 616Q346 595 346 568L334 512V508L350 440V436L342 392L350 328V320L346 304Q389 217 450 176Q469 140 498 140L522 144L582 108Q657 108 726 140H754Q782 156 782 192Q801 212 838 224Q861 251 886 300V308L878 340V344L890 392V400L874 464L886 520V528L874
588L882 628L870 680V692L886 760L882 764V780Q882 804 898 848V852Q898 876 878 904V924L886 984L866 1036L870 1080V1100Q870 1120 818 1120Q812 1131 738 1180L694 1252V1260L714 1276L770 1272L802 1300H818L842 1296Q882 1312 910 1312L950 1304Q1037 1304
1098 1320Q1141 1320 1182 1268Q1238 1219 1238 1192V1188Q1234 1173 1158 1124Q1158 1114 1126 1108H1114L1098 1112Q1072 1112 1050 1028L1066 976L1046 920L1062 876V864L1046 816V808L1062 752V748L1046 688Q1070 648 1070 636L1038 572Q1062 522 1062 504L1050
464L1062 412V408L1050 348L1062 300Q1046 264 1022 236V204L1026 188Q1026 177 978 120L930 44Q930 9 902 -8L882 -4Q846 -4 830 -68L814 -76L750 -48Q681 -48 634 -96L622 -100L486 -44H482Q465 -44 434 -72H422Q414 -72 398 -24Q386 -24 386 -12H370L322 -28H318Q302
-21 302 0V4L310 16V32L206 156L210 192L182 268V324L170 388L174 460V464L166 496L186 560L162 628L174 672L170 708L182 784Q170 813 170 848L186 904L170 964L182 1016L146 1100L142 1096L126 1100L82 1096Q50 1144 2 1144L-10 1160V1176Q47 1234 50 1272Q80
1304 122 1304L158 1300L210 1328ZM806 1112L822 1092V1084Q818 1072 798 1072L790 1080V1096L806 1112Z" />
<glyph unicode="V" glyph-name="V" horiz-adv-x="1380" d="M324 1326Q373 1298 480 1298Q529 1298 552 1202Q552 1171 480 1150L444 1110H440Q427 1110 396 1134H384L372 1122Q384 1091 388 1042H384Q405 960 432 942Q452 936 452 914Q428 878 428 858V854Q428
840 464 790L468 770L464 742Q488 702 488 690V682L480 646Q500 567 536 530L548 518L536 470V466Q576 418 576 382L592 362Q615 362 644 406L640 410V414L644 418L640 422V454Q682 489 700 594V602L696 622Q696 631 748 686V694Q728 723 728 738Q728 749 780 802Q812
870 812 890L808 918L844 990L816 1034V1050Q832 1067 832 1082Q832 1114 720 1158Q699 1158 692 1194Q692 1272 776 1286L832 1294L940 1278L944 1282H948L964 1278L1040 1294L1140 1266Q1188 1225 1188 1186Q1188 1159 1092 1130Q1092 1122 1080 1122Q1064 1107
1028 1098Q1028 1086 1020 1086L1032 1046Q988 1037 988 970L960 918L972 874L924 794L920 782Q928 764 928 730Q928 715 884 634L888 630V622L884 610L888 590V582L860 510L864 458Q864 448 832 414L820 394L828 362L820 354V350L824 346V342Q801 342 780 198Q780
168 740 118Q730 75 704 22L708 6Q708 -58 548 -90Q509 -90 488 -6Q460 25 460 78L432 122L440 174Q396 216 396 306Q377 331 364 442Q352 442 340 502L348 558Q300 613 300 630L308 674Q284 732 284 754V766L288 770L256 846Q256 866 224 906V918L236 946V966L196
1018V1030L208 1070Q175 1142 108 1142Q9 1193 4 1214L0 1226Q0 1266 72 1302Q72 1312 112 1322Q161 1306 260 1306L264 1302Q264 1311 324 1326Z" />
<glyph unicode="W" glyph-name="W" horiz-adv-x="1384" d="M254 1324L302 1284H310V1280L330 1284H342Q370 1273 370 1240Q358 1208 358 1172V1152L338 1136L266 1156Q257 1155 242 1132L278 1092L238 1028V1020Q238 996 266 960L254 928V924Q254 911 290 860L294
836L286 812V804L306 740Q306 717 294 700V676Q330 612 386 584L406 564Q426 568 426 584L418 624L458 684L430 740L458 800Q449 800 438 848L490 904V912H494L490 932L494 1028Q476 1063 454 1080Q506 1098 506 1148Q506 1168 522 1212L518 1264L546 1288H562Q702
1242 702 1212V1196Q702 1170 690 1156L706 1092V1060L726 1048L750 1052L758 1040V1028Q722 1000 722 976Q722 944 746 944L758 924L722 880V864L778 808V792L762 744L770 692L758 644V636Q806 583 806 572Q786 533 786 516V508L830 444L842 440Q842 448 854 448L858
452V460Q858 472 830 520V524Q830 538 874 588L850 632V640Q908 698 922 796L918 800V804L950 884L934 932Q978 984 978 996Q942 1023 942 1044V1048Q982 1087 982 1104Q978 1115 938 1132Q900 1192 874 1192Q846 1192 846 1220Q915 1246 930 1288L946 1296H950Q966
1296 1026 1260L1058 1268Q1091 1256 1114 1256L1146 1268H1154Q1170 1268 1174 1216Q1202 1184 1202 1164V1156Q1202 1136 1134 1120L1102 1024L1106 1004V996Q1106 981 1058 928L1078 872L1042 816L1054 772Q1026 704 1014 640V632L1018 584L998 528V516L1006
472V456L990 404Q1002 378 1002 348L970 280L978 240L954 176L974 124V116L906 -4V-16L910 -40Q894 -84 866 -84Q750 -56 714 8Q714 15 658 68V76L690 120V124L646 176L682 228V256Q642 280 642 300L654 348V352L638 404V416Q670 452 670 468Q670 483 634 516V524Q644
541 682 564L686 580Q632 624 630 636V640Q630 655 646 680V696Q626 729 626 752V760L630 764Q626 782 610 788L574 752V728L598 696V688Q598 672 566 644L562 624Q586 596 586 568Q586 550 562 524V504Q586 486 586 468Q542 424 542 412V408Q542 395 570 352V340Q518
299 518 240V224L530 172L506 120L522 52Q486 6 486 -56L462 -76H426Q410 -79 394 -132L370 -140Q350 -124 342 -64Q250 27 250 40L242 64L250 112L230 168V180L238 224V228L210 296L218 344L194 412L206 460L166 564L186 624Q146 678 146 692Q170 717 170 736V752Q158
752 158 768Q138 777 138 804L146 860L118 916L122 992L102 1028V1068Q88 1068 78 1080L58 1076H50L34 1092Q54 1127 54 1140Q-10 1167 -10 1196Q-2 1304 46 1312H58Q79 1296 94 1296L158 1308L210 1300Q235 1324 254 1324ZM358 696Q374 690 374 684V672L362 660H358L342
676V684Q342 694 358 696Z" />
<glyph unicode="X" glyph-name="X" horiz-adv-x="1394" d="M914 1348L958 1312H970L1018 1324H1026Q1118 1307 1142 1272Q1174 1234 1174 1216Q1174 1181 1082 1144Q1079 1129 990 1104L930 1024L942 988V972Q933 948 894 936Q872 917 838 864V816Q838 791 786
760L738 676L742 672V624Q726 605 726 584Q726 572 766 544L810 412Q882 377 882 340Q882 312 898 312L906 300L926 308Q926 300 938 300L942 296V280L918 248Q939 215 982 196Q982 183 1062 144Q1086 116 1114 116L1118 120H1122Q1173 120 1198 36V32Q1198 4 1150
-32Q1150 -68 1134 -68H1130Q1080 -40 1066 -40H998L946 -84H938Q924 -84 882 -48L862 -40L830 -48L786 -40H782L742 -64H734L714 -48L718 -28Q701 0 694 52V60Q694 104 770 116L774 120Q790 120 790 148H794Q767 244 730 244Q694 244 694 316Q681 400 602 400Q538
353 538 324V316Q550 301 550 288Q550 266 486 260L430 168Q430 159 470 120Q470 95 534 68L538 64V48Q485 -56 454 -56Q454 -61 430 -64L382 -56L330 -80H322Q308 -80 282 -64L234 -68H202L130 -100Q73 -72 30 -64Q7 -41 2 -8Q17 46 26 52L14 112Q26 132 38 132L150
112Q191 155 246 188Q290 208 290 280Q290 300 366 372L386 424L382 456Q382 478 438 504L494 592L498 608Q473 744 438 744Q382 772 382 832Q382 869 322 940Q275 940 270 1028Q226 1092 166 1112L142 1120H130L98 1116Q-2 1129 -2 1164L-10 1192L-6 1228V1248Q4
1265 94 1320L154 1312L202 1324L250 1316L294 1344H310L354 1316H410Q428 1316 482 1268Q526 1238 526 1192Q514 1175 450 1132Q426 1112 426 1076Q455 1051 474 1000Q502 987 514 968V960Q498 939 498 924Q498 917 558 868Q572 836 598 836Q632 836 690 932Q690
987 726 1004Q758 1018 782 1088Q782 1141 698 1172Q678 1195 678 1212Q720 1272 778 1304Q792 1311 870 1316Q889 1348 914 1348Z" />
<glyph unicode="Y" glyph-name="Y" horiz-adv-x="1387" d="M982 1332Q1108 1332 1130 1292Q1198 1270 1198 1220Q1191 1144 1150 1144H1130L1126 1148L1122 1144H1118L1074 1152Q1019 1128 970 1124Q956 1110 942 1040Q914 1006 914 968Q862 929 862 864Q838 850
822 772Q800 743 774 680Q730 654 686 572L682 556L690 516L670 448V444L690 388L674 344Q698 304 698 276Q662 227 662 208Q714 161 714 136L730 124L798 132L846 116H882Q938 106 938 96L942 100H946Q1030 32 1030 0Q1010 -40 974 -40Q899 -96 882 -96H878L834
-64L758 -72V-68L674 -88Q626 -64 594 -64H562Q546 -64 494 -88Q449 -60 430 -60Q314 -73 314 -92L290 -100L230 -32Q202 -32 202 12Q215 108 278 108H290L338 104Q338 112 394 132L438 112Q465 112 474 152L470 188Q482 191 482 220L478 268Q502 310 502 332V348L490
408L502 456V472L482 524V544Q494 559 494 572L454 636Q454 709 374 784L370 796L374 840Q339 905 258 976Q258 1019 210 1084Q210 1101 34 1116Q-10 1160 -10 1184Q21 1328 58 1328Q93 1304 114 1304L182 1320L226 1316L266 1328L314 1308L366 1320L422 1296L462
1324H470V1320Q491 1320 518 1212Q502 1152 430 1152Q397 1119 390 1084Q441 1001 462 980Q490 980 498 936L494 932V928Q494 908 530 852Q530 830 610 812Q634 832 634 868Q666 912 666 928L658 968Q658 983 714 988Q730 1064 754 1064Q782 1082 782 1104Q782
1136 670 1184L654 1208V1216Q665 1254 746 1316L766 1320H782L850 1304L854 1308L866 1304Q900 1304 982 1332Z" />
<glyph unicode="Z" glyph-name="Z" horiz-adv-x="1245" d="M311 1336H319L391 1300L467 1292Q480 1292 523 1328H527Q575 1315 575 1300H595L599 1296L603 1300H655Q677 1300 719 1324H723L783 1296L911 1312Q935 1312 959 1240Q969 1236 991 1200V1180Q953 1070
939 1052Q871 1023 871 980Q835 949 835 924L839 900L823 876Q796 876 711 772V768L719 756V744Q703 724 675 724Q655 706 655 652Q598 618 563 548V496Q550 470 499 456L423 376V372L435 332Q428 318 411 312L407 316H403Q375 316 359 240Q271 162 271 140V132Q271
97 335 88Q374 90 471 160Q504 160 535 108L547 100L627 128Q639 128 683 100L707 92H743Q765 92 827 132Q878 132 895 208V212L883 260L907 328Q891 360 891 380V384L915 452L911 500Q918 520 935 520Q977 480 1023 480Q1051 460 1051 440L1031 384L1059 320Q1058
303 1031 260L1035 204L1019 148V108L1023 92Q999 20 995 -40Q954 -80 931 -80L879 -60L835 -68L759 -52L739 -60L723 -52L623 -72H587L519 -88Q497 -68 475 -68Q408 -68 339 -112Q320 -112 283 -68H275L239 -72Q223 -64 195 -64H179L131 -72L79 -60L31 -72H27Q7
-62 7 -40L15 4V8L3 76Q3 91 71 156L119 220L115 268L139 284L155 280Q191 295 191 336Q291 425 291 464V472H295L291 484Q291 512 363 560Q426 617 435 668L455 676L459 672Q487 696 487 724L575 804L603 852L595 904Q608 921 667 948L719 1016V1020Q719 1040
699 1064V1072Q699 1093 739 1096L747 1088H767V1116Q736 1152 683 1152L627 1108L551 1144Q551 1136 503 1132L487 1136Q416 1092 399 1092Q380 1092 351 1132L339 1136Q267 1136 243 1100Q211 1085 211 1060L227 1004Q195 958 195 944V936L203 904Q203 891 171
840Q171 798 99 784Q32 784 -9 880L19 944L-1 1004V1008L31 1068L39 1128L31 1184V1192Q77 1244 107 1304L139 1320L187 1308H255Q270 1308 311 1336ZM403 1032Q415 1032 427 1008Q427 987 403 976H387L367 996Q367 1022 403 1032ZM383 912H391Q413 912 419 896V892Q419
870 399 864Q378 864 367 884V896L383 912Z" />
<glyph unicode="[" glyph-name="bracketleft" horiz-adv-x="578" d="M410 1426T422 1417L412 1389Q405 1379 392 1359Q380 1348 377 1338Q364 1328 353 1318Q350 1299 343 1284Q332 1267 328 1253Q321 1234 314 1227L305 1217L296 1208L287 1203L279 1181L275
1160Q258 1165 260 1146Q254 1136 253 1127L256 1119L249 1112V1079L243 1076L233 1034L228 1002L226 979L218 950L213 927Q221 919 206 906L205 884Q204 879 196 862Q195 859 194 857Q183 833 183 816Q183 805 173 790T159 749Q153 735 170 722Q170 700 163 679T164
650Q155 597 156 589Q161 560 179 537Q172 528 172 516Q172 505 181 483H182Q191 461 200 454Q188 438 198 404Q203 388 203 372Q217 357 208 351Q227 304 219 296Q233 246 235 227L246 202L259 174L264 150Q274 119 297 98L293 82Q302 40 317 18Q337 5 337 -14Q337
-19 335 -26Q350 -45 361 -74Q367 -87 371 -103L380 -124Q379 -136 389 -163Q392 -172 397 -184L377 -186L354 -189Q343 -191 332 -192Q312 -195 297 -195L270 -192L248 -188L236 -169L238 -162Q226 -168 219 -154Q211 -146 191 -122V-111L163 -79Q165 -75 165
-66Q150 -49 151 -30Q140 -27 133 -21Q119 4 119 16Q119 28 100 55Q98 58 96 61Q72 92 70 94L57 124V138Q56 144 49 171Q46 187 41 207Q38 220 35 233Q31 252 26 273Q24 287 21 308Q19 327 21 339Q37 353 9 369Q32 398 15 435L16 474L9 498L3 525L-3 545Q14 563
15 575Q18 584 12 601Q15 611 3 625Q3 648 9 678L3 713Q7 709 15 720Q5 727 14 746Q20 773 26 781Q21 800 9 807Q12 831 18 854Q20 867 24 879Q26 890 29 899Q37 927 45 945Q53 966 39 978Q31 986 41 1004Q45 1011 51 1019Q53 1021 55 1023Q79 1055 79 1069Q79
1093 93 1123Q102 1140 117 1161Q115 1168 126 1200Q133 1216 142 1237Q151 1246 165 1272Q172 1285 179 1299Q190 1322 202 1352Q214 1384 238 1415Q229 1431 269 1436Q288 1436 307 1440Q327 1428 352 1433Q371 1427 388 1429Q410 1426 422 1417Z" />
<glyph unicode="\" glyph-name="backslash" horiz-adv-x="1263" d="M110 1554T140 1554Q217 1502 228 1446Q280 1401 280 1350Q313 1299 324 1266L368 1170Q424 1109 424 1090Q454 985 504 954Q525 885 564 806Q612 773 632 698Q704 569 704 558Q729 471 808 410Q838
297 912 226V202L908 198L912 186L956 118Q1024 54 1024 46L1020 18V10Q1064 -54 1064 -106Q1064 -146 1024 -190H1008Q923 -153 892 -126Q846 1 784 54Q776 124 740 190Q676 235 676 246L696 294L688 310L580 410V422L588 454Q528 506 528 530L468 586L480 634L408
726Q356 767 356 782L360 798L356 818Q312 878 312 910Q273 930 264 950V970L268 990L240 1014Q222 1033 212 1086L176 1146L96 1218Q88 1305 76 1330Q0 1380 0 1406Q14 1457 24 1458Q24 1566 64 1566H76Q110 1554 140 1554Z" />
<glyph unicode="]" glyph-name="bracketright" horiz-adv-x="591" d="M-3 -189T-15 -181L-5 -154Q2 -144 16 -124Q28 -113 31 -103Q44 -93 55 -83Q58 -65 65 -49Q77 -33 81 -19Q88 0 96 7L105 17L114 26L123 31L131 52L135 74Q152 69 150 87Q157 97 158 106L155
114L161 121V154L168 157L178 199L183 230L185 253L193 282L199 304Q191 312 205 325L207 347Q208 351 216 369Q217 372 218 374Q229 397 229 414Q229 425 239 440T254 480Q260 495 243 507Q243 530 249 551T248 579Q257 631 256 639Q252 668 234 691Q240 700 240
711Q240 722 231 744H230Q221 766 212 773Q223 789 213 823Q209 838 209 854Q194 869 203 875Q184 921 192 929Q178 979 176 998L165 1023L151 1050L147 1074Q136 1105 113 1126L117 1141Q107 1183 92 1205Q72 1218 72 1237Q72 1242 74 1249Q58 1267 47 1296Q42
1309 37 1325L28 1345Q29 1358 19 1384Q16 1393 11 1405L31 1407L54 1410Q65 1412 77 1413Q97 1416 113 1416L140 1413L162 1409L175 1390L173 1383Q185 1389 192 1375Q201 1368 221 1343V1333L249 1301Q247 1297 247 1288Q263 1272 262 1252Q273 1250 280 1244Q295
1219 295 1207Q295 1195 314 1168Q316 1165 318 1162Q342 1131 344 1130L358 1100V1086Q359 1080 366 1053Q369 1038 374 1017Q377 1005 381 992Q384 973 390 952Q392 939 394 918Q396 899 394 887Q378 873 407 858Q383 829 401 792L400 753L407 729L413 703L419
682Q402 665 401 653Q398 644 403 627Q401 618 413 603Q413 581 407 551L413 516Q409 520 401 509Q411 502 402 484Q395 457 390 449Q394 430 407 423Q403 400 398 377Q395 364 392 351Q390 341 386 332Q378 304 370 287Q361 265 376 254Q384 246 374 228Q370 221
364 213Q361 211 360 209Q335 177 335 164Q335 140 321 111Q312 93 297 73Q298 65 287 34Q280 18 271 -3Q262 -11 247 -38Q240 -50 234 -65Q222 -87 210 -117Q197 -149 173 -179Q182 -195 141 -200Q122 -200 103 -204Q82 -192 56 -197Q37 -191 20 -193Q-3 -189
-15 -181Z" />
<glyph unicode="_" glyph-name="underscore" horiz-adv-x="1235" d="M777 130H781L829 108L849 112H869L913 106H925Q956 120 969 120H973Q999 106 1045 48V40Q1045 -88 981 -88Q938 -95 889 -114H881L805 -90Q742 -98 677 -118L605 -90H553Q538 -90 485 -120H481L413
-102L313 -96Q292 -114 265 -114L197 -110L165 -112Q114 -96 65 -90L17 -62L5 -38L41 64L149 114H157Q218 90 277 90Q294 90 361 116H377Q433 90 445 90H469Q508 90 565 120H569L633 96Q724 96 757 128L777 130Z" />
<glyph unicode="`" glyph-name="grave" horiz-adv-x="505" d="M231 1561T283 1521Q298 1453 318 1453Q363 1369 370 1369L401 1301Q434 1250 434 1231Q493 1160 493 1136L502 1132L509 1099L512 1079Q503 1035 485 1035Q467 1040 456 1040L424 1045Q348 1040 310
1055Q283 1106 258 1105Q228 1096 203 1153Q159 1153 143 1181Q124 1212 96 1240Q56 1277 56 1309Q0 1327 0 1344L4 1360V1449L7 1485Q86 1585 127 1585H134Q231 1561 283 1521Z" />
<glyph unicode="a" glyph-name="a" horiz-adv-x="1242" d="M644 1024Q687 972 748 972Q800 919 844 892Q856 874 876 804L924 688V684Q896 624 896 572L900 568V564L896 560V556Q896 538 920 480L900 408L912 360V348L896 300Q920 215 932 200L1008 144Q1051 97
1052 68Q1051 43 984 8Q964 -20 940 -20L868 28Q819 28 776 96L772 100H768Q736 100 644 24Q620 23 620 16L592 20Q545 18 544 8L508 12Q408 12 344 -8H328L280 20L224 16H220Q169 53 124 60Q92 72 40 200Q0 244 0 272V276L4 308L0 336Q0 395 56 452L104 576L120
584H128Q146 584 184 552Q214 558 244 580Q260 580 328 612L420 572H436Q452 572 504 612L524 620L580 604Q588 604 624 644H640Q653 644 668 632Q704 653 704 680L700 696L712 744Q712 784 592 832Q573 861 544 876H480L432 836H428Q411 836 372 880H368Q268 865
268 808L264 768L268 752Q268 739 228 652L236 604V600L224 588H220L168 624L120 620Q49 639 12 696L4 720L8 764L4 812Q4 847 80 900Q101 941 160 968Q212 1016 280 1016Q313 1044 336 1044L398 1034L443 1037L517 1039H591Q607 1030 644 1024ZM532 428L432 460H412L324
420H320L276 432H264Q215 376 180 364L152 284Q152 247 212 212L344 168H348L428 200H444L500 180H504Q579 216 652 240Q689 264 708 300V312L692 368L732 416V424Q727 435 656 476H640Q622 476 552 432L532 428Z" />
<glyph unicode="b" glyph-name="b" horiz-adv-x="1166" d="M-6 1378L50 1374L82 1378Q129 1362 194 1358Q258 1324 258 1238V1214L274 1158Q266 1074 258 1074Q258 1006 310 986H314Q359 986 406 1030H430L482 1002L594 1018Q613 1018 654 982L678 974Q704 986
734 986H750Q782 967 782 914Q882 849 882 830Q889 775 914 750Q929 736 942 674Q968 646 970 614L962 566L978 502V498L966 442L970 398Q940 298 894 194Q894 160 830 106L766 26L738 18L706 22Q687 22 642 -22H638L518 -14L458 -38Q375 -6 314 6Q314 17 278 42H266Q210
42 166 -2L142 -6Q125 -6 110 22Q112 62 118 62Q86 120 86 138V154L94 210L86 266L98 326V338L78 478L86 538V554L78 598L82 686L78 718L98 782L82 838L90 886L66 1030L70 1050Q70 1170 -14 1170Q-89 1197 -114 1250V1274Q-114 1302 -30 1374L-6 1378ZM262 636Q278
598 278 572L270 536L278 472L274 436L294 360L282 308Q282 277 338 244Q429 191 490 188Q538 215 614 224Q641 264 694 276Q718 293 718 332L758 380V392Q746 406 746 440Q797 479 798 492L766 548Q786 579 786 592Q786 611 742 652V660Q742 678 758 692Q758 707
710 764Q689 820 638 820Q638 832 618 832Q598 847 598 856H530L470 872Q381 859 294 792Q282 773 278 696Q273 696 262 636Z" />
<glyph unicode="c" glyph-name="c" horiz-adv-x="1096" d="M524 1030H532Q566 990 600 990L616 994Q712 950 788 890Q824 890 860 798Q892 775 892 738Q868 693 868 674Q877 674 888 630V626Q868 562 824 562Q797 562 756 526L724 518Q686 518 652 574Q637 590
620 590Q587 616 584 626V630L608 690Q576 725 576 746Q592 770 592 790V802Q568 820 568 830L564 826H560L548 834L544 830H540L492 842H480Q444 814 384 802Q337 751 288 730Q256 690 256 670V610L236 550L248 506V502L232 446Q248 419 248 398L240 362Q291 266
336 266Q372 237 372 202L392 198L432 214H436Q452 214 496 170Q582 170 612 218Q663 218 716 278Q738 285 804 338H852Q896 322 896 242Q905 242 908 206Q908 110 852 110Q773 74 740 10Q723 10 688 30Q599 13 572 -30L548 -50H536Q521 -50 476 -14H448Q414 -14
396 -6L336 -30Q323 -30 272 14H268L232 10Q212 14 192 94Q68 196 68 258L4 398Q16 424 16 454V458L0 518L16 566L12 626Q84 739 84 806Q152 858 220 934L336 986Q409 1010 484 1014Q484 1025 524 1030Z" />
<glyph unicode="d" glyph-name="d" horiz-adv-x="1256" d="M636 1386L712 1362L748 1366H760L776 1362L836 1378H840Q864 1378 900 1254L896 1182L908 1150L900 1102L904 1058V1046Q904 1016 880 950Q896 909 896 878V866Q912 866 912 830L888 790L908 722L896
666L912 602V586L896 530V514L900 494H896L912 398L920 390V374Q912 350 896 350V346L900 326L888 274V258Q893 194 916 194L924 186L928 190H932Q996 190 1072 98V86Q1047 23 996 -2L956 -14L912 -10H884Q858 -26 844 -26H840Q821 -19 800 38Q783 54 768 54H764Q754
54 744 18H740Q704 35 704 58H700L640 14Q602 14 556 -10Q523 -6 492 10Q468 6 448 -30Q404 -6 392 -6L348 -14Q335 -14 284 30Q212 44 192 70Q184 98 132 98Q100 121 100 142V146L104 170Q74 275 48 290Q36 293 28 318L36 362L8 430H12L8 434V438L16 478L0 538Q15
577 32 594V602L24 646V654Q84 715 84 742Q84 856 136 882L220 938L332 994Q379 994 420 1034L440 1038H452Q485 1015 552 1002L648 946L676 942L752 1006V1018L708 1066V1070Q708 1086 744 1122V1134Q693 1190 668 1190H640Q612 1190 596 1198Q568 1181 568 1166L544
1142Q508 1142 492 1198Q429 1198 408 1226Q408 1362 440 1362L444 1366H448L484 1354Q569 1366 636 1386ZM196 590V586L240 546Q196 504 196 490V482L220 462Q242 462 256 442V426Q248 412 216 390V378Q216 370 264 334L272 322L268 294V282Q268 253 296 246Q296
197 468 150L536 182H544L572 174Q600 195 600 214Q621 242 680 258Q680 276 720 322V342Q704 359 704 374Q704 390 736 430V446Q704 488 704 502V506L740 546V562L704 598V606Q748 652 748 662V666L688 710L684 730V734L700 762Q700 783 676 798L672 794H648Q648
754 620 754Q608 754 596 778L604 810Q596 834 588 834Q571 834 540 806H528L476 854Q414 846 356 794Q284 759 260 714Q260 634 240 634Q210 615 196 590Z" />
<glyph unicode="e" glyph-name="e" horiz-adv-x="1128" d="M452 1052Q476 1052 524 1036H552Q602 1036 700 980Q744 937 800 908Q880 814 880 792Q880 776 912 724V656L928 608V592Q891 452 856 452Q824 472 800 472Q785 472 776 420Q761 408 748 408Q723 448
712 448H704Q700 436 680 436H664L612 448L568 416Q525 444 512 444Q492 432 472 432L380 460H376L308 457Q287 445 248 404L244 384Q256 364 276 344V340L264 324V308Q333 224 388 224Q435 196 464 196H488L568 224H588Q603 212 616 212H628Q652 232 652 260Q665
276 700 276Q728 289 728 328Q745 348 760 348Q815 312 896 296Q916 275 916 260V256Q880 181 880 160Q880 144 856 140L832 144Q811 144 804 80L780 56H732Q716 51 684 0L672 -8H668L616 16Q605 8 532 4Q507 -20 476 -20Q432 16 364 16Q247 45 236 68Q116 164
116 172Q116 228 48 312Q29 325 20 352L24 380Q24 402 0 476Q12 507 12 532V536L0 584V588L16 648L8 684L40 772Q40 810 96 848Q129 910 192 940Q218 958 236 996Q236 1011 424 1044Q424 1051 452 1052ZM268 748V744Q268 721 239 728V710Q232 699 219 675L216 652Q225
620 292 620H304Q351 664 376 664Q414 624 444 624L456 628L504 616Q522 619 544 652L560 664H564L624 632H664L700 628Q728 640 728 664V692Q713 780 656 780L596 832H592L568 828Q555 828 500 880Q433 880 384 832Q323 832 292 772Q278 769 268 748Z" />
<glyph unicode="f" glyph-name="f" horiz-adv-x="1304" d="M694 1387L754 1367H814Q854 1366 854 1359L858 1363Q1058 1321 1058 1263Q1092 1183 1130 1135V1123L1106 1071L1110 1027Q1110 976 974 935H970L906 955L886 951Q810 1007 810 1035L758 1083V1091Q758
1099 802 1119L806 1123V1139Q761 1183 730 1183H726L682 1135H678L634 1167Q611 1162 566 1127L562 1101L550 1097L546 1091Q510 1063 510 999Q503 999 502 971Q512 951 534 951Q557 983 582 983H586Q620 959 638 959L674 967L706 959L766 975H774Q784 975 794
923Q814 896 814 859V855Q814 813 734 799Q688 759 662 759H654Q596 799 574 799Q532 792 482 731L494 675Q482 654 482 627L502 567L486 515V495L502 443L494 407V399L510 347V339L490 283Q509 195 526 195H530L566 203Q606 151 614 151H622L674 163L710 159L746
195H758Q846 73 846 27Q834 5 774 -13L754 -29H730L662 -41L534 -17Q467 -49 442 -49Q403 -33 326 -17Q315 -17 266 -53H258L182 -33H142L50 -65Q2 -46 2 31L-2 59Q-2 147 90 147Q132 187 158 187L230 151Q314 163 314 227L302 275L310 347L302 391L310 451Q298
496 298 567L302 583L298 603Q298 619 322 675Q304 751 246 751Q208 783 154 783Q132 781 78 735L54 731H42Q-5 770 -50 795Q-70 817 -70 831Q-42 943 -10 943L-6 947H-2L2 943Q68 961 170 975L234 951Q262 951 270 991L262 1015V1023Q310 1061 310 1075L302 1099V1103Q336
1142 346 1191Q495 1342 534 1343Q566 1367 642 1367Q675 1387 694 1387Z" />
<glyph unicode="g" glyph-name="g" horiz-adv-x="1231" d="M516 1002Q531 1002 576 966L672 938H680Q709 950 768 954Q812 982 828 982H844L932 986Q1040 889 1040 850L1056 814Q1016 732 1016 694Q1001 674 956 674Q938 658 920 658H904Q878 694 868 694Q848
694 792 646L812 590V586Q792 539 792 522L804 466Q791 419 660 346Q604 311 556 298Q504 250 480 250Q454 266 420 266Q420 277 364 290V294L360 290H356L352 294H348L312 278H292Q244 322 228 322Q182 306 176 290V278Q204 239 204 226H200L196 222Q202 170 240
170L264 190Q264 210 300 218Q357 182 372 182H408Q421 182 480 218H492L532 214Q544 214 576 246H580L592 234L584 226V206L600 190H628Q676 222 688 222H696Q708 217 744 166H804Q843 130 896 130Q1012 39 1012 -14L1024 -94L1000 -186Q1000 -208 956 -266Q956
-300 804 -362H780L756 -358Q743 -358 700 -402H688L644 -394L512 -426L420 -410H416Q388 -410 372 -418L368 -414L304 -430Q181 -390 156 -390Q135 -390 116 -406H96Q87 -406 68 -350L44 -330L40 -334H36L32 -330L12 -342H4L-8 -330L0 -322V-318Q0 -296 -68 -246L-100
-154V-150L-72 -22Q-63 25 16 94L12 98V110Q28 110 28 118V146Q28 161 -4 226V230L32 358L68 426L92 454V466L72 526L88 570V574L64 642Q84 682 84 766Q148 823 148 886Q163 933 248 942L308 982L372 978Q453 986 516 1002ZM408 782L360 786Q358 778 340 770Q340
745 284 710Q244 641 244 626Q264 554 288 554Q316 545 316 526L312 486Q360 398 428 398H436Q449 398 496 426H504Q525 426 540 414H556Q568 414 580 470Q594 487 648 522L672 574L656 630L660 698Q655 726 632 726L620 714L624 710V706Q608 658 580 658H576Q562
666 556 682Q556 695 576 722Q576 754 548 770H544Q530 770 504 750H492L480 762V794L472 802L408 782ZM684 310H692V302L684 310ZM96 -94V-118Q115 -137 140 -186L160 -190H164L180 -186Q190 -186 248 -230L260 -234L292 -226L340 -242Q363 -240 376 -230Q401
-239 428 -266H440Q472 -246 500 -246L588 -266L612 -270L624 -266V-270L676 -234L696 -222L716 -226H724Q746 -226 788 -182Q852 -182 860 -106V-98Q860 -54 808 -22Q768 -22 712 30Q672 30 612 66L580 70H556Q512 38 496 38H480Q438 78 420 78Q387 78 312 34Q240
34 220 2Q220 -15 152 -22Q128 -45 128 -58L96 -94Z" />
<glyph unicode="h" glyph-name="h" horiz-adv-x="1349" d="M92 1380Q129 1361 232 1352Q246 1342 304 1332Q304 1325 380 1296Q380 1281 425 1264Q432 1244 418 1239L404 1232L344 1156V1132L324 1044L336 1008L332 956Q332 927 356 920Q370 920 392 956L408 964L460
948Q490 948 552 1000L580 1004H596L612 1000L684 1012H704Q753 988 780 988Q851 988 968 820Q980 798 984 736L1000 684V616L988 492L1004 428V416L996 380L1000 376V372L996 368V364L1000 360V356L992 264L1000 236L996 232V228Q999 206 1088 148Q1156 132 1156
84V80L1136 16L1140 -32Q1131 -56 1112 -56L1068 -32L1028 -36L988 -32L932 -60H920L844 -32L764 -24L732 -32H728Q676 -32 676 76Q676 106 716 132H752Q790 160 820 220V224L796 284L812 308Q812 334 788 384V396Q820 436 820 452L800 504Q827 540 832 564Q788
607 788 624L796 676V680Q778 752 732 752Q692 760 684 768Q662 765 644 712Q616 696 564 696Q546 696 512 728L484 740Q442 688 404 676L328 600V596L336 536L320 496V492Q320 480 344 444Q344 429 320 404L316 384L336 348V332Q320 292 320 268Q336 230 340 164L360
148Q375 148 412 176H420Q451 160 468 108Q474 108 484 64Q470 -16 424 -16H396Q340 -52 328 -52H324L256 -28H188Q170 -28 128 -60H116Q97 -60 32 -20Q-32 -20 -32 32V64Q-14 148 20 148L56 132Q128 164 128 184V192H132L136 188H140V192L136 216L144 228L140
232V236L160 328L140 420H144L140 424L148 500V552Q140 560 132 612Q139 652 148 652L144 656L148 668L140 720Q148 736 148 764L132 888L136 908Q128 917 120 960L124 1008Q116 1104 100 1104Q81 1104 48 1148L24 1152L-4 1136Q-46 1136 -56 1264L-60 1276Q-49
1344 20 1344Q58 1372 92 1380Z" />
<glyph unicode="i" glyph-name="i" horiz-adv-x="1103" d="M344 1404L420 1380Q479 1380 524 1316Q576 1287 576 1252Q576 1209 556 1180L564 1132Q564 1111 504 1108Q492 1100 472 1048L448 1024Q448 1016 488 984Q540 916 540 900L536 836Q548 817 548 784L540
748V736L556 672Q536 628 536 608L552 568V556L532 488L540 444Q538 421 528 408V400L544 344V336Q544 321 528 296V276Q528 261 568 224V196L564 192V188Q577 164 596 164L672 188H676Q729 164 792 164Q829 166 840 176H860Q875 173 896 108Q906 108 908 60Q908
7 824 -8Q803 -28 768 -40L724 -16L704 -8Q623 -8 564 -32L504 -4H436L360 -32Q312 0 296 0H268Q220 0 160 24L56 -4Q8 21 8 64Q20 97 24 152Q42 176 64 176L124 164Q138 185 156 192Q177 189 192 168L212 164L276 180L308 168H312Q331 168 340 180L336 224Q376
258 376 280V284Q340 325 340 344L360 388V396L344 444L364 504L344 568L356 600Q332 658 332 676L344 716V732Q301 812 288 812L244 808H232Q219 828 116 832L56 792Q9 792 0 888V896Q0 1004 92 1004Q128 1032 148 1036L220 1000H276Q336 1056 352 1056Q384 1046
384 1020L404 1000Q433 1000 440 1020Q418 1044 404 1044L372 1080L368 1076H348Q325 1076 292 1112Q236 1165 236 1176Q252 1231 256 1316Q277 1321 320 1392L344 1404Z" />
<glyph unicode="j" glyph-name="j" horiz-adv-x="1010" d="M576 1446H660Q740 1446 784 1334V1326Q784 1289 712 1202L708 1186L712 1174Q712 1141 660 1126L608 1166Q534 1166 516 1218Q515 1228 476 1254L468 1274Q488 1296 488 1362Q562 1446 576 1446ZM564
1010Q662 982 684 982Q704 974 780 902L788 882L780 818L796 758V754L780 690L796 634V630L788 598V582L808 530L788 482L804 426V410L796 366V346L808 306V290L796 250V242L808 186L788 130L804 66L788 2L796 -50L764 -182Q757 -182 740 -234L672 -302L676 -322V-338L660
-354L616 -350Q607 -350 584 -394L564 -406L508 -390H504L448 -406H436L432 -402L368 -430L304 -402Q238 -402 200 -358Q176 -338 132 -326Q92 -266 64 -266L48 -246L52 -186L8 -126V-106L16 -74V-58L0 2Q38 129 60 134Q124 142 152 174L160 182H168L212 134Q272
127 272 110L268 62Q292 14 292 -2Q282 -30 244 -62Q188 -108 188 -122Q188 -156 280 -190Q318 -242 344 -242H376Q397 -242 448 -186Q520 -186 520 -150Q520 -143 572 -106L576 -102V-98Q574 -86 556 -70Q536 -56 536 -30L560 -14H580Q596 5 596 46Q606 46 608
78L604 142L620 194L604 258L620 318L612 358Q616 502 628 534L608 594L616 650L604 698L612 762V766Q580 814 528 814Q478 782 464 782H460Q415 818 400 818L352 814L288 842Q244 842 152 810H148Q36 860 36 898Q36 931 104 942Q104 952 152 966H156L224 954H280L352
990H356L440 974Q492 974 536 1002L564 1010Z" />
<glyph unicode="k" glyph-name="k" horiz-adv-x="1346" d="M88 1338L156 1318L272 1322Q328 1322 328 1254Q356 1218 356 1182L344 1138L360 1062L344 1010L360 962L340 914L364 858V850Q364 840 332 794V786Q356 743 356 718L332 674L348 630V614L336 578L356
546H376L408 594Q480 625 520 686L524 706L520 722Q528 740 536 742L560 726H564Q586 735 588 750L580 794L588 838L580 910Q580 948 640 958H652L656 954L720 982H724Q772 961 772 954L792 958L796 954H800L840 962L880 958L936 982L988 962L1048 966Q1082 966
1120 894Q1133 890 1148 854V846Q1064 754 1040 754H1036L940 790H912Q900 790 844 754Q817 754 764 710L740 678L748 634V626Q745 619 696 602Q685 591 672 542Q652 531 652 510L688 434L728 426Q756 410 756 394L752 362Q779 302 848 250Q859 245 876 182L900
166L920 170H924Q951 170 964 122L968 118H976Q988 118 1028 146H1048Q1071 146 1116 46V42L1092 -6Q1076 -50 1048 -50H1040Q944 -42 912 -18L908 -14H904L840 -38L776 -22L752 -26L704 -14H696Q666 -38 648 -38H628Q600 -38 572 18L552 22Q540 22 452 -38L420
-42L320 -10H300Q253 -42 224 -42Q172 6 100 6H84Q84 -5 28 -26L4 -2V2L12 46V50L4 102Q10 119 24 126H40Q86 94 100 94L104 98H108L132 94H148Q192 158 192 186L184 230L192 294Q180 315 180 342Q196 382 196 402L176 450V454L192 502L180 558Q186 606 192 606L172
682V698Q200 732 200 746V754L172 802L188 846V862L172 910V922L188 970L168 1026Q168 1049 180 1066V1070Q171 1150 108 1150Q52 1150 -8 1214Q-40 1227 -40 1254V1258Q-40 1282 40 1306Q48 1321 88 1338ZM412 382L416 378V370H408L404 374H400Q365 343 360 326L368
282L348 230V222Q364 182 364 158L360 142Q366 122 388 122L428 150H448Q496 96 560 82V78Q592 84 592 122Q606 146 644 146L648 150Q660 150 660 158Q660 177 616 202Q616 286 588 286L576 294Q550 278 536 278H532Q522 278 520 294L540 330Q540 349 472 406H464Q434
406 412 382Z" />
<glyph unicode="l" glyph-name="l" horiz-adv-x="1173" d="M210 1406Q266 1390 362 1378L430 1394L550 1362L630 1266V1258L602 1198V1190L622 1126L606 1074L622 1030Q594 978 594 962Q618 921 618 898L602 866L618 798V790L606 746L610 674L606 606Q615 606
626 566Q610 538 602 498L606 494V490L594 422L598 378L594 354L602 346L594 334V330Q606 330 606 322V314Q586 269 586 222V218Q586 172 682 158L738 190L786 174L830 178H838L894 166L934 178H950Q978 159 978 126L974 66L986 34V14Q968 -18 922 -18L910 -14Q849
-50 834 -50Q778 -22 758 -22H718L698 -10Q686 -10 634 -46L566 -10H514Q496 -10 434 -46Q382 -6 338 -6L302 -2Q282 -6 246 -34H234Q192 2 97 -6L23 -20L11 -4Q-2 29 -2 94V114Q3 134 86 166Q106 194 154 194H158Q191 162 262 162L282 158L338 194Q352 194 386
170Q410 170 410 226L422 246V270L406 322L426 390L410 442L418 486Q410 547 402 554V574L422 634Q410 655 410 674V682L422 730V734L398 794Q398 819 418 838L414 842L418 862L402 894V910L422 966L394 1030L398 1066Q377 1158 330 1158L266 1162Q250 1146 242
1118L226 1110Q205 1116 190 1154Q190 1161 170 1162H166L118 1150H110L42 1186Q-30 1197 -30 1242Q31 1368 106 1386H110L154 1382L210 1406Z" />
<glyph unicode="m" glyph-name="m" horiz-adv-x="1432" d="M452 1022Q497 1022 616 986H620L652 990L712 982Q753 1002 780 1002H804Q832 1022 856 1022Q918 998 972 990Q1007 984 1088 874L1120 758L1108 718V710L1128 634L1120 578L1128 534L1108 470Q1124 438
1124 414L1116 370L1120 294L1108 262Q1108 202 1216 162Q1256 115 1256 74Q1211 -14 1184 -14H1164L1104 10Q1079 10 992 -18H984L888 10L884 6H880L840 14Q786 -14 760 -14L644 2L584 -18Q557 -6 436 -2Q397 -26 372 -26Q288 -2 248 -2H244L164 -30Q148 -30 64
2Q-12 8 -12 74V90Q25 194 48 194L96 190Q116 206 116 262Q128 271 128 290L108 342L120 386L116 390L120 410Q104 436 104 470Q104 498 116 526L108 594L116 634L108 714H112Q112 779 68 798Q0 813 0 822L-20 850V934Q4 1014 60 1014L112 998L168 1002L196 998L256
1002Q302 970 316 970Q362 998 452 1022ZM296 690L312 638L300 590L316 530V510L308 466V462L316 418L296 350L312 282L304 246V226Q324 170 372 170L416 130H432Q448 137 452 154L444 190Q450 206 456 206H464Q484 196 484 174L480 170L496 166Q524 169 524 190L516
254L528 302Q520 337 504 354V370L524 414V418L504 478Q532 530 532 542Q524 542 516 582V602L524 614V634L504 690L520 738Q492 800 432 822Q417 821 364 758Q296 732 296 690ZM704 694L712 638L708 578L716 542V534L700 486V462L724 382L760 370L724 318V314L720
270L724 218V190Q724 183 752 166L756 170H768Q787 170 824 134H832L848 142L844 146V186Q852 208 900 226Q928 260 928 302L916 346V362L932 426Q922 426 908 474L928 542L908 578V606L928 654Q919 746 896 746L864 734Q836 748 836 766L844 790V798L836 806L768
770Q734 770 704 694Z" />
<glyph unicode="n" glyph-name="n" horiz-adv-x="1397" d="M624 1022Q716 1002 792 1002L808 1006Q868 979 868 938Q980 828 980 786L1012 626L996 490L1008 430V426L996 358V354L1016 286L1012 262V258Q1012 236 1124 190Q1196 190 1196 106L1200 86V70Q1200
22 1136 -22H1088L1084 -18L1020 -30L996 -26L932 -30L872 -2Q797 -2 732 -26Q716 -26 660 34Q620 54 612 70V86Q612 126 660 142L712 178H744L768 174L800 202Q820 234 820 250L800 306V314L816 370V394L812 418Q824 444 824 474L816 518V530L828 578Q808 631
808 650Q811 674 816 674Q812 703 760 794L740 798L728 794Q685 846 664 850L604 838H572L520 794L472 774Q436 714 392 714Q376 708 352 642Q344 642 336 610L344 574L320 518V510L348 470L324 414Q360 362 360 346Q360 330 320 298V286Q320 276 348 238Q348 182
388 182Q427 206 440 206Q479 206 508 66Q474 17 448 -2H408L336 -26L256 6H248Q227 6 124 -26L36 6Q5 6 -12 42Q-12 146 44 146L48 142H52Q120 170 120 206Q120 235 148 254L160 270L148 322L164 382L160 398L164 402V406Q140 439 140 454Q140 482 160 494Q156
512 136 538L128 558L144 602L128 670L156 726Q149 754 80 790Q80 812 8 822Q-20 840 -20 902Q-17 966 16 966L40 958H60Q88 978 112 978H164Q204 1002 216 1002H224Q238 1002 292 954Q323 954 364 906H376Q515 998 552 998Q581 1022 624 1022Z" />
<glyph unicode="o" glyph-name="o" horiz-adv-x="1141" d="M444 1088Q498 1058 596 1044L620 1040V1036L632 1040Q648 1040 700 996Q751 996 876 836L952 660L944 612L956 500Q956 450 884 236Q834 193 808 140Q798 129 796 100H792L796 96V92Q775 48 748 48L716
52Q708 52 656 8H644L588 28Q568 11 452 -20Q437 -20 360 16Q305 21 188 104Q179 121 116 156Q68 250 60 252Q4 355 4 380L8 408L0 456L8 528L4 604L12 640V668L8 692Q8 703 60 792Q93 843 100 884Q216 1004 268 1004Q311 1036 388 1052Q416 1088 444 1088ZM260
744V740L268 700L208 652L188 560V520Q215 392 240 392L264 368L256 328Q256 286 328 240Q358 240 440 192L472 188Q483 188 528 232L548 236L588 232L644 284Q684 284 716 380L712 420L736 516L728 544L732 604Q703 646 680 740Q577 840 560 840L556 836H552Q523
838 472 884H448Q418 862 316 816Q260 764 260 744Z" />
<glyph unicode="p" glyph-name="p" horiz-adv-x="1235" d="M548 1066H568L620 1050L640 1054Q661 1054 724 1026L812 998L848 1002Q866 987 908 914Q992 826 992 806Q1019 714 1064 638V630L1044 574L1060 530V522L1048 466L1060 406V402Q996 269 996 246Q996
204 940 186Q868 131 868 62L840 42L796 66H784Q734 18 724 18H720Q688 18 688 26L652 14L608 22Q551 -14 540 -14L488 34H484L428 30L396 42Q380 42 380 18L340 -34V-58Q360 -88 360 -110L344 -154Q344 -181 416 -214L444 -216L514 -236Q533 -243 534 -289L535
-343Q493 -370 447 -345Q394 -370 344 -370H336L288 -342L244 -346H240Q218 -346 196 -334L144 -358L96 -326L68 -330H64Q20 -322 20 -286V-242Q20 -194 96 -194L164 -170Q187 -157 196 -122L192 -118V-110L196 -106Q184 -74 184 -46L200 18L192 78L204 134L188
190L192 246Q192 292 140 346V354Q176 390 176 410Q148 446 148 462L188 526L196 566Q189 633 152 678Q144 678 144 694Q192 755 192 766V782Q176 794 176 806L172 802H168Q159 802 112 850H108L48 842Q16 867 16 890H20L4 970Q4 1024 140 1042H168Q185 1030 200
1030L236 1034Q278 1034 308 990L332 978Q381 978 444 1030Q520 1042 548 1066ZM352 758L348 762H344L340 758L344 754V750L340 738L376 706V686Q348 654 348 630L364 590V586Q364 574 336 538V530L376 478V466Q376 451 340 406V402Q340 388 372 342Q372 283 436
222Q464 222 524 174Q552 174 608 154Q628 154 660 186H692Q728 186 728 246Q743 258 756 258L788 254Q811 254 824 318Q860 343 860 370L840 398V418L884 470V474L840 526V542L868 578V590Q836 628 836 646L848 690V706Q807 786 748 786Q681 834 664 834L660 838L648
834Q637 834 580 874L564 878Q549 878 480 838Q454 838 376 770Q365 770 352 758Z" />
<glyph unicode="q" glyph-name="q" horiz-adv-x="1200" d="M394 1061Q434 1037 498 1037L558 1049Q582 1049 642 1001Q690 1001 722 973H738Q748 975 766 1013L770 1017H782Q825 973 870 973Q886 956 886 941L882 917L902 837V825Q902 785 894 785L902 705L894
669V653L902 621V613L882 529L898 481L894 397L902 373L886 321V293L894 281V261L882 205L902 141L886 81V77L902 17L886 -27L902 -87L882 -143Q915 -227 938 -227L974 -223H986L1010 -227L1050 -215H1054V-219L1052 -227L1050 -231V-239L1048 -244L1046 -247Q1094
-280 1094 -307V-319L1070 -343L1018 -331L950 -339L946 -335H942Q877 -359 854 -359Q831 -347 802 -347L778 -355H774L770 -351L766 -355H762L738 -339Q696 -363 682 -363L614 -347Q597 -347 570 -367Q536 -367 510 -271Q530 -215 590 -215Q643 -179 666 -179Q706
-211 722 -211L734 -191V-155L738 -79L722 -35L726 9L718 25H710L658 1L594 5L570 -39L566 -43H550Q540 -39 522 -3L502 1Q498 -11 478 -11H442L370 -35H366L318 13H310L278 5H262Q235 5 206 61Q142 75 142 85Q132 86 118 157Q79 214 46 241Q23 241 10 349L6 365V385L14
429V437L-2 513L6 545L2 549L6 569L-2 617L18 689L14 737Q14 746 62 785Q114 862 138 925Q160 949 226 977Q238 1004 386 1061H394ZM462 817L406 841H402Q382 841 362 793Q306 793 306 777V745Q306 705 254 685Q207 640 206 609L210 545Q204 545 186 505L202 449L194
401Q226 301 274 301Q302 277 302 225Q309 213 326 213V205Q338 205 346 185L398 165H410L458 181H470L526 141H530Q630 168 670 221Q670 234 690 253Q714 253 722 345L742 377V381Q742 398 718 445L734 497V501L714 565V573L726 625Q707 729 666 729L662 733V737Q662
745 674 745L678 749V753L626 809Q591 853 558 853H546L462 817Z" />
<glyph unicode="r" glyph-name="r" horiz-adv-x="1339" d="M862 1058Q911 1030 978 1014L1054 926L1102 934Q1126 907 1126 894L1118 874V866H1122L1118 826V798L1130 702Q1130 681 1078 598Q1078 580 1046 574Q1016 594 1002 594H990Q949 594 938 534H934L878
538H874Q843 551 810 610Q838 641 838 662L782 746V754L806 770L822 774L834 794Q834 834 738 850H734L706 826L674 798L610 818Q592 818 574 746Q482 657 482 622V610L486 586Q474 553 474 530L494 470L478 422L490 358L478 294Q489 238 522 238Q555 238 614 202L630
198L650 202Q671 202 750 146H754L802 178H814L834 158Q834 143 798 98V82L802 58Q802 37 730 14Q697 -16 654 -30L566 6H558Q497 6 450 -26H430L398 -2H382L334 -18L290 -14L258 -26H222Q205 -13 162 -6L126 -10L90 2L46 -14Q31 -14 6 130Q6 158 94 194Q110 222
142 222H158Q206 190 242 190Q294 225 294 250Q294 358 302 358Q302 439 258 466L254 470V478L286 538Q274 559 274 586L302 654L286 682L266 678H262L246 694Q246 702 278 726L290 742Q290 798 162 822L98 830L62 818H46Q1 866 -10 914V946Q6 988 38 1010L150
1042Q195 1030 306 1022L318 1026V1022L334 1030Q366 1030 434 978Q481 970 498 958Q510 958 558 1014L862 1058Z" />
<glyph unicode="s" glyph-name="s" horiz-adv-x="1083" d="M432 1042Q475 1023 548 1006Q548 996 628 986L708 1022L724 1026Q764 1026 784 918Q789 918 804 854Q824 836 836 802L832 758V750L844 690Q844 650 764 626Q729 578 720 578V566Q738 566 772 502Q844
467 844 422Q880 363 880 318L884 238Q884 215 844 130Q844 81 780 62Q735 10 708 10H676Q621 -34 604 -34L548 -2Q503 -2 412 -38H408L348 -6L256 2L224 0L208 14L196 22L200 26V34H196Q148 -10 132 -10Q56 -3 56 50Q56 68 24 118Q24 148 -12 214V226L0 266V282Q-7
304 -11 317L-9 340Q37 396 68 418Q79 428 108 430Q156 430 156 366Q189 262 236 262Q274 206 336 206Q363 167 440 150Q459 153 504 206L524 210L572 190H588Q599 190 608 238L624 250L656 246L672 270V306Q672 408 560 426Q520 394 508 394L492 414V422L496 426V430Q484
430 476 446L436 418H424Q364 447 312 458Q189 515 136 558Q60 580 60 634L40 670V674L44 678L36 702V714Q36 743 56 810L52 850Q52 890 212 994Q296 1018 380 1022Q380 1033 432 1042ZM384 862Q333 817 308 810L288 814Q266 814 244 758Q232 758 232 730V718Q275
650 328 650Q341 637 456 622H460L504 654H516Q536 639 548 606L576 602Q576 609 604 618Q636 618 656 578Q668 578 668 566H684Q700 573 700 594L668 630L672 678V690L644 722L632 718L628 722V726L636 738L564 790Q540 817 464 846Q464 860 384 862Z" />
<glyph unicode="t" glyph-name="t" horiz-adv-x="1179" d="M430 1334Q469 1334 510 1214L502 1190V1130L490 1070V1062L522 1010L518 1006V1002Q518 974 546 958H566L622 978L678 958H726L790 950L830 958Q874 936 874 898L870 874V858L874 842Q874 792 794 778Q754
742 734 742Q714 742 670 774L650 778L626 774L598 778L542 750Q494 738 494 706V698L522 658V650L494 554L498 518V506L494 470L506 398L494 342L502 278V254Q523 226 550 218L538 170L590 130Q597 117 642 106Q712 106 730 170L726 206L758 226L770 222Q794 241
818 302Q870 330 918 330Q972 289 990 226L994 214Q970 166 954 98Q910 69 874 6Q824 -20 758 -70H738L722 -66L658 -106L594 -70L574 -74Q551 -74 470 -18Q446 -18 390 58Q346 87 346 94V142Q346 159 310 226V230L318 270L310 334L326 378L298 446L306 494L294
554L310 610V626L298 674L306 710Q296 736 242 778Q198 778 138 730L118 726Q88 728 -6 790Q-22 807 -22 830V862Q-22 919 70 938Q85 950 118 958L154 954H162L210 966H218L294 942L302 974L290 1010L302 1066L286 1130L302 1198L298 1222V1226Q298 1282 398 1326L430
1334Z" />
<glyph unicode="u" glyph-name="u" horiz-adv-x="1335" d="M40 1042L88 1038L112 1042Q142 1036 172 1006Q219 1006 290 926Q322 902 322 826L306 774L310 738L302 698L314 622V590L306 558L318 510L306 450L326 398V394L314 346Q314 296 384 246Q407 178 436
178L464 186L524 154Q612 167 636 202Q644 218 688 230Q748 287 748 306L744 350Q744 361 776 410V414L744 458V462Q744 478 768 514Q764 537 736 566Q736 585 776 634L780 650Q748 681 748 702Q772 731 772 746Q704 834 668 834Q552 844 552 910V926Q610 1010
652 1010L716 994Q779 994 848 1022H852Q942 979 942 922L970 814L962 754L970 690L950 634L962 582L946 518L970 462L962 394L970 350L950 286Q959 286 962 266L958 262L966 254V250L958 238V210Q1006 174 1024 174L1068 186Q1115 186 1132 70Q1132 10 988 -22H976Q809
24 804 50L764 66Q751 66 680 10Q664 10 580 -30H568L504 -2L484 -6L392 -2Q378 -2 332 30L304 38L300 34H296Q257 34 212 146Q141 207 108 338L112 386L100 442L116 494V514L104 554V566L116 614L104 666L124 738Q109 814 48 814Q8 820 8 850L16 898L0 966Q3 1006
36 1042H40Z" />
<glyph unicode="v" glyph-name="v" horiz-adv-x="1342" d="M109 1066H113L145 1058H157L217 1066Q311 1038 361 1038L433 1058Q450 1058 509 1006Q565 989 565 962Q520 854 469 854L443 772L451 748L435 700Q471 633 471 612H467Q476 556 491 556Q491 500 530
472L555 444Q542 439 531 412Q534 393 577 348L614 344Q657 403 657 424V461Q705 487 705 524Q729 553 729 580L721 628L761 672L729 720Q736 738 753 748H765L769 744Q787 751 801 772L781 794Q773 794 757 814Q715 814 677 874L673 878H641Q605 886 605 898V914Q669
1018 761 1018L837 1034L889 1022L937 1026Q1057 1018 1097 1002V998L1101 1002H1129L1149 982V966L1145 946L1153 870L1129 850H1121Q1113 850 1113 862H1073L985 794Q974 735 929 674L941 634Q941 618 889 550Q873 505 865 446Q805 382 801 322L805 290L773 210V170Q773
151 717 102Q678 51 669 -6Q658 -22 641 -22L573 -14L557 -18Q506 -18 425 102V114L441 146L405 210Q405 244 369 354Q325 387 325 406Q325 435 285 498V502L289 550Q253 598 253 710Q248 731 193 786Q193 830 161 830H157L129 810H113Q64 850 25 850Q-7 873 -7
906V950Q4 1042 61 1042Q94 1066 109 1066Z" />
<glyph unicode="w" glyph-name="w" horiz-adv-x="1435" d="M165 1066Q212 1047 301 1034Q367 994 397 954V950Q397 910 337 894Q293 853 293 826Q321 778 321 750L317 738Q336 646 385 606V594Q364 562 353 562V550Q353 534 389 498V486L381 450V446L401 426H409Q429
426 445 498L441 542L469 590V598L441 658V666Q477 703 477 718Q477 728 441 758V774Q441 782 493 814Q493 826 501 826Q499 840 461 882Q461 899 517 914Q527 994 597 994H605L609 990L669 1010Q706 968 749 938Q749 920 737 902V878Q765 838 765 826V818Q741
793 741 778L777 718V674Q777 661 813 610V602L805 554L837 502V490L833 470L853 454H865Q885 465 901 494Q878 521 873 546Q873 554 917 590Q928 590 941 722L937 726V730L961 794Q961 858 929 886H925L881 878H877Q861 885 861 906L881 978Q881 998 973 1018L1045
1014Q1066 1026 1085 1026L1145 1014L1177 1022H1193Q1241 992 1241 962V954Q1196 822 1149 822Q1149 814 1137 814L1101 662Q1065 617 1065 602L1077 558Q1025 509 1025 402Q1025 379 989 322L997 278L957 190Q973 160 973 142Q949 122 917 50Q906 38 825 22Q797
2 777 2Q759 9 745 30V58L749 62L713 162L721 198L713 250V254L717 278Q717 299 661 318V334Q682 362 697 362V374Q665 416 665 434L673 490L641 578L645 590V594H641L637 578H629V586H621L605 554L601 538L609 502V494L553 434L549 418Q569 387 569 374L541 306Q569
258 569 246V242Q509 184 509 70Q489 38 437 26Q391 -14 377 -14H365Q339 -9 297 98L301 110Q301 129 257 198L253 202V206L257 250V254L217 298V306L233 362Q209 411 209 478Q202 479 165 570Q153 575 141 670Q109 703 109 726L117 762V770Q117 832 37 842L-39
922V930L17 1042Q41 1058 57 1058L105 1046L165 1066Z" />
<glyph unicode="x" glyph-name="x" horiz-adv-x="1325" d="M716 822L712 826V830L716 834V838L668 850Q616 900 616 922V930Q616 968 768 1026H772L828 1006L876 1010L908 1006L964 1034L1100 978Q1120 959 1120 938Q1120 903 1092 846Q1086 830 1064 830H1056Q1042
842 1024 842L960 830L956 834H952Q935 826 864 758Q851 758 840 726Q808 726 804 642Q783 615 732 602Q698 560 684 530Q704 426 732 426L752 417L768 412L769 401L772 382V374Q772 357 812 322Q812 292 900 262L904 258V250L888 206V194Q888 184 920 178L976
206Q985 206 1028 166L1040 162L1072 170Q1090 163 1100 146Q1100 129 1072 78V74Q1072 51 1088 30V26L1068 2H1060L1008 34H956Q883 -14 872 -14H864L792 22L756 26Q725 26 676 -6H668Q646 -6 636 14V18L644 78L628 134Q628 158 692 170L696 174V194Q640 215 640
246Q640 338 560 366H552Q484 316 484 274L500 254L484 242Q479 228 448 210L436 186Q436 176 488 146Q504 128 504 118L492 62L496 42Q481 -14 464 -14H460L404 14H400Q308 14 288 -30L260 -34Q228 -11 108 2L68 -22H56Q24 -22 4 118Q4 152 56 162Q93 162 144
202Q224 202 224 226Q228 243 308 310Q333 355 344 410Q355 421 396 434Q411 434 420 486Q431 494 440 530Q409 590 360 590Q349 627 312 674L292 682L288 678H264L252 690V702Q276 733 276 746Q259 763 204 782Q204 799 124 822H104L60 786H56Q50 786 20 842Q-20
876 -20 898V910Q20 1022 44 1022L84 1010L256 1018L300 1002L360 1018H380L424 1010L448 1022Q480 1022 480 986Q490 986 512 922V914L460 830L464 814L460 810L464 806Q454 806 452 770H448L452 766V762L448 758Q448 747 504 710Q517 678 552 678H556Q606 678
644 730Q681 748 696 770V774L716 822Z" />
<glyph unicode="y" glyph-name="y" horiz-adv-x="1380" d="M960 1024L1024 1000L1028 1004H1032Q1168 999 1168 960Q1178 960 1184 928V900Q1184 854 1148 836L1088 788H1048L1044 792Q1012 792 1012 736Q980 698 980 644Q929 593 888 508L892 472Q892 462 856
408L860 372L808 288Q788 244 788 228V220L792 196Q790 174 748 124L760 76Q691 17 680 -60L676 -64V-68L684 -100Q684 -116 640 -176V-184L644 -212Q593 -253 572 -304L464 -388L444 -392L440 -388Q425 -388 348 -424H332Q262 -396 160 -376V-372L164 -368Q129
-368 48 -268Q21 -268 4 -160Q-12 -135 -12 -112Q-12 -65 36 8Q92 30 100 40Q122 88 148 88Q167 88 212 36Q276 33 276 -28Q296 -53 296 -80V-120L272 -200L280 -208V-244L300 -256Q393 -256 412 -208Q444 -177 444 -156L432 -132V-120Q438 -104 488 -88Q536 3
536 20Q516 53 516 68L528 108L504 172Q504 185 464 236L456 252Q468 270 468 288Q420 333 420 368V376L424 392Q398 480 348 504Q336 504 332 572Q308 599 292 652Q242 670 236 680V704Q248 719 248 740V744Q196 808 132 808L116 812H112Q89 812 68 768H52Q33
768 20 852Q8 852 0 924Q0 977 104 996Q128 1016 144 1016L288 992L352 1020L416 992L476 996Q554 975 556 960L572 864Q572 849 512 824Q512 796 464 760V752H460Q460 732 500 700L508 684L504 664V632Q520 540 564 540L572 528V512L548 476Q548 463 596 428Q617
380 628 380Q637 395 680 420Q712 442 712 488L708 524Q709 542 748 592V608L732 652V656L768 704V712Q768 726 752 744V764Q752 780 788 780L792 784V796Q792 811 724 832Q705 845 688 884Q638 905 632 920V928Q632 945 708 968Q730 992 764 1008L820 996Q913
996 960 1024Z" />
<glyph unicode="z" glyph-name="z" horiz-adv-x="1121" d="M146 1032H158Q225 1004 258 1004H274Q313 1004 354 1024H362L434 1004Q484 1004 562 1032L642 1000Q674 1000 714 988L770 1016H778Q818 993 838 932Q838 873 794 796Q794 745 730 728Q720 687 590 612Q582
602 582 576H578L582 572V560Q582 539 470 436L458 420L462 416V412L446 384H442L438 388H434Q406 368 386 308Q298 246 298 196L314 180L358 212H362L426 180L470 188L522 184L558 212H566L622 180L702 184Q733 209 738 252L726 320L746 376L742 396V412Q742 451
818 460Q847 496 862 496Q882 496 902 420Q914 398 918 368L902 308L910 272L890 200L894 136Q864 72 798 36Q705 -4 662 -12L602 12L558 -8L522 4L462 -12Q448 -12 386 20L266 -12Q181 12 150 12L66 -20H50Q11 -9 10 76Q-9 127 -10 160L30 268Q49 284 62 284V280Q89
280 146 352Q193 375 210 408Q255 472 278 484L282 480H286Q326 502 326 548Q335 563 402 600Q429 639 514 716Q532 793 574 812Q582 812 582 824Q582 848 510 848Q490 827 462 812L402 840H366Q334 840 258 792Q223 792 190 720L202 648Q202 611 122 592Q93 556
66 556H50Q25 556 -14 716L-2 768V772L-10 816V832Q19 862 42 964Q72 996 146 1032Z" />
<glyph unicode="{" glyph-name="braceleft" horiz-adv-x="588" d="M410 1426T422 1417L412 1389Q405 1379 392 1359Q380 1348 377 1338Q364 1328 353 1318Q350 1299 343 1284Q332 1267 328 1253Q321 1234 314 1227L305 1217L296 1208L287 1203L279 1181L275 1160Q258
1165 260 1146Q254 1136 253 1127L256 1119L249 1112V1079L243 1076L233 1034L228 1002L226 979L218 950L213 927Q221 919 206 906L205 884Q204 879 196 862Q195 859 194 857Q183 833 183 816Q183 805 173 790T159 749Q153 735 170 722Q170 700 163 679T164 650Q155
597 156 589Q161 560 179 537Q172 528 172 516Q172 505 181 483H182Q191 461 200 454Q188 438 198 404Q203 388 203 372Q217 357 208 351Q227 304 219 296Q233 246 235 227L246 202L259 174L264 150Q274 119 297 98L293 82Q302 40 317 18Q337 5 337 -14Q337 -19
335 -26Q350 -45 361 -74Q367 -87 371 -103L380 -124Q379 -136 389 -163Q392 -172 397 -184L377 -186L354 -189Q343 -191 332 -192Q312 -195 297 -195L270 -192L248 -188L236 -169L238 -162Q226 -168 219 -154Q211 -146 191 -122V-111L163 -79Q165 -75 165 -66Q150
-49 151 -30Q140 -27 133 -21Q119 4 119 16Q119 28 100 55Q98 58 96 61Q72 92 70 94L57 124V138Q56 144 49 171Q46 187 41 207Q38 220 35 233Q31 252 26 273Q24 287 21 308Q19 327 21 339Q37 353 9 369Q32 398 15 435L16 474L9 498L3 525L-3 545Q14 563 15 575Q18
584 12 601Q15 611 3 625Q3 648 9 678L3 713Q7 709 15 720Q5 727 14 746Q20 773 26 781Q21 800 9 807Q12 831 18 854Q20 867 24 879Q26 890 29 899Q37 927 45 945Q53 966 39 978Q31 986 41 1004Q45 1011 51 1019Q53 1021 55 1023Q79 1055 79 1069Q79 1093 93 1123Q102
1140 117 1161Q115 1168 126 1200Q133 1216 142 1237Q151 1246 165 1272Q172 1285 179 1299Q190 1322 202 1352Q214 1384 238 1415Q229 1431 269 1436Q288 1436 307 1440Q327 1428 352 1433Q371 1427 388 1429Q410 1426 422 1417Z" />
<glyph unicode="|" glyph-name="bar" horiz-adv-x="419" d="M81 1413L92 1418Q98 1420 104 1420Q136 1420 179 1362Q188 1365 225 1336Q228 1332 228 1325Q228 1305 196 1259Q197 1238 233 1178L198 1102L195 1049Q212 1011 206 992L193 966L206 955L216 941Q217
925 193 898Q209 877 199 822L205 807L217 798Q224 788 198 742L180 656L214 629L188 571Q200 555 173 499L195 481L201 473L155 368L156 355L197 331Q202 323 168 271Q168 214 195 165Q167 109 188 8Q174 -20 118 -76L104 -81Q47 -67 28 -41Q3 -7 10 51L6 56L-11
73V75Q-11 87 14 145L19 206L17 215L12 216L0 232Q30 306 2 390Q41 459 21 525Q16 532 16 643Q-3 699 23 738Q19 804 4 857Q32 896 8 975Q-1 988 18 1048L10 1126Q4 1153 8 1198Q-5 1215 -5 1236Q-5 1255 7 1279Q-11 1320 31 1382Q58 1393 81 1413Z" />
<glyph unicode="}" glyph-name="braceright" horiz-adv-x="598" d="M-3 -189T-15 -181L-5 -154Q2 -144 16 -124Q28 -113 31 -103Q44 -93 55 -83Q58 -65 65 -49Q77 -33 81 -19Q88 0 96 7L105 17L114 26L123 31L131 52L135 74Q152 69 150 87Q157 97 158 106L155
114L161 121V154L168 157L178 199L183 230L185 253L193 282L199 304Q191 312 205 325L207 347Q208 351 216 369Q217 372 218 374Q229 397 229 414Q229 425 239 440T254 480Q260 495 243 507Q243 530 249 551T248 579Q257 631 256 639Q252 668 234 691Q240 700 240
711Q240 722 231 744H230Q221 766 212 773Q223 789 213 823Q209 838 209 854Q194 869 203 875Q184 921 192 929Q178 979 176 998L165 1023L151 1050L147 1074Q136 1105 113 1126L117 1141Q107 1183 92 1205Q72 1218 72 1237Q72 1242 74 1249Q58 1267 47 1296Q42
1309 37 1325L28 1345Q29 1358 19 1384Q16 1393 11 1405L31 1407L54 1410Q65 1412 77 1413Q97 1416 113 1416L140 1413L162 1409L175 1390L173 1383Q185 1389 192 1375Q201 1368 221 1343V1333L249 1301Q247 1297 247 1288Q263 1272 262 1252Q273 1250 280 1244Q295
1219 295 1207Q295 1195 314 1168Q316 1165 318 1162Q342 1131 344 1130L358 1100V1086Q359 1080 366 1053Q369 1038 374 1017Q377 1005 381 992Q384 973 390 952Q392 939 394 918Q396 899 394 887Q378 873 407 858Q383 829 401 792L400 753L407 729L413 703L419
682Q402 665 401 653Q398 644 403 627Q401 618 413 603Q413 581 407 551L413 516Q409 520 401 509Q411 502 402 484Q395 457 390 449Q394 430 407 423Q403 400 398 377Q395 364 392 351Q390 341 386 332Q378 304 370 287Q361 265 376 254Q384 246 374 228Q370 221
364 213Q361 211 360 209Q335 177 335 164Q335 140 321 111Q312 93 297 73Q298 65 287 34Q280 18 271 -3Q262 -11 247 -38Q240 -50 234 -65Q222 -87 210 -117Q197 -149 173 -179Q182 -195 141 -200Q122 -200 103 -204Q82 -192 56 -197Q37 -191 20 -193Q-3 -189
-15 -181Z" />
<glyph unicode="~" glyph-name="asciitilde" horiz-adv-x="910" d="M362 1203L339 1218H335Q318 1257 304 1257L224 1215H211Q198 1196 178 1178Q155 1142 144 1142L123 1121Q102 1105 98 1091L85 1085Q76 1081 63 1081L46 1076L33 1073L-5 1091Q-5 1128 0 1152L17
1203Q27 1212 37 1232Q52 1255 97 1325Q147 1349 160 1380Q160 1392 213 1411Q244 1451 287 1451L321 1466Q351 1462 374 1431L385 1411Q403 1411 412 1385L432 1371Q439 1371 457 1354L468 1350Q484 1331 517 1300L529 1284L582 1256Q595 1256 613 1285H616L653
1313L711 1360Q758 1389 813 1424L866 1439Q889 1426 889 1397Q889 1384 884 1367L849 1312L814 1283Q814 1262 787 1249L769 1203Q753 1200 736 1177L710 1151H706L693 1142Q686 1102 663 1102L651 1082Q631 1059 600 1051L565 1062Q522 1062 491 1102Q438 1121
438 1133Q424 1164 374 1188Q368 1196 362 1203Z" />
</font>
</defs>
</svg>
