<?xml version="1.0" standalone="no"?> <!DOCTYPE svg PUBLIC "-//W3C//DTD SVG 1.0//EN" "http://www.w3.org/TR/2001/REC-SVG-20010904/DTD/svg10.dtd" > <svg xmlns="http://www.w3.org/2000/svg" width="100%" height="100%">
<defs >
<font id="fairfieldltstdlight" horiz-adv-x="406" ><font-face
    font-family="Fairfield LT Std Light"
    units-per-em="1000"
    panose-1="2 7 5 2 7 5 5 2 9 3"
    ascent="732"
    descent="-268"
    alphabetic="0" />
<missing-glyph horiz-adv-x="500" d="M0 0V700H500V0H0ZM250 395L420 650H80L250 395ZM280 350L450 95V605L280 350ZM80 50H420L250 305L80 50ZM50 605V95L220 350L50 605Z" />
<glyph unicode=" " glyph-name="space" horiz-adv-x="259" />
<glyph unicode="!" glyph-name="exclam" horiz-adv-x="259" d="M134 181L120 184Q118 225 111 316T100 498T95 678Q95 701 101 704Q118 711 147 711Q162 711 162 694Q162 645 153 457T134 181ZM172 42Q172 31 164 19T147 1T136 -5Q125 -5 106 9T87 41Q87 54 96
66T113 85T124 92T137 87T160 69T172 42Z" />
<glyph unicode="&quot;" glyph-name="quotedbl" horiz-adv-x="370" d="M118 429H104L81 643L78 686Q78 728 111 728T144 686L141 643L118 429ZM266 429H252L229 643L226 686Q226 728 259 728T292 686L289 643L266 429Z" />
<glyph unicode="#" glyph-name="numbersign" horiz-adv-x="519" d="M91 0H46L112 207H11L18 232H119L175 407H74L81 432H182L248 639H292L226 432H362L428 639H472L406 432H507L500 407H399L344 232H444L437 207H336L271 0H226L292 207H156L91 0ZM163 232H299L355
407H219L163 232Z" />
<glyph unicode="$" glyph-name="dollar" horiz-adv-x="519" d="M270 -108H247V0Q153 2 91 60Q66 84 66 93Q66 98 78 102T101 107Q114 107 128 89Q155 52 180 37T247 19V293Q158 330 114 371T69 480Q69 542 114 587T247 639V728H270V639Q303 638 331 629T376 608T405
583T421 560T426 545Q426 535 412 527T387 518Q382 518 381 523Q370 616 270 620V353Q305 338 323 330T369 304T411 269T437 226T449 169Q449 102 405 56T270 0V-108ZM270 282V19Q323 25 358 59T393 147Q393 198 362 228T270 282ZM247 363V620Q191 615 158 581T125
497Q125 470 136 448T169 409T206 384T247 363Z" />
<glyph unicode="%" glyph-name="percent" horiz-adv-x="722" d="M670 248Q670 163 611 75T482 -13Q434 -13 405 20T376 110Q376 195 444 262T586 330Q627 330 648 306T670 248ZM425 76Q425 44 441 25T485 5Q526 5 566 49T629 149T652 248Q652 279 636 295T594
312Q536 312 481 228T425 76ZM142 -21H110L443 479Q472 521 497 546Q510 559 510 562Q510 566 506 566T485 556Q451 536 404 536Q376 536 343 551Q327 449 272 379T158 308Q111 308 82 342T52 428Q52 518 121 585T257 652Q334 652 343 574Q371 554 407 554Q436
554 462 564T509 593T544 627T574 663H599L142 -21ZM327 566Q308 593 310 617Q291 634 268 634Q212 634 157 548T101 396Q101 364 117 345T161 326Q211 326 263 399T327 566Z" />
<glyph unicode="&amp;" glyph-name="ampersand" horiz-adv-x="722" d="M470 349V368Q497 368 532 367T579 366Q598 366 637 367T696 368V349H634Q609 349 597 338T549 270L490 177Q538 106 588 22Q630 19 665 19V0H620Q555 0 520 -15Q453 111 443 111Q440 111
435 104Q417 79 404 65T366 29T310 -4T240 -15Q155 -15 109 39T62 157Q62 197 76 229T120 287T167 324T217 353Q180 383 163 399T129 445T112 511Q112 575 159 620T282 665T395 624T433 534Q433 504 421 478T387 432T349 400T308 375Q390 307 462 211Q474 194 477
194Q481 194 499 226Q560 333 560 341T545 349H470ZM293 388Q317 403 331 414T363 455T381 524Q381 571 353 607T275 644Q229 644 205 614T180 544T201 476T281 398Q289 390 293 388ZM237 339Q134 291 134 195Q134 134 177 89T286 43Q329 43 362 63T430 130Q388
189 350 230T237 339Z" />
<glyph unicode="&apos;" glyph-name="quotesingle" horiz-adv-x="222" d="M118 429H104L81 643L78 686Q78 728 111 728T144 686L141 643L118 429Z" />
<glyph unicode="(" glyph-name="parenleft" horiz-adv-x="333" d="M269 738L279 729Q124 557 124 306Q124 166 160 55T276 -160L260 -173Q75 45 75 291Q75 540 269 738Z" />
<glyph unicode=")" glyph-name="parenright" horiz-adv-x="333" d="M64 -173L54 -164Q209 8 209 259Q209 399 173 510T57 725L73 738Q258 520 258 274Q258 25 64 -173Z" />
<glyph unicode="*" glyph-name="asterisk" horiz-adv-x="519" d="M437 536Q437 531 425 522T403 512Q383 512 319 544Q275 566 267 566Q262 566 262 560Q262 558 264 551T270 531T277 507Q281 491 287 471T296 440T299 423Q299 413 288 401T271 389Q262 389 250
400T238 427Q238 462 248 539Q251 564 244 564Q240 564 184 525T116 485Q108 485 95 491T82 505Q82 533 99 542Q114 549 189 564Q240 573 240 580Q240 582 238 585T231 591T221 598T208 607T195 617Q146 653 135 664T124 689Q124 709 130 714T149 720Q167 720 174
713T204 666Q211 653 219 639T232 617T240 602T247 593T252 590Q257 590 264 611Q294 701 304 719T339 738Q362 738 362 707Q362 692 299 621Q293 615 290 612Q267 586 267 583Q267 577 291 577Q399 577 416 569Q424 565 430 554T437 536Z" />
<glyph unicode="+" glyph-name="plus" horiz-adv-x="600" d="M279 0V226H53V268H279V494H321V268H547V226H321V0H279Z" />
<glyph unicode="," glyph-name="comma" horiz-adv-x="259" d="M78 -162L66 -151Q138 -79 138 -35Q138 -5 83 24Q69 32 69 35Q69 44 83 63T115 82Q132 82 159 60T187 14Q187 -13 163 -59T78 -162Z" />
<glyph unicode="-" glyph-name="hyphen" horiz-adv-x="315" d="M258 210L48 201L56 251L267 258L258 210Z" />
<glyph unicode="." glyph-name="period" horiz-adv-x="259" d="M118 96Q129 96 152 80T176 47Q176 32 161 12T141 -8Q130 -8 107 8T83 41Q83 56 98 76T118 96Z" />
<glyph unicode="/" glyph-name="slash" horiz-adv-x="278" d="M40 -16H0L272 738H312L40 -16Z" />
<glyph unicode="0" glyph-name="zero" horiz-adv-x="519" d="M47 319Q47 407 67 474T121 579T189 634T259 652Q297 652 332 634T400 579T452 475T472 319Q472 230 453 163T401 59T333 5T259 -13Q220 -13 185 4T117 59T66 163T47 319ZM397 319Q397 454 362 543T259
633Q214 633 182 589T136 475T122 319Q122 182 157 94T259 6Q327 6 362 94T397 319Z" />
<glyph unicode="1" glyph-name="one" horiz-adv-x="519" d="M234 87V578Q234 598 231 602Q228 607 214 607Q186 607 146 604V623Q237 635 305 652Q301 524 301 452V87Q301 31 306 26Q312 20 379 17V-2Q373 -2 330 -1T264 0T197 -1T146 -2V17Q199 20 212 22T230
32T234 87Z" />
<glyph unicode="2" glyph-name="two" horiz-adv-x="519" d="M70 515L52 527Q80 579 128 615T245 652Q324 652 375 601T427 470Q427 435 415 401T389 344T343 288T293 240T229 189T168 139Q102 86 102 58Q102 52 109 52Q110 52 128 58Q142 63 182 63Q218 63 419
60L435 140H457Q444 41 434 -7Q416 -7 357 -6T265 -3Q178 0 130 0Q80 0 57 -7L48 0L71 50Q86 83 98 99T147 148Q152 152 178 176T210 205T238 232T267 262T291 289T313 320T330 351T345 385T352 420T356 459Q356 533 317 574T221 616Q173 616 138 591T70 515Z"
/>
<glyph unicode="3" glyph-name="three" horiz-adv-x="519" d="M98 563L84 576Q155 652 242 652Q315 652 359 611T404 509Q404 402 249 350Q241 347 241 343Q241 337 262 337Q343 333 386 298Q440 252 440 179Q440 92 366 40T200 -13Q143 -13 77 9Q64 14 64 19Q64
26 74 37T100 49Q112 49 159 29T235 8Q288 8 330 51T373 162Q373 223 333 262T200 301Q146 301 142 303Q132 308 132 328Q132 332 137 334T183 346Q264 367 300 404T337 501Q337 555 308 589T224 623Q161 623 98 563Z" />
<glyph unicode="4" glyph-name="four" horiz-adv-x="519" d="M311 -7V208H175Q139 208 108 207T60 205T42 204Q37 204 37 209L43 235Q50 262 68 288L251 545Q275 578 284 588T306 606Q326 616 339 626T355 641T362 649T370 652Q378 652 378 638V262Q428 262 467
263L463 206Q447 207 378 208V0L311 -7ZM311 262V565Q311 581 307 581Q299 581 280 553L94 289Q81 271 81 267Q81 262 90 262H311Z" />
<glyph unicode="5" glyph-name="five" horiz-adv-x="519" d="M98 -13V8Q231 16 298 67T365 203Q365 284 310 324T138 365H96Q110 547 126 644Q208 640 250 640Q293 639 386 639Q397 639 397 644L399 666H421L415 576Q280 576 139 581Q130 520 127 427Q133 427
147 427T169 428Q432 428 432 226Q432 133 349 64T98 -13Z" />
<glyph unicode="6" glyph-name="six" horiz-adv-x="519" d="M384 652L394 638Q253 557 194 459Q177 431 165 400T148 353T143 333Q143 328 147 328Q152 328 167 336Q229 369 284 369Q362 369 414 315T467 180Q467 135 450 93T386 19T274 -13Q175 -13 116 52T56
224Q56 352 136 465T384 652ZM139 302Q131 260 131 213Q131 112 172 59T276 6Q333 6 366 48T400 165Q400 241 363 289T263 338Q205 338 139 302Z" />
<glyph unicode="7" glyph-name="seven" horiz-adv-x="519" d="M410 576H160Q111 576 106 572Q102 569 98 542L93 505L73 508L83 664H102Q102 648 104 644T117 639H461Q466 639 466 635Q466 611 432 539T353 383T261 188T192 -16L156 0Q170 80 236 216T362 456T422
571Q422 576 410 576Z" />
<glyph unicode="8" glyph-name="eight" horiz-adv-x="519" d="M442 501Q442 410 330 348Q321 344 321 340Q321 335 326 335Q458 269 458 163Q458 80 395 34T250 -13Q166 -13 113 32T60 148Q60 262 192 316Q200 320 200 322Q200 323 189 328Q77 379 77 488Q77 559
127 605T261 652Q342 652 392 609T442 501ZM226 310Q114 265 114 155Q114 100 152 53T265 6Q302 6 329 19T369 53T389 96T395 139Q395 175 383 202T342 249T291 281T226 310ZM296 350Q315 361 327 370T357 397T384 441T394 497Q394 561 354 597T260 633Q202 633
168 597T134 507T171 419T296 350Z" />
<glyph unicode="9" glyph-name="nine" horiz-adv-x="519" d="M92 -13V7Q157 16 209 43T292 105T344 179T373 253T381 316Q381 322 378 322Q376 322 365 314Q299 264 228 264Q153 264 100 316T47 451Q47 536 105 594T248 652Q346 652 403 578T460 390Q460 227 363
117T92 -13ZM384 351Q389 376 389 411Q389 508 352 570T244 633Q184 633 147 587T110 472Q110 396 151 348T257 300Q323 300 384 351Z" />
<glyph unicode=":" glyph-name="colon" horiz-adv-x="259" d="M172 42Q172 31 164 19T147 1T136 -5Q125 -5 106 9T87 41Q87 54 96 66T113 85T124 92T137 87T160 69T172 42ZM170 338Q170 327 162 316T146 299T136 293Q125 293 107 306T89 337Q89 349 97 361T114
379T124 386T136 381T158 363T170 338Z" />
<glyph unicode=";" glyph-name="semicolon" horiz-adv-x="259" d="M85 -153L92 -143Q152 -60 152 -33Q152 -12 99 21Q97 23 96 23T93 25T90 27Q82 32 82 34T87 46T103 68T126 80Q142 80 170 59T198 13Q198 -41 97 -162L85 -153ZM172 336Q172 325 164 313T147 295T136
289Q125 289 106 303T87 335Q87 348 96 360T113 379T124 386T137 381T160 363T172 336Z" />
<glyph unicode="&lt;" glyph-name="less" horiz-adv-x="600" d="M586 -4L14 238V255L586 497V451L91 246L586 42V-4Z" />
<glyph unicode="=" glyph-name="equal" horiz-adv-x="600" d="M53 130V172H547V130H53ZM53 322V364H547V322H53Z" />
<glyph unicode="&gt;" glyph-name="greater" horiz-adv-x="600" d="M586 238L14 -4V42L509 246L14 451V497L586 255V238Z" />
<glyph unicode="?" glyph-name="question" horiz-adv-x="407" d="M159 134L145 137Q143 249 143 300Q143 316 147 319T173 322Q261 322 294 340T327 422Q327 506 251 561T63 616Q54 616 54 628V711H74V685Q74 669 85 669Q113 669 158 658T239 627Q345 568 345
430Q345 348 310 306T200 261Q180 260 176 253T167 211L159 134ZM199 42Q199 31 191 19T174 1T163 -5Q152 -5 133 9T114 41Q114 54 123 66T140 85T151 92T164 87T187 69T199 42Z" />
<glyph unicode="@" glyph-name="at" horiz-adv-x="800" d="M693 102L705 83Q568 -15 413 -15Q248 -15 135 85T21 342Q21 446 75 537T226 683T441 738Q594 738 687 652T780 439Q780 331 716 243T577 155Q535 155 513 182T490 248H488Q448 155 365 155Q307 155 268
197T229 302Q229 387 292 467T446 547Q477 547 504 530T539 471H541L559 535H618L564 350Q541 274 541 243Q541 214 555 199T595 183Q649 183 703 262T757 437Q757 555 672 632T450 710Q289 710 180 599T70 340Q70 201 169 105T420 8Q563 8 693 102ZM372 178Q432
178 467 254Q482 289 502 353T522 447Q522 484 502 504T452 524Q392 524 343 444T293 283Q293 229 316 204T372 178Z" />
<glyph unicode="A" glyph-name="A" horiz-adv-x="648" d="M648 17V-2Q638 -2 597 -1T536 0Q494 0 414 -2V17Q469 19 483 22T498 39T488 80L418 287H182L104 76Q94 46 94 36Q94 33 95 31T98 27T102 24T109 22T118 21T130 20T143 19T159 19T178 17V-2Q116 0 82 0Q43
0 0 -2V17Q30 19 42 27T67 65L278 603Q288 629 300 642T320 669Q324 676 328 687T335 701T343 705Q351 705 361 675L575 76Q590 33 599 26T648 17ZM298 600L190 310H411L308 600Q306 605 303 605Q298 605 298 600Z" />
<glyph unicode="B" glyph-name="B" horiz-adv-x="630" d="M129 87V589Q129 645 124 650Q118 656 59 659V678Q63 678 106 677T169 676Q185 676 233 678Q308 681 309 681Q420 681 464 651Q535 603 535 516Q535 404 398 353Q381 347 381 346Q381 344 411 337Q484
322 525 281T567 174Q567 126 542 86T472 23Q417 -5 330 -5Q291 -5 249 -2Q193 0 169 0Q149 0 106 -1T59 -2V17Q118 20 124 26Q129 31 129 87ZM209 328V87Q209 30 214 25Q223 16 303 16T424 48Q482 93 482 178Q482 250 441 291T300 332Q255 332 209 328ZM209 590V355Q253
351 301 351Q361 351 391 369Q424 387 442 421T460 495Q460 578 405 625Q365 660 285 660Q219 660 213 648Q209 643 209 590Z" />
<glyph unicode="C" glyph-name="C" horiz-adv-x="741" d="M633 679H654L650 456H628Q625 522 613 581Q588 613 536 642T414 671Q304 671 224 590T143 356Q143 267 170 199T241 92T335 36T436 17Q537 17 588 62Q601 73 609 84T622 115T629 144T634 185T639 227H662L654
75Q622 52 598 37T513 3T387 -16Q243 -15 148 81T52 339Q52 496 150 594T400 692Q480 692 554 665Q568 660 580 655T599 647T611 642T619 640Q627 640 628 645T633 679Z" />
<glyph unicode="D" glyph-name="D" horiz-adv-x="759" d="M129 87V589Q129 645 124 650Q118 656 59 659V678Q63 678 106 677T169 676Q181 676 203 677T234 679Q284 681 307 681Q357 681 392 678T476 661T567 619Q634 575 670 502T707 343Q707 243 661 167T545
49Q455 -5 298 -5Q266 -5 233 -2Q212 0 169 0Q149 0 106 -1T59 -2V17Q118 20 124 26Q129 31 129 87ZM209 589V87Q209 30 214 25Q223 16 301 16Q452 16 534 106T616 336Q616 486 513 587Q473 624 424 642T297 660Q223 660 214 651Q209 646 209 589Z" />
<glyph unicode="E" glyph-name="E" horiz-adv-x="648" d="M561 165H583L571 -5Q471 -3 395 -2Q281 0 231 0Q173 0 59 -2V17Q118 20 124 26Q129 31 129 87V589Q129 645 124 650Q118 656 59 659V678Q173 676 208 676Q485 676 505 680Q512 682 515 686T520 705H539V537H520Q519
579 515 602T506 631T495 642Q472 656 307 656Q219 656 213 650Q209 646 209 589V368Q406 368 422 376Q428 379 430 382T435 403T438 456H457V246H438Q436 327 427 335Q419 343 352 344Q298 345 209 345V87Q209 36 214 31T287 26Q412 26 536 35L561 165Z" />
<glyph unicode="F" glyph-name="F" horiz-adv-x="593" d="M129 87V589Q129 645 124 650Q118 656 59 659V678Q173 676 208 676Q485 676 505 680Q512 682 515 686T520 705H539V537H520Q519 579 515 602T506 631T495 642Q472 656 307 656Q219 656 213 650Q209 646
209 589V352Q425 352 440 359Q447 362 450 366T455 387T458 440H477V230H458Q456 311 447 319Q439 327 352 328Q298 329 209 329V87Q209 31 214 26Q220 20 259 19L300 17V-2Q287 -2 239 -1T169 0Q149 0 106 -1T59 -2V17Q118 20 124 26Q129 31 129 87Z" />
<glyph unicode="G" glyph-name="G" horiz-adv-x="759" d="M580 89V191Q580 229 572 233Q563 238 472 244V263Q554 261 591 261Q665 261 715 263V244Q672 243 665 236Q660 231 660 204V55Q527 -16 411 -16Q341 -16 280 3T166 61T83 168T52 328Q52 483 151 588T418
693Q485 693 557 666Q571 661 583 656T602 648T614 643T622 641Q628 641 630 664Q631 674 632 680H653L649 457H627Q624 523 612 582Q541 672 425 672Q306 672 225 580T143 340Q143 267 161 208T210 113T279 52T356 17T434 7Q516 7 562 38Q573 45 576 55T580 89Z"
/>
<glyph unicode="H" glyph-name="H" horiz-adv-x="796" d="M209 360H587V589Q587 645 582 650T510 659V678Q517 678 560 677T627 676Q647 676 690 677T737 678V659Q678 656 672 650Q667 645 667 589V87Q667 31 672 26Q678 20 737 17V-2Q733 -2 690 -1T627 0Q604
0 561 -1T510 -2V17Q577 21 582 26T587 87V337H209V87Q209 31 214 26T286 17V-2Q279 -2 236 -1T169 0Q149 0 106 -1T59 -2V17Q118 20 124 26Q129 31 129 87V589Q129 645 124 650Q118 656 59 659V678Q63 678 106 677T169 676Q192 676 235 677T286 678V659Q219 655
214 650T209 589V360Z" />
<glyph unicode="I" glyph-name="I" horiz-adv-x="352" d="M216 589V87Q216 31 221 26T293 17V-2Q286 -2 243 -1T176 0T110 -1T59 -2V17Q126 21 131 26T136 87V589Q136 645 131 650T59 659V678Q66 678 109 677T176 676T242 677T293 678V659Q226 655 221 650T216 589Z" />
<glyph unicode="J" glyph-name="J" horiz-adv-x="352" d="M50 659V678Q136 676 192 676Q212 676 255 677T302 678V659L268 657Q243 656 237 650Q232 645 232 589V97Q232 -7 217 -62T163 -157Q108 -212 44 -212Q14 -212 -3 -203T-20 -181Q-20 -164 -4 -149T35 -134Q53
-134 76 -149T112 -164Q136 -164 144 -132T152 7V590Q152 643 147 647Q141 653 50 659Z" />
<glyph unicode="K" glyph-name="K" horiz-adv-x="648" d="M209 325V87Q209 31 214 26T286 17V-2Q279 -2 236 -1T169 0Q149 0 106 -1T59 -2V17Q118 20 124 26Q129 31 129 87V589Q129 645 124 650Q118 656 59 659V678Q63 678 106 677T169 676Q192 676 235 677T286
678V659Q219 655 214 650T209 589V344Q227 341 238 341Q251 341 280 374T384 504Q479 627 479 645Q479 655 465 656Q460 657 406 659V678Q472 676 508 676Q526 676 561 677T603 678V659Q559 659 542 651Q528 644 480 585L321 390Q316 385 316 382Q316 380 329 364L582
64Q607 35 619 28T664 17V-2Q654 -2 615 -1T557 0Q517 0 441 -2V17Q496 17 496 33Q496 48 445 107L282 299Q270 315 258 319T209 325Z" />
<glyph unicode="L" glyph-name="L" horiz-adv-x="611" d="M129 87V589Q129 645 124 650Q118 656 59 659V678Q63 678 106 677T169 676Q191 676 239 677T300 678V659L259 657Q220 656 214 650Q209 645 209 589V87Q209 36 214 31T287 26Q414 26 532 35L567 165H589L567
-5Q535 -4 475 -3T395 -2Q281 0 206 0Q173 0 140 0T85 -1T59 -2V17Q118 20 124 26Q129 31 129 87Z" />
<glyph unicode="M" glyph-name="M" horiz-adv-x="944" d="M708 676H770Q794 676 836 677T880 678V659Q836 656 828 655Q818 654 814 650T810 589L815 87Q815 31 820 26Q826 20 851 19L885 17V-2Q883 -2 841 -1T775 0Q756 0 711 -1T659 -2V17L699 19Q724 20 730
26Q735 31 735 87Q735 181 732 365T728 641Q728 651 723 651T712 632L503 80Q498 66 493 58T479 40T465 23T456 7T449 -5T442 -9Q439 -9 436 1T420 47T391 126L185 634Q178 651 173 651Q167 651 167 643Q162 428 162 87Q162 30 167 26Q173 20 239 17V-2Q236 -2
201 -1T147 0Q130 0 97 -1T58 -2V17Q117 18 123 26Q128 32 129 87Q132 199 136 327T144 533T147 616Q147 645 144 648Q139 655 79 656V676H147Q200 676 249 682L482 111Q485 104 488 104Q492 104 495 112L708 676Z" />
<glyph unicode="N" glyph-name="N" horiz-adv-x="796" d="M248 17V-2Q244 -2 208 -1T154 0Q134 0 97 -1T54 -2V17Q100 19 111 22T123 38Q126 87 131 307T136 590Q136 643 131 648Q123 656 54 657V676H135Q181 676 231 682L639 141Q645 133 649 133T653 142Q653
196 651 369T648 589Q648 643 643 648Q637 654 558 659V678Q563 678 598 677T652 676Q669 676 704 677T743 678V659Q693 657 686 650Q682 646 681 589L670 -2Q670 -15 661 -15Q653 -15 642 0L174 619Q165 632 160 632T155 624L158 87Q158 32 163 28Q174 19 248
17Z" />
<glyph unicode="O" glyph-name="O" horiz-adv-x="778" d="M52 229T52 338T101 529T226 652T389 692T551 652T676 530T726 338T677 147T552 24T389 -16T227 24T102 146ZM635 192T635 338T567 577T389 671T211 578T143 338T211 99T389 5T567 98Z" />
<glyph unicode="P" glyph-name="P" horiz-adv-x="593" d="M129 87V589Q129 645 124 650Q118 656 59 659V678Q63 678 106 677T169 676Q197 676 233 679Q283 681 316 681Q430 681 490 630T551 492Q551 400 482 350T305 300Q266 300 209 305V86Q209 30 214 25Q221
18 300 16V-2Q287 -2 239 -1T169 0Q149 0 106 -1T59 -2V17Q118 20 124 26Q129 31 129 87ZM209 590V327Q257 321 285 321Q377 321 421 369T466 492Q466 565 418 612T273 660Q216 660 212 649Q209 644 209 590Z" />
<glyph unicode="Q" glyph-name="Q" horiz-adv-x="778" d="M339 -18L338 -12Q218 6 135 99T52 338Q52 447 101 529T226 652T389 692T551 652T676 530T726 338Q726 206 652 113T469 -4Q455 -7 433 -11T400 -18T373 -26T340 -40L262 -76L264 -80Q310 -74 339 -74Q399
-74 510 -108Q597 -134 628 -134Q681 -134 727 -102L736 -114Q692 -155 658 -173T581 -192Q520 -192 401 -154Q242 -103 225 -103Q218 -103 198 -108T166 -113Q148 -113 140 -103T131 -82Q131 -73 138 -73Q146 -73 164 -74T189 -75Q198 -75 204 -75T219 -72T233
-67T252 -60T273 -50T303 -36T339 -18ZM635 192T635 338T567 577T389 671T211 578T143 338T211 99T389 5T567 98Z" />
<glyph unicode="R" glyph-name="R" horiz-adv-x="648" d="M209 322V86Q209 30 214 25T286 16V-3Q279 -3 236 -2T169 -1Q149 -1 106 -2T59 -3V16Q118 19 124 25Q129 30 129 86V589Q129 645 124 650Q118 656 59 659V678Q63 678 106 677T169 676Q197 676 233 679Q283
681 301 681Q419 681 474 644Q511 620 531 584T551 505Q551 391 408 346Q375 335 375 333Q375 330 382 328L397 324Q438 313 467 293T514 251T541 197T554 138T559 74Q560 32 566 26Q573 19 631 17V-2Q543 0 477 0L476 83Q475 174 464 211T422 276Q393 303 362
312T274 322H209ZM209 590V350Q268 343 313 343Q392 343 431 389T471 496Q471 576 409 626Q367 660 273 660Q216 660 212 649Q209 644 209 590Z" />
<glyph unicode="S" glyph-name="S" horiz-adv-x="556" d="M93 188L118 55Q148 34 191 20T270 5Q337 5 378 46T420 143Q420 175 410 199T375 241T332 268T279 293Q229 314 205 325T149 355T103 392T79 437T68 497Q68 577 127 634T281 692Q340 692 391 665Q399 661
406 657T417 651T424 646T429 643T432 641T435 640Q441 640 444 679H464L459 495H438Q438 578 426 598Q409 625 371 648T278 671Q209 671 174 631T138 537Q138 478 173 447T304 376Q342 361 361 352T411 324T456 288T483 242T495 180Q495 97 430 41T275 -16Q200
-16 81 27L74 188H93Z" />
<glyph unicode="T" glyph-name="T" horiz-adv-x="611" d="M266 87V590Q266 645 261 650T191 655Q74 655 58 643Q46 634 42 618T30 537H10L12 705H33Q36 684 46 681Q79 673 306 676Q533 673 566 681Q576 684 579 705H600L602 537H582Q574 602 570 618T554 643Q538
655 421 655Q356 655 351 650T346 590V87Q346 32 351 27Q357 21 437 17V-2Q422 -2 375 -1T306 0T237 -1T175 -2V17Q255 21 261 27Q266 32 266 87Z" />
<glyph unicode="U" glyph-name="U" horiz-adv-x="759" d="M198 589V216Q198 162 212 131T260 77Q320 36 422 36Q520 36 564 81T609 220Q609 270 609 394T608 589Q608 643 602 649Q600 651 596 652T584 654T569 655T546 657T517 659V678Q522 678 558 677T612 676Q629
676 664 677T703 678V659Q650 655 645 649Q641 642 641 589L638 257Q637 174 625 130T572 48Q503 -16 378 -16Q262 -16 192 32Q150 62 134 98T118 193V589Q118 646 113 650Q107 655 57 659V678Q113 676 168 676Q208 676 288 678V659Q208 656 202 650Q198 646 198
589Z" />
<glyph unicode="V" glyph-name="V" horiz-adv-x="630" d="M638 678V659Q609 657 597 649T572 610L364 67Q357 51 346 37T325 7Q320 -1 316 -11T310 -24T303 -28Q302 -28 301 -28T299 -27T297 -25T296 -23T294 -20T292 -16T290 -11T288 -6T286 1T283 8L66 602Q51
641 41 649T-8 659V678Q44 676 106 676Q149 676 227 678V659L184 657Q159 656 151 651T143 635Q142 627 152 596L335 82Q339 72 342 72T349 82L536 600Q547 632 546 640Q546 652 525 655Q507 658 461 659V678Q525 676 557 676Q594 676 638 678Z" />
<glyph unicode="W" glyph-name="W" horiz-adv-x="963" d="M-3 659V678Q1 678 41 677T103 676Q125 676 166 677T214 678V659Q166 655 155 652T144 637T154 595L320 76Q322 71 324 71Q327 71 329 76L481 542L465 599Q453 642 443 649T386 659V678Q389 678 430 677T498
676Q521 676 565 677T616 678V659L566 655Q540 654 540 637Q540 628 547 603L690 76Q692 71 694 71Q697 71 699 76L869 599Q878 628 878 640T861 655Q845 658 802 659V678Q860 676 892 676Q917 676 971 678V659Q948 658 939 656T921 643T904 610L718 73Q713 57
708 49T693 29T675 3Q673 -1 671 -5T667 -12T665 -18T662 -22T659 -25T657 -27T653 -28Q647 -28 644 -21T633 14L499 479Q497 486 494 486Q492 486 490 480L347 70Q340 51 328 36T307 5Q304 -1 299 -11T292 -24T284 -28Q277 -28 267 2L67 608Q55 644 46 651T-3
659Z" />
<glyph unicode="X" glyph-name="X" horiz-adv-x="574" d="M4 659V678Q60 676 118 676Q161 676 243 678V659L189 656Q167 655 167 645Q167 638 182 613L312 393L422 569Q463 635 463 644Q463 656 438 657L387 659V678Q447 676 485 676Q526 676 570 678V659Q529
656 515 647T473 596L322 376L483 103Q517 46 534 33T593 17V-2Q539 0 479 0Q436 0 354 -2V17L381 18Q403 19 413 20T427 24T430 31Q430 37 410 71L266 316L131 109Q87 43 87 30Q87 20 133 18L164 17V-2Q163 -2 145 -2T104 -1T65 0Q25 0 -19 -2V17Q20 20 35 30T77
77L256 334L103 592Q78 635 62 646T4 659Z" />
<glyph unicode="Y" glyph-name="Y" horiz-adv-x="537" d="M379 659V678Q445 676 476 676Q523 676 561 678V659Q523 657 505 647T465 596L312 326V87Q312 32 317 27Q323 21 403 17V-2Q388 -2 341 -1T272 0T203 -1T141 -2V17Q221 21 227 27Q232 32 232 87V299L76
589Q54 630 35 644T-24 659V678Q-17 678 23 677T90 676Q156 676 212 678V659Q205 659 192 658T169 657T152 656Q135 655 135 646Q135 641 173 569L288 355Q296 341 298 341T308 355L420 569Q455 637 455 646Q455 654 429 657Q423 658 405 658T379 659Z" />
<glyph unicode="Z" glyph-name="Z" horiz-adv-x="556" d="M48 537H28L51 705H70Q71 686 77 683Q89 676 260 676H519Q529 676 529 669T518 646L132 43Q127 35 127 32Q127 27 141 27Q404 27 506 35Q519 95 531 165H553L542 -5Q497 -4 412 -2Q310 0 248 0Q196 0 155
0T92 0T55 -1T34 -2T27 -2Q17 -2 17 5Q17 11 28 28L415 634Q423 645 423 649Q423 655 413 655Q141 655 111 650Q83 645 74 628T48 537Z" />
<glyph unicode="[" glyph-name="bracketleft" horiz-adv-x="333" d="M114 -163V728L285 722V702L210 701Q169 701 163 695Q158 688 158 647V-82Q158 -123 163 -130Q169 -136 210 -136L285 -137V-157L114 -163Z" />
<glyph unicode="\" glyph-name="backslash" horiz-adv-x="278" d="M278 -16H238L-34 738H6L278 -16Z" />
<glyph unicode="]" glyph-name="bracketright" horiz-adv-x="333" d="M219 728V-163L48 -157V-137L123 -136Q164 -136 170 -130Q175 -123 175 -82V647Q175 688 170 695Q164 701 123 701L48 702V722L219 728Z" />
<glyph unicode="^" glyph-name="asciicircum" horiz-adv-x="600" d="M161 304H142L292 652H308L458 304H439L300 543L161 304Z" />
<glyph unicode="_" glyph-name="underscore" horiz-adv-x="500" d="M0 -125V-75H500V-125H0Z" />
<glyph unicode="`" glyph-name="grave" horiz-adv-x="259" d="M178 468L7 577Q-14 591 -14 606Q-14 618 -6 625T13 633Q28 633 48 615L200 468H178Z" />
<glyph unicode="a" glyph-name="a" horiz-adv-x="444" d="M419 52L425 38L396 19Q350 -13 336 -13Q308 -13 288 35Q211 -13 145 -13Q91 -13 65 14T38 80Q38 210 294 229Q297 283 297 299Q297 354 275 379T208 405Q168 405 143 388T117 342Q117 338 118 330T119
315Q119 301 100 288Q83 277 76 277Q63 277 63 299Q63 345 104 384T222 423Q361 423 361 279Q361 247 358 167T354 81Q354 36 376 36Q390 36 419 52ZM286 54L293 211Q209 208 157 180T105 94Q105 59 125 39T180 19Q232 19 286 54Z" />
<glyph unicode="b" glyph-name="b" horiz-adv-x="519" d="M87 94V629Q87 683 82 688T61 693H20V710L161 728Q154 673 154 535V384Q215 417 273 417Q364 417 417 356T471 205Q471 107 409 47T255 -13Q200 -13 127 20Q107 7 87 -13L77 -10Q87 50 87 94ZM154 362V35Q192
5 238 5Q302 5 349 56T396 200Q396 284 353 336T244 389Q197 389 154 362Z" />
<glyph unicode="c" glyph-name="c" horiz-adv-x="463" d="M405 69L415 57Q328 -13 241 -13Q156 -13 99 41T42 197Q42 289 100 356T252 423Q321 423 362 391T403 329Q403 314 388 304T362 293Q354 293 350 301T340 330Q321 405 249 405Q186 405 149 352T112 221Q112
126 161 78T283 29Q349 29 405 69Z" />
<glyph unicode="d" glyph-name="d" horiz-adv-x="519" d="M367 385V629Q367 683 362 688T341 693H286V710L441 728Q434 673 434 535V59Q434 30 436 24T452 17H494V0L367 -7Q369 19 369 36Q369 38 367 39Q366 39 362 37T350 30T331 20Q273 -7 220 -7Q160 -7 119
24T60 100T42 194Q42 299 106 358T255 417Q314 417 367 385ZM367 59V344Q328 399 262 399Q204 399 161 351T117 210Q117 129 156 80T268 31Q324 31 367 59Z" />
<glyph unicode="e" glyph-name="e" horiz-adv-x="463" d="M413 249L346 240L115 242Q113 234 113 205Q113 128 155 77T276 25Q317 25 348 42T414 95L426 83Q344 -13 240 -13Q152 -13 95 44T38 195Q38 287 97 355T249 423Q329 423 376 374Q413 336 413 249ZM116
260L346 261Q348 326 324 365T247 405T159 365T116 260Z" />
<glyph unicode="f" glyph-name="f" horiz-adv-x="315" d="M160 410H308L301 388L160 385V49Q160 32 164 27T188 20Q213 18 253 15V-2Q177 0 136 0Q92 0 30 -2V15Q70 17 79 19T91 29Q93 37 93 82V385H30V410H93V515Q93 574 100 613T133 684Q176 738 244 738Q285
738 317 719T349 675Q349 657 327 639T293 620Q288 620 285 649Q283 677 268 697T225 718Q193 718 177 687T160 580V410Z" />
<glyph unicode="g" glyph-name="g" horiz-adv-x="444" d="M422 401L427 363Q389 360 367 355Q357 352 357 348Q357 346 359 342T362 335Q377 298 377 264Q377 134 227 99L110 72Q86 67 86 55Q86 42 90 36T99 29T115 28Q179 28 209 28T285 24T353 14T399 -7T432
-40T441 -90Q441 -141 405 -176T318 -227T209 -242Q117 -242 73 -213T28 -136Q28 -74 89 -44Q104 -36 119 -31T139 -23T144 -18Q144 -14 134 -14H110Q92 -14 85 -12T72 3Q62 25 62 57Q62 73 75 79T145 98Q175 105 175 107L158 114Q46 153 46 263Q46 337 95 380T212
423Q281 423 334 378Q369 396 422 401ZM113 272Q113 206 146 167T228 118Q310 154 310 268Q310 325 285 365T213 405T140 368T113 272ZM218 -224Q292 -224 346 -194T400 -116Q400 -74 355 -53T199 -32H160Q81 -65 81 -131Q81 -168 116 -196T218 -224Z" />
<glyph unicode="h" glyph-name="h" horiz-adv-x="537" d="M161 326V82Q161 30 166 24Q172 16 214 15V-2Q211 -2 178 -1T127 0Q107 0 73 -1T33 -2V15Q83 16 89 24Q94 30 94 82V629Q94 683 89 688T68 693H27V710L168 728Q161 673 161 535V359Q161 352 163 352Q167
352 171 356Q244 417 314 417Q387 417 419 376T452 250V82Q452 30 457 24Q463 16 505 15V-2Q502 -2 469 -1T418 0Q398 0 364 -1T324 -2V15Q374 16 380 24Q385 30 385 82V259Q385 379 285 379Q228 379 161 326Z" />
<glyph unicode="i" glyph-name="i" horiz-adv-x="259" d="M101 82V329Q101 383 96 388T75 393H26L32 411L171 417Q168 347 168 290V82Q168 30 173 24Q179 16 229 15V-2Q226 -2 189 -1T134 0Q114 0 76 -1T32 -2V15Q90 16 96 24Q101 30 101 82ZM181 587Q181 570
167 554T130 537Q114 537 105 548T95 574Q95 591 109 607T146 623Q162 623 171 613T181 587Z" />
<glyph unicode="j" glyph-name="j" horiz-adv-x="241" d="M158 290V17Q158 -57 145 -101T99 -177Q58 -220 1 -220Q-52 -220 -52 -195Q-52 -181 -38 -168T-6 -155Q9 -155 22 -164Q45 -181 58 -181Q78 -181 84 -158Q91 -132 91 -38V329Q91 383 86 388T65 393H16L22
411L161 417Q158 347 158 290ZM173 587Q173 570 159 554T122 537Q106 537 97 548T87 574Q87 591 101 607T138 623Q154 623 163 613T173 587Z" />
<glyph unicode="k" glyph-name="k" horiz-adv-x="481" d="M161 211V82Q161 30 166 24Q172 16 214 15V-2Q211 -2 178 -1T127 0Q107 0 73 -1T33 -2V15Q83 16 89 24Q94 30 94 82V629Q94 683 89 688T68 693H27V710L168 728Q161 673 161 535V232Q184 225 205 225Q221
225 234 242L313 334Q347 375 347 383Q347 387 346 389T339 392T325 394T298 395V412Q300 412 330 411T375 410Q389 410 416 411T449 412V395Q408 394 395 389T359 358L263 251Q258 246 258 242Q258 241 271 225L430 53Q458 22 464 19T501 15V-2Q441 0 413 0Q377
0 315 -2V15Q358 17 358 26Q358 34 326 71L225 186Q210 202 201 206T161 211Z" />
<glyph unicode="l" glyph-name="l" horiz-adv-x="259" d="M101 82V629Q101 683 96 688T75 693H34V710L175 728Q168 673 168 535V82Q168 30 173 24Q179 16 229 15V-2Q226 -2 189 -1T134 0Q114 0 76 -1T32 -2V15Q90 16 96 24Q101 30 101 82Z" />
<glyph unicode="m" glyph-name="m" horiz-adv-x="796" d="M161 326V82Q161 30 166 24Q172 16 214 15V-2Q211 -2 178 -1T127 0Q107 0 73 -1T33 -2V15Q83 16 89 24Q94 30 94 82V329Q94 383 89 388T68 393H29L35 411L161 417Q161 408 159 384T157 355Q157 349 160
349T171 356Q242 417 314 417Q379 417 413 368Q422 355 424 355Q425 355 426 356T434 361T448 369Q531 417 582 417Q640 417 670 387Q711 347 711 252V82Q711 30 716 24Q722 16 764 15V-2Q761 -2 728 -1T677 0Q657 0 623 -1T583 -2V15Q633 16 639 24Q644 30 644
82V250Q644 316 622 347T550 379Q498 379 428 333Q436 301 436 262V82Q436 30 441 24Q447 16 489 15V-2Q486 -2 453 -1T402 0Q382 0 348 -1T308 -2V15Q358 16 364 24Q369 30 369 82V250Q369 316 349 347T284 379Q222 379 161 326Z" />
<glyph unicode="n" glyph-name="n" horiz-adv-x="537" d="M161 326V82Q161 30 166 24Q172 16 214 15V-2Q211 -2 178 -1T127 0Q107 0 73 -1T33 -2V15Q83 16 89 24Q94 30 94 82V329Q94 383 89 388T68 393H29L35 411L161 417Q161 408 159 384T157 355Q157 349 160
349T171 356Q242 417 314 417Q379 417 413 383Q452 345 452 252V82Q452 30 457 24Q463 16 505 15V-2Q502 -2 469 -1T418 0Q398 0 364 -1T324 -2V15Q374 16 380 24Q385 30 385 82V250Q385 379 285 379Q228 379 161 326Z" />
<glyph unicode="o" glyph-name="o" horiz-adv-x="481" d="M38 110T38 205T92 361T240 423T388 362T442 205T388 49T240 -13T92 48ZM113 298T113 205T146 59T240 5T334 58T367 205T334 351T240 405T146 352Z" />
<glyph unicode="p" glyph-name="p" horiz-adv-x="519" d="M154 19V-182Q154 -208 159 -214Q162 -220 241 -225V-242Q222 -242 178 -241T120 -240Q100 -240 62 -241T18 -242V-225Q76 -224 82 -216Q87 -210 87 -158V329Q87 383 82 388T61 393H12L18 411L154 417Q151
375 151 370T154 365Q158 365 187 383Q245 417 300 417Q375 417 423 363T471 224Q471 126 408 63T251 0Q202 0 154 19ZM154 344V57Q186 18 249 18Q314 18 356 71T399 207Q399 283 360 333T259 383Q213 383 154 344Z" />
<glyph unicode="q" glyph-name="q" horiz-adv-x="519" d="M428 428L443 419Q432 390 432 324V-158Q432 -210 437 -216Q443 -224 494 -225V-242Q492 -242 456 -241T399 -240Q384 -240 342 -241T284 -242V-225Q357 -220 360 -214Q365 -208 365 -182V18Q365 25 360
25Q358 25 314 12Q271 0 228 0Q143 0 93 58T42 201Q42 295 104 356T261 417Q324 417 384 385Q408 402 428 428ZM365 46V356Q324 399 263 399Q196 399 157 349T117 215Q117 134 160 81T275 28Q325 28 365 46Z" />
<glyph unicode="r" glyph-name="r" horiz-adv-x="333" d="M150 417L145 306Q145 301 147 301Q148 301 150 305Q176 376 202 399T258 423Q280 423 297 411T322 387T330 370Q330 362 313 349T287 336Q277 336 259 354Q238 375 226 375Q203 375 179 332T155 246V57Q155
30 158 27Q164 20 235 15V-2Q222 -2 181 -1T122 0Q105 0 68 -1T27 -2V15Q77 16 83 24Q88 30 88 82V329Q88 383 83 388T62 393H22L28 411L150 417Z" />
<glyph unicode="s" glyph-name="s" horiz-adv-x="389" d="M47 47Q47 58 59 72T79 87Q84 87 101 63Q123 32 143 19T190 5Q228 5 252 29T276 85Q276 118 254 135T167 181Q105 209 80 235T55 299Q55 348 96 385T208 423Q264 423 291 401T318 355Q318 342 307 335T281
328Q273 328 271 333T265 361Q257 405 205 405Q164 405 140 381T115 325Q115 297 134 279T215 234Q286 203 311 180T336 112Q336 60 292 24T175 -13Q120 -13 84 8T47 47Z" />
<glyph unicode="t" glyph-name="t" horiz-adv-x="315" d="M275 388L154 385Q150 313 150 265V170Q150 136 150 121T152 86T157 59T168 44T185 33T210 31Q242 31 294 52L296 38Q215 -13 154 -13Q115 -13 99 6T83 73V300Q83 370 80 376Q78 382 66 382Q59 382 50
382T38 381Q33 381 33 383Q33 384 34 385Q36 387 37 388L146 534Q150 539 153 539Q158 539 158 533Q158 531 157 519T154 477T150 410H282L275 388Z" />
<glyph unicode="u" glyph-name="u" horiz-adv-x="537" d="M30 393L35 410L158 417Q152 144 152 124Q152 74 172 54T242 34Q301 34 374 68Q379 313 379 363Q379 385 371 389T316 393L321 411L446 417Q441 120 441 59Q441 30 443 24T460 17H500L501 0L374 -7L377
41Q377 47 374 47T365 44Q259 -7 184 -7Q132 -7 108 22T84 114Q84 152 87 235T90 363Q90 385 82 389T30 393Z" />
<glyph unicode="v" glyph-name="v" horiz-adv-x="426" d="M295 395V412Q341 410 367 410Q396 410 434 412V395Q403 395 395 390T375 358L248 66Q244 56 240 51T229 37T215 18Q211 12 208 5T202 -5T198 -10T192 -13T187 -12T184 -6T181 3T176 20T168 45T156 79T139
124L52 344Q35 387 27 391Q20 394 -5 395V412Q37 410 82 410Q115 410 175 412V395Q134 393 124 391T114 379Q114 373 120 358L221 89Q226 74 229 74T238 87L340 339Q353 370 353 380Q353 393 295 395Z" />
<glyph unicode="w" glyph-name="w" horiz-adv-x="685" d="M8 395V412Q13 412 42 411T87 410Q118 410 172 412V395Q156 394 150 394T135 392T123 387T120 379Q120 376 126 358L223 83Q227 74 230 74T238 87L337 343Q321 385 318 388Q314 392 279 395V412Q282 412
315 411T364 410T411 411T448 412V395Q409 393 400 390Q392 387 392 378Q392 376 397 358L491 81Q493 74 497 74Q500 74 504 87L596 339Q608 372 608 380Q608 390 595 392Q589 393 574 394T555 395V412Q597 410 621 410Q647 410 681 412V395Q653 395 646 390T628
358L516 73Q509 55 489 28Q482 18 477 9T471 -4T467 -10T462 -13Q460 -13 459 -12T456 -9T454 -3T451 7T447 22T442 42T434 69T423 103T408 145L353 299Q350 304 349 304Q346 304 344 299L247 66Q242 53 219 23Q213 15 209 8T204 -4T200 -10T194 -13Q192 -13 191
-12T188 -9T185 -2T182 9T178 26T171 49T161 79T148 117T130 164L61 344Q47 383 42 388T8 395Z" />
<glyph unicode="x" glyph-name="x" horiz-adv-x="407" d="M167 202L68 357Q53 382 42 387T2 395V412Q5 412 39 411T90 410Q108 410 142 411T180 412V395Q131 392 131 387T158 341L220 243L285 341Q313 377 313 387Q313 395 266 395V412Q308 410 333 410Q353 410
393 412V395Q362 393 354 388T326 357L230 227L342 53Q358 28 369 23T408 15V-2Q405 -2 371 -1T321 0Q303 0 269 -1T230 -2V15Q280 15 280 23Q280 25 252 69L177 187L94 69Q67 30 67 23Q67 15 114 15V-2Q72 0 47 0Q27 0 -13 -2V15Q7 16 15 18T31 27T53 52L167 202Z"
/>
<glyph unicode="y" glyph-name="y" horiz-adv-x="426" d="M293 395V412Q339 410 366 410Q394 410 432 412V395Q402 395 393 389Q384 384 374 358L241 23Q228 -9 214 -50T191 -114T170 -161T145 -200Q107 -242 43 -242Q26 -242 26 -234Q26 -222 40 -204T79 -179Q90
-176 105 -173T125 -168T137 -164T147 -157T154 -147T162 -131Q198 -48 198 -28Q198 -20 185 12L51 344Q35 383 30 388T-6 395V412Q36 410 80 410Q114 410 174 412V395Q133 393 123 391T112 379Q112 372 118 358L229 84Q233 74 237 74Q240 74 246 87L331 319Q351
371 351 381Q351 394 293 395Z" />
<glyph unicode="z" glyph-name="z" horiz-adv-x="389" d="M345 105H364L357 -5Q338 -4 223 -2Q131 0 118 0Q98 0 71 0T30 -1Q21 -1 21 3T28 17L257 373Q266 387 266 390T259 393H171Q114 393 93 390T65 378T53 346L46 317H29L41 415Q59 414 157 412Q257 410 275
410H343Q351 410 351 405Q351 402 344 391L109 26Q106 21 106 19Q106 16 114 16H144Q275 16 329 22Q338 61 345 105Z" />
<glyph unicode="{" glyph-name="braceleft" horiz-adv-x="389" d="M39 280V285Q117 303 143 333T170 442V506Q170 580 176 614T204 677Q249 737 351 738V718Q275 714 245 674T214 562V480Q214 378 189 336T83 284V281Q163 272 188 230T214 85V3Q214 -68 244 -108T351
-153V-173Q249 -172 204 -112Q182 -84 176 -50T170 59V123Q170 201 144 231T39 280Z" />
<glyph unicode="|" glyph-name="bar" horiz-adv-x="222" d="M90 -250V750H132V-250H90Z" />
<glyph unicode="}" glyph-name="braceright" horiz-adv-x="389" d="M350 285V280Q272 262 246 232T219 123V59Q219 -15 213 -49T185 -112Q140 -172 38 -173V-153Q114 -149 144 -109T175 3V85Q175 187 200 229T306 281V284Q226 293 201 335T175 480V562Q175 633
145 673T38 718V738Q140 737 185 677Q207 649 213 615T219 506V442Q219 364 245 334T350 285Z" />
<glyph unicode="~" glyph-name="asciitilde" horiz-adv-x="600" d="M40 161H15Q33 244 72 279T153 314Q194 314 305 269T453 224Q523 224 560 333H585Q579 311 574 297T557 258T532 218T495 190T444 178Q403 178 292 223T146 268Q107 268 80 238T40 161Z" />
</font>
</defs>
</svg>
