<?xml version="1.0" standalone="no"?> <!DOCTYPE svg PUBLIC "-//W3C//DTD SVG 1.0//EN" "http://www.w3.org/TR/2001/REC-SVG-20010904/DTD/svg10.dtd" > <svg xmlns="http://www.w3.org/2000/svg" width="100%" height="100%">
<defs >
<font id="minionprodisp" horiz-adv-x="368" ><font-face
    font-family="Minion Pro Disp"
    units-per-em="1000"
    panose-1="2 4 5 3 6 2 1 2 2 3"
    ascent="727"
    descent="-273"
    alphabetic="0" />
<missing-glyph horiz-adv-x="500" d="M0 0V700H500V0H0ZM250 395L420 650H80L250 395ZM280 350L450 95V605L280 350ZM80 50H420L250 305L80 50ZM50 605V95L220 350L50 605Z" />
<glyph unicode=" " glyph-name="space" horiz-adv-x="180" />
<glyph unicode="!" glyph-name="exclam" horiz-adv-x="263" d="M130 662H131Q178 662 178 634Q178 627 171 555Q163 486 140 195Q136 190 130 190T121 195Q107 393 90 555Q83 627 83 634Q83 662 130 662ZM131 -12H130Q111 -12 99 1T86 36Q86 55 99 69T131 83Q151
83 164 69T177 36Q177 14 164 1T131 -12Z" />
<glyph unicode="&quot;" glyph-name="quotedbl" horiz-adv-x="255" d="M96 709L101 705Q101 700 77 516L63 507Q49 659 39 682L96 709ZM212 709L216 705Q215 690 206 614T193 516L180 507Q159 675 156 682L212 709Z" />
<glyph unicode="#" glyph-name="numbersign" horiz-adv-x="457" d="M419 445L411 397H324L295 267H380L373 219H286L252 55H229L262 219H156L122 55H98L133 219H38L46 267H144L170 397H78L85 445H180L210 592H234L203 445H309L339 592H363L334 445H419ZM300 397H194L168
267H272L300 397Z" />
<glyph unicode="$" glyph-name="dollar" horiz-adv-x="457" d="M246 361L281 346Q408 294 408 187Q408 119 365 74T246 20V-65H222V18Q131 18 72 59Q61 106 48 183L61 187Q78 131 116 88T222 38V288L178 309Q68 360 68 452Q68 512 108 555T222 608V685H246V610Q293
610 333 596Q348 591 365 588Q377 509 384 470L371 467Q363 492 356 507T335 542T299 574T246 590V361ZM222 372V591Q176 588 152 556T127 484Q127 410 222 372ZM246 278V39Q292 44 317 75T342 151Q342 191 325 220T258 273L246 278Z" />
<glyph unicode="%" glyph-name="percent" horiz-adv-x="659" d="M539 640L144 -24L126 -9L518 656L539 640ZM176 635H177Q238 635 271 581T304 465T271 350T176 296T81 349T48 464Q48 503 60 540T103 606T176 635ZM177 619H176Q156 619 142 603T122 560T113 511T110
465Q110 443 112 421T121 372T142 329T177 312Q198 312 212 328T232 372T240 420T243 464Q243 619 177 619ZM490 327H491Q551 327 584 274T618 158Q618 120 606 83T563 18T490 -11Q428 -11 394 42T360 157Q360 219 394 273T490 327ZM490 312H489Q469 312 455 296T434
254T425 204T422 158Q422 136 424 114T434 65T455 22T491 5Q511 5 525 21T545 65T554 114T556 157Q556 180 554 203T545 252T525 295T490 312Z" />
<glyph unicode="&amp;" glyph-name="ampersand" horiz-adv-x="689" d="M694 423V411Q661 406 640 394T611 372T581 332Q540 275 490 194Q620 60 653 -11L648 -17Q612 -13 579 0T534 24Q529 30 514 47T477 88T441 128Q387 54 340 21T242 -12Q156 -12 105 41T54
163Q54 177 56 190T62 214T72 237T84 256T101 275T119 291T139 308T160 323T184 339T207 355Q130 426 130 502Q130 567 177 613T285 660Q345 660 386 622T428 526Q428 471 385 439Q357 416 297 377Q430 256 476 208Q512 265 540 329Q559 369 550 385T487 411V423H694ZM277
640H276Q244 640 220 610T195 530Q195 491 216 460T283 389Q359 442 359 525Q359 574 337 607T277 640ZM268 49H269Q315 49 357 77T427 144Q338 243 222 342Q131 280 131 195Q131 124 173 87T268 49Z" />
<glyph unicode="&apos;" glyph-name="quotesingle" horiz-adv-x="140" d="M96 709L101 705Q101 700 77 516L64 508Q50 659 40 682L96 709Z" />
<glyph unicode="(" glyph-name="parenleft" horiz-adv-x="304" d="M269 -160L259 -171Q54 -23 54 269V270Q54 561 259 710L269 698Q194 632 154 517T114 269Q114 135 154 20T269 -160Z" />
<glyph unicode=")" glyph-name="parenright" horiz-adv-x="304" d="M250 269V268Q250 -24 45 -170L35 -160Q111 -95 150 20T190 269T151 518T35 699L45 710Q250 562 250 269Z" />
<glyph unicode="*" glyph-name="asterisk" horiz-adv-x="358" d="M322 515L200 489L234 362L223 356L157 476L45 408L38 418L130 506L37 602L44 611L155 541L212 662L222 659L199 531L322 527V515Z" />
<glyph unicode="+" glyph-name="plus" horiz-adv-x="516" d="M476 214H281V0H237V214H42V251H237V444H281V251H476V214Z" />
<glyph unicode="," glyph-name="comma" horiz-adv-x="197" d="M81 112H82Q108 112 132 86T157 19Q157 -63 46 -99L41 -86Q109 -58 109 -4Q109 20 93 36T50 59Q42 59 42 77Q42 92 54 102T81 112Z" />
<glyph unicode="-" glyph-name="hyphen" horiz-adv-x="330" d="M275 242L261 201H55L69 242H275Z" />
<glyph unicode="." glyph-name="period" horiz-adv-x="197" d="M98 -12H97Q78 -12 66 0T54 34Q54 52 66 65T98 79Q116 79 129 66T142 34Q142 13 130 1T98 -12Z" />
<glyph unicode="/" glyph-name="slash" horiz-adv-x="311" d="M273 662L65 -44H32L239 662H273Z" />
<glyph unicode="0" glyph-name="zero" horiz-adv-x="457" d="M227 635H228Q280 635 319 606T381 527T413 424T424 312Q424 232 407 163T343 41T227 -12Q175 -12 136 17T74 96T42 199T31 311Q31 391 49 461T113 583T227 635ZM227 615H226Q193 615 170 589T135 516T118
420T112 312T117 204T135 108T171 35T228 8T284 34T320 107T337 203T343 311T338 419T320 515T284 588T227 615Z" />
<glyph unicode="1" glyph-name="one" horiz-adv-x="457" d="M368 0H107V12Q172 18 186 33T200 104V508Q200 549 192 559T144 571L108 573V583Q191 597 275 635V104Q275 47 289 33T368 12V0Z" />
<glyph unicode="2" glyph-name="two" horiz-adv-x="457" d="M407 127L420 121Q408 90 388 0H26V12Q130 122 184 187Q307 339 307 436Q307 502 276 539T185 577Q160 577 139 569T100 545T74 518T52 487L40 497L94 578Q146 635 223 635Q289 635 336 591T384 472Q384
410 355 360T251 226L106 66H309Q350 66 367 75T407 127Z" />
<glyph unicode="3" glyph-name="three" horiz-adv-x="457" d="M270 381V378Q331 365 368 323T405 226Q405 168 375 120T303 45T219 3T150 -12T97 -2T61 18Q43 35 43 50Q43 68 64 81Q74 89 83 81Q135 29 202 29Q260 29 293 69T327 189Q327 258 288 293T200 328Q174
328 142 318L138 333Q214 358 252 391T290 480Q290 529 263 556T194 583Q125 583 76 509L66 518L106 583Q153 635 225 635H226Q289 635 327 599T366 506Q366 467 338 436Q314 410 270 381Z" />
<glyph unicode="4" glyph-name="four" horiz-adv-x="457" d="M435 182H344V97Q344 45 356 32T424 12V0H186V12Q244 18 257 31T270 98V182H19V202Q185 448 322 635H344V219H435V182ZM270 219V525H268Q160 379 65 219H270Z" />
<glyph unicode="5" glyph-name="five" horiz-adv-x="457" d="M132 557L104 351Q195 390 227 390Q313 390 362 340T411 224Q411 132 327 60Q244 -12 157 -12Q127 -12 100 -2T63 19Q45 36 45 49Q45 68 65 82Q74 89 85 79Q141 28 205 28T302 71T336 182Q336 254 296
298T181 342Q125 342 77 321L114 623H390L395 615L370 557H132Z" />
<glyph unicode="6" glyph-name="six" horiz-adv-x="457" d="M126 330L191 363Q229 381 253 381Q329 381 378 330T428 205Q428 116 374 52T234 -12Q147 -12 91 55T34 236Q34 314 58 380T121 490T200 562T283 607Q338 628 406 640L411 623Q360 613 307 587Q158 516
126 330ZM217 334H216Q164 334 121 308Q116 280 116 230Q116 137 151 73T245 8Q301 8 325 56T349 168Q349 236 315 285T217 334Z" />
<glyph unicode="7" glyph-name="seven" horiz-adv-x="457" d="M428 623L433 614Q234 161 158 -2L96 -12L91 -3Q267 283 385 557H159Q110 557 96 546T62 484H48Q55 522 64 623H428Z" />
<glyph unicode="8" glyph-name="eight" horiz-adv-x="457" d="M236 635H237Q305 635 349 593T393 489Q393 442 366 409Q348 389 280 343Q345 305 380 266T415 169Q415 88 354 38T225 -12Q147 -12 95 32T42 155Q42 210 87 251Q121 282 179 315Q66 379 66 473Q66
538 114 586T236 635ZM229 615H228Q185 615 160 582T134 504Q134 475 143 453T175 411T214 381T264 352Q326 400 326 488Q326 552 297 583T229 615ZM235 8H236Q283 8 312 43T342 140Q342 169 331 192T295 237T251 271T194 305Q159 281 137 243T115 161Q115 89 149
49T235 8Z" />
<glyph unicode="9" glyph-name="nine" horiz-adv-x="457" d="M231 635H232Q317 635 368 563T419 386Q419 258 357 161T194 19Q119 -14 58 -14L56 1Q162 22 234 100T332 300L263 262Q235 246 204 246Q127 246 80 297T33 426Q33 503 88 569T231 635ZM217 615H216Q163
615 138 567T112 462Q112 389 147 341T245 292Q270 292 296 300T335 320Q338 389 338 391Q338 428 333 463T316 535T278 593T217 615Z" />
<glyph unicode=":" glyph-name="colon" horiz-adv-x="197" d="M98 391H99Q117 391 129 378T142 346T130 314T98 301T67 314T54 346Q54 366 66 378T98 391ZM99 -12H98Q79 -12 67 0T55 34Q55 52 67 65T99 79Q117 79 130 66T143 34Q143 13 131 1T99 -12Z" />
<glyph unicode=";" glyph-name="semicolon" horiz-adv-x="197" d="M97 391H98Q116 391 128 378T141 346T129 314T97 301T66 314T53 346Q53 366 65 378T97 391ZM81 112H82Q108 112 132 86T157 19Q157 -63 46 -99L42 -86Q109 -58 109 -4Q109 20 93 36T50 59Q42 62
42 78Q42 92 54 102T81 112Z" />
<glyph unicode="&lt;" glyph-name="less" horiz-adv-x="506" d="M458 0L49 212V250L458 463V420L94 232V231L458 43V0Z" />
<glyph unicode="=" glyph-name="equal" horiz-adv-x="516" d="M475 298H42V335H475V298ZM475 130H42V167H475V130Z" />
<glyph unicode="&gt;" glyph-name="greater" horiz-adv-x="506" d="M458 212L49 0V43L413 231V232L49 420V463L458 250V212Z" />
<glyph unicode="?" glyph-name="question" horiz-adv-x="335" d="M187 203L180 191Q144 205 107 242T69 319Q69 366 148 429Q150 431 161 439T178 452T193 465T210 481T224 496T236 514T244 531T247 549Q247 577 230 592T184 608Q158 608 134 595T94 570T77 557Q67
557 54 569T40 595T59 627Q79 643 103 652T140 662H141Q198 662 244 613T290 505Q290 456 249 418L212 389Q176 360 159 338T141 293Q141 264 152 245T187 203ZM156 -12H155Q135 -12 123 1T110 36Q110 56 123 69T156 83T189 70T202 36Q202 14 189 1T156 -12Z" />
<glyph unicode="@" glyph-name="at" horiz-adv-x="718" d="M516 -27L523 -40Q436 -97 332 -97Q212 -97 129 -16T45 207Q45 290 76 360T158 476T275 547T411 573Q532 573 604 500T677 318Q677 217 612 145T451 73Q416 73 409 90T407 140L421 208L419 209Q392 167
338 120T254 72Q235 72 223 92T210 153Q210 264 287 341Q362 416 443 416Q458 416 490 408Q510 404 516 404Q500 339 470 179Q462 136 465 120T488 105Q554 107 599 164T645 315Q645 420 579 483T407 546Q268 546 183 452T97 212Q97 160 112 112T158 24T240 -41T359
-65Q405 -65 449 -53T516 -27ZM400 387H399Q363 387 337 356Q313 329 296 280T278 178Q278 125 300 125Q317 125 354 159T427 250Q440 296 455 377Q433 387 400 387Z" />
<glyph unicode="A" glyph-name="A" horiz-adv-x="654" d="M646 0H412V12Q456 18 467 29T470 70Q461 101 406 255H201Q183 204 148 97Q132 47 143 32T211 12V0H12V12Q57 17 75 35T119 118L330 656L346 662Q465 321 540 116Q564 51 582 34T646 12V0ZM398 282L310
540H308Q285 482 211 282H398Z" />
<glyph unicode="B" glyph-name="B" horiz-adv-x="554" d="M334 349V347Q421 335 471 296T522 187Q522 93 431 39Q364 0 240 0H32V12Q92 17 106 32T120 113V537Q120 602 108 617T41 636V648H278Q383 648 428 614Q482 576 482 502Q482 437 439 401T334 349ZM198
353H237Q324 353 360 387T396 489Q396 548 364 588T265 629Q236 629 213 622Q198 616 198 567V353ZM198 335V120Q198 63 216 42T279 21Q345 21 387 60T430 177Q430 335 237 335H198Z" />
<glyph unicode="C" glyph-name="C" horiz-adv-x="643" d="M608 160L620 156Q591 61 565 12Q452 -14 393 -14Q303 -14 233 15T121 92T58 197T37 318Q37 473 141 567T414 662Q450 662 485 657T551 645T586 637Q590 607 595 563T604 500L591 496Q556 641 391 641Q268
641 200 552T131 337Q131 192 202 100T396 7Q531 7 608 160Z" />
<glyph unicode="D" glyph-name="D" horiz-adv-x="707" d="M38 648H309Q500 648 585 564Q669 483 669 349Q669 177 550 84Q443 0 255 0H30V12Q91 16 105 32T120 113V535Q120 602 107 617T38 637V648ZM199 557V119Q199 61 224 42T300 23Q436 23 506 112T577 334Q577
521 448 593Q386 629 282 629Q236 629 214 621Q199 614 199 557Z" />
<glyph unicode="E" glyph-name="E" horiz-adv-x="530" d="M501 150L515 147Q502 76 481 0H25V12Q90 17 105 33T120 113V529Q120 599 108 614T40 636V648H461Q461 596 468 517L454 514Q442 569 422 595Q408 614 382 620T295 627H228Q207 627 203 622T198 596V347H297Q344
347 364 354T392 374T405 423H417V242H405Q396 295 380 308T299 322H198V115Q198 52 220 36Q239 21 322 21Q388 21 413 29T456 59Q478 89 501 150Z" />
<glyph unicode="F" glyph-name="F" horiz-adv-x="494" d="M464 512L450 510Q441 554 426 581Q412 609 387 618T293 627H229Q208 627 203 622T198 596V338H306Q371 338 388 351T413 412H426V233H413Q405 284 388 298T306 313H198V115Q198 48 212 33T288 12V0H35V12Q93
17 106 32T120 115V534Q120 600 108 615T42 636V648H456Q456 590 464 512Z" />
<glyph unicode="G" glyph-name="G" horiz-adv-x="686" d="M668 292V280Q627 275 617 263T607 205V116Q607 50 616 21Q607 19 570 11T514 -2T462 -10T401 -14Q239 -14 139 77T38 318Q38 401 69 467T153 575T273 639T417 662Q453 662 489 657T558 645T597 636Q603
569 612 491L598 487Q573 640 398 640Q280 640 206 555T131 331Q131 273 147 218T196 115T283 37T409 7Q461 7 498 23Q529 38 529 88V195Q529 249 515 262T433 280V292H668Z" />
<glyph unicode="H" glyph-name="H" horiz-adv-x="738" d="M701 648V636Q644 631 631 615T618 535V113Q618 49 631 33T703 12V0H453V12Q512 17 526 33T540 113V329H198V113Q198 49 211 33T283 12V0H39V12Q94 17 107 33T120 113V535Q120 599 107 615T39 636V648H275V636Q223
631 211 615T198 535V356H540V535Q540 599 527 615T460 636V648H701Z" />
<glyph unicode="I" glyph-name="I" horiz-adv-x="318" d="M285 0H34V12Q93 17 106 33T120 113V535Q120 599 107 615T34 636V648H285V636Q226 631 212 615T198 535V113Q198 49 212 33T285 12V0Z" />
<glyph unicode="J" glyph-name="J" horiz-adv-x="301" d="M283 648V636Q227 631 214 615T201 535V140Q201 54 185 2T121 -99Q73 -147 34 -163L27 -151Q96 -112 113 -25Q123 28 123 175V535Q123 599 110 615T40 636V648H283Z" />
<glyph unicode="K" glyph-name="K" horiz-adv-x="637" d="M639 0H494Q291 231 239 292Q214 322 198 322V121Q198 51 211 34T282 12V0H41V12Q94 17 107 34T120 121V527Q120 577 114 597T94 625T41 636V648H278V636Q223 631 211 615T198 527V336Q222 345 257 380Q396
516 441 571Q469 605 466 617T423 634L404 636V648H620V636Q568 631 543 618T463 553Q364 460 275 369Q345 285 516 96Q565 44 584 31T639 12V0Z" />
<glyph unicode="L" glyph-name="L" horiz-adv-x="509" d="M485 151L499 148Q496 137 483 78T464 0H34V12Q93 17 106 33T120 115V536Q120 602 109 616T40 636V648H277V636Q223 631 211 617T198 536V123Q198 79 202 61T219 34Q241 21 316 21Q367 21 393 27T436 53Q466
90 485 151Z" />
<glyph unicode="M" glyph-name="M" horiz-adv-x="859" d="M831 0H580V12Q639 19 651 36T662 133L658 555H654L410 2H400L170 542H168L153 257Q147 154 149 80Q150 41 166 30T235 12V0H24V12Q68 17 85 30T107 74Q115 122 126 258L141 470Q143 510 144 532T142 575T135
604T118 620T92 630T53 636V648H198L435 125L673 648H821V636Q755 628 742 611T730 519L740 133Q742 53 755 36T831 12V0Z" />
<glyph unicode="N" glyph-name="N" horiz-adv-x="711" d="M685 648V636Q642 632 626 619T607 568Q603 506 603 406V-12H587L150 529H148V256Q148 139 154 85Q158 43 175 30T244 12V0H33V12Q79 16 96 30T117 85Q123 166 123 256V486Q123 543 120 560T102 595Q83
617 68 624T16 636V648H152L576 134H578V407Q578 519 573 567Q569 606 551 619T480 636V648H685Z" />
<glyph unicode="O" glyph-name="O" horiz-adv-x="718" d="M364 662H365Q494 662 587 569T681 333Q681 179 587 83T353 -14Q218 -14 128 81T37 316Q37 406 75 484T189 612T364 662ZM345 640H344Q254 640 192 561T130 344Q130 197 198 103T375 8Q466 8 527 86T588
303Q588 461 521 550T345 640Z" />
<glyph unicode="P" glyph-name="P" horiz-adv-x="533" d="M43 648H276Q386 648 439 608Q502 560 502 468Q502 378 446 327T310 266Q287 262 271 266L198 286V110Q198 47 212 32T286 12V0H38V12Q94 17 107 33T120 112V537Q120 602 108 617T43 637V648ZM198 563V304Q224
294 267 294Q293 294 316 302T363 328T399 382T413 467Q413 548 372 589T262 630Q220 630 209 619Q198 611 198 563Z" />
<glyph unicode="Q" glyph-name="Q" horiz-adv-x="716" d="M695 -141L692 -151Q617 -155 566 -139Q490 -116 350 -14Q210 -9 124 83Q37 176 37 315Q37 459 127 560T368 662Q495 662 588 569T681 333Q681 208 617 121T454 0Q578 -88 695 -141ZM344 8L412 30Q432
16 434 14Q497 35 542 109T588 296Q588 457 521 548T345 640Q255 640 193 561T130 343Q130 209 187 118T344 8Z" />
<glyph unicode="R" glyph-name="R" horiz-adv-x="586" d="M605 4L603 -7Q586 -7 578 -6Q516 -3 480 17T412 83Q391 113 353 174T308 248Q293 273 276 283T223 293H198V113Q198 49 211 33T282 12V0H35V12Q93 17 106 33T120 113V539Q120 602 108 616T39 636V648H273Q381
648 431 613Q492 571 492 486Q492 373 361 316Q388 262 452 168Q499 100 537 55Q572 13 605 4ZM198 311H241Q315 311 350 338Q405 383 405 470Q405 549 366 589T264 629Q221 629 209 622Q198 615 198 575V311Z" />
<glyph unicode="S" glyph-name="S" horiz-adv-x="443" d="M386 512L373 509Q335 642 234 642Q179 642 150 609T120 524Q120 471 150 439T249 368Q284 349 297 341T339 312T380 274T404 229T415 169Q415 94 356 40T202 -14Q164 -14 109 1Q73 13 57 21Q52 32 44
89T33 171L46 176Q54 138 72 103T128 39T217 9Q274 9 307 44T340 137Q340 188 309 220T212 291Q210 292 193 302T169 316T146 331T121 349T100 369T79 394T65 421T54 453T50 488Q50 561 104 611T248 662Q268 662 288 660T319 655T348 647T369 641Q372 608 386 512Z"
/>
<glyph unicode="T" glyph-name="T" horiz-adv-x="585" d="M565 505L551 503Q539 556 522 590Q510 611 487 619T400 627H332V111Q332 50 347 33T427 12V0H162V12Q223 16 238 33T254 111V627H201Q129 627 103 619T66 589Q51 560 37 502H23Q31 580 35 673H45Q53 657
65 653T99 648H494Q512 648 522 653T544 673H555Q555 598 565 505Z" />
<glyph unicode="U" glyph-name="U" horiz-adv-x="702" d="M680 648V636Q634 631 618 618T598 569Q593 506 593 410V310Q593 132 522 55Q459 -12 349 -12Q256 -12 199 33Q112 100 112 266V527Q112 599 100 614T32 636V648H271V636Q216 633 203 616T190 527V291Q190
29 380 29Q428 29 463 47T518 93T549 163T564 243T568 328V411Q568 532 561 575Q557 608 541 619T473 636V648H680Z" />
<glyph unicode="V" glyph-name="V" horiz-adv-x="661" d="M653 648V636Q603 630 585 613T539 529Q429 267 328 -15H312Q206 280 109 536Q85 600 69 616T7 636V648H238V636Q189 630 179 619T180 574Q224 441 349 119H352Q455 375 513 558Q527 602 517 615T447 636V648H653Z"
/>
<glyph unicode="W" glyph-name="W" horiz-adv-x="920" d="M916 648V636Q864 628 848 611T808 525Q745 333 644 -15H628Q576 142 449 496H447Q438 467 376 275T284 -15H268Q202 211 103 531Q83 595 67 612T4 636V648H235V636Q182 629 174 615T179 555Q230 370 304
133H306Q320 179 379 361T467 639H482Q568 382 661 132H663Q741 374 779 547Q793 596 781 612T706 636V648H916Z" />
<glyph unicode="X" glyph-name="X" horiz-adv-x="618" d="M625 0H378V12Q425 18 435 27T431 65Q430 67 291 300Q207 167 162 79Q144 43 153 32T217 12V0H4V12Q47 18 69 29T113 71Q165 145 278 319Q167 502 133 557Q103 606 87 617T21 636V648H251V636Q206 631
197 622T200 595Q231 541 325 389Q387 485 430 566Q452 605 443 616T375 636V648H593V636Q539 629 518 617T463 558Q418 494 337 368Q355 340 413 245T500 105Q536 48 555 33T625 12V0Z" />
<glyph unicode="Y" glyph-name="Y" horiz-adv-x="585" d="M587 648V636Q539 630 524 619T485 572Q418 468 347 332Q329 298 329 260V114Q329 49 343 33T422 12V0H162V12Q223 17 237 33T251 114V259Q251 284 232 321Q185 415 111 547Q77 607 62 620T5 636V648H228V636Q181
629 172 618T176 586Q211 516 316 321Q411 494 444 567Q462 607 452 618T386 636V648H587Z" />
<glyph unicode="Z" glyph-name="Z" horiz-adv-x="568" d="M547 165L560 162Q557 147 526 0H30L26 10Q344 482 438 626H256Q196 626 167 622T126 609T105 581Q93 557 77 500L65 501Q74 611 76 673H88Q96 657 106 653T139 648H534L538 639Q270 243 133 28Q170 22
292 22Q400 22 438 30T498 64Q522 97 547 165Z" />
<glyph unicode="[" glyph-name="bracketleft" horiz-adv-x="304" d="M270 -163H114V703H270V691Q228 687 209 684T178 668T165 641T163 593V-54Q163 -88 164 -101T177 -127T208 -143T270 -151V-163Z" />
<glyph unicode="\" glyph-name="backslash" horiz-adv-x="312" d="M274 -44H240L42 662H76L274 -44Z" />
<glyph unicode="]" glyph-name="bracketright" horiz-adv-x="304" d="M191 -164H35V-152Q111 -144 126 -129T142 -52V593Q142 627 141 641T128 667T96 683T35 691V703H191V-164Z" />
<glyph unicode="^" glyph-name="asciicircum" horiz-adv-x="488" d="M438 246H393L243 567L91 246H50L229 623H259L438 246Z" />
<glyph unicode="_" glyph-name="underscore" horiz-adv-x="500" d="M500 -125H0V-75H500V-125Z" />
<glyph unicode="`" glyph-name="grave" horiz-adv-x="400" d="M230 492L217 487Q137 596 106 636L108 641Q113 644 134 649T162 653Q208 547 230 492Z" />
<glyph unicode="a" glyph-name="a" horiz-adv-x="407" d="M403 39L329 -12Q298 -12 280 8Q267 21 258 53Q167 -12 147 -12Q97 -12 65 23T32 102Q32 168 107 194Q228 236 257 258V283Q257 342 235 373T173 404Q146 404 130 385Q114 367 100 319Q94 297 76 297Q63
297 51 308T38 335T66 370Q92 389 134 410T210 439Q253 439 284 414Q328 375 328 290V99Q328 42 364 42Q383 42 397 53L403 39ZM257 73V238Q246 232 210 215T169 195Q139 180 125 164T110 120Q110 83 132 61T183 39Q225 39 257 73Z" />
<glyph unicode="b" glyph-name="b" horiz-adv-x="483" d="M139 393L225 430Q245 439 261 439Q339 439 395 379T451 232Q451 128 380 58T210 -12Q135 -12 67 22V599Q67 648 57 660T2 677V686Q64 692 139 721V393ZM139 376V110Q139 88 144 74Q152 52 175 32T234
12Q300 12 334 66T369 208Q369 292 326 342T215 393Q171 393 139 376Z" />
<glyph unicode="c" glyph-name="c" horiz-adv-x="394" d="M376 102L384 91Q350 46 307 17T223 -12Q137 -12 85 48T32 189Q32 307 131 384Q165 411 204 425T272 439H273Q325 439 356 412Q371 398 371 384Q371 371 362 360T344 349Q337 349 324 361Q283 400 226
400Q172 400 137 360T102 239Q102 188 118 149T158 88T208 57T255 47Q290 47 317 58T376 102Z" />
<glyph unicode="d" glyph-name="d" horiz-adv-x="499" d="M490 35V25Q400 9 347 -12V55L288 19Q236 -12 209 -12Q145 -12 89 44T32 196Q32 296 105 367T279 439Q319 439 347 429V601Q347 649 336 661T274 677V686Q348 695 419 721V103Q419 64 426 54T460 39L490
35ZM347 75V360Q314 414 245 414Q196 414 155 368T114 223Q114 138 156 89T253 40Q304 40 347 75Z" />
<glyph unicode="e" glyph-name="e" horiz-adv-x="396" d="M366 98L374 88Q336 35 293 12T221 -12Q134 -12 83 49T32 197Q32 297 96 367Q163 439 237 439H238Q296 439 336 396T377 301Q377 281 356 276Q310 267 102 260Q101 153 147 101T257 48Q313 48 366 98ZM210
413H209Q174 413 145 380T107 288Q221 288 280 290Q299 290 299 307Q300 350 277 381T210 413Z" />
<glyph unicode="f" glyph-name="f" horiz-adv-x="272" d="M50 427H95V463Q95 520 105 551Q126 623 185 672Q237 714 289 721Q334 719 359 691Q373 676 365 658Q360 647 347 638Q336 630 326 642Q289 679 242 679Q211 679 190 651Q166 617 167 486V427H282Q285
422 283 413T274 399H167V107Q167 45 179 31T250 12V0H27V12Q73 17 84 29T95 93V399H27L26 405L50 427Z" />
<glyph unicode="g" glyph-name="g" horiz-adv-x="432" d="M432 427L436 421Q418 389 393 375L335 377Q368 344 368 285Q368 208 317 166T204 123Q176 123 152 129Q143 123 134 110T124 86Q124 68 140 57T188 45Q202 45 237 45T290 46Q313 46 334 41T376 25T409
-11T422 -69Q422 -144 352 -207T185 -270Q111 -270 67 -234T20 -151Q19 -122 41 -100Q68 -72 132 -19Q105 -12 85 4T54 40Q42 60 44 80Q109 101 134 135Q94 151 68 188T42 272Q42 351 95 395T211 439H212Q257 439 302 411Q386 416 432 427ZM200 421H199Q166 421
143 388T120 293Q120 226 145 185T214 143Q248 146 270 176T293 269Q293 336 268 378T200 421ZM220 -18H219Q160 -18 138 -39Q88 -81 88 -125Q88 -168 126 -198T219 -229Q291 -229 327 -197T363 -111Q363 -51 316 -32Q282 -18 220 -18Z" />
<glyph unicode="h" glyph-name="h" horiz-adv-x="502" d="M484 0H286V12Q329 16 340 29T351 93V265Q351 392 254 392Q198 392 151 342V93Q151 43 161 30T213 12V0H16V12Q58 16 68 29T79 93V600Q79 650 70 661T15 677V686Q88 697 151 721V363Q227 439 294 439Q353
439 388 398T423 269V93Q423 42 433 29T484 12V0Z" />
<glyph unicode="i" glyph-name="i" horiz-adv-x="246" d="M125 641H126Q143 641 154 629T166 599Q166 582 154 570T125 557Q109 557 97 569T85 598Q85 616 97 628T125 641ZM234 0H27V12Q72 17 83 30T94 94V313Q94 359 85 371T36 391V402Q108 415 166 441V94Q166
43 177 30T234 12V0Z" />
<glyph unicode="j" glyph-name="j" horiz-adv-x="231" d="M121 641H122Q139 641 150 629T162 599Q162 582 150 570T121 557Q105 557 93 569T81 599Q81 617 92 629T121 641ZM30 392V402Q105 413 163 441V93Q163 5 143 -55Q120 -124 84 -178T21 -257Q8 -270 -3 -270Q-12
-270 -22 -260T-32 -235Q-32 -222 -16 -218Q46 -203 65 -172Q79 -146 85 -85Q91 -20 91 109V311Q91 359 82 372T30 392Z" />
<glyph unicode="k" glyph-name="k" horiz-adv-x="461" d="M476 0L355 -3Q284 79 199 192Q179 218 167 218Q157 218 151 216V94Q151 42 162 29T218 12V0H12V12Q57 16 68 29T79 94V597Q79 647 70 660T18 677V686Q76 693 151 721V231Q187 238 214 267Q250 305 288
360Q308 389 302 398T254 412V424L442 433V421Q391 412 373 403T323 362Q280 315 234 262Q329 134 388 71Q422 35 437 25T476 12V0Z" />
<glyph unicode="l" glyph-name="l" horiz-adv-x="230" d="M218 0H12V12Q57 17 68 30T79 94V597Q79 649 70 660T14 677V686Q103 700 151 721V94Q151 43 162 30T218 12V0Z" />
<glyph unicode="m" glyph-name="m" horiz-adv-x="773" d="M754 0H551V12Q598 17 609 30T621 101V270Q621 328 601 358T531 389Q484 389 426 343Q430 327 430 297V93Q430 43 440 30T491 12V0H289V12Q336 17 347 29T358 93V272Q358 331 338 360T267 390Q222 390
166 344V93Q166 43 175 30T224 12V0H21V12Q68 16 81 29T94 93V311Q94 358 85 370T37 391V401Q113 418 166 442V364Q215 399 233 409Q280 439 314 439Q349 439 378 418T421 359Q455 384 504 413Q546 439 575 439Q631 439 662 401T693 293V93Q693 55 697 40T712 20T754
12V0Z" />
<glyph unicode="n" glyph-name="n" horiz-adv-x="515" d="M494 0H294V12Q341 17 352 31T364 105V273Q364 390 273 390Q222 390 166 340V94Q166 43 176 30T229 12V0H21V12Q70 17 82 30T94 95V312Q94 358 86 369T37 391V401Q109 415 166 442V361Q204 390 236 410Q283
439 313 439Q371 439 403 401T436 293V95Q436 43 445 30T494 12V0Z" />
<glyph unicode="o" glyph-name="o" horiz-adv-x="484" d="M243 439H244Q334 439 393 376T452 221Q452 112 388 50T243 -12Q148 -12 90 53T32 205Q32 262 52 308T105 382T173 424T243 439ZM233 419H232Q181 419 150 370T118 238Q118 137 154 73T254 8Q366 8 366
202Q366 293 332 356T233 419Z" />
<glyph unicode="p" glyph-name="p" horiz-adv-x="494" d="M156 371L245 422Q275 439 292 439Q370 439 416 385T462 257Q462 153 392 81T220 -12Q179 -10 156 5V-141Q156 -207 168 -222T236 -242V-254H14V-242Q60 -237 72 -224T84 -160V318Q84 366 75 377T22 396V406Q87
418 156 449V371ZM156 349V66Q190 29 252 29Q312 29 349 80T387 218Q387 296 349 343T252 390Q211 390 156 349Z" />
<glyph unicode="q" glyph-name="q" horiz-adv-x="483" d="M491 -254H268V-242Q321 -238 332 -224T344 -150V31L239 -12Q143 -12 89 51T34 194Q34 293 112 366T287 439Q333 438 360 425Q375 419 383 421Q400 424 416 432L419 429Q416 366 416 324V-152Q416 -210
427 -222T491 -242V-254ZM344 51V367Q328 385 300 396T247 408Q188 408 152 360T115 226Q115 141 162 88T275 35Q319 35 344 51Z" />
<glyph unicode="r" glyph-name="r" horiz-adv-x="342" d="M167 333H169Q191 374 222 406T285 439Q307 439 322 425T337 393Q337 369 308 352Q292 345 284 353Q262 375 241 375Q204 375 167 297V94Q167 42 179 29T247 12V0H30V12Q73 17 84 30T95 94V313Q95 362
86 374T35 392V401Q100 411 167 442V333Z" />
<glyph unicode="s" glyph-name="s" horiz-adv-x="336" d="M295 323L285 320Q270 363 243 390T177 418Q147 418 129 398T110 347Q110 289 193 253Q253 228 282 197T312 122Q312 60 266 24T157 -12Q94 -12 52 17Q47 26 42 65T35 130L46 134Q60 82 95 46T174 9Q205
9 225 28T246 83Q246 143 165 180Q131 196 110 210T69 251T49 313Q49 366 89 402T193 439Q239 439 277 423Q290 381 295 323Z" />
<glyph unicode="t" glyph-name="t" horiz-adv-x="282" d="M279 36L206 -2Q187 -12 176 -12Q82 -12 82 104V399H17L15 406L40 427H82V507L144 569L154 567V427H264Q277 410 259 399H154V133Q154 34 214 34Q243 34 273 49L279 36Z" />
<glyph unicode="u" glyph-name="u" horiz-adv-x="500" d="M489 35V23Q466 21 419 7Q405 4 355 -12L349 -6V69Q311 37 276 14Q234 -12 201 -12Q148 -12 116 22T83 127V340Q83 375 77 385T49 401L26 407V417Q36 418 59 420T91 423Q131 428 158 434Q155 400 155 296V156Q155
41 240 41Q303 41 349 91V339Q349 374 341 385T307 401L276 407V417Q283 417 355 423Q391 427 421 434V96Q421 61 429 51T465 37L489 35Z" />
<glyph unicode="v" glyph-name="v" horiz-adv-x="431" d="M449 427V415Q413 410 400 397T364 334Q287 158 225 -12H210Q165 113 74 340Q56 386 45 397T-6 415V427H185V415Q147 409 141 398T147 355Q188 239 244 96Q296 223 335 346Q347 385 338 398T285 415V427H449Z" />
<glyph unicode="w" glyph-name="w" horiz-adv-x="645" d="M657 427V415Q622 410 610 397T583 343Q564 293 463 -12H447Q431 34 412 84T365 201T324 303Q229 50 208 -12H192Q152 120 74 351Q61 390 50 400T5 415V427H200V415Q153 408 145 398T148 353Q179 250 229
108H231Q307 319 343 422H357Q399 303 479 102H481Q536 285 551 347Q560 385 550 396T491 415V427H657Z" />
<glyph unicode="x" glyph-name="x" horiz-adv-x="442" d="M451 0H249V12Q283 16 291 24T286 53L204 186Q164 124 135 69Q119 40 126 29T176 12V0H0V12Q45 18 62 29T111 83Q140 120 192 204L106 343Q80 386 64 398T10 415V427H201V415Q165 410 160 401T169 371L236
265Q267 310 300 370Q313 396 306 403T259 415V427H429V415Q385 409 368 400T324 357Q287 308 247 247L348 88Q376 43 392 31T451 12V0Z" />
<glyph unicode="y" glyph-name="y" horiz-adv-x="426" d="M445 427V415Q407 408 394 397T360 342Q347 314 309 215T234 27Q148 -183 132 -246Q126 -270 104 -270Q87 -270 72 -257T57 -228Q57 -213 83 -194Q122 -169 161 -93Q184 -47 196 -15Q201 0 192 26Q154
141 80 333Q62 382 49 395T-3 415V427H187V415Q151 409 145 399T150 355L243 99Q286 207 333 354Q344 385 334 397T279 415V427H445Z" />
<glyph unicode="z" glyph-name="z" horiz-adv-x="387" d="M367 126L380 119Q376 108 368 84T353 39T338 0H27L22 9Q158 221 265 406H188Q127 406 105 392T59 333L45 306L33 311Q50 376 65 447H76Q84 426 130 427H352L357 418Q188 142 118 20H220Q275 20 299 36T353
103L367 126Z" />
<glyph unicode="{" glyph-name="braceleft" horiz-adv-x="304" d="M269 -157V-169Q134 -169 134 -38Q134 -6 137 63T140 170Q140 189 138 200T129 227T102 252T53 263V276Q83 278 102 287T128 311T138 338T140 369Q140 406 137 473T134 571Q134 615 146 644T181
687T223 704T269 709V696Q218 689 201 663T184 594Q184 559 190 490T196 387Q196 289 115 271V267Q196 249 196 151Q196 118 190 51T184 -49Q184 -70 187 -85T198 -117T224 -143T269 -157Z" />
<glyph unicode="|" glyph-name="bar" horiz-adv-x="249" d="M149 -250H100V750H149V-250Z" />
<glyph unicode="}" glyph-name="braceright" horiz-adv-x="304" d="M252 276V263Q222 261 203 252T177 227T167 199T165 166Q165 133 168 65T171 -39Q171 -112 130 -140T35 -169V-157Q121 -144 121 -55Q121 -22 116 46T110 150Q110 247 191 268V272Q110 291 110
388Q110 422 115 492T121 596Q121 638 103 663T35 696V709Q171 709 171 577Q171 544 168 476T165 373Q165 353 167 341T176 313T203 287T252 276Z" />
<glyph unicode="~" glyph-name="asciitilde" horiz-adv-x="516" d="M443 269L473 258Q454 144 362 144Q316 144 249 189Q192 232 153 232Q122 232 104 210T73 137L44 153Q68 270 155 270Q203 270 265 227Q330 182 368 182Q399 182 416 203T443 269Z" />
</font>
</defs>
</svg>
